<svg id="Layer_1" data-name="Layer 1" xmlns="http://www.w3.org/2000/svg" viewBox="0 0 226.77 226.77"><defs><style>.cls-1,.cls-5{fill:none;stroke:#231f20;stroke-miterlimit:10;}.cls-1{stroke-width:2px;}.cls-2,.cls-3{fill:#231f20;}.cls-3{font-size:20px;}.cls-3,.cls-4{font-family:CMUSerif-Roman, CMU Serif;}.cls-4{font-size:14px;fill:#00a5b6;}</style></defs><line class="cls-1" x1="36.89" y1="187.05" x2="36.89" y2="21.2"/><polygon class="cls-2" points="40.59 24.01 36.89 22.43 33.18 24.01 36.89 15.23 40.59 24.01"/><line class="cls-1" x1="36.97" y1="187.05" x2="202.83" y2="187.05"/><polygon class="cls-2" points="200.02 190.76 201.59 187.05 200.02 183.35 208.8 187.05 200.02 190.76"/><text class="cls-3" transform="translate(116.47 206.6)">V</text><text class="cls-3" transform="translate(131.47 213.26) scale(0.58)">2</text><text class="cls-3" transform="translate(23.77 110.87) rotate(-90)">V</text><text class="cls-3" transform="translate(30.43 95.87) rotate(-90) scale(0.58)">4</text><text class="cls-4" transform="translate(61.45 161.09)">(0)</text><text class="cls-4" transform="translate(138.95 88.55)">(3)</text><text class="cls-4" transform="translate(164.73 64.55)">(4)</text><line class="cls-5" x1="126.25" y1="187.69" x2="36.25" y2="97.69"/><line class="cls-5" x1="173.66" y1="185.28" x2="38.66" y2="50.28"/><line class="cls-5" x1="207.57" y1="169.37" x2="54.57" y2="16.37"/><text class="cls-4" transform="translate(87.95 135.55)">(1)</text><text class="cls-4" transform="translate(113.95 112.25)">(2)</text><line class="cls-5" x1="202.46" y1="114.45" x2="112.78" y2="24.77"/><line class="cls-5" x1="207.89" y1="70.05" x2="162.89" y2="25.05"/></svg>