<svg id="Layer_1" data-name="Layer 1" xmlns="http://www.w3.org/2000/svg" viewBox="0 0 226.77 226.77"><defs><style>.cls-1,.cls-5,.cls-6,.cls-7{fill:none;stroke-miterlimit:10;}.cls-1,.cls-6{stroke:#231f20;}.cls-1{stroke-width:2px;}.cls-2,.cls-3{fill:#231f20;}.cls-3{font-size:16px;}.cls-3,.cls-4,.cls-9{font-family:CMUSerif-Roman, CMU Serif;}.cls-4,.cls-9{font-size:14px;}.cls-4{fill:#00a5b6;}.cls-5{stroke:#00a4de;stroke-dasharray:2;}.cls-7{stroke:#c8582d;}.cls-8,.cls-9{fill:#c8582d;}</style></defs><line class="cls-1" x1="35.44" y1="184.03" x2="35.44" y2="18.17"/><polygon class="cls-2" points="39.14 20.98 35.44 19.41 31.73 20.98 35.44 12.2 39.14 20.98"/><line class="cls-1" x1="35.44" y1="184.03" x2="201.29" y2="184.03"/><polygon class="cls-2" points="198.48 187.73 200.06 184.03 198.48 180.32 207.26 184.03 198.48 187.73"/><text class="cls-3" transform="translate(117.1 200.8)">V</text><text class="cls-3" transform="translate(129.1 206.12) scale(0.58)">2</text><text class="cls-3" transform="translate(19.54 105.76) rotate(-90)">V</text><text class="cls-3" transform="translate(24.87 93.76) rotate(-90) scale(0.58)">4</text><text class="cls-4" transform="translate(48.56 160.18)">(0, 0)</text><text class="cls-4" transform="translate(108.73 162.42)">(1, 0)</text><text class="cls-4" transform="translate(165.37 164.18)">(2, 0)</text><text class="cls-4" transform="translate(165.37 118.94)">(2, 1)</text><text class="cls-4" transform="translate(106.73 110.23)">(1, 1)</text><text class="cls-4" transform="translate(48.56 106.61)">(0, 1)</text><text class="cls-4" transform="translate(166.55 65.36)">(2, 2)</text><text class="cls-4" transform="translate(107.74 58.94)">(1, 2)</text><text class="cls-4" transform="translate(48.56 54.93)">(0, 2)</text><line class="cls-5" x1="87.44" y1="132.03" x2="95.17" y2="122.41"/><path class="cls-6" d="M206.19,93.62l-30-10.11c-8.87-3-17.62-12.94-19.45-22.11l-5.67-28.32"/><line class="cls-5" x1="149.17" y1="140.06" x2="158.68" y2="133.03"/><line class="cls-5" x1="86.17" y1="77.41" x2="96.44" y2="69.39"/><line class="cls-5" x1="148.85" y1="86.99" x2="160.09" y2="78.68"/><path class="cls-5" d="M203.25,145.94l-45.17-13.21s0,0,0,0L148.85,87s0,0,0,0l-53-17.65a0,0,0,0,1,0,0l-8.57-45"/><path class="cls-5" d="M206.19,94.11,160.1,78.58h0l-9-45"/><path class="cls-5" d="M159.21,185l-9-44h0l-54-17.65h0l-9-45a0,0,0,0,0,0,0L36.44,61.58"/><path class="cls-5" d="M35.29,114.55,87.82,132l0,0,11.24,51.15"/><line class="cls-7" x1="81.81" y1="118.65" x2="99.92" y2="134.76"/><polygon class="cls-8" points="97.19 135.3 99.37 134.27 100.14 131.98 102.6 137.14 97.19 135.3"/><text class="cls-9" transform="translate(103.7 141.4)">ξ</text><path class="cls-6" d="M203.85,146l-29-8.5c-9-2.63-17.85-12.28-19.73-21.45l-2.52-12.35c-1.88-9.17-10.67-19.08-19.55-22l-21-7c-8.88-3-17.6-12.88-19.37-22.07L87.22,24.35"/><path class="cls-6" d="M159.21,185l-5.62-27.31c-1.88-9.16-10.7-19-19.59-21.95l-21.67-7.08c-8.89-2.9-17.66-12.79-19.5-22L90.5,95.09C88.67,85.91,79.9,76,71,73.05L36.44,61.58"/><path class="cls-6" d="M34.88,114.58l37,12.29c8.88,2.95,17.76,12.84,19.75,22l7.67,35.34"/></svg>
