<svg id="Layer_1" data-name="Layer 1" xmlns="http://www.w3.org/2000/svg" xmlns:xlink="http://www.w3.org/1999/xlink" viewBox="0 0 246.61 172.91"><defs><style>.cls-1,.cls-3,.cls-4,.cls-8{fill:none;}.cls-2{fill:#197fb0;}.cls-10,.cls-2,.cls-3,.cls-4,.cls-8{stroke:#231f20;stroke-miterlimit:10;}.cls-4{stroke-width:3px;}.cls-5,.cls-6,.cls-7{font-size:17px;font-family:CMUSerif-Roman, CMU Serif;}.cls-5,.cls-6,.cls-7,.cls-9{fill:#231f20;}.cls-6{letter-spacing:0em;}.cls-7{letter-spacing:0em;}.cls-8{stroke-width:2px;}.cls-10{fill:#d1d3d4;}.cls-11{isolation:isolate;}.cls-12{clip-path:url(#clip-path);}.cls-13{fill:#007986;}.cls-14{fill:#007783;}.cls-15{fill:#007480;}.cls-16{fill:#00717d;}.cls-17{fill:#006f7a;}.cls-18{fill:#006c77;}.cls-19{fill:#006a74;}.cls-20{fill:#006771;}.cls-21{fill:#007c88;}.cls-22{fill:#007f8b;}.cls-23{fill:#00818e;}.cls-24{fill:#008491;}.cls-25{fill:#008794;}.cls-26{fill:#008997;}.cls-27{fill:#008c99;}.cls-28{fill:#008e9c;}.cls-29{fill:#00919f;}.cls-30{fill:#0093a2;}.cls-31{fill:#0095a4;}.cls-32{fill:#0098a7;}.cls-33{fill:#009aaa;}.cls-34{fill:#009dac;}.cls-35{fill:#009faf;}.cls-36{fill:#00a2b2;}.cls-37{fill:#00a5b5;}.cls-38{fill:#00acbc;}.cls-39{fill:#00b0bf;}.cls-40{fill:#1ab2c1;}.cls-41{fill:#31b4c3;}.cls-42{fill:#3fb7c5;}.cls-43{fill:#49b8c7;}.cls-44{fill:#52bac8;}.cls-45{fill:#59bcc9;}.cls-46{fill:#5fbdcb;}.cls-47{fill:#65bfcc;}.cls-48{fill:#6ac0cd;}.cls-49{fill:#6fc2ce;}.cls-50{fill:#73c3cf;}.cls-51{fill:#78c4d0;}.cls-52{fill:#7cc6d1;}.cls-53{fill:#80c7d2;}.cls-54{fill:#83c8d3;}.cls-55{fill:#87c9d4;}.cls-56{fill:#8acbd5;}.cls-57{clip-path:url(#clip-path-2);}</style><clipPath id="clip-path"><path class="cls-1" d="M73.9,70.81a3.49,3.49,0,0,0,2.21.4,3.49,3.49,0,0,1-2.21-.4,4.43,4.43,0,0,1-1.8-1.9,4.48,4.48,0,0,1-.42-2.79,4.56,4.56,0,0,1,1.17-2.32,4.5,4.5,0,1,1,1.05,7Z"/></clipPath><clipPath id="clip-path-2"><path class="cls-1" d="M76.72,71.35a4.53,4.53,0,0,1-2.82-.54,3.79,3.79,0,0,1-1.82-3.38,5,5,0,0,1,4-4.86,5,5,0,0,0-4,4.86,3.79,3.79,0,0,0,1.82,3.38,4.72,4.72,0,0,1-1.11-.9,4,4,0,0,1-.67-1,4.38,4.38,0,0,1-.44-2.79,4.49,4.49,0,0,1,8-2,4.49,4.49,0,0,1-3,7.22Z"/></clipPath></defs><rect class="cls-2" x="33.41" y="72.96" width="54" height="72"/><rect class="cls-2" x="159.41" y="81" width="53.79" height="72"/><line class="cls-3" x1="87.41" y1="0.96" x2="87.41" y2="81.96"/><line class="cls-3" x1="159.41" y1="9" x2="159.41" y2="81"/><line class="cls-3" x1="150.41" y1="9" x2="159.41" y2="9"/><line class="cls-3" x1="96.41" y1="0.96" x2="96.41" y2="171.96"/><line class="cls-3" x1="150.41" y1="9" x2="150.41" y2="171.96"/><line class="cls-3" x1="96.41" y1="72.96" x2="150.41" y2="72.96"/><line class="cls-3" x1="96.41" y1="108.96" x2="150.41" y2="108.96"/><line class="cls-4" x1="33.2" y1="72.96" x2="87.41" y2="72.96"/><line class="cls-4" x1="159.41" y1="81" x2="213.2" y2="81"/><text class="cls-5" transform="translate(42.2 63.09)">ε</text><text class="cls-5" transform="translate(49.51 68.75) scale(0.58)">S</text><text class="cls-5" transform="translate(55.01 63.09)"> </text><text class="cls-5" transform="translate(191.2 71.13)">ε</text><text class="cls-6" transform="translate(198.51 76.79) scale(0.58)">D</text><text class="cls-7" transform="translate(206.07 71.13)"> </text><text class="cls-5" transform="translate(114.41 63.96)">ε</text><text class="cls-5" transform="translate(121.72 69.62) scale(0.58)">N+1</text><text class="cls-5" transform="translate(114.41 99.96)">ε</text><text class="cls-5" transform="translate(121.72 105.62) scale(0.58)">N</text><text class="cls-5" transform="translate(129.16 99.96)"> </text><path class="cls-8" d="M78.41,61c11.2-14,22.2-15.47,30.7-6.27"/><polygon class="cls-9" points="104.37 54.85 108.25 53.8 110.19 50.27 112.71 59.46 104.37 54.85"/><line class="cls-3" x1="87.41" y1="0.96" x2="96.41" y2="0.96"/><rect class="cls-10" x="96.2" y="108.96" width="54" height="63"/><g class="cls-11"><g class="cls-11"><g class="cls-12"><g class="cls-11"><path class="cls-13" d="M73.9,70.81A4.5,4.5,0,1,0,72,65a4.5,4.5,0,0,0,1.88,5.77,3.49,3.49,0,0,0,2.21.4,3.49,3.49,0,0,1-2.21-.4"/><path class="cls-13" d="M76.11,71.21c-4.09.11-5.46-4.34-3.49-6.22s6.07.29,5.92,3.38a3,3,0,0,1-2.43,2.84,3.49,3.49,0,0,1-2.21-.4l.23.12.35.15.19.07.22.07.15,0,.17,0,.12,0,.13,0,.12,0h1l.12,0,.15,0a5.11,5.11,0,0,0,.91-.25L78,71a3.89,3.89,0,0,0,.5-.28l.25-.17.36-.29.24-.23a4,4,0,0,0,.27-.31l.21-.27.21-.34.15-.31a3.88,3.88,0,0,0,.15-.36l.11-.33c0-.12.06-.27.09-.39l0-.35c0-.14,0-.32,0-.45v-.37c0-.12,0-.27,0-.39l-.08-.35c0-.11-.07-.26-.11-.37l-.12-.33-.17-.34-.18-.3c-.07-.1-.15-.22-.23-.32l-.21-.25c-.09-.09-.2-.21-.29-.29l-.24-.21a4.11,4.11,0,0,0-.59-.4l-.23-.13-.35-.15-.19-.07-.22-.07-.16,0-.16,0-.13,0-.12,0-.12,0H75.52l-.15,0a4.38,4.38,0,0,0-1,.28l-.23.1a4.5,4.5,0,0,0-.5.28l-.25.17-.35.29-.23.23a3.82,3.82,0,0,0-.27.32l-.2.27c-.07.1-.15.24-.21.34L72,65c0,.11-.11.25-.15.36l-.1.34c0,.12-.07.27-.09.38l0,.36c0,.12,0,.28,0,.4v.37c0,.19.06.45.1.64l.09.34.13.37.15.31a3.72,3.72,0,0,0,.19.34l.19.28.24.31.23.24a4.12,4.12,0,0,0,.31.28l.24.19.4.26a3.49,3.49,0,0,0,2.21.4"/><path class="cls-14" d="M74.6,71.11c-3.5-1.3-3.79-5.53-1.21-6.75s6.16,2,5.15,4.89a3,3,0,0,1-3.94,1.86,4.34,4.34,0,0,1-.7-.3l.23.12.35.15.19.07.22.07.15,0,.17,0,.12,0,.13,0,.12,0h1l.12,0,.15,0a5.11,5.11,0,0,0,.91-.25L78,71a3.89,3.89,0,0,0,.5-.28l.25-.17.36-.29.24-.23a4,4,0,0,0,.27-.31l.21-.27.21-.34.15-.31a3.88,3.88,0,0,0,.15-.36l.11-.33c0-.12.06-.27.09-.39l0-.35c0-.14,0-.32,0-.45v-.37c0-.12,0-.27,0-.39l-.08-.35c0-.11-.07-.26-.11-.37l-.12-.33-.17-.34-.18-.3c-.07-.1-.15-.22-.23-.32l-.21-.25c-.09-.09-.2-.21-.29-.29l-.24-.21a4.11,4.11,0,0,0-.59-.4l-.23-.13-.35-.15-.19-.07-.22-.07-.16,0-.16,0-.13,0-.12,0-.12,0H75.52l-.15,0a4.38,4.38,0,0,0-1,.28l-.23.1a4.5,4.5,0,0,0-.5.28l-.25.17-.35.29-.23.23a3.82,3.82,0,0,0-.27.32l-.2.27c-.07.1-.15.24-.21.34L72,65c0,.11-.11.25-.15.36l-.1.34c0,.12-.07.27-.09.38l0,.36c0,.12,0,.28,0,.4v.37c0,.19.06.45.1.64l.09.34.13.37.15.31a3.72,3.72,0,0,0,.19.34l.19.28.24.31.23.24a4.12,4.12,0,0,0,.31.28l.24.19.4.26a4.34,4.34,0,0,0,.7.3"/><path class="cls-15" d="M71.8,68.18c-.87-3.13,2-5.3,4.88-3.69s2.93,5.91,0,6.72A3.63,3.63,0,0,1,74,70.85l-.08,0,.23.12.35.15.19.07.22.07.15,0,.17,0,.12,0,.13,0,.12,0h1l.12,0,.15,0a5.11,5.11,0,0,0,.91-.25L78,71a3.89,3.89,0,0,0,.5-.28l.25-.17.36-.29.24-.23a4,4,0,0,0,.27-.31l.21-.27.21-.34.15-.31a3.88,3.88,0,0,0,.15-.36l.11-.33c0-.12.06-.27.09-.39l0-.35c0-.14,0-.32,0-.45v-.37c0-.12,0-.27,0-.39l-.08-.35c0-.11-.07-.26-.11-.37l-.12-.33-.17-.34-.18-.3c-.07-.1-.15-.22-.23-.32l-.21-.25c-.09-.09-.2-.21-.29-.29l-.24-.21a4.11,4.11,0,0,0-.59-.4l-.23-.13-.35-.15-.19-.07-.22-.07-.16,0-.16,0-.13,0-.12,0-.12,0H75.52l-.15,0a4.38,4.38,0,0,0-1,.28l-.23.1a4.5,4.5,0,0,0-.5.28l-.25.17-.35.29-.23.23a3.82,3.82,0,0,0-.27.32l-.2.27c-.07.1-.15.24-.21.34L72,65c0,.11-.11.25-.15.36l-.1.34c0,.12-.07.27-.09.38l0,.36c0,.12,0,.28,0,.4v.37c0,.19.06.45.1.64l.09.34.1.28-.11-.32h0"/><path class="cls-15" d="M74,70.85l-.27-.16.19.12.08,0"/><path class="cls-16" d="M71.67,67.59c-.42-3.58,3.24-4.86,5.73-2.83,2.67,2.17,1.93,6.3-1.19,6.58a3.69,3.69,0,0,1-1.61-.21l.19.06.1,0,.15,0,.17,0,.12,0,.13,0,.12,0h1l.12,0,.15,0a5.11,5.11,0,0,0,.91-.25L78,71a3.89,3.89,0,0,0,.5-.28l.25-.17.36-.29.24-.23a4,4,0,0,0,.27-.31l.21-.27.21-.34.15-.31a3.88,3.88,0,0,0,.15-.36l.11-.33c0-.12.06-.27.09-.39l0-.35c0-.14,0-.32,0-.45v-.37c0-.12,0-.27,0-.39l-.08-.35c0-.11-.07-.26-.11-.37l-.12-.33-.17-.34-.18-.3c-.07-.1-.15-.22-.23-.32l-.21-.25c-.09-.09-.2-.21-.29-.29l-.24-.21a4.11,4.11,0,0,0-.59-.4l-.23-.13-.35-.15-.19-.07-.22-.07-.16,0-.16,0-.13,0-.12,0-.12,0H75.52l-.15,0a4.38,4.38,0,0,0-1,.28l-.23.1a4.5,4.5,0,0,0-.5.28l-.25.17-.35.29-.23.23a3.82,3.82,0,0,0-.27.32l-.2.27c-.07.1-.15.24-.21.34L72,65c0,.11-.11.25-.15.36l-.1.34c0,.12-.07.27-.09.38l0,.36c0,.12,0,.28,0,.4v.37c0,.12,0,.29.05.41v-.07"/><path class="cls-17" d="M71.62,66.88C71.8,63.05,76,62.83,78,65c2.41,2.61,1.13,6.48-2.11,6.36a3.67,3.67,0,0,1-.56-.06l.13,0h0l.12,0h1l.12,0,.15,0a5.11,5.11,0,0,0,.91-.25L78,71a3.89,3.89,0,0,0,.5-.28l.25-.17.36-.29.24-.23a4,4,0,0,0,.27-.31l.21-.27.21-.34.15-.31a3.88,3.88,0,0,0,.15-.36l.11-.33c0-.12.06-.27.09-.39l0-.35c0-.14,0-.32,0-.45v-.37c0-.12,0-.27,0-.39l-.08-.35c0-.11-.07-.26-.11-.37l-.12-.33-.17-.34-.18-.3c-.07-.1-.15-.22-.23-.32l-.21-.25c-.09-.09-.2-.21-.29-.29l-.24-.21a4.11,4.11,0,0,0-.59-.4l-.23-.13-.35-.15-.19-.07-.22-.07-.16,0-.16,0-.13,0-.12,0-.12,0H75.52l-.15,0a4.38,4.38,0,0,0-1,.28l-.23.1a4.5,4.5,0,0,0-.5.28l-.25.17-.35.29-.23.23a3.82,3.82,0,0,0-.27.32l-.2.27c-.07.1-.15.24-.21.34L72,65c0,.11-.11.25-.15.36l-.1.34c0,.12-.07.27-.09.38l0,.36c0,.12,0,.28,0,.4h0"/><path class="cls-18" d="M71.72,66c1.08-3.85,5.7-2.85,7.15,0s-.06,5.53-2.87,5.48h.6l.12,0,.15,0a5.11,5.11,0,0,0,.91-.25L78,71a3.89,3.89,0,0,0,.5-.28l.25-.17.36-.29.24-.23a4,4,0,0,0,.27-.31l.21-.27.21-.34.15-.31a3.88,3.88,0,0,0,.15-.36l.11-.33c0-.12.06-.27.09-.39l0-.35c0-.14,0-.32,0-.45v-.37c0-.12,0-.27,0-.39l-.08-.35c0-.11-.07-.26-.11-.37l-.12-.33-.17-.34-.18-.3c-.07-.1-.15-.22-.23-.32l-.21-.25c-.09-.09-.2-.21-.29-.29l-.24-.21a4.11,4.11,0,0,0-.59-.4l-.23-.13-.35-.15-.19-.07-.22-.07-.16,0-.16,0-.13,0-.12,0-.12,0H75.52l-.15,0a4.38,4.38,0,0,0-1,.28l-.23.1a4.5,4.5,0,0,0-.5.28l-.25.17-.35.29-.23.23a3.82,3.82,0,0,0-.27.32l-.2.27c-.07.1-.15.24-.21.34L72,65c0,.11-.11.25-.15.36l-.1.34c0,.12-.07.27-.09.38a.43.43,0,0,1,0,.12c0-.08,0-.2.06-.28"/><path class="cls-19" d="M71.84,65.5c1.32-3.49,5.81-2.69,7.33.48,1.16,2.4,0,5-2.43,5.37l.15,0a5.84,5.84,0,0,0,.89-.25L78,71a3.89,3.89,0,0,0,.5-.28l.25-.17.36-.29.24-.23a4,4,0,0,0,.27-.31l.21-.27.21-.34.15-.31a3.88,3.88,0,0,0,.15-.36l.11-.33c0-.12.06-.27.09-.39l0-.35c0-.14,0-.32,0-.45v-.37c0-.12,0-.27,0-.39l-.08-.35c0-.11-.07-.26-.11-.37l-.12-.33-.17-.34-.18-.3c-.07-.1-.15-.22-.23-.32l-.21-.25c-.09-.09-.2-.21-.29-.29l-.24-.21a4.11,4.11,0,0,0-.59-.4l-.23-.13-.35-.15-.19-.07-.22-.07-.16,0-.16,0-.13,0-.12,0-.12,0H75.52l-.15,0a4.38,4.38,0,0,0-1,.28l-.23.1a4.5,4.5,0,0,0-.5.28l-.25.17-.35.29-.23.23a3.82,3.82,0,0,0-.27.32l-.2.27c-.07.1-.15.24-.21.34L72,65c0,.11-.11.25-.15.36a.88.88,0,0,1-.05.15l0,0"/><path class="cls-20" d="M72.34,64.45c2.13-3,6.82-1,7.42,2.46a3.53,3.53,0,0,1-2.31,4.28l.17-.06.16,0L78,71a3.89,3.89,0,0,0,.5-.28l.25-.17.36-.29.24-.23a4,4,0,0,0,.27-.31l.21-.27.21-.34.15-.31a3.88,3.88,0,0,0,.15-.36l.11-.33c0-.12.06-.27.09-.39l0-.35c0-.14,0-.32,0-.45v-.37c0-.12,0-.27,0-.39l-.08-.35c0-.11-.07-.26-.11-.37l-.12-.33-.17-.34-.18-.3c-.07-.1-.15-.22-.23-.32l-.21-.25c-.09-.09-.2-.21-.29-.29l-.24-.21a4.11,4.11,0,0,0-.59-.4l-.23-.13-.35-.15-.19-.07-.22-.07-.16,0-.16,0-.13,0-.12,0-.12,0H75.52l-.15,0a4.38,4.38,0,0,0-1,.28l-.23.1a4.5,4.5,0,0,0-.5.28l-.25.17-.35.29-.23.23a3.82,3.82,0,0,0-.27.32l-.2.27c-.07.1-.15.24-.21.34l.12-.2a.22.22,0,0,0,0-.08"/><path class="cls-21" d="M74.88,71.11c2.82.56,4.53-2.46,2.81-5s-5.47-2.16-5.91.68a4,4,0,0,0,3.1,4.29"/><path class="cls-22" d="M74.47,71c2.93.91,4.62-2,3.29-4.38-1.61-2.88-5.21-2.52-5.85-.08A3.81,3.81,0,0,0,74.47,71"/><path class="cls-23" d="M73.9,70.68a2.75,2.75,0,0,0,4-3.24c-.9-3.1-4.59-3.56-5.75-1.38a3.56,3.56,0,0,0,1.72,4.62"/><path class="cls-24" d="M73.73,70.53a2.67,2.67,0,0,0,4-3.11c-.73-2.71-4.49-3.47-5.6-1.14a3.44,3.44,0,0,0,1.56,4.25"/><path class="cls-25" d="M73.46,70.3c2.16,1.47,4.58.06,4.25-2.48S74,64,72.49,66a3.18,3.18,0,0,0,1,4.34"/><path class="cls-26" d="M73.43,70.21a2.52,2.52,0,0,0,4.14-2.41c-.45-2.69-3.94-3.41-5.09-1.63a3.06,3.06,0,0,0,1,4"/><path class="cls-27" d="M73.46,70.16a2.43,2.43,0,0,0,4-2.37c-.51-2.67-3.8-3.23-4.94-1.4a2.91,2.91,0,0,0,1,3.77"/><path class="cls-28" d="M73.2,69.85a2.36,2.36,0,0,0,4.13-1.67,2.72,2.72,0,0,0-4.45-2.06,2.62,2.62,0,0,0,.32,3.73"/><path class="cls-29" d="M73.25,69.79a2.3,2.3,0,0,0,3.94-2c-.26-2.1-3.24-3-4.43-1.29a2.53,2.53,0,0,0,.49,3.31"/><path class="cls-30" d="M73.33,69.74a2.24,2.24,0,0,0,3.77-2,2.44,2.44,0,0,0-4.2-1.23,2.39,2.39,0,0,0,.43,3.21"/><path class="cls-31" d="M73.13,69.39A2.16,2.16,0,0,0,77,68.16a2.3,2.3,0,0,0-3.71-1.82,2.14,2.14,0,0,0-.17,3"/><path class="cls-32" d="M73.24,69.34a2.08,2.08,0,0,0,3.68-1.19,2.14,2.14,0,0,0-3.56-1.69,2,2,0,0,0-.12,2.88"/><path class="cls-33" d="M73.36,69.28a2,2,0,0,0,3.46-1.14,2,2,0,0,0-3.45-1.5,1.94,1.94,0,0,0,0,2.64"/><path class="cls-34" d="M73.51,69.23a1.87,1.87,0,1,0,.1-2.65,1.81,1.81,0,0,0-.1,2.65"/><path class="cls-35" d="M73.4,68.85a1.82,1.82,0,0,0,1.7.8,1.77,1.77,0,0,0,1.56-1.51,1.81,1.81,0,0,0-2.78-1.66,1.75,1.75,0,0,0-.48,2.37"/><path class="cls-36" d="M73.56,68.81a1.63,1.63,0,1,0,.33-2.22,1.61,1.61,0,0,0-.33,2.22"/><path class="cls-37" d="M73.68,68.77a1.6,1.6,0,0,0,2.85-.64A1.63,1.63,0,0,0,74,66.63a1.5,1.5,0,0,0-.31,2.14"/><path class="cls-38" d="M73.81,68.74a1.5,1.5,0,0,0,2.65-.61,1.54,1.54,0,0,0-2.28-1.52,1.42,1.42,0,0,0-.37,2.13"/><path class="cls-39" d="M73.83,68.55a1.44,1.44,0,0,0,1.54.65,1.36,1.36,0,0,0,.34-2.51,1.53,1.53,0,0,0-1.33-.11c-.62.36-.65.47-.79,1a1.25,1.25,0,0,0,.24,1"/><path class="cls-40" d="M74,68.69a1.59,1.59,0,0,0,1.32.43c.54-.22.55-.22.82-.61a1.15,1.15,0,0,0,.17-.78,1.44,1.44,0,0,0-.44-.82c-.23-.22-.23-.22-.85-.38-.39-.11-1.07.37-1.18.55A1.3,1.3,0,0,0,74,68.69"/><path class="cls-41" d="M73.87,68.32a1.4,1.4,0,0,0,1.47.73,1.37,1.37,0,0,0,.92-.92,1.32,1.32,0,0,0-.44-1.22,1.93,1.93,0,0,0-.77-.33,1.17,1.17,0,0,0-.58.1,1.51,1.51,0,0,0-.49.38s-.23.46-.23.46a1.36,1.36,0,0,0,.12.8"/><path class="cls-42" d="M73.94,68.31a1.4,1.4,0,0,0,1.38.67l.43-.19a1.22,1.22,0,0,0,.44-.67,1.17,1.17,0,0,0-.45-1.21,2,2,0,0,0-.69-.27,1.16,1.16,0,0,0-1.22.86,1.3,1.3,0,0,0,.11.81"/><path class="cls-43" d="M74,68.29a4.6,4.6,0,0,0,.31.35,3.54,3.54,0,0,0,.52.25,1,1,0,0,0,.46,0,.83.83,0,0,0,.44-.19,1.2,1.2,0,0,0,.38-.59,1.11,1.11,0,0,0-.47-1.21,1.17,1.17,0,0,0-.6-.21,1.28,1.28,0,0,0-.58.11A1.08,1.08,0,0,0,74,68.29"/><path class="cls-44" d="M74.1,68.28a1.2,1.2,0,0,0,1.2.56.84.84,0,0,0,.44-.2,1.59,1.59,0,0,0,.33-.52A1.09,1.09,0,0,0,75.66,67a4.09,4.09,0,0,0-.6-.23,1.22,1.22,0,0,0-.57.13,1,1,0,0,0-.39,1.4"/><path class="cls-45" d="M74.18,68.27a1.54,1.54,0,0,0,.63.48,1.1,1.1,0,0,0,.48,0,.88.88,0,0,0,.44-.22,2.32,2.32,0,0,0,.28-.44,1,1,0,0,0-.35-1.05,1.2,1.2,0,0,0-.6-.26,1.28,1.28,0,0,0-.57.13,1,1,0,0,0-.31,1.33"/><path class="cls-46" d="M74.26,68.26a1.64,1.64,0,0,0,.53.41,1.16,1.16,0,0,0,.49,0s.4-.2.45-.24a1,1,0,0,0,.21-.35.94.94,0,0,0-.28-1,3,3,0,0,0-.59-.26,3.65,3.65,0,0,0-.57.14.88.88,0,0,0-.35.44,1,1,0,0,0,.11.81"/><path class="cls-47" d="M74.33,68.25s.39.33.44.35a1.2,1.2,0,0,0,.5.05,2.2,2.2,0,0,0,.45-.26.71.71,0,0,0,.16-.26.85.85,0,0,0-.22-.92l-.59-.29s-.54.15-.56.17a.84.84,0,0,0-.18,1.16"/><path class="cls-48" d="M74.41,68.23a1.05,1.05,0,0,0,.34.29,1.43,1.43,0,0,0,.51.07,4.61,4.61,0,0,0,.46-.29.59.59,0,0,0,.1-.17.92.92,0,0,0,.05-.4,2.08,2.08,0,0,0-.2-.45,1.52,1.52,0,0,0-.6-.29.93.93,0,0,0-.55.18.77.77,0,0,0-.11,1.06"/><path class="cls-49" d="M74.48,68.22a.72.72,0,0,0,.25.21.94.94,0,0,0,.52.09,1.28,1.28,0,0,0,.46-.32.18.18,0,0,0,.05-.07,1.1,1.1,0,0,0,0-.4,1.51,1.51,0,0,0-.19-.4,1.17,1.17,0,0,0-.54-.28,1.57,1.57,0,0,0-.55.19c-.2.08-.22.6-.22.6a1,1,0,0,0,.17.38"/><path class="cls-50" d="M74.56,68.21a.45.45,0,0,0,.15.13,1.22,1.22,0,0,0,.52.11c.16,0,.32-.21.45-.32s0,0,0-.06a.67.67,0,0,0,0-.34.94.94,0,0,0-.25-.4.88.88,0,0,0-.42-.21,1.36,1.36,0,0,0-.54.2.23.23,0,0,0-.08.09.72.72,0,0,0,.1.8"/><path class="cls-51" d="M74.64,68.21s0,0,0,0a1.29,1.29,0,0,0,.53.13.71.71,0,0,0,.34-.25.92.92,0,0,0,.13-.36.13.13,0,0,0,0-.06,2.06,2.06,0,0,0-.29-.37.54.54,0,0,0-.3-.15.75.75,0,0,0-.54.21.62.62,0,0,0-.1.42,1,1,0,0,0,.19.39"/><path class="cls-52" d="M74.66,68.1s.07.08.11.09a1,1,0,0,0,.44.12.48.48,0,0,0,.23-.17.71.71,0,0,0,.15-.4c0-.15-.21-.29-.32-.4a.38.38,0,0,0-.18-.09c-.15,0-.87.29-.43.85"/><path class="cls-53" d="M74.62,67.86a1.32,1.32,0,0,0,.36.31.35.35,0,0,0,.22.06.25.25,0,0,0,.12-.08c.06-.12.18-.28.16-.41s-.3-.42-.38-.42-.1,0-.5.44a.09.09,0,0,0,0,.1"/><path class="cls-54" d="M75.18,68.16h0a3.79,3.79,0,0,0,.18-.42c0-.12-.14-.3-.26-.31a.42.42,0,0,0-.36.36c0,.17.28.29.43.37"/><path class="cls-55" d="M75.17,68c.07,0,.1-.15.09-.22s-.07-.16-.13-.16a.21.21,0,0,0-.19.18c0,.09.14.22.23.2"/><path class="cls-56" d="M75.15,67.77h0s0,0,0,0,0,0,0,0,0,0,0,0"/></g></g></g><g class="cls-11"><g class="cls-57"><g class="cls-11"><path class="cls-13" d="M76.72,71.35a4.53,4.53,0,0,1-2.82-.54,3.79,3.79,0,0,1-1.82-3.38,5,5,0,0,1,4-4.86,5,5,0,0,0-4,4.86,3.79,3.79,0,0,0,1.82,3.38,4.51,4.51,0,1,1,2.82.54"/><path class="cls-13" d="M72.08,67.43a3.79,3.79,0,0,0,1.82,3.38l-.26-.16-.38-.29L73,70.15l-.29-.31-.21-.26c-.07-.1-.16-.23-.22-.33l-.17-.3L72,68.6l-.12-.33-.1-.38-.07-.35c0-.2,0-.46,0-.66v-.36c0-.12,0-.28.05-.4l.08-.34c0-.12.07-.27.11-.38l.13-.32c0-.1.11-.25.17-.35l.18-.29a2.35,2.35,0,0,1,.23-.32l.21-.25.29-.3.24-.2.36-.26.23-.14a3.29,3.29,0,0,1,.5-.24l.17-.07a4.77,4.77,0,0,1,.94-.23h1.14l.12,0,.12,0,.13,0,.15,0,.17,0,.18.06.23.08.23.1.35.18.26.16a4.36,4.36,0,0,1,.57.45l.24.23.26.31.2.28c.06.1.15.23.21.34l.15.31.14.36.11.34c0,.11.06.26.08.38l0,.36c0,.12,0,.28,0,.4l0,.37c0,.13,0,.3,0,.43l-.08.35c0,.11-.08.26-.12.37l-.13.33-.17.34-.18.29a3.81,3.81,0,0,1-.24.32l-.21.25a4.11,4.11,0,0,1-.3.29l-.23.2c-.11.08-.26.19-.38.26l-.22.14-.51.24-.17.06a4.89,4.89,0,0,1-.89.21l-.12,0h-1l-.12,0-.12,0-.13,0-.15,0-.17,0-.18-.06-.23-.08-.23-.1-.35-.17a3.79,3.79,0,0,1-1.82-3.38,5,5,0,0,1,4-4.86h0c-3.88,1.11-2.5,5.4-.13,6.57a3,3,0,0,0,4.32-3.84,4,4,0,0,0-4.18-2.73,5,5,0,0,0-4,4.86"/><path class="cls-14" d="M72.08,67.43a3.79,3.79,0,0,0,1.82,3.38l-.26-.16-.38-.29L73,70.15l-.29-.31-.21-.26c-.07-.1-.16-.23-.22-.33l-.17-.3L72,68.6l-.12-.33-.1-.38-.07-.35c0-.2,0-.46,0-.66v-.36c0-.12,0-.28.05-.4l.08-.34c0-.12.07-.27.11-.38l.13-.32c0-.1.11-.25.17-.35l.18-.29a2.35,2.35,0,0,1,.23-.32l.21-.25.29-.3.24-.2.36-.26.23-.14a3.29,3.29,0,0,1,.5-.24l.17-.07a4.77,4.77,0,0,1,.94-.23h1.14l.12,0,.12,0,.13,0,.15,0,.17,0,.18.06.23.08.23.1.35.18.26.16a4.36,4.36,0,0,1,.57.45l.24.23.26.31.2.28c.06.1.15.23.21.34l.15.31.14.36.11.34c0,.11.06.26.08.38l0,.36c0,.12,0,.28,0,.4l0,.37c0,.13,0,.3,0,.43l-.08.35c0,.11-.08.26-.12.37l-.13.33-.17.34-.18.29a3.81,3.81,0,0,1-.24.32l-.21.25a4.11,4.11,0,0,1-.3.29l-.23.2c-.11.08-.26.19-.38.26l-.22.14-.51.24-.17.06a4.89,4.89,0,0,1-.89.21l-.12,0h-1l-.12,0-.12,0-.13,0-.15,0-.17,0-.18-.06-.23-.08-.23-.1-.35-.17a3.79,3.79,0,0,1-1.82-3.38,5.06,5.06,0,0,1,3-4.55l0,0c-2.74,1.74-1.33,5.8,1.57,6.65s5-2,3.54-4.73c-1.06-2-3.39-2.9-5.08-1.94a5.06,5.06,0,0,0-3,4.55"/><path class="cls-15" d="M80.37,65.42a4.3,4.3,0,0,1,.19.72l0,.36c0,.12,0,.28,0,.4l0,.37c0,.13,0,.3,0,.43l-.08.35c0,.11-.08.26-.12.37l-.13.33-.17.34-.18.29a3.81,3.81,0,0,1-.24.32l-.21.25a4.11,4.11,0,0,1-.3.29l-.23.2c-.11.08-.26.19-.38.26l-.22.14-.51.24-.17.06a4.89,4.89,0,0,1-.89.21l-.12,0h-1l-.12,0-.12,0-.13,0-.15,0-.17,0-.18-.06-.23-.08-.23-.1-.35-.17a3.79,3.79,0,0,1-1.82-3.38,5.1,5.1,0,0,1,2.3-4.2l-.06.06c-2.48,2.57.14,6.67,3.31,6.56,2.26-.08,3.57-2.31,2.69-4.59,0,0,0,.11.05.16"/><path class="cls-15" d="M72.08,67.43a3.79,3.79,0,0,0,1.82,3.38l-.26-.16-.38-.29L73,70.15l-.29-.31-.21-.26c-.07-.1-.16-.23-.22-.33l-.17-.3L72,68.6l-.12-.33-.1-.38-.07-.35c0-.2,0-.46,0-.66v-.36c0-.12,0-.28.05-.4l.08-.34c0-.12.07-.27.11-.38l.13-.32c0-.1.11-.25.17-.35l.18-.29a2.35,2.35,0,0,1,.23-.32l.21-.25.29-.3.24-.2.36-.26.23-.14a3.29,3.29,0,0,1,.5-.24l.17-.07a4.77,4.77,0,0,1,.94-.23h1.14l.12,0,.12,0,.13,0,.15,0,.17,0,.18.06.23.08.23.1.35.18.19.11-.26-.15a3.27,3.27,0,0,0-3.89.29,5.1,5.1,0,0,0-2.3,4.2"/><path class="cls-16" d="M80.56,66.14a4.76,4.76,0,0,1,.06.76l0,.37c0,.13,0,.3,0,.43l-.08.35c0,.11-.08.26-.12.37l-.13.33-.17.34-.18.29a3.81,3.81,0,0,1-.24.32l-.21.25a4.11,4.11,0,0,1-.3.29l-.23.2c-.11.08-.26.19-.38.26l-.22.14-.51.24-.17.06a4.89,4.89,0,0,1-.89.21l-.12,0h-1l-.12,0-.12,0-.13,0-.15,0-.17,0-.18-.06-.23-.08-.23-.1-.35-.17a3.79,3.79,0,0,1-1.82-3.38,5.12,5.12,0,0,1,1.8-3.83l-.15.21c-1.84,3.07,1.32,6.72,4.36,6.15a3.16,3.16,0,0,0,2.46-3.84v0"/><path class="cls-16" d="M72.08,67.43a3.79,3.79,0,0,0,1.82,3.38l-.26-.16-.38-.29L73,70.15l-.29-.31-.21-.26c-.07-.1-.16-.23-.22-.33l-.17-.3L72,68.6l-.12-.33-.1-.38-.07-.35c0-.2,0-.46,0-.66v-.36c0-.12,0-.28.05-.4l.08-.34c0-.12.07-.27.11-.38l.13-.32c0-.1.11-.25.17-.35l.18-.29a2.35,2.35,0,0,1,.23-.32l.21-.25.29-.3.24-.2.36-.26.23-.14a3.29,3.29,0,0,1,.5-.24l.17-.07a4.77,4.77,0,0,1,.94-.23h1.14l.12,0,.12,0,.13,0,.15,0,.17,0,.18.06.11,0-.23-.08a3.19,3.19,0,0,0-3.53,1,5.12,5.12,0,0,0-1.8,3.83"/><path class="cls-17" d="M80.62,66.9a4.45,4.45,0,0,1-.07.8l-.08.35c0,.11-.08.26-.12.37l-.13.33-.17.34-.18.29a3.81,3.81,0,0,1-.24.32l-.21.25a4.11,4.11,0,0,1-.3.29l-.23.2c-.11.08-.26.19-.38.26l-.22.14-.51.24-.17.06a4.89,4.89,0,0,1-.89.21l-.12,0h-1l-.12,0-.12,0-.13,0-.15,0-.17,0-.18-.06-.23-.08-.23-.1-.35-.17a3.79,3.79,0,0,1-1.82-3.38A5.1,5.1,0,0,1,73.46,64l0,.08c-1.66,3.38,2,6.93,5.06,5.93a3.16,3.16,0,0,0,2.14-3.14v0"/><path class="cls-17" d="M72.08,67.43a3.79,3.79,0,0,0,1.82,3.38l-.26-.16-.38-.29L73,70.15l-.29-.31-.21-.26c-.07-.1-.16-.23-.22-.33l-.17-.3L72,68.6l-.12-.33-.1-.38-.07-.35c0-.2,0-.46,0-.66v-.36c0-.12,0-.28.05-.4l.08-.34c0-.12.07-.27.11-.38l.13-.32c0-.1.11-.25.17-.35l.18-.29a2.35,2.35,0,0,1,.23-.32l.21-.25.29-.3.24-.2.36-.26.23-.14a3.29,3.29,0,0,1,.5-.24l.17-.07a4.77,4.77,0,0,1,.94-.23h1.14l.12,0,.12,0h0A3.16,3.16,0,0,0,73.46,64a5.1,5.1,0,0,0-1.38,3.43"/><path class="cls-18" d="M80.55,67.7a4.36,4.36,0,0,1-.2.72l-.13.33-.17.34-.18.29a3.81,3.81,0,0,1-.24.32l-.21.25a4.11,4.11,0,0,1-.3.29l-.23.2c-.11.08-.26.19-.38.26l-.22.14-.51.24-.17.06a4.89,4.89,0,0,1-.89.21l-.12,0h-1l-.12,0-.12,0-.13,0-.15,0-.17,0-.18-.06-.23-.08-.23-.1-.35-.17a3.79,3.79,0,0,1-1.82-3.38,5.05,5.05,0,0,1,1-3l-.1.29c-1,3.84,3.25,6.81,6.05,5.17a3.29,3.29,0,0,0,1.53-2.36s0,.12,0,.16"/><path class="cls-18" d="M72.08,67.43a3.79,3.79,0,0,0,1.82,3.38l-.26-.16-.38-.29L73,70.15l-.29-.31-.21-.26c-.07-.1-.16-.23-.22-.33l-.17-.3L72,68.6l-.12-.33-.1-.38-.07-.35c0-.2,0-.46,0-.66v-.36c0-.12,0-.28.05-.4l.08-.34c0-.12.07-.27.11-.38l.13-.32c0-.1.11-.25.17-.35l.18-.29a2.35,2.35,0,0,1,.23-.32l.21-.25.29-.3.24-.2.36-.26.23-.14a3.29,3.29,0,0,1,.5-.24l.17-.07a4.77,4.77,0,0,1,.94-.23h.64a3.15,3.15,0,0,0-3.07,2,5.05,5.05,0,0,0-1,3"/><path class="cls-19" d="M80.35,68.42a4.77,4.77,0,0,1-.3.67l-.18.29a3.81,3.81,0,0,1-.24.32l-.21.25a4.11,4.11,0,0,1-.3.29l-.23.2c-.11.08-.26.19-.38.26l-.22.14-.51.24-.17.06a4.89,4.89,0,0,1-.89.21l-.12,0h-1l-.12,0-.12,0-.13,0-.15,0-.17,0-.18-.06-.23-.08-.23-.1-.35-.17a3.79,3.79,0,0,1-1.82-3.38A5,5,0,0,1,72.75,65l0,.1c-.77,3.87,3.66,6.69,6.34,5a3.28,3.28,0,0,0,1.35-1.79,1.27,1.27,0,0,1-.06.18"/><path class="cls-19" d="M72.08,67.43a3.79,3.79,0,0,0,1.82,3.38l-.26-.16-.38-.29L73,70.15l-.29-.31-.21-.26c-.07-.1-.16-.23-.22-.33l-.17-.3L72,68.6l-.12-.33-.1-.38-.07-.35c0-.2,0-.46,0-.66v-.36c0-.12,0-.28.05-.4l.08-.34c0-.12.07-.27.11-.38l.13-.32c0-.1.11-.25.17-.35l.18-.29a2.35,2.35,0,0,1,.23-.32l.21-.25.29-.3.24-.2.36-.26.23-.14a3.29,3.29,0,0,1,.5-.24l.17-.07a4.9,4.9,0,0,1,.91-.23h-.07A3.25,3.25,0,0,0,72.75,65a5,5,0,0,0-.67,2.46"/><path class="cls-20" d="M80.05,69.09a4.25,4.25,0,0,1-.42.61l-.21.25a4.11,4.11,0,0,1-.3.29l-.23.2c-.11.08-.26.19-.38.26l-.22.14-.51.24-.17.06a4.89,4.89,0,0,1-.89.21l-.12,0h-1l-.12,0-.12,0-.13,0-.15,0-.17,0-.18-.06-.23-.08-.23-.1-.35-.17a3.79,3.79,0,0,1-1.82-3.38,4.72,4.72,0,0,1,.35-1.79l0,.19c-.16,3.68,4.38,6.37,6.94,4.11a3.47,3.47,0,0,0,.74-.92.25.25,0,0,0,0,.07"/><path class="cls-20" d="M72.08,67.43a3.79,3.79,0,0,0,1.82,3.38l-.26-.16-.38-.29L73,70.15l-.29-.31-.21-.26c-.07-.1-.16-.23-.22-.33l-.17-.3L72,68.6l-.12-.33-.1-.38-.07-.35c0-.2,0-.46,0-.66v-.36c0-.12,0-.28.05-.4l.08-.34c0-.12.07-.27.11-.38l.13-.32c0-.1.11-.25.17-.35l.18-.29a2.35,2.35,0,0,1,.23-.32l.21-.25.29-.3.24-.2.36-.26.23-.14a3.29,3.29,0,0,1,.5-.24l.17-.07.23-.07h0a3.31,3.31,0,0,0-2.37,3,4.72,4.72,0,0,0-.35,1.79"/><path class="cls-21" d="M78.11,62.92c2.83,1.33,3.23,5.25.65,6.26S73,67,74.08,64.32a2.91,2.91,0,0,1,4-1.4"/><path class="cls-22" d="M78.5,63.15c2.72,1.66,2.58,5.48-.21,6-3,.56-5.45-3.1-3.71-5.44a2.91,2.91,0,0,1,3.92-.58"/><path class="cls-23" d="M78.85,63.42c2.45,1.89,1.77,5.14-.54,5.59-2.56.51-5.27-2.68-3.62-5.21a2.85,2.85,0,0,1,4.16-.38"/><path class="cls-24" d="M79.16,63.73c2.22,2.14,1,5.18-1.39,5.18-2.81,0-4.56-3.53-2.67-5.39a3,3,0,0,1,4.06.21"/><path class="cls-25" d="M79.15,63.78c2,1.89,1.17,5-1.37,5-2.74,0-4.36-3.35-2.51-5.22a2.83,2.83,0,0,1,3.88.24"/><path class="cls-26" d="M79.4,64.13c1.65,2,.49,4.68-1.94,4.44-2.82-.27-3.69-3.73-1.88-5.12a2.83,2.83,0,0,1,3.82.68"/><path class="cls-27" d="M79.37,64.18c1.64,2,.29,4.68-2.17,4.23a2.82,2.82,0,0,1-1.37-5,2.72,2.72,0,0,1,3.54.75"/><path class="cls-28" d="M79.56,64.56a2.34,2.34,0,0,1-2.35,3.72,2.68,2.68,0,0,1-1.36-4.69,2.63,2.63,0,0,1,3.71,1"/><path class="cls-29" d="M79.5,64.61a2.24,2.24,0,0,1-2.29,3.53,2.44,2.44,0,1,1,2.29-3.53"/><path class="cls-30" d="M79.43,64.67A2.19,2.19,0,0,1,77.21,68a2.38,2.38,0,0,1-1.15-4.23,2.36,2.36,0,0,1,3.37.86"/><path class="cls-31" d="M79.52,65.09a2.13,2.13,0,0,1-2.92,2.67,2.22,2.22,0,0,1,0-4.11,2.33,2.33,0,0,1,2.88,1.44"/><path class="cls-32" d="M79.41,65.14a2,2,0,0,1-2.81,2.53,2.09,2.09,0,0,1,.07-3.87,2.16,2.16,0,0,1,2.74,1.34"/><path class="cls-33" d="M79.29,65.2a2,2,0,1,1-2.57-1.26,2,2,0,0,1,2.57,1.26"/><path class="cls-34" d="M79.15,65.25a1.86,1.86,0,1,1-2.39-1.18,1.89,1.89,0,0,1,2.39,1.18"/><path class="cls-35" d="M79.1,65.69a1.65,1.65,0,0,1-1,1.75,1.73,1.73,0,0,1-1.93-.37,1.69,1.69,0,0,1,1-2.94,1.76,1.76,0,0,1,2,1.56"/><path class="cls-36" d="M79,65.73a1.71,1.71,0,0,1-.62,1.46,1.62,1.62,0,0,1-1.15.34,3.16,3.16,0,0,1-.69-.24,1.62,1.62,0,0,1,.3-3A1.72,1.72,0,0,1,79,65.73"/><path class="cls-37" d="M78.87,65.76a1.53,1.53,0,0,1-2.55,1.3,1.5,1.5,0,0,1,.9-2.7,1.71,1.71,0,0,1,1.65,1.4"/><path class="cls-38" d="M78.76,65.79a1.45,1.45,0,0,1-1,1.53,1.58,1.58,0,0,1-1.62-.44,1.43,1.43,0,0,1,1.09-2.41,1.61,1.61,0,0,1,1.5,1.32"/><path class="cls-39" d="M78.65,65.81a1.38,1.38,0,0,1-2.39,1.07,1.35,1.35,0,0,1,1-2.32,1.51,1.51,0,0,1,1.36,1.25"/><path class="cls-40" d="M78.56,65.83c.12.77-.36,1.07-.78,1.34a1.4,1.4,0,0,1-1.19-.1,1.37,1.37,0,0,1-.68-1.41,1.4,1.4,0,0,1,1-1,1.48,1.48,0,0,1,1.67,1.17"/><path class="cls-41" d="M78.49,66.26a3.91,3.91,0,0,1-.23.46,2.22,2.22,0,0,1-.49.38,1.13,1.13,0,0,1-.58.1,1.47,1.47,0,0,1-1.1-.74,1.21,1.21,0,0,1,1.25-1.73,1.38,1.38,0,0,1,1.15,1.53"/><path class="cls-42" d="M78.41,66.28a1.22,1.22,0,0,1-1.23.86,1.07,1.07,0,0,1-.59-.2,2.34,2.34,0,0,1-.44-.48,1.14,1.14,0,0,1,1.21-1.65s.53.23.53.23a1.38,1.38,0,0,1,.4.43,1.27,1.27,0,0,1,.12.81"/><path class="cls-43" d="M78.33,66.29a1.29,1.29,0,0,1-.57.68,1.4,1.4,0,0,1-.58.12,1.13,1.13,0,0,1-.6-.22,1.3,1.3,0,0,1-.36-.41,1,1,0,0,1,.08-1.19,1.09,1.09,0,0,1,1.09-.38,1.67,1.67,0,0,1,.52.25,4.6,4.6,0,0,1,.31.35,1.1,1.1,0,0,1,.11.8"/><path class="cls-44" d="M78.24,66.31a1.32,1.32,0,0,1-.49.6,1.22,1.22,0,0,1-.57.12,3.64,3.64,0,0,1-.6-.23,1.1,1.1,0,0,1-.3-.34,1,1,0,0,1,.1-1.19,1.19,1.19,0,0,1,.56-.33,1.07,1.07,0,0,1,.47,0s1.12.37.83,1.35"/><path class="cls-45" d="M78.19,66.1c0,.07,0,.16,0,.22a1.72,1.72,0,0,1-.34.46c-.07.07-.09.08-.65.19a1.27,1.27,0,0,1-.82-.5,1,1,0,0,1,.11-1.2A1.77,1.77,0,0,1,77,65a1.3,1.3,0,0,1,.48,0,1.77,1.77,0,0,1,.63.48.81.81,0,0,1,.13.59"/><path class="cls-46" d="M78.09,66.33a1.09,1.09,0,0,1-.35.44s-.51.14-.57.15a1.39,1.39,0,0,1-.76-.46,1,1,0,0,1,.1-1.16,3.17,3.17,0,0,1,.45-.23,1.12,1.12,0,0,1,.48,0c.27.07.9.61.65,1.22"/><path class="cls-47" d="M78,66.34a.74.74,0,0,1-.28.35,5.18,5.18,0,0,1-.56.17s-.59-.28-.6-.29a.36.36,0,0,1-.1-.11.87.87,0,0,1,0-1.07,2.2,2.2,0,0,1,.45-.26,1.16,1.16,0,0,1,.49.05,4.71,4.71,0,0,1,.45.36,1.37,1.37,0,0,1,.15.38.86.86,0,0,1,0,.42"/><path class="cls-48" d="M77.93,66.35a.65.65,0,0,1-.2.26.94.94,0,0,1-.57.18,1.36,1.36,0,0,1-.59-.29,1.59,1.59,0,0,1-.2-.45s0-.46.15-.56a3.93,3.93,0,0,1,.46-.3.86.86,0,0,1,.5.08.87.87,0,0,1,.35.28,1.63,1.63,0,0,1,.17.38.57.57,0,0,1-.07.42"/><path class="cls-49" d="M77.85,66.36a.36.36,0,0,1-.14.18c-.15.08-.38.23-.55.19a1.31,1.31,0,0,1-.54-.27,1.24,1.24,0,0,1-.19-.41,1.07,1.07,0,0,1,.1-.47.86.86,0,0,1,.46-.32,1,1,0,0,1,.51.09.64.64,0,0,1,.25.21.89.89,0,0,1,.18.38.85.85,0,0,1-.08.42"/><path class="cls-50" d="M77.77,66.37a.16.16,0,0,1-.07.09,1.27,1.27,0,0,1-.55.2.85.85,0,0,1-.41-.21.76.76,0,0,1-.18-.22.65.65,0,0,1,0-.58.87.87,0,0,1,.44-.32,1.19,1.19,0,0,1,.52.11.4.4,0,0,1,.16.13,1,1,0,0,1,.18.38.86.86,0,0,1-.09.42"/><path class="cls-51" d="M77.69,66.38a.82.82,0,0,1-.54.22.66.66,0,0,1-.3-.15,1.57,1.57,0,0,1-.3-.38c0-.06.13-.42.13-.42A.66.66,0,0,1,77,65.4a1.25,1.25,0,0,1,.52.13.15.15,0,0,1,.06,0,1,1,0,0,1,.19.38.9.9,0,0,1-.1.42"/><path class="cls-52" d="M77.67,66.2a.77.77,0,0,1-.53.33.34.34,0,0,1-.18-.09c-.1-.1-.29-.24-.31-.39a.71.71,0,0,1,.15-.41.38.38,0,0,1,.23-.16.9.9,0,0,1,.44.11.29.29,0,0,1,.1.09.55.55,0,0,1,.1.52"/><path class="cls-53" d="M77.64,66a1.64,1.64,0,0,1-.39.4.13.13,0,0,1-.11,0c-.09,0-.38-.41-.38-.42s.1-.29.16-.4a.19.19,0,0,1,.12-.09.35.35,0,0,1,.22.06,3.47,3.47,0,0,1,.36.31.12.12,0,0,1,0,.1"/><path class="cls-54" d="M77.13,66.35c-.12,0-.25-.19-.26-.31s.17-.41.18-.42h0c.13.11.43.19.44.36a.42.42,0,0,1-.36.36"/><path class="cls-55" d="M77.11,66.19c-.06,0-.12-.1-.13-.16s0-.2.09-.22.23.11.23.2a.21.21,0,0,1-.19.18"/><path class="cls-56" d="M77.1,66s0,0,0,0,0,0,0,0h0a0,0,0,0,1,0,0"/></g></g></g></g><path class="cls-8" d="M141.24,55.51c8.84-6.95,19.44-7.12,27.58-.23"/><polygon class="cls-9" points="145.89 56.43 142.22 54.76 140.88 50.97 136.91 59.63 145.89 56.43"/><polygon class="cls-9" points="164.12 55.97 167.86 54.5 169.39 50.78 172.91 59.63 164.12 55.97"/></svg>