<svg id="Layer_1" data-name="Layer 1" xmlns="http://www.w3.org/2000/svg" viewBox="0 0 263.62 195.59"><defs><style>.cls-1,.cls-4{fill:none;}.cls-1{stroke:#231f20;}.cls-1,.cls-12,.cls-3,.cls-4,.cls-5,.cls-7,.cls-8,.cls-9{stroke-miterlimit:10;}.cls-11,.cls-2,.cls-6{fill:#231f20;}.cls-12,.cls-3,.cls-9{fill:#197fb0;}.cls-3,.cls-4,.cls-5{stroke:#899096;}.cls-4{stroke-width:2px;}.cls-5,.cls-7,.cls-8{fill:#f18254;}.cls-6{font-size:11px;}.cls-11,.cls-6,.cls-8,.cls-9{font-family:CMUSerif-Roman, CMU Serif;}.cls-7,.cls-8{stroke:#f18254;}.cls-8,.cls-9{font-size:12px;}.cls-12,.cls-9{stroke:#197fb0;}.cls-10{letter-spacing:-0.01em;}.cls-11{font-size:14px;}</style></defs><line class="cls-1" x1="38.79" y1="167.85" x2="38.79" y2="26.84"/><polygon class="cls-2" points="40.64 28.24 38.79 27.46 36.94 28.24 38.79 23.85 40.64 28.24"/><line class="cls-1" x1="38.79" y1="167.85" x2="179.81" y2="167.85"/><polygon class="cls-2" points="178.4 169.71 179.19 167.85 178.4 166 182.79 167.85 178.4 169.71"/><rect class="cls-3" x="229.43" y="22.8" width="18" height="27"/><rect class="cls-3" x="192.79" y="21.85" width="18" height="27"/><line class="cls-4" x1="210.79" y1="48.85" x2="210.79" y2="3.85"/><line class="cls-4" x1="229.43" y1="49.8" x2="229.43" y2="4.8"/><line class="cls-1" x1="210.79" y1="21.85" x2="228.79" y2="21.85"/><rect class="cls-5" x="229.43" y="84.85" width="18" height="27"/><rect class="cls-5" x="192.79" y="84.85" width="18" height="27"/><line class="cls-4" x1="210.79" y1="111.85" x2="210.79" y2="66.85"/><line class="cls-4" x1="229.43" y1="111.85" x2="229.43" y2="66.85"/><line class="cls-1" x1="210.79" y1="75.85" x2="228.79" y2="75.85"/><line class="cls-1" x1="210.79" y1="93.85" x2="228.79" y2="93.85"/><text class="cls-6" transform="translate(41.54 110.52)">(N</text><text class="cls-6" transform="translate(54.06 114.19) scale(0.58)">0</text><text class="cls-6" transform="translate(57.26 110.52)">)</text><path class="cls-7" d="M95.89,157a2.13,2.13,0,1,1-2.13-2.12A2.13,2.13,0,0,1,95.89,157Z"/><text class="cls-8" transform="translate(84.23 152.48)">2</text><text class="cls-9" transform="translate(120.11 152.48)">1</text><path class="cls-1" d="M203,13.22c4.81-4.39,9.38-3.87,13.38.46"/><polygon class="cls-2" points="205.28 13.53 203.41 12.81 202.63 10.95 200.9 15.39 205.28 13.53"/><polygon class="cls-2" points="213.98 13.8 215.91 13.23 216.84 11.45 218.2 16.02 213.98 13.8"/><text class="cls-9" transform="translate(182.2 19.17)">1</text><text class="cls-8" transform="translate(182.2 82.17)">2</text><path class="cls-1" d="M223.19,13.08c4.82-4.39,9.38-3.86,13.38.47"/><polygon class="cls-2" points="225.52 13.4 223.64 12.67 222.86 10.81 221.13 15.25 225.52 13.4"/><polygon class="cls-2" points="234.21 13.66 236.14 13.1 237.08 11.31 238.43 15.88 234.21 13.66"/><text class="cls-6" transform="translate(76.17 110.52)">(N</text><text class="cls-6" transform="translate(88.69 114.19) scale(0.58)">0</text><text class="cls-6" transform="translate(91.9 110.52)">+<tspan class="cls-10" x="8.56" y="0">1</tspan><tspan x="13.99" y="0">)</tspan></text><text class="cls-6" transform="translate(114.54 110.52)">(N</text><text class="cls-6" transform="translate(127.06 114.19) scale(0.58)">0</text><text class="cls-6" transform="translate(130.26 110.52)">+2)</text><path class="cls-1" d="M164.81,166.61c-17.6,0-10.85-112.94-14-112.94s1.43,112.94-15.86,112.94h-8.81c-17.61,0-10.86-112.94-14-112.94s1.42,112.94-15.87,112.94H87.42c-17.6,0-10.85-112.94-14-112.94s1.43,112.94-15.86,112.94"/><text class="cls-11" transform="translate(29.97 144.48) rotate(-90)">conductance</text><path class="cls-12" d="M113.3,157a2.13,2.13,0,1,1-2.13-2.12A2.13,2.13,0,0,1,113.3,157Z"/><text class="cls-11" transform="translate(93.55 178.97)">V</text><text class="cls-11" transform="translate(104.05 183.64) scale(0.58)">plunger</text></svg>
