<svg xmlns="http://www.w3.org/2000/svg" xmlns:xlink="http://www.w3.org/1999/xlink" viewBox="0 0 595.28 841.89"><defs><style>.cls-1{fill:#9bc5e5;}.cls-1,.cls-2,.cls-3{mix-blend-mode:lighten;}.cls-2{fill:#a1daf7;}.cls-3{fill:#9dd2d3;}.cls-4{opacity:0.3;}.cls-5{fill:#008cca;}.cls-6{fill:#00b1ec;}.cls-7{fill:#93caee;}</style><symbol id="face2" data-name="face2" viewBox="0 0 288 189"><rect class="cls-1" y="117" width="288" height="72"/><rect class="cls-2" y="45" width="288" height="72"/><rect class="cls-3" y="27" width="288" height="18"/><rect class="cls-2" y="9" width="288" height="18"/><rect class="cls-1" width="288" height="9"/></symbol><symbol id="face3" data-name="face3" viewBox="0 0 189 288"><use width="288" height="189" transform="translate(0 288) rotate(-90)" xlink:href="#face2"/></symbol><symbol id="face4" data-name="face4" viewBox="0 0 189 288"><use width="189" height="288" transform="translate(189 288) rotate(180)" xlink:href="#face3"/></symbol></defs><g id="Layer_1" data-name="Layer 1"><g class="cls-4"><rect class="cls-5" x="57" y="175.06" width="261" height="72"/><rect class="cls-6" x="57" y="103.06" width="261" height="72"/><rect class="cls-7" x="57" y="85.06" width="261" height="18"/><rect class="cls-6" x="57" y="67.06" width="261" height="18"/><rect class="cls-5" x="57" y="58.06" width="261" height="9"/></g><use width="189" height="288" transform="translate(48 301.06)" xlink:href="#face4"/></g><g id="Layer_3" data-name="Layer 3"><g class="cls-4"><rect class="cls-5" x="282" y="409.06" width="261" height="72"/><rect class="cls-6" x="282" y="337.06" width="261" height="72"/><rect class="cls-7" x="282" y="319.06" width="261" height="18"/><rect class="cls-6" x="282" y="301.06" width="261" height="18"/><rect class="cls-5" x="282" y="292.06" width="261" height="9"/></g></g></svg>