<svg xmlns="http://www.w3.org/2000/svg" viewBox="0 0 230.8 226.77"><defs><style>.cls-1{isolation:isolate;}.cls-11,.cls-2,.cls-3,.cls-7{fill:none;}.cls-2,.cls-7{stroke:#f18254;}.cls-10,.cls-11,.cls-12,.cls-13,.cls-14,.cls-15,.cls-16,.cls-2,.cls-3,.cls-7{stroke-miterlimit:10;}.cls-2{stroke-dasharray:3;}.cls-3{stroke:#231f20;}.cls-4,.cls-5{fill:#231f20;}.cls-5{font-size:16px;}.cls-12,.cls-14,.cls-5,.cls-9{font-family:CMUSerif-Roman, CMU Serif;}.cls-6{fill:#9da4ab;opacity:0.4;mix-blend-mode:color-dodge;}.cls-8,.cls-9{fill:#f18254;}.cls-9{font-size:18px;}.cls-10,.cls-12,.cls-16{fill:#197fb0;}.cls-10,.cls-11,.cls-13{stroke:#899096;}.cls-11{stroke-width:2px;}.cls-12,.cls-14{font-size:14px;}.cls-12,.cls-16{stroke:#197fb0;}.cls-13,.cls-14,.cls-15{fill:#c8582d;}.cls-14,.cls-15{stroke:#c8582d;}</style></defs><g class="cls-1"><g id="Layer_1" data-name="Layer 1"><g id="dev4"><line class="cls-2" x1="2.83" y1="163.82" x2="157.61" y2="163.82"/></g><line class="cls-3" x1="5.35" y1="199.6" x2="5.35" y2="22.58"/><polygon class="cls-4" points="7.21 23.99 5.35 23.2 3.5 23.99 5.35 19.6 7.21 23.99"/><line class="cls-3" x1="4.97" y1="109.6" x2="173.81" y2="109.6"/><polygon class="cls-4" points="172.41 111.45 173.19 109.6 172.41 107.75 176.8 109.6 172.41 111.45"/><text class="cls-5" transform="translate(175.78 124.36)">V</text><text class="cls-5" transform="translate(187.78 129.68) scale(0.58)">k</text><polyline class="cls-6" points="109.8 37.6 96.3 73.6 82.8 109.6 55.8 37.6"/><polyline class="cls-3" points="109.8 37.6 96.3 73.6 82.8 109.6 55.8 37.6"/><polyline class="cls-6" points="109.8 181.6 96.3 145.6 82.8 109.6 55.8 181.6"/><polyline class="cls-3" points="109.8 181.6 96.3 145.6 82.8 109.6 55.8 181.6"/><polyline class="cls-6" points="154.8 37.6 141.3 73.6 127.8 109.6 100.8 37.6"/><polyline class="cls-3" points="154.8 37.6 141.3 73.6 127.8 109.6 100.8 37.6"/><polyline class="cls-6" points="154.8 181.6 141.3 145.6 127.8 109.6 100.8 181.6"/><polyline class="cls-3" points="154.8 181.6 141.3 145.6 127.8 109.6 100.8 181.6"/><polyline class="cls-6" points="64.8 37.6 51.3 73.6 37.8 109.6 10.8 37.6"/><polyline class="cls-3" points="64.8 37.6 51.3 73.6 37.8 109.6 10.8 37.6"/><polyline class="cls-6" points="64.8 181.6 51.3 145.6 37.8 109.6 10.8 181.6"/><polyline class="cls-3" points="64.8 181.6 51.3 145.6 37.8 109.6 10.8 181.6"/><line class="cls-7" x1="24.57" y1="163.82" x2="51.02" y2="163.82"/><polygon class="cls-8" points="26.82 166.79 25.56 163.82 26.82 160.86 19.8 163.82 26.82 166.79"/><polygon class="cls-8" points="48.77 166.79 50.03 163.82 48.77 160.86 55.8 163.82 48.77 166.79"/><text class="cls-9" transform="translate(29.18 181.32)">δ</text><text class="cls-9" transform="translate(37.68 187.31) scale(0.58)">jk</text><rect class="cls-10" x="207.32" y="63.64" width="18" height="27"/><rect class="cls-10" x="170.69" y="57.69" width="18" height="27"/><line class="cls-11" x1="188.69" y1="84.69" x2="188.69" y2="39.69"/><line class="cls-11" x1="207.32" y1="90.64" x2="207.32" y2="40.64"/><line class="cls-3" x1="188.69" y1="53.69" x2="206.69" y2="53.69"/><text class="cls-12" transform="translate(160.09 55.01)">1</text><rect class="cls-13" x="212.3" y="168.82" width="18" height="27"/><rect class="cls-13" x="175.67" y="156.82" width="18" height="27"/><line class="cls-11" x1="193.67" y1="183.82" x2="193.67" y2="141.82"/><line class="cls-11" x1="212.3" y1="195.82" x2="212.3" y2="142.77"/><line class="cls-3" x1="193.67" y1="160.82" x2="211.67" y2="160.82"/><path class="cls-3" d="M185.83,151.19c4.82-4.39,9.38-3.87,13.39.46"/><polygon class="cls-4" points="188.16 151.5 186.28 150.78 185.51 148.92 183.77 153.36 188.16 151.5"/><polygon class="cls-4" points="196.85 151.77 198.79 151.2 199.72 149.42 201.07 153.99 196.85 151.77"/><text class="cls-14" transform="translate(165.07 157.14)">2</text><path class="cls-3" d="M206.06,151.05c4.82-4.39,9.39-3.86,13.39.47"/><polygon class="cls-4" points="208.39 151.37 206.52 150.64 205.74 148.78 204 153.22 208.39 151.37"/><polygon class="cls-4" points="217.09 151.63 219.02 151.07 219.95 149.28 221.3 153.85 217.09 151.63"/><text class="cls-5" transform="translate(6.6 16.1)">V</text><text class="cls-5" transform="translate(18.6 21.43) scale(0.58)">SD</text><path class="cls-15" d="M96.41,63a2.13,2.13,0,1,1-2.12-2.12A2.13,2.13,0,0,1,96.41,63Z"/><text class="cls-14" transform="translate(84.76 58.54)">2</text><text class="cls-12" transform="translate(98.29 89.33)">1</text><path class="cls-16" d="M101,96.16A2.13,2.13,0,1,1,98.9,94,2.13,2.13,0,0,1,101,96.16Z"/></g></g></svg>