<svg id="Layer_1" data-name="Layer 1" xmlns="http://www.w3.org/2000/svg" viewBox="0 0 226.77 226.77"><defs><style>.cls-1,.cls-10,.cls-12,.cls-13{fill:#00a4de;}.cls-1,.cls-11{stroke:#00a4de;}.cls-1,.cls-11,.cls-14,.cls-2,.cls-4,.cls-6{stroke-miterlimit:10;}.cls-1{stroke-dasharray:2;}.cls-11,.cls-14,.cls-2,.cls-4,.cls-6{fill:none;}.cls-2{stroke:#231f20;}.cls-3,.cls-8{fill:#231f20;}.cls-4{stroke:#c8582d;}.cls-5,.cls-7{fill:#c8582d;}.cls-6{stroke:#00a5b6;}.cls-10,.cls-7,.cls-8,.cls-9{font-size:14px;}.cls-10,.cls-13,.cls-7,.cls-8,.cls-9{font-family:CMUSerif-Roman, CMU Serif;}.cls-9{fill:#00a5b6;}.cls-13{font-size:13px;}.cls-14{stroke:#b3b8bf;}</style></defs><line class="cls-1" x1="181.97" y1="187.77" x2="37.97" y2="43.77"/><line class="cls-1" x1="181.97" y1="43.77" x2="37.97" y2="187.77"/><line class="cls-2" x1="109.97" y1="188.6" x2="109.97" y2="46.76"/><polygon class="cls-3" points="111.82 48.16 109.97 47.38 108.12 48.16 109.97 43.77 111.82 48.16"/><line class="cls-4" x1="37.97" y1="115.77" x2="178.98" y2="115.77"/><polygon class="cls-5" points="177.58 117.63 178.37 115.77 177.58 113.92 181.97 115.77 177.58 117.63"/><path class="cls-6" d="M38,39.87s36,36,72,36,72-36,72-36"/><path class="cls-6" d="M38,191.53s36-36,72-36,72,36,72,36"/><text class="cls-7" transform="translate(172 130.16)">ξ</text><text class="cls-8" transform="translate(106.96 37.52)">ε</text><text class="cls-9" transform="translate(51.03 43.52)">ε</text><text class="cls-9" transform="translate(57.05 48.18) scale(0.58)">b</text><text class="cls-9" transform="translate(51.25 192.19)">ε</text><text class="cls-9" transform="translate(57.27 196.85) scale(0.58)">a</text><text class="cls-10" transform="translate(156.75 81.82)">ε</text><text class="cls-10" transform="translate(162.77 86.49) scale(0.58)">0</text><text class="cls-10" transform="translate(170.25 164.16)">ε</text><text class="cls-10" transform="translate(176.27 168.82) scale(0.58)">1</text><line class="cls-11" x1="55.97" y1="80.07" x2="55.97" y2="151.48"/><polygon class="cls-12" points="53.75 81.75 55.97 80.81 58.19 81.75 55.97 76.49 53.75 81.75"/><polygon class="cls-12" points="53.75 149.8 55.97 150.74 58.19 149.8 55.97 155.06 53.75 149.8"/><text class="cls-13" transform="translate(27.63 106.19)">2|t</text><text class="cls-13" transform="translate(42.78 110.52) scale(0.58)">12</text><text class="cls-13" transform="translate(50.36 106.19)">|</text><rect class="cls-14" x="25.23" y="17.47" width="176.31" height="190.66"/></svg>
