<svg id="Layer_1" data-name="Layer 1" xmlns="http://www.w3.org/2000/svg" viewBox="0 0 226.77 226.77"><defs><style>.cls-1,.cls-10,.cls-2,.cls-8{fill:none;}.cls-1{stroke:#9da4ab;stroke-dasharray:3;}.cls-1,.cls-10,.cls-2,.cls-5,.cls-6,.cls-7,.cls-8{stroke-miterlimit:10;}.cls-2,.cls-5{stroke:#231f20;}.cls-3,.cls-4{fill:#231f20;}.cls-4{font-size:16px;}.cls-12,.cls-13,.cls-4{font-family:CMUSerif-Roman, CMU Serif;}.cls-5{fill:#c9cdd3;}.cls-6{fill:#00a4de;stroke:#00a4de;}.cls-7{fill:#c8582d;stroke:#c8582d;}.cls-8{stroke:#00a5b6;}.cls-13,.cls-9{fill:#00a5b6;}.cls-10{stroke:#f18254;}.cls-11,.cls-12{fill:#f18254;}.cls-12,.cls-13{font-size:18px;}</style></defs><line class="cls-1" x1="170.8" y1="111.04" x2="155.61" y2="48.36"/><line class="cls-1" x1="100.07" y1="63.94" x2="131.49" y2="73.41"/><line class="cls-2" x1="36.89" y1="198.02" x2="36.89" y2="29.18"/><polygon class="cls-3" points="38.74 30.58 36.89 29.8 35.03 30.58 36.89 26.19 38.74 30.58"/><line class="cls-2" x1="36.97" y1="198.11" x2="205.81" y2="198.11"/><polygon class="cls-3" points="204.41 199.96 205.2 198.11 204.41 196.25 208.8 198.11 204.41 199.96"/><text class="cls-4" transform="translate(118.55 214.88)">V</text><text class="cls-4" transform="translate(130.55 220.2) scale(0.58)">2</text><text class="cls-4" transform="translate(20.99 119.84) rotate(-90)">V</text><text class="cls-4" transform="translate(26.32 107.84) rotate(-90) scale(0.58)">4</text><line class="cls-1" x1="143.59" y1="124.23" x2="139.35" y2="106.74"/><line class="cls-2" x1="46.7" y1="119.59" x2="78.11" y2="129.06"/><line class="cls-2" x1="90.21" y1="179.88" x2="85.97" y2="162.4"/><polyline class="cls-5" points="162.65 82.8 139.35 106.74 139.35 106.75 131.09 72.67 124.15 44.06 131.49 73.41 201.57 94.52"/><line class="cls-2" x1="108.52" y1="138.42" x2="139.35" y2="106.74"/><polyline class="cls-5" points="108.52 138.42 85.56 162.01 85.97 162.4 77.9 129.1 78.11 129.06 108.06 138.08"/><path class="cls-6" d="M111,138.25a2.45,2.45,0,1,1-2.45-2.46A2.45,2.45,0,0,1,111,138.25Z"/><path class="cls-7" d="M165.65,82.15a2.45,2.45,0,1,1-2.45-2.45A2.45,2.45,0,0,1,165.65,82.15Z"/><polyline class="cls-1" points="108.22 97.28 119.77 100.75 139.64 106.75"/><line class="cls-8" x1="120.25" y1="73.41" x2="120.25" y2="98.62"/><polygon class="cls-9" points="118.4 74.81 120.25 74.02 122.1 74.81 120.25 70.42 118.4 74.81"/><polygon class="cls-9" points="118.4 97.21 120.25 98 122.1 97.21 120.25 101.6 118.4 97.21"/><line class="cls-10" x1="142.81" y1="108.71" x2="167.23" y2="108.63"/><polygon class="cls-11" points="144.22 110.56 143.43 108.71 144.21 106.86 139.83 108.72 144.22 110.56"/><polygon class="cls-11" points="165.83 110.49 166.61 108.64 165.82 106.79 170.22 108.62 165.83 110.49"/><text class="cls-12" transform="translate(148.6 122.58)">δ</text><text class="cls-12" transform="translate(157.1 128.57) scale(0.58)">A2</text><text class="cls-13" transform="translate(93.72 88.16)">δ</text><text class="cls-13" transform="translate(102.22 94.15) scale(0.58)">B4</text></svg>