<svg id="Layer_1" data-name="Layer 1" xmlns="http://www.w3.org/2000/svg" viewBox="0 0 226.77 226.77"><defs><style>.cls-1,.cls-5,.cls-9{fill:none;}.cls-1,.cls-10,.cls-2{stroke:#c8582d;}.cls-1,.cls-10,.cls-11,.cls-2,.cls-5,.cls-6,.cls-9{stroke-miterlimit:10;}.cls-10,.cls-2,.cls-3,.cls-4{fill:#c8582d;}.cls-2,.cls-6{opacity:0.4;}.cls-4,.cls-8{font-size:14px;font-family:CMUSerif-Roman, CMU Serif;}.cls-11,.cls-5,.cls-6{stroke:#00a4de;}.cls-11,.cls-6,.cls-7,.cls-8{fill:#00a4de;}.cls-9{stroke:#231f20;}</style></defs><path class="cls-1" d="M149,66.87a12.65,12.65,0,1,1-12.65-12.64A12.65,12.65,0,0,1,149,66.87Z"/><path class="cls-1" d="M182.67,66.87A12.65,12.65,0,1,1,170,54.23,12.64,12.64,0,0,1,182.67,66.87Z"/><path class="cls-2" d="M203.72,79.52a12.65,12.65,0,1,1,0-25.29"/><path class="cls-2" d="M102.65,79.52a12.65,12.65,0,0,0,0-25.29"/><path class="cls-1" d="M142.34,49.71c2.26-1.75,5.9-4,9.55-4,5.9,0,11,6,11,6"/><polygon class="cls-3" points="144.65 50.29 142.86 49.37 142.29 47.44 140.09 51.67 144.65 50.29"/><path class="cls-1" d="M176,49.71c2.26-1.75,5.9-4,9.55-4,5.9,0,10.95,6,10.95,6"/><polygon class="cls-3" points="178.34 50.29 176.55 49.37 175.98 47.44 173.78 51.67 178.34 50.29"/><path class="cls-1" d="M108.65,49.71c2.26-1.75,5.9-4,9.55-4,5.9,0,11,6,11,6"/><polygon class="cls-3" points="110.96 50.29 109.17 49.37 108.59 47.44 106.4 51.67 110.96 50.29"/><text class="cls-4" transform="translate(114.37 42.23)">h</text><text class="cls-4" transform="translate(148.06 42.23)">h</text><text class="cls-4" transform="translate(181.75 42.23)">h</text><path class="cls-5" d="M147.74,178.22a12.65,12.65,0,1,1-12.64-12.65A12.64,12.64,0,0,1,147.74,178.22Z"/><path class="cls-5" d="M181.43,178.22a12.64,12.64,0,1,1-12.64-12.65A12.64,12.64,0,0,1,181.43,178.22Z"/><path class="cls-6" d="M202.48,190.86a12.65,12.65,0,0,1,0-25.29"/><path class="cls-6" d="M101.41,190.86a12.65,12.65,0,0,0,0-25.29"/><path class="cls-5" d="M138.85,162.57s5.9-6,11.8-6c3.56,0,6.81,2.18,8.82,3.91"/><polygon class="cls-7" points="157.15 160.89 158.99 160.09 159.7 158.2 161.6 162.57 157.15 160.89"/><path class="cls-5" d="M172.54,162.57s5.9-6,11.8-6c3.56,0,6.81,2.18,8.83,3.91"/><polygon class="cls-7" points="190.84 160.89 192.68 160.09 193.39 158.2 195.29 162.57 190.84 160.89"/><path class="cls-5" d="M105.16,162.57s5.9-6,11.8-6c3.56,0,6.81,2.18,8.82,3.91"/><polygon class="cls-7" points="123.46 160.89 125.3 160.09 126.01 158.2 127.91 162.57 123.46 160.89"/><text class="cls-8" transform="translate(113.43 152.81)">e</text><text class="cls-8" transform="translate(147.12 152.81)">e</text><text class="cls-8" transform="translate(180.81 152.81)">e</text><line class="cls-9" x1="71.45" y1="192.56" x2="60.21" y2="141.4"/><line class="cls-9" x1="7.66" y1="123.92" x2="60.21" y2="141.4"/><line class="cls-9" x1="60.21" y1="141.4" x2="87.21" y2="114.4"/><line class="cls-9" x1="87.21" y1="114.4" x2="78.21" y2="69.4"/><line class="cls-9" x1="87.21" y1="114.4" x2="141.21" y2="132.4"/><path class="cls-10" d="M91.46,114.4a4.26,4.26,0,1,1-4.25-4.26A4.25,4.25,0,0,1,91.46,114.4Z"/><path class="cls-11" d="M64.46,141.4a4.26,4.26,0,1,1-4.25-4.26A4.25,4.25,0,0,1,64.46,141.4Z"/><path class="cls-1" d="M100,114.4a12.51,12.51,0,0,1-.33,2.83,13.3,13.3,0,0,1-.94,2.7"/><path class="cls-3" d="M96.35,117.89s.65.37,1.28.77,1.26.84,1.26.84.74.16,1.49.28,1.51.21,1.51.21a15.29,15.29,0,0,1-2.16,1.18,12.31,12.31,0,0,1-2.2.72,12,12,0,0,0-.41-2.13A10.83,10.83,0,0,0,96.35,117.89Z"/><path class="cls-1" d="M91.17,126.52l-.87.21-.89.22a8.5,8.5,0,0,1-1,.11l-1.05.08c-.33,0-.64,0-.91,0l-.89-.07"/><path class="cls-3" d="M86.73,124.14s-.15.73-.33,1.46-.41,1.46-.41,1.46.08.74.19,1.5.27,1.5.27,1.5l-.61-.51a9.77,9.77,0,0,1-1.18-1.16,21.33,21.33,0,0,1-1.37-1.85,18.43,18.43,0,0,0,1.9-1.07,7.7,7.7,0,0,0,1.1-.9Z"/><path class="cls-1" d="M76.91,121.92l-.47-.76-.49-.77a9.27,9.27,0,0,1-.42-1l-.41-1c-.09-.32-.16-.62-.23-.88-.13-.52-.21-.87-.21-.87"/><path class="cls-3" d="M77.79,117s-.74.09-1.49.13-1.51.07-1.51.07-.69.3-1.36.65-1.35.71-1.35.71.12-.29.29-.73a9,9,0,0,1,.75-1.49,22.68,22.68,0,0,1,1.33-1.87,19.83,19.83,0,0,0,1.61,1.48,8.15,8.15,0,0,0,1.19.77Z"/><path class="cls-1" d="M76.86,106.94l.57-.68c.18-.2.38-.44.59-.7a8.81,8.81,0,0,1,.78-.7l.79-.69c.27-.19.55-.35.77-.49.45-.29.76-.47.76-.47"/><path class="cls-3" d="M81.84,106.25s-.31-.68-.59-1.38-.53-1.42-.53-1.42-.51-.55-1-1.09-1.11-1.06-1.11-1.06l.79,0a9.48,9.48,0,0,1,1.65.25,22.18,22.18,0,0,1,2.19.68,19.29,19.29,0,0,0-.9,2,7.76,7.76,0,0,0-.36,1.37Z"/><path class="cls-1" d="M91.08,102.24l.83.34a8.08,8.08,0,0,1,1.76.86l.89.54c.28.19.5.41.71.58l.68.58"/><path class="cls-3" d="M93.29,106.76s.54-.5,1.12-1,1.18-.94,1.18-.94.38-.65.72-1.33.67-1.37.67-1.37.08.3.19.76a9.59,9.59,0,0,1,.28,1.64,20,20,0,0,1,0,2.3,19.64,19.64,0,0,0-2.17-.24,7.66,7.66,0,0,0-1.41.08Z"/><path class="cls-5" d="M70.53,148.89a13,13,0,0,0,2.22-5.22"/><path class="cls-7" d="M75.37,145.49s-.66-.38-1.34-.71-1.37-.65-1.37-.65-.76,0-1.51-.06-1.5-.13-1.5-.13a10.13,10.13,0,0,0,1.73-1.07A10.81,10.81,0,0,0,73,141.4a11.6,11.6,0,0,1,1.35,1.87A14.64,14.64,0,0,1,75.37,145.49Z"/><path class="cls-5" d="M56.29,153.54l.87.21.89.21a8.73,8.73,0,0,0,1,.1l1,.09c.33,0,.65-.05.91-.07l.89-.07"/><path class="cls-7" d="M61,157.06s.14-.76.25-1.51.19-1.5.19-1.5-.22-.72-.41-1.45-.34-1.46-.34-1.46l.44.43a8.44,8.44,0,0,0,1.11.89,19.58,19.58,0,0,0,1.9,1.06,18.53,18.53,0,0,1-1.36,1.85,9.35,9.35,0,0,1-1.18,1.18Z"/><path class="cls-5" d="M47.45,141.44s0,.36.08.89a8.22,8.22,0,0,0,.29,1.94c.08.35.17.69.25,1a8,8,0,0,0,.33.85l.35.82"/><path class="cls-7" d="M45.57,147s.76-.1,1.51-.23,1.49-.28,1.49-.28.61-.44,1.25-.85,1.28-.77,1.28-.77l-.27.55a7.9,7.9,0,0,0-.51,1.33,19.2,19.2,0,0,0-.41,2.13,20.21,20.21,0,0,1-2.19-.71,10.13,10.13,0,0,1-1.48-.76Z"/><path class="cls-5" d="M56.2,129.28l-.82.35a8,8,0,0,0-1.75.88l-.89.55c-.27.2-.5.42-.7.59l-.68.58"/><path class="cls-7" d="M50.3,129.23s.33.7.68,1.37.74,1.32.74,1.32.61.46,1.19.93,1.13,1,1.14,1l-.62-.09a7.79,7.79,0,0,0-1.41-.06,19.53,19.53,0,0,0-2.16.26,21,21,0,0,1,0-2.29,8.79,8.79,0,0,1,.26-1.65C50.23,129.54,50.3,129.23,50.3,129.23Z"/><path class="cls-5" d="M70.48,133.83l-.59-.67c-.17-.21-.38-.44-.6-.7a7.65,7.65,0,0,0-.78-.69c-.27-.23-.54-.47-.8-.68s-.55-.34-.77-.49l-.77-.46"/><path class="cls-7" d="M68.7,128.21s-.56.52-1.09,1.07-1,1.11-1,1.11-.24.71-.52,1.41-.57,1.39-.57,1.39,0-.25-.11-.61a8.48,8.48,0,0,0-.38-1.37,19.39,19.39,0,0,0-.92-2,19.7,19.7,0,0,1,2.19-.71,9.34,9.34,0,0,1,1.64-.26Z"/><text class="cls-8" transform="translate(35.44 158.26)">e</text><text class="cls-4" transform="translate(103.46 106.84)">h</text></svg>
