<svg id="Layer_1" data-name="Layer 1" xmlns="http://www.w3.org/2000/svg" viewBox="0 0 246.61 172.91"><defs><style>.cls-1{fill:none;}.cls-1,.cls-2{stroke:#231f20;stroke-miterlimit:10;}.cls-2{fill:#231f20;}.cls-3{font-size:17px;fill:#197fb0;font-family:CMUSerif-Roman, CMU Serif;}.cls-4{font-size:19px;fill:#f18254;font-family:AGaramondPro-Regular, Adobe Garamond Pro;}</style></defs><path class="cls-1" d="M136.21,48.33a22.14,22.14,0,0,1-44.26,0,22.14,22.14,0,0,1,44.26,0Z"/><line class="cls-1" x1="99.33" y1="89.57" x2="128.83" y2="89.57"/><line class="cls-1" x1="99.33" y1="85.57" x2="128.83" y2="85.57"/><line class="cls-1" x1="114.08" y1="103.98" x2="114.08" y2="89.57"/><line class="cls-1" x1="114.08" y1="85.57" x2="114.08" y2="71.16"/><path class="cls-2" d="M117.56,107.38a3.49,3.49,0,1,1-3.48-3.4A3.45,3.45,0,0,1,117.56,107.38Z"/><path class="cls-2" d="M179.77,46.33a3.48,3.48,0,1,1-3.48-3.4A3.44,3.44,0,0,1,179.77,46.33Z"/><path class="cls-2" d="M53.87,46.33a3.49,3.49,0,1,1-3.49-3.4A3.44,3.44,0,0,1,53.87,46.33Z"/><text class="cls-3" transform="translate(82.32 131.93) scale(1.02 1)">plunger</text><text class="cls-3" transform="translate(152.54 79) scale(1.02 1)">drain</text><text class="cls-3" transform="translate(33.65 78.55) scale(1.02 1)">source</text><text class="cls-4" transform="translate(101.47 55.04) scale(1.02 1)">D0</text><rect class="cls-1" x="67.97" y="32.26" width="8.98" height="28.49"/><line class="cls-1" x1="72.46" y1="31.92" x2="72.46" y2="61.08"/><line class="cls-1" x1="77.47" y1="46.5" x2="92.62" y2="46.5"/><line class="cls-1" x1="52.82" y1="46.5" x2="67.97" y2="46.5"/><rect class="cls-1" x="151.29" y="32.26" width="9.11" height="28.9"/><line class="cls-1" x1="155.85" y1="31.92" x2="155.85" y2="61.5"/><line class="cls-1" x1="160.92" y1="46.71" x2="176.29" y2="46.71"/><line class="cls-1" x1="135.92" y1="46.71" x2="151.29" y2="46.71"/><rect class="cls-1" x="155.78" y="100.17" width="5.85" height="24.49"/><line class="cls-1" x1="158.71" y1="99.75" x2="158.71" y2="124.81"/><line class="cls-1" x1="161.97" y1="112.42" x2="171.84" y2="112.42"/><line class="cls-1" x1="145.91" y1="112.42" x2="155.78" y2="112.42"/><line class="cls-1" x1="176.45" y1="110.03" x2="181.17" y2="110.03"/><line class="cls-1" x1="176.45" y1="113.65" x2="181.17" y2="113.65"/><line class="cls-1" x1="197.36" y1="120.72" x2="198.88" y2="114.44"/><line class="cls-1" x1="199.16" y1="114.44" x2="200.58" y2="120.72"/><line class="cls-1" x1="200.66" y1="120.72" x2="202.18" y2="114.44"/><line class="cls-1" x1="202.18" y1="114.44" x2="203.61" y2="120.72"/><line class="cls-1" x1="203.61" y1="120.72" x2="205.13" y2="114.44"/><line class="cls-1" x1="205.13" y1="114.44" x2="206.55" y2="120.72"/><line class="cls-1" x1="196.52" y1="117.58" x2="197.49" y2="120.72"/><line class="cls-1" x1="206.43" y1="120.72" x2="207.43" y2="117.58"/><line class="cls-1" x1="192.62" y1="107.65" x2="192.62" y2="118.22"/><line class="cls-1" x1="192.12" y1="117.72" x2="196.93" y2="117.72"/><line class="cls-1" x1="192.62" y1="108.33" x2="200.93" y2="108.33"/><line class="cls-1" x1="200.93" y1="104.04" x2="200.93" y2="113.2"/><line class="cls-1" x1="203.13" y1="104.04" x2="203.13" y2="113.2"/><line class="cls-1" x1="207" y1="117.73" x2="211.8" y2="117.73"/><line class="cls-1" x1="211.46" y1="107.65" x2="211.46" y2="118.22"/><line class="cls-1" x1="202.8" y1="108.33" x2="211.11" y2="108.33"/><line class="cls-1" x1="186.45" y1="112.93" x2="191.97" y2="112.93"/><line class="cls-1" x1="211.8" y1="112.93" x2="217.32" y2="112.93"/></svg>
