<svg id="Layer_1" data-name="Layer 1" xmlns="http://www.w3.org/2000/svg" viewBox="0 0 268.88 211.94"><defs><style>.cls-1,.cls-15{fill:none;}.cls-1{stroke:#231f20;}.cls-1,.cls-10,.cls-11,.cls-12,.cls-13,.cls-14,.cls-15,.cls-16,.cls-17,.cls-18,.cls-19,.cls-3,.cls-5,.cls-6,.cls-7{stroke-miterlimit:10;}.cls-2,.cls-4,.cls-8{fill:#231f20;}.cls-14,.cls-3,.cls-5{fill:#197fb0;}.cls-3,.cls-5{stroke:#197fb0;}.cls-13,.cls-19,.cls-4,.cls-5,.cls-6,.cls-7{font-size:12px;}.cls-13,.cls-19,.cls-4,.cls-5,.cls-6,.cls-7,.cls-8{font-family:CMUSerif-Roman, CMU Serif;}.cls-10,.cls-17,.cls-6{fill:#00a5b6;}.cls-10,.cls-6{stroke:#00a5b6;}.cls-11,.cls-16,.cls-7{fill:#f18254;}.cls-11,.cls-7{stroke:#f18254;}.cls-8{font-size:14px;}.cls-9{letter-spacing:-0.03em;}.cls-12,.cls-18,.cls-19{fill:#c8582d;}.cls-12,.cls-13,.cls-19{stroke:#c8582d;}.cls-13{fill:#00a4de;}.cls-14,.cls-15,.cls-16,.cls-17,.cls-18{stroke:#899096;}.cls-15{stroke-width:2px;}</style></defs><line class="cls-1" x1="91.58" y1="127.56" x2="100.58" y2="177.87"/><line class="cls-1" x1="91.58" y1="127.56" x2="33.21" y2="118.56"/><line class="cls-1" x1="91.58" y1="127.56" x2="109.58" y2="109.56"/><line class="cls-1" x1="109.58" y1="109.56" x2="106.58" y2="54.38"/><line class="cls-1" x1="109.58" y1="109.56" x2="165.96" y2="109.56"/><line class="cls-1" x1="25.58" y1="185.56" x2="25.58" y2="44.55"/><polygon class="cls-2" points="27.43 45.95 25.57 45.16 23.72 45.95 25.57 41.56 27.43 45.95"/><line class="cls-1" x1="25.58" y1="185.56" x2="166.59" y2="185.56"/><polygon class="cls-2" points="165.19 187.41 165.97 185.56 165.19 183.71 169.57 185.56 165.19 187.41"/><path class="cls-3" d="M111.7,108.88a2.13,2.13,0,1,1-2.12-2.13A2.12,2.12,0,0,1,111.7,108.88Z"/><circle class="cls-3" cx="91.58" cy="127.5" r="2.13"/><text class="cls-4" transform="translate(106.04 141.65)">(N</text><text class="cls-4" transform="translate(119.69 145.64) scale(0.58)">0</text><text class="cls-4" transform="translate(123.19 141.65)">+1, N</text><text class="cls-4" transform="translate(154.85 145.64) scale(0.58)">1</text><text class="cls-4" transform="translate(158.34 141.65)">)</text><text class="cls-4" transform="translate(112.58 83.89)">(N</text><text class="cls-4" transform="translate(126.23 87.88) scale(0.58)">0</text><text class="cls-4" transform="translate(129.73 83.89)">+1, N</text><text class="cls-4" transform="translate(161.39 87.88) scale(0.58)">1</text><text class="cls-4" transform="translate(164.88 83.89)">+1)</text><text class="cls-4" transform="translate(35.21 93.41)">(N</text><text class="cls-4" transform="translate(48.86 97.41) scale(0.58)">0</text><text class="cls-4" transform="translate(52.36 93.41)">, N</text><text class="cls-4" transform="translate(68.68 97.41) scale(0.58)">1</text><text class="cls-4" transform="translate(72.18 93.41)">+1)</text><text class="cls-4" transform="translate(34.58 148.89)">(N</text><text class="cls-4" transform="translate(48.23 152.88) scale(0.58)">0</text><text class="cls-4" transform="translate(51.73 148.89)">, N</text><text class="cls-4" transform="translate(68.05 152.88) scale(0.58)">1</text><text class="cls-4" transform="translate(71.55 148.89)">)</text><text class="cls-5" transform="translate(112.08 106.75)">1</text><text class="cls-6" transform="translate(84.58 168.06)">3</text><text class="cls-7" transform="translate(55.58 118.56)">4</text><text class="cls-5" transform="translate(95.45 132.56)">1</text><text class="cls-8" transform="translate(70.32 197.06)">V</text><text class="cls-8" transform="translate(80.82 201.72) scale(0.58)">left plunger</text><text class="cls-8" transform="translate(11.33 143.52) rotate(-90)">V</text><text class="cls-8" transform="translate(15.99 133.02) rotate(-90) scale(0.58)">rig<tspan class="cls-9" x="16.35" y="0">h</tspan><tspan x="23.73" y="0">t plunger</tspan></text><circle class="cls-10" cx="97.58" cy="160.19" r="2.13"/><path class="cls-11" d="M61.2,123.06a2.13,2.13,0,1,1-2.13-2.12A2.13,2.13,0,0,1,61.2,123.06Z"/><path class="cls-12" d="M102.51,118.56a2.13,2.13,0,1,1-2.13-2.12A2.13,2.13,0,0,1,102.51,118.56Z"/><text class="cls-13" transform="translate(91.58 114.54)">2</text><rect class="cls-14" x="250.38" y="18" width="18" height="27"/><rect class="cls-14" x="196.38" y="18" width="18" height="27"/><line class="cls-15" x1="232.38" y1="45" x2="232.38"/><line class="cls-15" x1="214.38" y1="45" x2="214.38"/><line class="cls-15" x1="250.38" y1="45" x2="250.38"/><line class="cls-1" x1="214.38" y1="18" x2="232.38" y2="18"/><line class="cls-1" x1="232.38" y1="18" x2="250.38" y2="18"/><path class="cls-1" d="M206.55,9.37c4.81-4.4,9.38-3.87,13.38.46"/><polygon class="cls-2" points="208.87 9.68 207 8.95 206.22 7.1 204.49 11.53 208.87 9.68"/><polygon class="cls-2" points="217.57 9.94 219.5 9.38 220.43 7.59 221.79 12.16 217.57 9.94"/><path class="cls-1" d="M224.55,9.37c4.81-4.4,9.38-3.87,13.38.46"/><polygon class="cls-2" points="226.87 9.68 225 8.95 224.22 7.1 222.49 11.53 226.87 9.68"/><polygon class="cls-2" points="235.57 9.94 237.5 9.38 238.43 7.59 239.79 12.16 235.57 9.94"/><path class="cls-1" d="M242.55,9.37c4.81-4.4,9.38-3.87,13.38.46"/><polygon class="cls-2" points="244.87 9.68 243 8.95 242.22 7.1 240.49 11.53 244.87 9.68"/><polygon class="cls-2" points="253.57 9.94 255.5 9.38 256.43 7.59 257.79 12.16 253.57 9.94"/><text class="cls-5" transform="translate(185.79 15.32)">1</text><rect class="cls-16" x="250.38" y="184.44" width="18" height="27"/><rect class="cls-16" x="196.38" y="184.44" width="18" height="27"/><line class="cls-15" x1="232.38" y1="211.44" x2="232.38" y2="166.44"/><line class="cls-15" x1="214.38" y1="211.44" x2="214.38" y2="166.44"/><line class="cls-15" x1="250.38" y1="211.44" x2="250.38" y2="166.44"/><line class="cls-1" x1="214.38" y1="175.44" x2="232.38" y2="175.44"/><line class="cls-1" x1="232.38" y1="184.44" x2="250.38" y2="184.44"/><line class="cls-1" x1="214.38" y1="193.44" x2="232.38" y2="193.44"/><path class="cls-1" d="M241.85,175.8c4.81-4.39,9.38-3.86,13.38.47"/><polygon class="cls-2" points="244.18 176.12 242.3 175.39 241.52 173.53 239.79 177.97 244.18 176.12"/><polygon class="cls-2" points="252.87 176.38 254.8 175.81 255.73 174.03 257.09 178.6 252.87 176.38"/><text class="cls-7" transform="translate(185.79 181.75)">4</text><rect class="cls-17" x="250.38" y="128.96" width="18" height="27"/><rect class="cls-17" x="196.38" y="128.96" width="18" height="27"/><line class="cls-15" x1="232.38" y1="155.96" x2="232.38" y2="110.96"/><line class="cls-15" x1="214.38" y1="155.96" x2="214.38" y2="110.96"/><line class="cls-15" x1="250.38" y1="155.96" x2="250.38" y2="110.96"/><line class="cls-1" x1="214.38" y1="128.96" x2="232.38" y2="128.96"/><line class="cls-1" x1="232.38" y1="119.96" x2="250.38" y2="119.96"/><line class="cls-1" x1="232.38" y1="137.96" x2="250.38" y2="137.96"/><path class="cls-1" d="M206.55,120.32c4.81-4.39,9.38-3.86,13.38.47"/><polygon class="cls-2" points="208.87 120.64 207 119.91 206.22 118.06 204.49 122.49 208.87 120.64"/><polygon class="cls-2" points="217.57 120.9 219.5 120.33 220.43 118.55 221.79 123.12 217.57 120.9"/><text class="cls-6" transform="translate(185.79 126.28)">3</text><line class="cls-15" x1="232.38" y1="100.48" x2="232.38" y2="55.48"/><rect class="cls-18" x="250.38" y="73.48" width="18" height="27"/><rect class="cls-18" x="196.38" y="73.48" width="18" height="27"/><line class="cls-15" x1="214.38" y1="100.48" x2="214.38" y2="55.48"/><line class="cls-15" x1="250.38" y1="100.48" x2="250.38" y2="55.48"/><line class="cls-1" x1="232.38" y1="64.48" x2="250.38" y2="64.48"/><line class="cls-1" x1="232.38" y1="82.48" x2="250.38" y2="82.48"/><path class="cls-1" d="M225.55,75.85c4.81-4.4,9.38-3.87,13.38.46"/><polygon class="cls-2" points="227.87 76.16 226 75.43 225.22 73.58 223.49 78.01 227.87 76.16"/><polygon class="cls-2" points="236.57 76.42 238.5 75.86 239.43 74.07 240.79 78.64 236.57 76.42"/><text class="cls-19" transform="translate(185.79 70.8)">2</text><line class="cls-1" x1="213.79" y1="64.48" x2="231.79" y2="64.48"/><line class="cls-1" x1="213.79" y1="82.48" x2="231.79" y2="82.48"/></svg>
