<svg id="Layer_1" data-name="Layer 1" xmlns="http://www.w3.org/2000/svg" viewBox="0 0 260.96 218.27"><defs><style>.cls-1{fill:none;}.cls-1,.cls-2{stroke:#231f20;stroke-miterlimit:10;}.cls-2,.cls-6{fill:#231f20;}.cls-3{font-size:19px;fill:#e78d54;}.cls-3,.cls-4,.cls-5,.cls-6{font-family:CMUSerif-Roman, CMU Serif;}.cls-4{font-size:16px;fill:#197fb0;}.cls-5,.cls-6{font-size:12px;}.cls-5{fill:#f18254;}</style></defs><line class="cls-1" x1="139.4" y1="167.77" x2="156.57" y2="148.52"/><line class="cls-1" x1="142.75" y1="170.76" x2="159.91" y2="151.51"/><line class="cls-1" x1="87.86" y1="105.74" x2="147.99" y2="158.13"/><line class="cls-1" x1="151.33" y1="161.13" x2="168.27" y2="176.3"/><line class="cls-1" x1="100.77" y1="168.87" x2="83.6" y2="149.62"/><line class="cls-1" x1="97.42" y1="171.85" x2="80.26" y2="152.6"/><line class="cls-1" x1="152.31" y1="106.84" x2="92.18" y2="159.23"/><line class="cls-1" x1="88.84" y1="162.23" x2="71.9" y2="177.4"/><line class="cls-1" x1="56.93" y1="162.15" x2="82.72" y2="162.15"/><line class="cls-1" x1="56.93" y1="157.66" x2="82.72" y2="157.66"/><line class="cls-1" x1="69.82" y1="175.37" x2="69.82" y2="162.15"/><line class="cls-1" x1="69.82" y1="157.66" x2="69.82" y2="117.77"/><path class="cls-2" d="M72.87,178.49a3,3,0,1,1-3.05-3.12A3.08,3.08,0,0,1,72.87,178.49Z"/><line class="cls-1" x1="157.65" y1="162.15" x2="183.45" y2="162.15"/><line class="cls-1" x1="157.65" y1="157.66" x2="183.45" y2="157.66"/><line class="cls-1" x1="170.55" y1="175.37" x2="170.55" y2="162.15"/><line class="cls-1" x1="170.55" y1="157.66" x2="170.55" y2="117.77"/><path class="cls-2" d="M173.6,178.49a3,3,0,1,1-3-3.12A3.08,3.08,0,0,1,173.6,178.49Z"/><path class="cls-2" d="M10.56,97.78a3.08,3.08,0,0,1-3,3.12,3.12,3.12,0,0,1,0-6.24A3.08,3.08,0,0,1,10.56,97.78Z"/><path class="cls-1" d="M88.76,97.93A19.35,19.35,0,1,1,69.42,78.1,19.59,19.59,0,0,1,88.76,97.93Z"/><text class="cls-3" transform="translate(58.88 103.23) scale(0.98 1)">N</text><text class="cls-3" transform="translate(72.78 109.56) scale(0.57 0.58)">A</text><rect class="cls-1" x="24.31" y="84.86" width="7.85" height="26.14"/><line class="cls-1" x1="28.23" y1="84.56" x2="28.23" y2="111.31"/><line class="cls-1" x1="32.49" y1="97.93" x2="49.49" y2="97.93"/><line class="cls-1" x1="11.06" y1="97.93" x2="24.31" y2="97.93"/><rect class="cls-1" x="208.72" y="84.68" width="7.96" height="26.51"/><line class="cls-1" x1="212.7" y1="84.37" x2="212.7" y2="111.5"/><line class="cls-1" x1="217.14" y1="97.93" x2="230.57" y2="97.93"/><line class="cls-1" x1="190.8" y1="97.93" x2="207.81" y2="97.93"/><rect class="cls-1" x="116.3" y="84.97" width="7.78" height="25.92"/><line class="cls-1" x1="120.19" y1="84.53" x2="120.19" y2="111.05"/><line class="cls-1" x1="124.52" y1="97.93" x2="150.29" y2="97.93"/><line class="cls-1" x1="88.76" y1="97.93" x2="116.3" y2="97.93"/><path class="cls-1" d="M189.89,97.93A19.35,19.35,0,1,1,170.55,78.1,19.59,19.59,0,0,1,189.89,97.93Z"/><text class="cls-3" transform="translate(160.03 102.71) scale(0.98 1)">N</text><text class="cls-3" transform="translate(173.92 109.04) scale(0.57 0.58)">B</text><path class="cls-2" d="M123.23,163.49a3,3,0,1,1-3-3.12A3.08,3.08,0,0,1,123.23,163.49Z"/><path class="cls-2" d="M224,161.49a3,3,0,1,1-3.05-3.12A3.08,3.08,0,0,1,224,161.49Z"/><path class="cls-2" d="M22.5,161.49a3,3,0,1,1-3-3.12A3.08,3.08,0,0,1,22.5,161.49Z"/><path class="cls-2" d="M123.23,34.86a3,3,0,1,0-3,3.12A3.08,3.08,0,0,0,123.23,34.86Z"/><text class="cls-4" transform="translate(111.87 17.47)">V</text><text class="cls-4" transform="translate(123.87 22.8) scale(0.58)">0</text><rect class="cls-1" x="196.92" y="19.2" width="6.03" height="23.78"/><line class="cls-1" x1="199.94" y1="18.79" x2="199.94" y2="43.13"/><line class="cls-1" x1="203.29" y1="31.1" x2="213.46" y2="31.1"/><line class="cls-1" x1="186.75" y1="31.1" x2="196.92" y2="31.1"/><line class="cls-1" x1="219.86" y1="32.36" x2="224.71" y2="32.36"/><line class="cls-1" x1="240.39" y1="38.56" x2="241.96" y2="33.06"/><line class="cls-1" x1="242.25" y1="33.06" x2="243.71" y2="38.56"/><line class="cls-1" x1="243.8" y1="38.56" x2="245.36" y2="33.06"/><line class="cls-1" x1="245.36" y1="33.06" x2="246.83" y2="38.56"/><line class="cls-1" x1="246.83" y1="38.56" x2="248.39" y2="33.06"/><line class="cls-1" x1="248.39" y1="33.06" x2="249.86" y2="38.56"/><line class="cls-1" x1="239.53" y1="35.81" x2="240.52" y2="38.56"/><line class="cls-1" x1="249.74" y1="38.56" x2="250.77" y2="35.81"/><line class="cls-1" x1="235.51" y1="27.1" x2="235.51" y2="36.37"/><line class="cls-1" x1="235" y1="35.93" x2="239.95" y2="35.93"/><line class="cls-1" x1="235.51" y1="27.71" x2="244.08" y2="27.71"/><line class="cls-1" x1="244.08" y1="23.94" x2="244.08" y2="31.97"/><line class="cls-1" x1="246.34" y1="23.94" x2="246.34" y2="31.97"/><line class="cls-1" x1="250.32" y1="35.94" x2="255.27" y2="35.94"/><line class="cls-1" x1="254.92" y1="27.1" x2="254.92" y2="36.37"/><line class="cls-1" x1="245.99" y1="27.71" x2="254.56" y2="27.71"/><line class="cls-1" x1="229.15" y1="31.74" x2="234.84" y2="31.74"/><line class="cls-1" x1="255.27" y1="31.74" x2="260.96" y2="31.74"/><line class="cls-1" x1="219.86" y1="27.96" x2="224.71" y2="27.96"/><text class="cls-4" transform="translate(112.57 185.21)">V</text><text class="cls-4" transform="translate(124.57 190.53) scale(0.58)">3</text><text class="cls-4" transform="translate(162.47 195.74)">V</text><text class="cls-4" transform="translate(174.47 201.07) scale(0.58)">4</text><text class="cls-4" transform="translate(212.03 182.98)">V</text><text class="cls-4" transform="translate(224.03 188.31) scale(0.58)">5</text><text class="cls-4" transform="translate(61.09 195.74)">V</text><text class="cls-4" transform="translate(73.09 201.07) scale(0.58)">2</text><text class="cls-4" transform="translate(10.9 182.98)">V</text><text class="cls-4" transform="translate(22.9 188.31) scale(0.58)">1</text><line class="cls-1" x1="134" y1="63.39" x2="152.31" y2="45.23"/><line class="cls-1" x1="137.16" y1="66.58" x2="155.47" y2="48.41"/><line class="cls-1" x1="123.23" y1="34.86" x2="143.17" y2="54.3"/><line class="cls-1" x1="146.32" y1="57.5" x2="166.63" y2="77.97"/><line class="cls-1" x1="105.79" y1="63.43" x2="87.48" y2="45.26"/><line class="cls-1" x1="102.63" y1="66.61" x2="84.32" y2="48.45"/><line class="cls-1" x1="116.56" y1="34.89" x2="96.62" y2="54.33"/><line class="cls-1" x1="93.48" y1="57.53" x2="73.17" y2="78"/><line class="cls-1" x1="155.09" y1="146.92" x2="136.78" y2="128.75"/><line class="cls-1" x1="151.93" y1="150.1" x2="133.63" y2="131.94"/><line class="cls-1" x1="165.87" y1="118.38" x2="145.93" y2="137.82"/><line class="cls-1" x1="142.78" y1="141.02" x2="122.47" y2="161.49"/><line class="cls-1" x1="84.7" y1="146.92" x2="103.01" y2="128.75"/><line class="cls-1" x1="87.86" y1="150.1" x2="106.17" y2="131.94"/><line class="cls-1" x1="73.93" y1="118.38" x2="93.86" y2="137.82"/><line class="cls-1" x1="97.01" y1="141.02" x2="117.32" y2="161.49"/><line class="cls-1" x1="187.51" y1="146" x2="205.82" y2="127.84"/><line class="cls-1" x1="190.67" y1="149.18" x2="208.98" y2="131.02"/><line class="cls-1" x1="176.74" y1="117.47" x2="196.68" y2="136.91"/><line class="cls-1" x1="199.82" y1="140.1" x2="220.13" y2="160.57"/><line class="cls-1" x1="54.69" y1="146.08" x2="36.38" y2="127.92"/><line class="cls-1" x1="51.53" y1="149.27" x2="33.22" y2="131.1"/><line class="cls-1" x1="65.46" y1="117.55" x2="45.52" y2="136.99"/><line class="cls-1" x1="42.37" y1="140.19" x2="22.06" y2="160.66"/><path class="cls-2" d="M236.62,97.59a3,3,0,1,1-3.05-3.12A3.08,3.08,0,0,1,236.62,97.59Z"/><text class="cls-5" transform="translate(184.86 74.81)">C</text><text class="cls-5" transform="translate(193.52 78.81) scale(0.58)">B</text><text class="cls-5" transform="translate(42.57 74.81)">C</text><text class="cls-5" transform="translate(51.23 78.81) scale(0.58)">A</text><text class="cls-6" transform="translate(112.77 77.02)">C</text><text class="cls-6" transform="translate(121.44 81.01) scale(0.58)">m</text><line class="cls-1" x1="68.25" y1="154.32" x2="57" y2="131.11"/><line class="cls-1" x1="64.21" y1="156.27" x2="52.97" y2="133.06"/><line class="cls-1" x1="151.51" y1="100.58" x2="62.62" y2="142.7"/><line class="cls-1" x1="58.59" y1="144.67" x2="20.23" y2="163.12"/><line class="cls-1" x1="171.72" y1="153.32" x2="182.96" y2="130.1"/><line class="cls-1" x1="175.75" y1="155.27" x2="186.99" y2="132.06"/><line class="cls-1" x1="88.45" y1="99.58" x2="177.34" y2="141.69"/><line class="cls-1" x1="181.37" y1="143.67" x2="219.73" y2="162.12"/><text class="cls-6" transform="translate(71.67 38.74)">C</text><text class="cls-6" transform="translate(80.33 42.74) scale(0.58)">A0</text><text class="cls-6" transform="translate(146.54 38.74)">C</text><text class="cls-6" transform="translate(155.2 42.74) scale(0.58)">B0</text><text class="cls-6" transform="translate(211.36 133.95)">C</text><text class="cls-6" transform="translate(220.02 137.94) scale(0.58)">B5</text><text class="cls-6" transform="translate(13.52 133.95)">C</text><text class="cls-6" transform="translate(22.19 137.94) scale(0.58)">A1</text><text class="cls-6" transform="translate(14.96 78.73)">C</text><text class="cls-6" transform="translate(23.62 82.72) scale(0.58)">S</text><text class="cls-6" transform="translate(211.91 78.86)">C</text><text class="cls-6" transform="translate(220.58 82.85) scale(0.58)">D</text></svg>
