<svg id="Layer_1" data-name="Layer 1" xmlns="http://www.w3.org/2000/svg" xmlns:xlink="http://www.w3.org/1999/xlink" viewBox="0 0 246.61 172.91"><defs><style>.cls-1,.cls-10,.cls-11,.cls-3,.cls-4,.cls-8{fill:none;}.cls-2{fill:#197fb0;}.cls-12,.cls-2,.cls-3,.cls-4,.cls-8{stroke:#231f20;}.cls-10,.cls-11,.cls-12,.cls-2,.cls-3,.cls-4,.cls-8{stroke-miterlimit:10;}.cls-4{stroke-width:3px;}.cls-5,.cls-6,.cls-7{font-size:17px;font-family:CMUSerif-Roman, CMU Serif;}.cls-5,.cls-6,.cls-7,.cls-9{fill:#231f20;}.cls-6{letter-spacing:0em;}.cls-7{letter-spacing:0em;}.cls-10,.cls-11,.cls-8{stroke-width:2px;}.cls-10{stroke:#c8582d;}.cls-11{stroke:#c85835;}.cls-12{fill:#d1d3d4;}.cls-13{isolation:isolate;}.cls-14{clip-path:url(#clip-path);}.cls-15{fill:#007986;}.cls-16{fill:#007783;}.cls-17{fill:#007480;}.cls-18{fill:#00717d;}.cls-19{fill:#006f7a;}.cls-20{fill:#006c77;}.cls-21{fill:#006a74;}.cls-22{fill:#006771;}.cls-23{fill:#007c88;}.cls-24{fill:#007f8b;}.cls-25{fill:#00818e;}.cls-26{fill:#008491;}.cls-27{fill:#008794;}.cls-28{fill:#008997;}.cls-29{fill:#008c99;}.cls-30{fill:#008e9c;}.cls-31{fill:#00919f;}.cls-32{fill:#0093a2;}.cls-33{fill:#0095a4;}.cls-34{fill:#0098a7;}.cls-35{fill:#009aaa;}.cls-36{fill:#009dac;}.cls-37{fill:#009faf;}.cls-38{fill:#00a2b2;}.cls-39{fill:#00a5b5;}.cls-40{fill:#00acbc;}.cls-41{fill:#00b0bf;}.cls-42{fill:#1ab2c1;}.cls-43{fill:#31b4c3;}.cls-44{fill:#3fb7c5;}.cls-45{fill:#49b8c7;}.cls-46{fill:#52bac8;}.cls-47{fill:#59bcc9;}.cls-48{fill:#5fbdcb;}.cls-49{fill:#65bfcc;}.cls-50{fill:#6ac0cd;}.cls-51{fill:#6fc2ce;}.cls-52{fill:#73c3cf;}.cls-53{fill:#78c4d0;}.cls-54{fill:#7cc6d1;}.cls-55{fill:#80c7d2;}.cls-56{fill:#83c8d3;}.cls-57{fill:#87c9d4;}.cls-58{fill:#8acbd5;}.cls-59{clip-path:url(#clip-path-2);}</style><clipPath id="clip-path"><path class="cls-1" d="M72.86,71.81a3.48,3.48,0,0,0,2.21.4,3.48,3.48,0,0,1-2.21-.4,4.54,4.54,0,0,1-2.22-4.69,4.56,4.56,0,0,1,1.17-2.32A4.43,4.43,0,0,1,74,63.52a4.5,4.5,0,1,1-1.16,8.29Z"/></clipPath><clipPath id="clip-path-2"><path class="cls-1" d="M75.68,72.35a4.53,4.53,0,0,1-2.82-.54A3.79,3.79,0,0,1,71,68.43a5,5,0,0,1,4-4.86,5,5,0,0,0-4,4.86,3.79,3.79,0,0,0,1.82,3.38,4.75,4.75,0,0,1-1.12-.9,4.31,4.31,0,0,1-.66-1,4.38,4.38,0,0,1-.44-2.79A4.53,4.53,0,0,1,74,63.51a4.36,4.36,0,0,1,2.46.11A4.5,4.5,0,0,1,79,70.09,4.5,4.5,0,0,1,75.68,72.35Z"/></clipPath></defs><rect class="cls-2" x="33.31" y="73.39" width="54" height="72"/><rect class="cls-2" x="160.31" y="80.9" width="54" height="72" transform="translate(-0.43 0.7) rotate(-0.21)"/><line class="cls-3" x1="87.31" y1="1.39" x2="87.31" y2="82.39"/><line class="cls-3" x1="159.91" y1="9" x2="160.18" y2="81"/><line class="cls-3" x1="87.31" y1="1.39" x2="96.31" y2="1.39"/><line class="cls-3" x1="150.31" y1="9" x2="159.31" y2="9"/><line class="cls-3" x1="96.31" y1="1.39" x2="96.31" y2="171.52"/><line class="cls-3" x1="150.31" y1="9" x2="150.31" y2="171.52"/><line class="cls-3" x1="96.31" y1="55.39" x2="150.31" y2="55.39"/><line class="cls-3" x1="96.31" y1="91.39" x2="150.31" y2="91.39"/><line class="cls-4" x1="32.81" y1="73.39" x2="87.31" y2="73.39"/><line class="cls-4" x1="160.18" y1="81" x2="214.18" y2="80.8"/><text class="cls-5" transform="translate(41.81 63.52)">ε</text><text class="cls-5" transform="translate(49.12 69.18) scale(0.58)">S</text><text class="cls-5" transform="translate(54.62 63.52)"> </text><text class="cls-5" transform="translate(191.59 71.02) rotate(-0.21)">ε</text><text class="cls-6" transform="matrix(0.58, 0, 0, 0.58, 198.92, 76.65)">D</text><text class="cls-7" transform="translate(206.46 70.96) rotate(-0.21)"> </text><text class="cls-5" transform="translate(114.31 46.39)">ε</text><text class="cls-5" transform="translate(121.62 52.05) scale(0.58)">N+1</text><text class="cls-5" transform="translate(114.31 82.39)">ε</text><text class="cls-5" transform="translate(121.62 88.05) scale(0.58)">N</text><text class="cls-5" transform="translate(129.05 82.39)"> </text><path class="cls-8" d="M78.31,63.39c11.19-14,22.19-15.46,30.7-6.27"/><polygon class="cls-9" points="104.26 57.29 108.15 56.23 110.08 52.7 112.61 61.89 104.26 57.29"/><line class="cls-10" x1="87.31" y1="44.39" x2="105.31" y2="62.39"/><line class="cls-11" x1="104.31" y1="44.39" x2="86.31" y2="62.39"/><rect class="cls-12" x="96.31" y="90.52" width="54" height="81"/><g class="cls-13"><g class="cls-13"><g class="cls-14"><g class="cls-13"><path class="cls-15" d="M72.86,71.81A4.5,4.5,0,1,0,71,66a4.5,4.5,0,0,0,1.89,5.77,3.48,3.48,0,0,0,2.21.4,3.48,3.48,0,0,1-2.21-.4"/><path class="cls-15" d="M75.07,72.21c-4.09.11-5.46-4.34-3.49-6.22s6.06.29,5.92,3.38a3,3,0,0,1-2.43,2.84,3.48,3.48,0,0,1-2.21-.4l.23.12.35.15.19.07.22.07.15,0,.16,0,.13,0,.13,0,.11,0h1l.12,0,.14,0a4.22,4.22,0,0,0,.91-.25L77,72a4.15,4.15,0,0,0,.51-.28l.25-.17.36-.29.24-.23.27-.31.2-.27a3.13,3.13,0,0,0,.21-.34l.16-.31c0-.11.11-.25.15-.36l.11-.33c0-.12.06-.27.09-.39l0-.35c0-.14,0-.32,0-.45l0-.37c0-.12,0-.27,0-.39l-.08-.35c0-.11-.07-.26-.11-.37l-.12-.33L79,65.75l-.18-.3a3.71,3.71,0,0,0-.23-.32l-.21-.25c-.09-.09-.2-.21-.29-.29l-.24-.21a4.11,4.11,0,0,0-.59-.4l-.23-.13-.35-.15-.19-.07-.22-.07-.16,0-.16,0-.13,0-.13,0-.11,0h-1l-.12,0-.15,0a4.38,4.38,0,0,0-1,.28l-.23.1a3.3,3.3,0,0,0-.5.28l-.25.17-.35.29-.23.23-.28.32-.19.27c-.07.1-.15.24-.21.34L71,66l-.14.36-.1.34c0,.12-.07.27-.09.38l0,.36c0,.12,0,.28,0,.4v.37c0,.19.06.45.1.64l.09.34.13.37.15.31c0,.1.13.24.19.34l.19.28a3.65,3.65,0,0,0,.24.31l.23.24a4.12,4.12,0,0,0,.31.28l.24.19.4.26a3.48,3.48,0,0,0,2.21.4"/><path class="cls-16" d="M73.56,72.1c-3.5-1.29-3.79-5.53-1.22-6.74s6.17,2,5.16,4.89a3,3,0,0,1-3.94,1.85,3.33,3.33,0,0,1-.7-.29l.23.12.35.15.19.07.22.07.15,0,.16,0,.13,0,.13,0,.11,0h1l.12,0,.14,0a4.22,4.22,0,0,0,.91-.25L77,72a4.15,4.15,0,0,0,.51-.28l.25-.17.36-.29.24-.23.27-.31.2-.27a3.13,3.13,0,0,0,.21-.34l.16-.31c0-.11.11-.25.15-.36l.11-.33c0-.12.06-.27.09-.39l0-.35c0-.14,0-.32,0-.45l0-.37c0-.12,0-.27,0-.39l-.08-.35c0-.11-.07-.26-.11-.37l-.12-.33L79,65.75l-.18-.3a3.71,3.71,0,0,0-.23-.32l-.21-.25c-.09-.09-.2-.21-.29-.29l-.24-.21a4.11,4.11,0,0,0-.59-.4l-.23-.13-.35-.15-.19-.07-.22-.07-.16,0-.16,0-.13,0-.13,0-.11,0h-1l-.12,0-.15,0a4.38,4.38,0,0,0-1,.28l-.23.1a3.3,3.3,0,0,0-.5.28l-.25.17-.35.29-.23.23-.28.32-.19.27c-.07.1-.15.24-.21.34L71,66l-.14.36-.1.34c0,.12-.07.27-.09.38l0,.36c0,.12,0,.28,0,.4v.37c0,.19.06.45.1.64l.09.34.13.37.15.31c0,.1.13.24.19.34l.19.28a3.65,3.65,0,0,0,.24.31l.23.24a4.12,4.12,0,0,0,.31.28l.24.19.4.26a3.33,3.33,0,0,0,.7.29"/><path class="cls-17" d="M70.76,69.17c-.88-3.12,2-5.29,4.88-3.68s2.93,5.91,0,6.72a3.68,3.68,0,0,1-2.69-.36l-.08,0,.23.12.35.15.19.07.22.07.15,0,.16,0,.13,0,.13,0,.11,0h1l.12,0,.14,0a4.22,4.22,0,0,0,.91-.25L77,72a4.15,4.15,0,0,0,.51-.28l.25-.17.36-.29.24-.23.27-.31.2-.27a3.13,3.13,0,0,0,.21-.34l.16-.31c0-.11.11-.25.15-.36l.11-.33c0-.12.06-.27.09-.39l0-.35c0-.14,0-.32,0-.45l0-.37c0-.12,0-.27,0-.39l-.08-.35c0-.11-.07-.26-.11-.37l-.12-.33L79,65.75l-.18-.3a3.71,3.71,0,0,0-.23-.32l-.21-.25c-.09-.09-.2-.21-.29-.29l-.24-.21a4.11,4.11,0,0,0-.59-.4l-.23-.13-.35-.15-.19-.07-.22-.07-.16,0-.16,0-.13,0-.13,0-.11,0h-1l-.12,0-.15,0a4.38,4.38,0,0,0-1,.28l-.23.1a3.3,3.3,0,0,0-.5.28l-.25.17-.35.29-.23.23-.28.32-.19.27c-.07.1-.15.24-.21.34L71,66l-.14.36-.1.34c0,.12-.07.27-.09.38l0,.36c0,.12,0,.28,0,.4v.37c0,.19.06.45.1.64l.09.34.1.28-.11-.32v0"/><path class="cls-17" d="M72.94,71.85l-.27-.16.19.12.08,0"/><path class="cls-18" d="M70.63,68.59c-.42-3.58,3.24-4.86,5.73-2.83,2.67,2.17,1.93,6.3-1.19,6.58a3.69,3.69,0,0,1-1.61-.21l.18.06.11,0,.15,0,.16,0,.13,0,.13,0,.11,0h1l.12,0,.14,0a4.22,4.22,0,0,0,.91-.25L77,72a4.15,4.15,0,0,0,.51-.28l.25-.17.36-.29.24-.23.27-.31.2-.27a3.13,3.13,0,0,0,.21-.34l.16-.31c0-.11.11-.25.15-.36l.11-.33c0-.12.06-.27.09-.39l0-.35c0-.14,0-.32,0-.45l0-.37c0-.12,0-.27,0-.39l-.08-.35c0-.11-.07-.26-.11-.37l-.12-.33L79,65.75l-.18-.3a3.71,3.71,0,0,0-.23-.32l-.21-.25c-.09-.09-.2-.21-.29-.29l-.24-.21a4.11,4.11,0,0,0-.59-.4l-.23-.13-.35-.15-.19-.07-.22-.07-.16,0-.16,0-.13,0-.13,0-.11,0h-1l-.12,0-.15,0a4.38,4.38,0,0,0-1,.28l-.23.1a3.3,3.3,0,0,0-.5.28l-.25.17-.35.29-.23.23-.28.32-.19.27c-.07.1-.15.24-.21.34L71,66l-.14.36-.1.34c0,.12-.07.27-.09.38l0,.36c0,.12,0,.28,0,.4v.37c0,.12,0,.29,0,.41v-.07"/><path class="cls-19" d="M70.58,67.88c.18-3.83,4.33-4,6.35-1.86,2.41,2.61,1.13,6.48-2.11,6.36l-.56-.06.13,0h0l.11,0h1l.12,0,.14,0a4.22,4.22,0,0,0,.91-.25L77,72a4.15,4.15,0,0,0,.51-.28l.25-.17.36-.29.24-.23.27-.31.2-.27a3.13,3.13,0,0,0,.21-.34l.16-.31c0-.11.11-.25.15-.36l.11-.33c0-.12.06-.27.09-.39l0-.35c0-.14,0-.32,0-.45l0-.37c0-.12,0-.27,0-.39l-.08-.35c0-.11-.07-.26-.11-.37l-.12-.33L79,65.75l-.18-.3a3.71,3.71,0,0,0-.23-.32l-.21-.25c-.09-.09-.2-.21-.29-.29l-.24-.21a4.11,4.11,0,0,0-.59-.4l-.23-.13-.35-.15-.19-.07-.22-.07-.16,0-.16,0-.13,0-.13,0-.11,0h-1l-.12,0-.15,0a4.38,4.38,0,0,0-1,.28l-.23.1a3.3,3.3,0,0,0-.5.28l-.25.17-.35.29-.23.23-.28.32-.19.27c-.07.1-.15.24-.21.34L71,66l-.14.36-.1.34c0,.12-.07.27-.09.38l0,.36c0,.12,0,.28,0,.4h0"/><path class="cls-20" d="M70.68,67c1.08-3.84,5.7-2.84,7.15,0s-.06,5.53-2.87,5.48h.6l.12,0,.14,0a4.22,4.22,0,0,0,.91-.25L77,72a4.15,4.15,0,0,0,.51-.28l.25-.17.36-.29.24-.23.27-.31.2-.27a3.13,3.13,0,0,0,.21-.34l.16-.31c0-.11.11-.25.15-.36l.11-.33c0-.12.06-.27.09-.39l0-.35c0-.14,0-.32,0-.45l0-.37c0-.12,0-.27,0-.39l-.08-.35c0-.11-.07-.26-.11-.37l-.12-.33L79,65.75l-.18-.3a3.71,3.71,0,0,0-.23-.32l-.21-.25c-.09-.09-.2-.21-.29-.29l-.24-.21a4.11,4.11,0,0,0-.59-.4l-.23-.13-.35-.15-.19-.07-.22-.07-.16,0-.16,0-.13,0-.13,0-.11,0h-1l-.12,0-.15,0a4.38,4.38,0,0,0-1,.28l-.23.1a3.3,3.3,0,0,0-.5.28l-.25.17-.35.29-.23.23-.28.32-.19.27c-.07.1-.15.24-.21.34L71,66l-.14.36-.1.34c0,.12-.07.27-.09.38l0,.12.06-.29"/><path class="cls-21" d="M70.8,66.5c1.32-3.5,5.81-2.69,7.33.48,1.16,2.4,0,5-2.43,5.37l.15,0a4.42,4.42,0,0,0,.88-.24L77,72a4.15,4.15,0,0,0,.51-.28l.25-.17.36-.29.24-.23.27-.31.2-.27a3.13,3.13,0,0,0,.21-.34l.16-.31c0-.11.11-.25.15-.36l.11-.33c0-.12.06-.27.09-.39l0-.35c0-.14,0-.32,0-.45l0-.37c0-.12,0-.27,0-.39l-.08-.35c0-.11-.07-.26-.11-.37l-.12-.33L79,65.75l-.18-.3a3.71,3.71,0,0,0-.23-.32l-.21-.25c-.09-.09-.2-.21-.29-.29l-.24-.21a4.11,4.11,0,0,0-.59-.4l-.23-.13-.35-.15-.19-.07-.22-.07-.16,0-.16,0-.13,0-.13,0-.11,0h-1l-.12,0-.15,0a4.38,4.38,0,0,0-1,.28l-.23.1a3.3,3.3,0,0,0-.5.28l-.25.17-.35.29-.23.23-.28.32-.19.27c-.07.1-.15.24-.21.34L71,66l-.14.36a.58.58,0,0,1,0,.14l0,0"/><path class="cls-22" d="M71.3,65.45c2.13-3,6.82-1,7.42,2.46a3.54,3.54,0,0,1-2.31,4.28l.17-.06.15,0L77,72a4.15,4.15,0,0,0,.51-.28l.25-.17.36-.29.24-.23.27-.31.2-.27a3.13,3.13,0,0,0,.21-.34l.16-.31c0-.11.11-.25.15-.36l.11-.33c0-.12.06-.27.09-.39l0-.35c0-.14,0-.32,0-.45l0-.37c0-.12,0-.27,0-.39l-.08-.35c0-.11-.07-.26-.11-.37l-.12-.33L79,65.75l-.18-.3a3.71,3.71,0,0,0-.23-.32l-.21-.25c-.09-.09-.2-.21-.29-.29l-.24-.21a4.11,4.11,0,0,0-.59-.4l-.23-.13-.35-.15-.19-.07-.22-.07-.16,0-.16,0-.13,0-.13,0-.11,0h-1l-.12,0-.15,0a4.38,4.38,0,0,0-1,.28l-.23.1a3.3,3.3,0,0,0-.5.28l-.25.17-.35.29-.23.23-.28.32-.19.27c-.07.1-.15.24-.21.34l.12-.2,0-.08"/><path class="cls-23" d="M73.84,72.11c2.82.56,4.52-2.46,2.81-5s-5.47-2.16-5.91.67a4,4,0,0,0,3.1,4.3"/><path class="cls-24" d="M73.42,72c2.94.91,4.63-2,3.3-4.39-1.61-2.87-5.22-2.51-5.85-.07A3.82,3.82,0,0,0,73.42,72"/><path class="cls-25" d="M72.86,71.68a2.75,2.75,0,0,0,4-3.24c-.9-3.1-4.59-3.56-5.75-1.38a3.56,3.56,0,0,0,1.72,4.62"/><path class="cls-26" d="M72.69,71.53a2.67,2.67,0,0,0,4-3.11c-.73-2.71-4.49-3.48-5.6-1.14a3.44,3.44,0,0,0,1.56,4.25"/><path class="cls-27" d="M72.42,71.3c2.16,1.47,4.58,0,4.25-2.48S72.91,65,71.45,67a3.18,3.18,0,0,0,1,4.34"/><path class="cls-28" d="M72.38,71.21a2.52,2.52,0,0,0,4.15-2.41c-.45-2.69-3.94-3.41-5.09-1.63a3.07,3.07,0,0,0,.94,4"/><path class="cls-29" d="M72.42,71.16a2.43,2.43,0,0,0,4-2.37c-.51-2.67-3.8-3.23-4.94-1.4a2.9,2.9,0,0,0,1,3.77"/><path class="cls-30" d="M72.15,70.84a2.36,2.36,0,0,0,4.14-1.66,2.72,2.72,0,0,0-4.45-2.06,2.62,2.62,0,0,0,.31,3.72"/><path class="cls-31" d="M72.21,70.79a2.31,2.31,0,0,0,3.94-2c-.26-2.1-3.24-3-4.43-1.29a2.53,2.53,0,0,0,.49,3.31"/><path class="cls-32" d="M72.29,70.74a2.23,2.23,0,0,0,3.76-2,2.43,2.43,0,0,0-4.19-1.23,2.39,2.39,0,0,0,.43,3.21"/><path class="cls-33" d="M72.09,70.39A2.16,2.16,0,0,0,76,69.16a2.3,2.3,0,0,0-3.71-1.83,2.15,2.15,0,0,0-.17,3.06"/><path class="cls-34" d="M72.2,70.34a2.08,2.08,0,0,0,3.68-1.19,2.14,2.14,0,0,0-3.56-1.69,2,2,0,0,0-.12,2.88"/><path class="cls-35" d="M72.32,70.28a2,2,0,0,0,3.46-1.14,2,2,0,0,0-3.45-1.5,1.94,1.94,0,0,0,0,2.64"/><path class="cls-36" d="M72.47,70.23a1.87,1.87,0,1,0,.1-2.65,1.81,1.81,0,0,0-.1,2.65"/><path class="cls-37" d="M72.36,69.85a1.81,1.81,0,0,0,1.7.8,1.78,1.78,0,0,0,1.56-1.51,1.81,1.81,0,0,0-2.78-1.66,1.74,1.74,0,0,0-.48,2.37"/><path class="cls-38" d="M72.51,69.8a1.65,1.65,0,1,0,2.09-2.37,1.65,1.65,0,0,0-1.75.16,1.6,1.6,0,0,0-.34,2.21"/><path class="cls-39" d="M72.64,69.77a1.6,1.6,0,0,0,2.85-.64,1.55,1.55,0,0,0-.89-1.62,1.53,1.53,0,0,0-2,2.26"/><path class="cls-40" d="M72.77,69.74a1.5,1.5,0,0,0,2.65-.61,1.55,1.55,0,0,0-2.28-1.53,1.43,1.43,0,0,0-.37,2.14"/><path class="cls-41" d="M72.79,69.55a1.39,1.39,0,0,0,2.56-.42,1.42,1.42,0,0,0-.68-1.44,1.5,1.5,0,0,0-1.33-.11c-.62.36-.65.47-.79,1a1.25,1.25,0,0,0,.24,1"/><path class="cls-42" d="M73,69.69a1.56,1.56,0,0,0,1.32.43c.54-.22.55-.23.82-.61a1.17,1.17,0,0,0,.17-.78,1.53,1.53,0,0,0-.44-.83c-.23-.21-.23-.21-.85-.38a1.58,1.58,0,0,0-1.18.55A1.31,1.31,0,0,0,73,69.69"/><path class="cls-43" d="M72.83,69.32a1.39,1.39,0,0,0,1.46.73,1.36,1.36,0,0,0,.93-.93,1.28,1.28,0,0,0-.44-1.21,1.93,1.93,0,0,0-.77-.33,1.17,1.17,0,0,0-.58.1,1.51,1.51,0,0,0-.49.38,4.9,4.9,0,0,0-.23.46,1.36,1.36,0,0,0,.12.8"/><path class="cls-44" d="M72.9,69.31a1.38,1.38,0,0,0,1.38.66l.43-.18a1.26,1.26,0,0,0,.44-.67,1.16,1.16,0,0,0-.45-1.21,2,2,0,0,0-.69-.27,1.29,1.29,0,0,0-.58.1,1.31,1.31,0,0,0-.64.76,1.23,1.23,0,0,0,.11.81"/><path class="cls-45" d="M73,69.29a4.6,4.6,0,0,0,.31.35,3.11,3.11,0,0,0,.52.25,1,1,0,0,0,.46,0,.77.77,0,0,0,.43-.19,1.2,1.2,0,0,0,.39-.59,1.11,1.11,0,0,0-.47-1.21,1.17,1.17,0,0,0-.6-.21,1.28,1.28,0,0,0-.58.11A1.08,1.08,0,0,0,73,69.29"/><path class="cls-46" d="M73.06,69.28a1.2,1.2,0,0,0,1.2.56.84.84,0,0,0,.44-.2,1.59,1.59,0,0,0,.33-.52A1.08,1.08,0,0,0,74.62,68a4.36,4.36,0,0,0-.6-.23,1.29,1.29,0,0,0-.58.13,1,1,0,0,0-.38,1.4"/><path class="cls-47" d="M73.14,69.27a1.42,1.42,0,0,0,.63.47,1.1,1.1,0,0,0,.48,0,.88.88,0,0,0,.44-.22,2.32,2.32,0,0,0,.28-.44,1,1,0,0,0-.35-1.06,1,1,0,0,0-1.17-.12,1,1,0,0,0-.31,1.33"/><path class="cls-48" d="M73.21,69.25a1.69,1.69,0,0,0,.54.42,1,1,0,0,0,.48,0,4.9,4.9,0,0,0,.46-.23.93.93,0,0,0,.21-.36,1,1,0,0,0-.28-1,3.33,3.33,0,0,0-.59-.26,3.65,3.65,0,0,0-.57.14.88.88,0,0,0-.35.44.94.94,0,0,0,.1.8"/><path class="cls-49" d="M73.29,69.24a4.49,4.49,0,0,0,.44.36,1.17,1.17,0,0,0,.49.05,2.54,2.54,0,0,0,.46-.26.67.67,0,0,0,.16-.27.84.84,0,0,0-.22-.91L74,67.92s-.54.15-.56.17a.83.83,0,0,0-.18,1.15"/><path class="cls-50" d="M73.37,69.23a.91.91,0,0,0,.34.28,1.22,1.22,0,0,0,.5.08,3.86,3.86,0,0,0,.47-.29.59.59,0,0,0,.1-.17.93.93,0,0,0-.15-.85A1.4,1.4,0,0,0,74,68a.93.93,0,0,0-.55.18.78.78,0,0,0-.11,1.06"/><path class="cls-51" d="M73.44,69.22a.72.72,0,0,0,.25.21,1,1,0,0,0,.51.09,1.23,1.23,0,0,0,.47-.32.1.1,0,0,0,0-.07.93.93,0,0,0,.06-.4,1.51,1.51,0,0,0-.19-.4,1.17,1.17,0,0,0-.54-.28,1.69,1.69,0,0,0-.56.19c-.19.08-.21.6-.21.6a1,1,0,0,0,.17.38"/><path class="cls-52" d="M73.52,69.21a.45.45,0,0,0,.15.13,1.22,1.22,0,0,0,.52.11c.16,0,.32-.22.45-.32s0,0,0-.07a.62.62,0,0,0,0-.33.87.87,0,0,0-.67-.61,1.36,1.36,0,0,0-.54.2.23.23,0,0,0-.08.09.72.72,0,0,0,.1.8"/><path class="cls-53" d="M73.6,69.2a.12.12,0,0,0,.05,0,1.29,1.29,0,0,0,.53.13.76.76,0,0,0,.34-.25.92.92,0,0,0,.13-.36.13.13,0,0,0,0-.06,1.82,1.82,0,0,0-.29-.38.59.59,0,0,0-.3-.14.71.71,0,0,0-.54.21.62.62,0,0,0-.1.42.81.81,0,0,0,.19.38"/><path class="cls-54" d="M73.62,69.1s.07.08.11.09a.9.9,0,0,0,.44.11.41.41,0,0,0,.23-.16.71.71,0,0,0,.15-.41c0-.15-.21-.28-.32-.39a.31.31,0,0,0-.18-.09c-.15,0-.87.29-.43.85"/><path class="cls-55" d="M73.58,68.86a1.55,1.55,0,0,0,.36.31.33.33,0,0,0,.22.06.32.32,0,0,0,.12-.08c.06-.12.18-.28.16-.41s-.3-.42-.38-.42-.1,0-.5.44c0,0,0,.08,0,.1"/><path class="cls-56" d="M74.14,69.15h0a3.79,3.79,0,0,0,.18-.42c0-.12-.14-.3-.26-.31a.42.42,0,0,0-.36.36c0,.17.28.28.43.36"/><path class="cls-57" d="M74.13,69c.07,0,.1-.15.09-.22s-.07-.16-.13-.16a.21.21,0,0,0-.19.18c0,.09.14.22.23.2"/><path class="cls-58" d="M74.1,68.77h0s0,0,0,0a0,0,0,0,0,0,0h0"/></g></g></g><g class="cls-13"><g class="cls-59"><g class="cls-13"><path class="cls-15" d="M75.68,72.35a4.53,4.53,0,0,1-2.82-.54A3.79,3.79,0,0,1,71,68.43a5,5,0,0,1,4-4.86,5,5,0,0,0-4,4.86,3.79,3.79,0,0,0,1.82,3.38,4.51,4.51,0,1,1,2.82.54"/><path class="cls-15" d="M71,68.43a3.79,3.79,0,0,0,1.82,3.38l-.26-.16-.38-.29L72,71.15l-.29-.31-.21-.26-.22-.33-.17-.3-.17-.35-.12-.33-.1-.38-.07-.35c0-.2,0-.46,0-.66v-.36c0-.12,0-.28,0-.4l.08-.35c0-.11.07-.26.11-.37l.13-.32a3.78,3.78,0,0,1,.17-.35l.17-.29.23-.32.22-.26.29-.29.24-.2.36-.26.23-.14a3.29,3.29,0,0,1,.5-.24l.17-.07a4.16,4.16,0,0,1,.94-.23l.12,0h1l.11,0,.13,0,.13,0,.15,0,.17,0,.18.06.23.08.23.1.35.18.26.15a5.35,5.35,0,0,1,.57.46l.24.23a3.88,3.88,0,0,1,.26.31l.2.28c.06.1.15.23.21.34l.15.31.14.36.11.34c0,.11.06.26.08.38l0,.36c0,.12,0,.28,0,.4l0,.36c0,.14,0,.31,0,.44l-.08.35c0,.11-.08.26-.12.37l-.13.32a3.84,3.84,0,0,1-.18.35l-.17.29a3.81,3.81,0,0,1-.24.32l-.21.25-.3.29-.23.2c-.12.08-.26.19-.38.26l-.23.13a3.77,3.77,0,0,1-.51.25l-.16.06a4.89,4.89,0,0,1-.89.21l-.12,0h-1l-.12,0-.12,0-.14,0-.14,0-.17,0-.19-.06-.22-.08-.23-.1-.35-.17A3.79,3.79,0,0,1,71,68.43a5,5,0,0,1,4-4.86h0c-3.88,1.1-2.5,5.4-.13,6.57a3,3,0,0,0,4.32-3.84,4,4,0,0,0-4.18-2.73,5,5,0,0,0-4,4.86"/><path class="cls-16" d="M71,68.43a3.79,3.79,0,0,0,1.82,3.38l-.26-.16-.38-.29L72,71.15l-.29-.31-.21-.26-.22-.33-.17-.3-.17-.35-.12-.33-.1-.38-.07-.35c0-.2,0-.46,0-.66v-.36c0-.12,0-.28,0-.4l.08-.35c0-.11.07-.26.11-.37l.13-.32a3.78,3.78,0,0,1,.17-.35l.17-.29.23-.32.22-.26.29-.29.24-.2.36-.26.23-.14a3.29,3.29,0,0,1,.5-.24l.17-.07a4.16,4.16,0,0,1,.94-.23l.12,0h1l.11,0,.13,0,.13,0,.15,0,.17,0,.18.06.23.08.23.1.35.18.26.15a5.35,5.35,0,0,1,.57.46l.24.23a3.88,3.88,0,0,1,.26.31l.2.28c.06.1.15.23.21.34l.15.31.14.36.11.34c0,.11.06.26.08.38l0,.36c0,.12,0,.28,0,.4l0,.36c0,.14,0,.31,0,.44l-.08.35c0,.11-.08.26-.12.37l-.13.32a3.84,3.84,0,0,1-.18.35l-.17.29a3.81,3.81,0,0,1-.24.32l-.21.25-.3.29-.23.2c-.12.08-.26.19-.38.26l-.23.13a3.77,3.77,0,0,1-.51.25l-.16.06a4.89,4.89,0,0,1-.89.21l-.12,0h-1l-.12,0-.12,0-.14,0-.14,0-.17,0-.19-.06-.22-.08-.23-.1-.35-.17A3.79,3.79,0,0,1,71,68.43,5.06,5.06,0,0,1,74,63.88h0c-2.74,1.75-1.33,5.8,1.57,6.66s5-2,3.54-4.73c-1.06-2-3.39-2.9-5.08-1.94A5.06,5.06,0,0,0,71,68.43"/><path class="cls-17" d="M79.33,66.42a4,4,0,0,1,.19.72l0,.36c0,.12,0,.28,0,.4l0,.36c0,.14,0,.31,0,.44l-.08.35c0,.11-.08.26-.12.37l-.13.32a3.84,3.84,0,0,1-.18.35l-.17.29a3.81,3.81,0,0,1-.24.32l-.21.25-.3.29-.23.2c-.12.08-.26.19-.38.26l-.23.13a3.77,3.77,0,0,1-.51.25l-.16.06a4.89,4.89,0,0,1-.89.21l-.12,0h-1l-.12,0-.12,0-.14,0-.14,0-.17,0-.19-.06-.22-.08-.23-.1-.35-.17A3.79,3.79,0,0,1,71,68.43a5.1,5.1,0,0,1,2.3-4.2l-.06,0c-2.48,2.58.14,6.68,3.31,6.57,2.3-.08,3.58-2.27,2.69-4.59,0,0,0,.11,0,.16"/><path class="cls-17" d="M71,68.43a3.79,3.79,0,0,0,1.82,3.38l-.26-.16-.38-.29L72,71.15l-.29-.31-.21-.26-.22-.33-.17-.3-.17-.35-.12-.33-.1-.38-.07-.35c0-.2,0-.46,0-.66v-.36c0-.12,0-.28,0-.4l.08-.35c0-.11.07-.26.11-.37l.13-.32a3.78,3.78,0,0,1,.17-.35l.17-.29.23-.32.22-.26.29-.29.24-.2.36-.26.23-.14a3.29,3.29,0,0,1,.5-.24l.17-.07a4.16,4.16,0,0,1,.94-.23l.12,0h1l.11,0,.13,0,.13,0,.15,0,.17,0,.18.06.23.08.23.1.35.18.19.11-.26-.15a3.27,3.27,0,0,0-3.89.29,5.1,5.1,0,0,0-2.3,4.2"/><path class="cls-18" d="M79.52,67.14a4.66,4.66,0,0,1,.06.76l0,.36c0,.14,0,.31,0,.44l-.08.35c0,.11-.08.26-.12.37l-.13.32a3.84,3.84,0,0,1-.18.35l-.17.29a3.81,3.81,0,0,1-.24.32l-.21.25-.3.29-.23.2c-.12.08-.26.19-.38.26l-.23.13a3.77,3.77,0,0,1-.51.25l-.16.06a4.89,4.89,0,0,1-.89.21l-.12,0h-1l-.12,0-.12,0-.14,0-.14,0-.17,0-.19-.06-.22-.08-.23-.1-.35-.17A3.79,3.79,0,0,1,71,68.43a5.11,5.11,0,0,1,1.8-3.83l-.15.2c-1.89,3.16,1.58,6.9,4.63,6.09a3.15,3.15,0,0,0,2.19-3.77v0"/><path class="cls-18" d="M71,68.43a3.79,3.79,0,0,0,1.82,3.38l-.26-.16-.38-.29L72,71.15l-.29-.31-.21-.26-.22-.33-.17-.3-.17-.35-.12-.33-.1-.38-.07-.35c0-.2,0-.46,0-.66v-.36c0-.12,0-.28,0-.4l.08-.35c0-.11.07-.26.11-.37l.13-.32a3.78,3.78,0,0,1,.17-.35l.17-.29.23-.32.22-.26.29-.29.24-.2.36-.26.23-.14a3.29,3.29,0,0,1,.5-.24l.17-.07a4.16,4.16,0,0,1,.94-.23l.12,0h1l.11,0,.13,0,.13,0,.15,0,.17,0,.18.06.11,0-.24-.07a3.17,3.17,0,0,0-3.52,1A5.11,5.11,0,0,0,71,68.43"/><path class="cls-19" d="M79.58,67.9a5.62,5.62,0,0,1-.07.8l-.08.35c0,.11-.08.26-.12.37l-.13.32a3.84,3.84,0,0,1-.18.35l-.17.29a3.81,3.81,0,0,1-.24.32l-.21.25-.3.29-.23.2c-.12.08-.26.19-.38.26l-.23.13a3.77,3.77,0,0,1-.51.25l-.16.06a4.89,4.89,0,0,1-.89.21l-.12,0h-1l-.12,0-.12,0-.14,0-.14,0-.17,0-.19-.06-.22-.08-.23-.1-.35-.17A3.79,3.79,0,0,1,71,68.43,5.1,5.1,0,0,1,72.42,65l0,.08c-1.66,3.38,2,6.93,5.06,5.93a3.17,3.17,0,0,0,2.14-3.15v0"/><path class="cls-19" d="M71,68.43a3.79,3.79,0,0,0,1.82,3.38l-.26-.16-.38-.29L72,71.15l-.29-.31-.21-.26-.22-.33-.17-.3-.17-.35-.12-.33-.1-.38-.07-.35c0-.2,0-.46,0-.66v-.36c0-.12,0-.28,0-.4l.08-.35c0-.11.07-.26.11-.37l.13-.32a3.78,3.78,0,0,1,.17-.35l.17-.29.23-.32.22-.26.29-.29.24-.2.36-.26.23-.14a3.29,3.29,0,0,1,.5-.24l.17-.07a4.16,4.16,0,0,1,.94-.23l.12,0h1l.11,0,.13,0h0A3.14,3.14,0,0,0,72.42,65,5.1,5.1,0,0,0,71,68.43"/><path class="cls-20" d="M79.51,68.7a4.65,4.65,0,0,1-.2.72l-.13.32a3.84,3.84,0,0,1-.18.35l-.17.29a3.81,3.81,0,0,1-.24.32l-.21.25-.3.29-.23.2c-.12.08-.26.19-.38.26l-.23.13a3.77,3.77,0,0,1-.51.25l-.16.06a4.89,4.89,0,0,1-.89.21l-.12,0h-1l-.12,0-.12,0-.14,0-.14,0-.17,0-.19-.06-.22-.08-.23-.1-.35-.17A3.79,3.79,0,0,1,71,68.43a5.05,5.05,0,0,1,1-3l-.1.28c-1,3.85,3.25,6.82,6,5.17a3.26,3.26,0,0,0,1.53-2.35s0,.11,0,.16"/><path class="cls-20" d="M71,68.43a3.79,3.79,0,0,0,1.82,3.38l-.26-.16-.38-.29L72,71.15l-.29-.31-.21-.26-.22-.33-.17-.3-.17-.35-.12-.33-.1-.38-.07-.35c0-.2,0-.46,0-.66v-.36c0-.12,0-.28,0-.4l.08-.35c0-.11.07-.26.11-.37l.13-.32a3.78,3.78,0,0,1,.17-.35l.17-.29.23-.32.22-.26.29-.29.24-.2.36-.26.23-.14a3.29,3.29,0,0,1,.5-.24l.17-.07a4.16,4.16,0,0,1,.94-.23l.12,0h.52a3.15,3.15,0,0,0-3.07,2,5.05,5.05,0,0,0-1,3"/><path class="cls-21" d="M79.31,69.42a4.08,4.08,0,0,1-.31.67l-.17.29a3.81,3.81,0,0,1-.24.32l-.21.25-.3.29-.23.2c-.12.08-.26.19-.38.26l-.23.13a3.77,3.77,0,0,1-.51.25l-.16.06a4.89,4.89,0,0,1-.89.21l-.12,0h-1l-.12,0-.12,0-.14,0-.14,0-.17,0-.19-.06-.22-.08-.23-.1-.35-.17A3.79,3.79,0,0,1,71,68.43,5,5,0,0,1,71.71,66l0,.11c-.77,3.87,3.66,6.69,6.34,5a3.31,3.31,0,0,0,1.35-1.79c0,.05,0,.13-.06.18"/><path class="cls-21" d="M71,68.43a3.79,3.79,0,0,0,1.82,3.38l-.26-.16-.38-.29L72,71.15l-.29-.31-.21-.26-.22-.33-.17-.3-.17-.35-.12-.33-.1-.38-.07-.35c0-.2,0-.46,0-.66v-.36c0-.12,0-.28,0-.4l.08-.35c0-.11.07-.26.11-.37l.13-.32a3.78,3.78,0,0,1,.17-.35l.17-.29.23-.32.22-.26.29-.29.24-.2.36-.26.23-.14a3.29,3.29,0,0,1,.5-.24l.17-.07a4.69,4.69,0,0,1,.91-.23h-.07A3.24,3.24,0,0,0,71.71,66,5,5,0,0,0,71,68.43"/><path class="cls-22" d="M79,70.09a3.77,3.77,0,0,1-.41.61l-.21.25-.3.29-.23.2c-.12.08-.26.19-.38.26l-.23.13a3.77,3.77,0,0,1-.51.25l-.16.06a4.89,4.89,0,0,1-.89.21l-.12,0h-1l-.12,0-.12,0-.14,0-.14,0-.17,0-.19-.06-.22-.08-.23-.1-.35-.17A3.79,3.79,0,0,1,71,68.43a4.72,4.72,0,0,1,.35-1.79,1.11,1.11,0,0,0,0,.19c-.16,3.68,4.38,6.37,6.94,4.11A3.17,3.17,0,0,0,79,70a.25.25,0,0,1,0,.07"/><path class="cls-22" d="M71,68.43a3.79,3.79,0,0,0,1.82,3.38l-.26-.16-.38-.29L72,71.15l-.29-.31-.21-.26-.22-.33-.17-.3-.17-.35-.12-.33-.1-.38-.07-.35c0-.2,0-.46,0-.66v-.36c0-.12,0-.28,0-.4l.08-.35c0-.11.07-.26.11-.37l.13-.32a3.78,3.78,0,0,1,.17-.35l.17-.29.23-.32.22-.26.29-.29.24-.2.36-.26.23-.14a3.29,3.29,0,0,1,.5-.24l.17-.07.23-.07h0a3.3,3.3,0,0,0-2.37,3A4.72,4.72,0,0,0,71,68.43"/><path class="cls-23" d="M77.07,63.91c2.83,1.34,3.23,5.26.65,6.27S71.91,68,73,65.32a2.91,2.91,0,0,1,4-1.41"/><path class="cls-24" d="M77.46,64.15c2.72,1.66,2.58,5.48-.21,6-3,.56-5.45-3.1-3.72-5.44a2.92,2.92,0,0,1,3.93-.58"/><path class="cls-25" d="M77.81,64.42c2.45,1.89,1.76,5.14-.54,5.59-2.56.5-5.27-2.68-3.62-5.21a2.85,2.85,0,0,1,4.16-.38"/><path class="cls-26" d="M78.12,64.73c2.22,2.14,1,5.18-1.39,5.18-2.81,0-4.56-3.53-2.67-5.39a3,3,0,0,1,4.06.21"/><path class="cls-27" d="M78.11,64.78c2,1.89,1.17,5-1.37,5-2.74,0-4.36-3.35-2.51-5.22a2.83,2.83,0,0,1,3.88.24"/><path class="cls-28" d="M78.36,65.13c1.65,2,.49,4.68-1.94,4.44-2.82-.27-3.69-3.73-1.88-5.12a2.82,2.82,0,0,1,3.82.68"/><path class="cls-29" d="M78.33,65.18c1.64,2,.28,4.67-2.17,4.23a2.82,2.82,0,0,1-1.37-5,2.72,2.72,0,0,1,3.54.75"/><path class="cls-30" d="M78.52,65.56a2.34,2.34,0,0,1-2.35,3.72,2.68,2.68,0,0,1-1.36-4.69,2.63,2.63,0,0,1,3.71,1"/><path class="cls-31" d="M78.46,65.61a2.24,2.24,0,0,1-2.29,3.53,2.44,2.44,0,1,1,2.29-3.53"/><path class="cls-32" d="M78.39,65.67A2.19,2.19,0,0,1,76.17,69,2.38,2.38,0,0,1,75,64.81a2.36,2.36,0,0,1,3.37.86"/><path class="cls-33" d="M78.48,66.09a2.13,2.13,0,0,1-2.92,2.67,2.22,2.22,0,0,1,0-4.11,2.33,2.33,0,0,1,2.88,1.44"/><path class="cls-34" d="M78.37,66.14a2,2,0,0,1-2.81,2.53,2.09,2.09,0,0,1,.07-3.87,2.16,2.16,0,0,1,2.74,1.34"/><path class="cls-35" d="M78.25,66.2a2,2,0,1,1-2.57-1.26,2,2,0,0,1,2.57,1.26"/><path class="cls-36" d="M78.11,66.25a1.86,1.86,0,1,1-2.39-1.18,1.89,1.89,0,0,1,2.39,1.18"/><path class="cls-37" d="M78.06,66.69a1.65,1.65,0,0,1-1,1.75,1.73,1.73,0,0,1-1.93-.37,1.69,1.69,0,0,1,1-2.94,1.76,1.76,0,0,1,2,1.56"/><path class="cls-38" d="M77.93,66.73a1.73,1.73,0,0,1-.62,1.46,1.62,1.62,0,0,1-1.15.34,3.16,3.16,0,0,1-.69-.24,1.62,1.62,0,0,1,.3-3,1.72,1.72,0,0,1,2.16,1.43"/><path class="cls-39" d="M77.83,66.76a1.53,1.53,0,0,1-2.55,1.3,1.5,1.5,0,0,1,.9-2.71,1.73,1.73,0,0,1,1.65,1.41"/><path class="cls-40" d="M77.72,66.79a1.44,1.44,0,0,1-1,1.53,1.59,1.59,0,0,1-1.61-.44,1.42,1.42,0,0,1,1.09-2.41,1.61,1.61,0,0,1,1.5,1.32"/><path class="cls-41" d="M77.61,66.81a1.38,1.38,0,0,1-2.39,1.07,1.35,1.35,0,0,1,1-2.32,1.49,1.49,0,0,1,1.36,1.25"/><path class="cls-42" d="M77.52,66.83c.12.77-.36,1.07-.79,1.34a1.42,1.42,0,0,1-1.18-.1,1.38,1.38,0,0,1-.68-1.42,1.41,1.41,0,0,1,1-1,1.48,1.48,0,0,1,1.67,1.17"/><path class="cls-43" d="M77.45,67.26a3.91,3.91,0,0,1-.23.46,2.57,2.57,0,0,1-.49.38c-.14.11-.41.08-.58.1a1.48,1.48,0,0,1-1.1-.74,1.22,1.22,0,0,1,1.25-1.74,1.39,1.39,0,0,1,1.15,1.54"/><path class="cls-44" d="M77.37,67.28a1.22,1.22,0,0,1-1.23.86,1.1,1.1,0,0,1-.6-.2,3,3,0,0,1-.43-.48,1.14,1.14,0,0,1,1.21-1.65c.05,0,.53.23.53.23a1.19,1.19,0,0,1,.52,1.24"/><path class="cls-45" d="M77.28,67.29a1.24,1.24,0,0,1-.56.68,1.25,1.25,0,0,1-.58.11,1,1,0,0,1-.6-.21,1.19,1.19,0,0,1-.36-.41,1,1,0,0,1,.08-1.19,1.09,1.09,0,0,1,1.09-.38,1.78,1.78,0,0,1,.52.25s.3.34.31.35a1,1,0,0,1,.1.8"/><path class="cls-46" d="M77.2,67.31a1.27,1.27,0,0,1-.49.59,1.36,1.36,0,0,1-.57.13,3.64,3.64,0,0,1-.6-.23,1.1,1.1,0,0,1-.3-.34,1,1,0,0,1,.1-1.19,1.15,1.15,0,0,1,.56-.33,1.07,1.07,0,0,1,.47,0s1.12.37.83,1.35"/><path class="cls-47" d="M77.15,67.1a.78.78,0,0,1,0,.22,1.72,1.72,0,0,1-.34.46c-.08.07-.09.08-.65.19a1.22,1.22,0,0,1-.82-.5,1,1,0,0,1,.11-1.2,1.77,1.77,0,0,1,.49-.27,1.23,1.23,0,0,1,.47,0,1.64,1.64,0,0,1,.64.48.81.81,0,0,1,.13.59"/><path class="cls-48" d="M77.05,67.33a1.09,1.09,0,0,1-.35.44,4.32,4.32,0,0,1-.57.14,1.35,1.35,0,0,1-.76-.45,1,1,0,0,1,.1-1.16,3.17,3.17,0,0,1,.45-.23,1.12,1.12,0,0,1,.48,0,1,1,0,0,1,.65,1.22"/><path class="cls-49" d="M77,67.34a.8.8,0,0,1-.28.35s-.52.16-.56.17-.59-.29-.6-.29a.36.36,0,0,1-.1-.11.86.86,0,0,1,0-1.07,2.2,2.2,0,0,1,.45-.26,1.16,1.16,0,0,1,.49.05,3.54,3.54,0,0,1,.45.36,1.37,1.37,0,0,1,.15.38.86.86,0,0,1,0,.42"/><path class="cls-50" d="M76.89,67.35a.65.65,0,0,1-.2.26.94.94,0,0,1-.57.18,1.36,1.36,0,0,1-.59-.29,1.59,1.59,0,0,1-.2-.45s0-.46.15-.57.4-.27.46-.29a.94.94,0,0,1,.85.36,1.63,1.63,0,0,1,.17.38.7.7,0,0,1-.07.42"/><path class="cls-51" d="M76.81,67.36a.42.42,0,0,1-.14.18,1,1,0,0,1-.55.19,1.31,1.31,0,0,1-.54-.27,1.34,1.34,0,0,1-.19-.41,1.07,1.07,0,0,1,.1-.47.86.86,0,0,1,.46-.32,1,1,0,0,1,.51.09.72.72,0,0,1,.25.21.89.89,0,0,1,.18.38.88.88,0,0,1-.08.42"/><path class="cls-52" d="M76.73,67.37a.16.16,0,0,1-.07.09,1.41,1.41,0,0,1-.55.2,1,1,0,0,1-.41-.21.68.68,0,0,1-.18-.23.63.63,0,0,1,0-.57.87.87,0,0,1,.44-.32,1.19,1.19,0,0,1,.52.11.4.4,0,0,1,.16.13,1,1,0,0,1,.18.38.88.88,0,0,1-.09.42"/><path class="cls-53" d="M76.65,67.38a.76.76,0,0,1-.54.21.56.56,0,0,1-.3-.14,1.57,1.57,0,0,1-.3-.38c0-.06.13-.42.13-.42A.68.68,0,0,1,76,66.4a1.25,1.25,0,0,1,.53.13.15.15,0,0,1,.06,0,1,1,0,0,1,.19.38.9.9,0,0,1-.1.42"/><path class="cls-54" d="M76.62,67.2a.74.74,0,0,1-.52.33.34.34,0,0,1-.18-.09c-.1-.11-.29-.24-.31-.39a.71.71,0,0,1,.15-.41.38.38,0,0,1,.23-.16.9.9,0,0,1,.44.11.22.22,0,0,1,.1.09.52.52,0,0,1,.09.52"/><path class="cls-55" d="M76.6,67a1.85,1.85,0,0,1-.39.4.17.17,0,0,1-.11,0c-.09,0-.38-.41-.38-.42s.1-.29.16-.41a.21.21,0,0,1,.12-.08.35.35,0,0,1,.22.06,3.47,3.47,0,0,1,.36.31.12.12,0,0,1,0,.1"/><path class="cls-56" d="M76.09,67.35c-.13,0-.25-.19-.26-.31s.17-.42.18-.42h0c.13.1.43.19.44.36a.44.44,0,0,1-.36.36"/><path class="cls-57" d="M76.07,67.19c-.06,0-.12-.1-.13-.16s0-.2.09-.22.23.11.23.2a.21.21,0,0,1-.19.18"/><path class="cls-58" d="M76.06,67s0,0,0,0,0,0,0,0h0a0,0,0,0,1,0,0"/></g></g></g></g></svg>