<?xml version="1.0" encoding="utf-8" standalone="no"?>
<!DOCTYPE svg PUBLIC "-//W3C//DTD SVG 1.1//EN"
  "http://www.w3.org/Graphics/SVG/1.1/DTD/svg11.dtd">
<svg height="281.274375pt" version="1.1" viewBox="0 0 497.385938 281.274375" width="497.385938pt" xmlns="http://www.w3.org/2000/svg" xmlns:xlink="http://www.w3.org/1999/xlink">
 <metadata>
  <rdf:RDF xmlns:cc="http://creativecommons.org/ns#" xmlns:dc="http://purl.org/dc/elements/1.1/" xmlns:rdf="http://www.w3.org/1999/02/22-rdf-syntax-ns#">
   <cc:Work>
    <dc:type rdf:resource="http://purl.org/dc/dcmitype/StillImage"/>
    <dc:date>2021-08-09T09:07:32.518294</dc:date>
    <dc:format>image/svg+xml</dc:format>
    <dc:creator>
     <cc:Agent>
      <dc:title>Matplotlib v3.4.2, https://matplotlib.org/</dc:title>
     </cc:Agent>
    </dc:creator>
   </cc:Work>
  </rdf:RDF>
 </metadata>
 <defs>
  <style type="text/css">*{stroke-linecap:butt;stroke-linejoin:round;}</style>
 </defs>
 <g id="figure_1">
  <g id="patch_1">
   <path d="M 0 281.274375 
L 497.385938 281.274375 
L 497.385938 0 
L 0 0 
z
" style="fill:none;"/>
  </g>
  <g id="axes_1">
   <g id="patch_2">
    <path d="M 48.560938 247.318125 
L 465.04189 247.318125 
L 465.04189 22.318125 
L 48.560938 22.318125 
z
" style="fill:#ffffff;"/>
   </g>
   <g id="line2d_1">
    <path clip-path="url(#pefc62819c9)" d="M 67.49189 187.430949 
L 68.758174 151.718958 
L 70.024459 148.887194 
L 71.290743 211.176016 
L 72.557028 229.919905 
L 73.823312 168.861214 
L 75.089597 119.900776 
L 77.622165 229.915265 
L 78.88845 207.368212 
L 80.154734 143.048442 
L 81.421019 146.560401 
L 82.687303 214.355372 
L 83.953588 215.741098 
L 85.219872 154.519318 
L 86.486156 134.699823 
L 87.752441 190.420094 
L 89.018725 212.65096 
L 90.28501 145.698916 
L 91.551294 106.762246 
L 92.817579 148.45895 
L 94.083863 177.281564 
L 95.350148 142.993841 
L 96.616432 103.751333 
L 97.882716 117.185708 
L 99.149001 172.344623 
L 100.415285 171.729735 
L 101.68157 124.962979 
L 102.947854 116.378825 
L 104.214139 174.210696 
L 105.480423 198.908606 
L 106.746708 147.329456 
L 108.012992 106.399666 
L 109.279276 154.45294 
L 110.545561 210.631075 
L 111.811845 180.004126 
L 113.07813 119.052853 
L 114.344414 112.725902 
L 115.610699 171.879621 
L 116.876983 158.528754 
L 118.143267 88.444818 
L 119.409552 78.235834 
L 120.675836 120.964249 
L 121.942121 143.151934 
L 123.208405 82.172111 
L 124.47469 32.545398 
L 127.007259 123.057649 
L 128.273543 104.966476 
L 129.539827 72.828539 
L 130.806112 86.477749 
L 132.072396 135.664443 
L 133.338681 161.219554 
L 134.604965 98.741234 
L 135.87125 99.589871 
L 137.137534 168.861214 
L 138.403819 196.485101 
L 139.670103 163.444282 
L 140.936387 94.884539 
L 142.202672 110.14823 
L 143.468956 173.044802 
L 144.735241 167.642502 
L 146.001525 120.485686 
L 147.26781 118.15354 
L 148.534094 176.958953 
L 149.800378 186.91206 
L 151.066663 133.386184 
L 152.332947 123.967668 
L 153.599232 180.367776 
L 154.865516 217.184995 
L 156.131801 179.458114 
L 157.398085 124.743147 
L 158.66437 152.198948 
L 159.930654 210.48119 
L 161.196938 188.785628 
L 162.463223 147.851914 
L 163.729507 166.040156 
L 164.995792 212.995696 
L 166.262076 223.777456 
L 168.794645 112.028222 
L 170.06093 145.685355 
L 171.327214 192.990629 
L 172.593498 159.827047 
L 173.859783 114.945991 
L 175.126067 143.615509 
L 176.392352 210.855903 
L 177.658636 220.900013 
L 178.924921 146.742047 
L 180.191205 124.062595 
L 181.457489 176.698795 
L 182.723774 184.869336 
L 183.990058 133.758756 
L 185.256343 121.043474 
L 186.522627 166.501589 
L 187.788912 205.021077 
L 189.055196 176.974655 
L 190.321481 111.596052 
L 191.587765 133.645628 
L 192.854049 191.41362 
L 194.120334 174.445517 
L 195.386618 122.70756 
L 196.652903 115.514486 
L 197.919187 165.624045 
L 199.185472 170.623081 
L 200.451756 121.038478 
L 201.718041 90.765544 
L 202.984325 134.048535 
L 204.250609 191.341532 
L 205.516894 155.464667 
L 206.783178 81.198213 
L 208.049463 103.945113 
L 209.315747 171.699402 
L 210.582032 164.288637 
L 211.848316 134.6727 
L 213.114601 128.169813 
L 214.380885 174.873047 
L 215.647169 194.658997 
L 216.913454 134.778334 
L 218.179738 120.396112 
L 219.446023 175.981843 
L 220.712307 218.108931 
L 221.978592 186.857102 
L 223.244876 134.892889 
L 224.51116 145.155403 
L 225.777445 206.896072 
L 227.043729 212.58708 
L 228.310014 131.593982 
L 229.576298 120.916072 
L 230.842583 202.042639 
L 232.108867 237.090852 
L 233.375152 195.663586 
L 234.641436 137.602604 
L 235.90772 137.72965 
L 237.174005 161.504336 
L 238.440289 168.592133 
L 239.706574 136.606223 
L 240.972858 142.307937 
L 242.239143 209.114377 
L 243.505427 199.218726 
L 244.771712 129.242208 
L 246.037996 111.851928 
L 247.30428 172.756451 
L 248.570565 210.651774 
L 249.836849 163.359347 
L 251.103134 102.306009 
L 252.369418 129.93525 
L 253.635703 192.30294 
L 254.901987 190.744845 
L 256.168271 154.510039 
L 257.434556 154.016488 
L 258.70084 180.640425 
L 259.967125 180.076214 
L 261.233409 142.761875 
L 262.499694 123.628284 
L 263.765978 172.818903 
L 265.032263 192.525984 
L 266.298547 148.665221 
L 267.564831 108.73895 
L 268.831116 142.453183 
L 270.0974 204.599257 
L 271.363685 187.386698 
L 272.629969 121.345386 
L 273.896254 117.413035 
L 275.162538 180.49625 
L 276.428823 201.29 
L 277.695107 147.055736 
L 278.961391 120.886094 
L 280.227676 165.438115 
L 281.49396 200.760048 
L 282.760245 166.695726 
L 284.026529 114.001 
L 285.292814 138.863069 
L 286.559098 194.597258 
L 287.825382 193.866745 
L 289.091667 138.729957 
L 290.357951 127.552071 
L 291.624236 187.090495 
L 292.89052 216.805999 
L 294.156805 163.713362 
L 295.423089 121.750434 
L 296.689374 167.358433 
L 297.955658 221.17623 
L 299.221942 185.63054 
L 300.488227 125.461169 
L 301.754511 149.41893 
L 303.020796 208.306423 
L 304.28708 194.742504 
L 305.553365 132.728829 
L 306.819649 127.652709 
L 308.085934 186.334645 
L 309.352218 193.843192 
L 310.618502 144.102279 
L 311.884787 121.780054 
L 313.151071 166.424861 
L 314.417356 201.396347 
L 316.949925 124.02905 
L 318.216209 140.642067 
L 319.482493 196.987217 
L 320.748778 194.415968 
L 322.015062 133.255926 
L 323.281347 129.705782 
L 324.547631 175.71883 
L 325.813916 196.950103 
L 327.0802 168.734525 
L 328.346485 134.559216 
L 329.612769 160.030463 
L 330.879053 191.070311 
L 332.145338 167.170363 
L 333.411622 125.361246 
L 334.677907 142.431057 
L 335.944191 193.012755 
L 337.210476 197.286631 
L 338.47676 145.570443 
L 339.743045 115.529117 
L 341.009329 168.999322 
L 342.275613 202.074758 
L 343.541898 162.526412 
L 344.808182 140.766257 
L 346.074467 152.89199 
L 347.340751 185.789347 
L 348.607036 184.827582 
L 349.87332 130.023397 
L 351.139604 137.801738 
L 352.405889 203.154646 
L 353.672173 204.862627 
L 354.938458 132.820188 
L 356.204742 116.593304 
L 357.471027 188.367377 
L 358.737311 218.38729 
L 360.003596 162.512138 
L 361.26988 124.15895 
L 362.536164 159.66253 
L 363.802449 214.394627 
L 365.068733 201.529817 
L 366.335018 135.821108 
L 367.601302 142.453539 
L 368.867587 203.744196 
L 370.133871 197.444725 
L 371.400156 132.578943 
L 372.66644 110.202474 
L 373.932724 161.879764 
L 375.199009 207.12554 
L 376.465293 177.197342 
L 377.731578 130.321026 
L 378.997862 145.510489 
L 380.264147 193.173703 
L 381.530431 182.111087 
L 382.796715 130.509811 
L 384.063 143.034881 
L 385.329284 188.100795 
L 386.595569 200.696168 
L 387.861853 154.673842 
L 389.128138 123.601519 
L 390.394422 171.782909 
L 391.660707 210.476907 
L 392.926991 171.564861 
L 394.193275 119.426496 
L 395.45956 145.535113 
L 396.725844 196.51722 
L 397.992129 183.804079 
L 399.258413 136.177265 
L 400.524698 125.091095 
L 401.790982 177.344016 
L 403.057267 205.490361 
L 404.323551 146.334502 
L 405.589835 115.7204 
L 406.85612 173.951609 
L 408.122404 216.700365 
L 410.654973 112.334773 
L 411.921258 145.227134 
L 413.187542 199.615923 
L 414.453826 196.447273 
L 415.720111 124.463717 
L 416.986395 116.308522 
L 418.25268 182.7299 
L 419.518964 191.17416 
L 420.785249 143.882447 
L 422.051533 115.806762 
L 423.317818 154.646007 
L 424.584102 198.463232 
L 425.850386 176.965734 
L 427.116671 129.801424 
L 428.382955 140.827996 
L 429.64924 195.142912 
L 430.915524 190.698809 
L 432.181809 122.371031 
L 433.448093 86.43885 
L 435.980662 166.175766 
L 438.513231 114.029192 
L 439.779515 154.349447 
L 441.0458 189.657105 
L 442.312084 159.015524 
L 443.578369 141.233044 
L 444.844653 162.457537 
L 446.110938 177.00606 
L 446.110938 177.00606 
" style="fill:none;stroke:#33bbee;stroke-linecap:square;stroke-width:0.6;"/>
   </g>
   <g id="matplotlib.axis_1">
    <g id="xtick_1">
     <g id="line2d_2">
      <defs>
       <path d="M 0 0 
L 0 3.5 
" id="m8532aa795f" style="stroke:#000000;stroke-width:0.8;"/>
      </defs>
      <g>
       <use style="stroke:#000000;stroke-width:0.8;" x="92.73316" xlink:href="#m8532aa795f" y="247.318125"/>
      </g>
     </g>
     <g id="text_1">
      <!-- −1.4 -->
      <g transform="translate(80.591753 261.916563)scale(0.1 -0.1)">
       <defs>
        <path d="M 678 2259 
L 4684 2259 
L 4684 1753 
L 678 1753 
L 678 2259 
z
" id="DejaVuSerif-2212" transform="scale(0.015625)"/>
        <path d="M 909 0 
L 909 331 
L 1722 331 
L 1722 4213 
L 781 3603 
L 781 4013 
L 1919 4750 
L 2350 4750 
L 2350 331 
L 3163 331 
L 3163 0 
L 909 0 
z
" id="DejaVuSerif-31" transform="scale(0.015625)"/>
        <path d="M 603 325 
Q 603 500 722 622 
Q 841 744 1019 744 
Q 1191 744 1312 622 
Q 1434 500 1434 325 
Q 1434 153 1312 31 
Q 1191 -91 1019 -91 
Q 841 -91 722 29 
Q 603 150 603 325 
z
" id="DejaVuSerif-2e" transform="scale(0.015625)"/>
        <path d="M 2234 1581 
L 2234 4063 
L 641 1581 
L 2234 1581 
z
M 3609 0 
L 1484 0 
L 1484 331 
L 2234 331 
L 2234 1247 
L 197 1247 
L 197 1588 
L 2241 4750 
L 2859 4750 
L 2859 1581 
L 3750 1581 
L 3750 1247 
L 2859 1247 
L 2859 331 
L 3609 331 
L 3609 0 
z
" id="DejaVuSerif-34" transform="scale(0.015625)"/>
       </defs>
       <use xlink:href="#DejaVuSerif-2212"/>
       <use x="83.789062" xlink:href="#DejaVuSerif-31"/>
       <use x="147.412109" xlink:href="#DejaVuSerif-2e"/>
       <use x="179.199219" xlink:href="#DejaVuSerif-34"/>
      </g>
     </g>
    </g>
    <g id="xtick_2">
     <g id="line2d_3">
      <g>
       <use style="stroke:#000000;stroke-width:0.8;" x="143.215699" xlink:href="#m8532aa795f" y="247.318125"/>
      </g>
     </g>
     <g id="text_2">
      <!-- −1.2 -->
      <g transform="translate(131.074293 261.916563)scale(0.1 -0.1)">
       <defs>
        <path d="M 819 3553 
L 469 3553 
L 469 4384 
Q 803 4563 1142 4656 
Q 1481 4750 1806 4750 
Q 2534 4750 2956 4397 
Q 3378 4044 3378 3438 
Q 3378 2753 2422 1800 
Q 2347 1728 2309 1691 
L 1131 513 
L 3078 513 
L 3078 1088 
L 3444 1088 
L 3444 0 
L 434 0 
L 434 341 
L 1850 1753 
Q 2319 2222 2519 2614 
Q 2719 3006 2719 3438 
Q 2719 3909 2473 4175 
Q 2228 4441 1797 4441 
Q 1350 4441 1106 4219 
Q 863 3997 819 3553 
z
" id="DejaVuSerif-32" transform="scale(0.015625)"/>
       </defs>
       <use xlink:href="#DejaVuSerif-2212"/>
       <use x="83.789062" xlink:href="#DejaVuSerif-31"/>
       <use x="147.412109" xlink:href="#DejaVuSerif-2e"/>
       <use x="179.199219" xlink:href="#DejaVuSerif-32"/>
      </g>
     </g>
    </g>
    <g id="xtick_3">
     <g id="line2d_4">
      <g>
       <use style="stroke:#000000;stroke-width:0.8;" x="193.698239" xlink:href="#m8532aa795f" y="247.318125"/>
      </g>
     </g>
     <g id="text_3">
      <!-- −1.0 -->
      <g transform="translate(181.556833 261.916563)scale(0.1 -0.1)">
       <defs>
        <path d="M 2034 219 
Q 2513 219 2750 744 
Q 2988 1269 2988 2328 
Q 2988 3391 2750 3916 
Q 2513 4441 2034 4441 
Q 1556 4441 1318 3916 
Q 1081 3391 1081 2328 
Q 1081 1269 1318 744 
Q 1556 219 2034 219 
z
M 2034 -91 
Q 1275 -91 848 546 
Q 422 1184 422 2328 
Q 422 3475 848 4112 
Q 1275 4750 2034 4750 
Q 2797 4750 3222 4112 
Q 3647 3475 3647 2328 
Q 3647 1184 3222 546 
Q 2797 -91 2034 -91 
z
" id="DejaVuSerif-30" transform="scale(0.015625)"/>
       </defs>
       <use xlink:href="#DejaVuSerif-2212"/>
       <use x="83.789062" xlink:href="#DejaVuSerif-31"/>
       <use x="147.412109" xlink:href="#DejaVuSerif-2e"/>
       <use x="179.199219" xlink:href="#DejaVuSerif-30"/>
      </g>
     </g>
    </g>
    <g id="xtick_4">
     <g id="line2d_5">
      <g>
       <use style="stroke:#000000;stroke-width:0.8;" x="244.180779" xlink:href="#m8532aa795f" y="247.318125"/>
      </g>
     </g>
     <g id="text_4">
      <!-- −0.8 -->
      <g transform="translate(232.039373 261.916563)scale(0.1 -0.1)">
       <defs>
        <path d="M 2981 1275 
Q 2981 1775 2732 2051 
Q 2484 2328 2034 2328 
Q 1584 2328 1336 2051 
Q 1088 1775 1088 1275 
Q 1088 772 1336 495 
Q 1584 219 2034 219 
Q 2484 219 2732 495 
Q 2981 772 2981 1275 
z
M 2853 3541 
Q 2853 3966 2637 4203 
Q 2422 4441 2034 4441 
Q 1650 4441 1433 4203 
Q 1216 3966 1216 3541 
Q 1216 3113 1433 2875 
Q 1650 2638 2034 2638 
Q 2422 2638 2637 2875 
Q 2853 3113 2853 3541 
z
M 2516 2484 
Q 3047 2413 3344 2092 
Q 3641 1772 3641 1275 
Q 3641 619 3225 264 
Q 2809 -91 2034 -91 
Q 1263 -91 845 264 
Q 428 619 428 1275 
Q 428 1772 725 2092 
Q 1022 2413 1556 2484 
Q 1084 2569 832 2842 
Q 581 3116 581 3541 
Q 581 4103 968 4426 
Q 1356 4750 2034 4750 
Q 2713 4750 3100 4426 
Q 3488 4103 3488 3541 
Q 3488 3116 3236 2842 
Q 2984 2569 2516 2484 
z
" id="DejaVuSerif-38" transform="scale(0.015625)"/>
       </defs>
       <use xlink:href="#DejaVuSerif-2212"/>
       <use x="83.789062" xlink:href="#DejaVuSerif-30"/>
       <use x="147.412109" xlink:href="#DejaVuSerif-2e"/>
       <use x="179.199219" xlink:href="#DejaVuSerif-38"/>
      </g>
     </g>
    </g>
    <g id="xtick_5">
     <g id="line2d_6">
      <g>
       <use style="stroke:#000000;stroke-width:0.8;" x="294.663318" xlink:href="#m8532aa795f" y="247.318125"/>
      </g>
     </g>
     <g id="text_5">
      <!-- −0.6 -->
      <g transform="translate(282.521912 261.916563)scale(0.1 -0.1)">
       <defs>
        <path d="M 2094 219 
Q 2534 219 2771 542 
Q 3009 866 3009 1472 
Q 3009 2078 2771 2401 
Q 2534 2725 2094 2725 
Q 1647 2725 1412 2412 
Q 1178 2100 1178 1509 
Q 1178 888 1415 553 
Q 1653 219 2094 219 
z
M 1075 2569 
Q 1288 2803 1556 2918 
Q 1825 3034 2163 3034 
Q 2859 3034 3264 2615 
Q 3669 2197 3669 1472 
Q 3669 763 3233 336 
Q 2797 -91 2069 -91 
Q 1278 -91 853 498 
Q 428 1088 428 2181 
Q 428 3406 931 4078 
Q 1434 4750 2350 4750 
Q 2597 4750 2869 4703 
Q 3141 4656 3425 4563 
L 3425 3794 
L 3072 3794 
Q 3034 4109 2831 4275 
Q 2628 4441 2284 4441 
Q 1678 4441 1381 3981 
Q 1084 3522 1075 2569 
z
" id="DejaVuSerif-36" transform="scale(0.015625)"/>
       </defs>
       <use xlink:href="#DejaVuSerif-2212"/>
       <use x="83.789062" xlink:href="#DejaVuSerif-30"/>
       <use x="147.412109" xlink:href="#DejaVuSerif-2e"/>
       <use x="179.199219" xlink:href="#DejaVuSerif-36"/>
      </g>
     </g>
    </g>
    <g id="xtick_6">
     <g id="line2d_7">
      <g>
       <use style="stroke:#000000;stroke-width:0.8;" x="345.145858" xlink:href="#m8532aa795f" y="247.318125"/>
      </g>
     </g>
     <g id="text_6">
      <!-- −0.4 -->
      <g transform="translate(333.004452 261.916563)scale(0.1 -0.1)">
       <use xlink:href="#DejaVuSerif-2212"/>
       <use x="83.789062" xlink:href="#DejaVuSerif-30"/>
       <use x="147.412109" xlink:href="#DejaVuSerif-2e"/>
       <use x="179.199219" xlink:href="#DejaVuSerif-34"/>
      </g>
     </g>
    </g>
    <g id="xtick_7">
     <g id="line2d_8">
      <g>
       <use style="stroke:#000000;stroke-width:0.8;" x="395.628398" xlink:href="#m8532aa795f" y="247.318125"/>
      </g>
     </g>
     <g id="text_7">
      <!-- −0.2 -->
      <g transform="translate(383.486992 261.916563)scale(0.1 -0.1)">
       <use xlink:href="#DejaVuSerif-2212"/>
       <use x="83.789062" xlink:href="#DejaVuSerif-30"/>
       <use x="147.412109" xlink:href="#DejaVuSerif-2e"/>
       <use x="179.199219" xlink:href="#DejaVuSerif-32"/>
      </g>
     </g>
    </g>
    <g id="xtick_8">
     <g id="line2d_9">
      <g>
       <use style="stroke:#000000;stroke-width:0.8;" x="446.110938" xlink:href="#m8532aa795f" y="247.318125"/>
      </g>
     </g>
     <g id="text_8">
      <!-- 0.0 -->
      <g transform="translate(438.159375 261.916563)scale(0.1 -0.1)">
       <use xlink:href="#DejaVuSerif-30"/>
       <use x="63.623047" xlink:href="#DejaVuSerif-2e"/>
       <use x="95.410156" xlink:href="#DejaVuSerif-30"/>
      </g>
     </g>
    </g>
    <g id="text_9">
     <!-- Center 1 [V] -->
     <g transform="translate(225.565476 271.994688)scale(0.1 -0.1)">
      <defs>
       <path d="M 4513 1234 
Q 4306 581 3820 245 
Q 3334 -91 2591 -91 
Q 2134 -91 1743 65 
Q 1353 222 1050 525 
Q 700 875 529 1320 
Q 359 1766 359 2328 
Q 359 3416 987 4083 
Q 1616 4750 2644 4750 
Q 3025 4750 3456 4650 
Q 3888 4550 4384 4347 
L 4384 3272 
L 4031 3272 
Q 3916 3859 3567 4137 
Q 3219 4416 2591 4416 
Q 1844 4416 1459 3886 
Q 1075 3356 1075 2328 
Q 1075 1303 1459 773 
Q 1844 244 2591 244 
Q 3113 244 3450 492 
Q 3788 741 3938 1234 
L 4513 1234 
z
" id="DejaVuSerif-43" transform="scale(0.015625)"/>
       <path d="M 3469 1600 
L 991 1600 
L 991 1575 
Q 991 903 1244 561 
Q 1497 219 1991 219 
Q 2369 219 2611 417 
Q 2853 616 2950 1006 
L 3413 1006 
Q 3275 459 2904 184 
Q 2534 -91 1931 -91 
Q 1203 -91 761 389 
Q 319 869 319 1663 
Q 319 2450 753 2931 
Q 1188 3413 1894 3413 
Q 2647 3413 3050 2948 
Q 3453 2484 3469 1600 
z
M 2791 1931 
Q 2772 2513 2545 2808 
Q 2319 3103 1894 3103 
Q 1497 3103 1269 2806 
Q 1041 2509 991 1931 
L 2791 1931 
z
" id="DejaVuSerif-65" transform="scale(0.015625)"/>
       <path d="M 263 0 
L 263 331 
L 781 331 
L 781 2988 
L 231 2988 
L 231 3322 
L 1356 3322 
L 1356 2731 
Q 1516 3069 1770 3241 
Q 2025 3413 2363 3413 
Q 2913 3413 3172 3097 
Q 3431 2781 3431 2113 
L 3431 331 
L 3944 331 
L 3944 0 
L 2356 0 
L 2356 331 
L 2853 331 
L 2853 1931 
Q 2853 2541 2703 2767 
Q 2553 2994 2175 2994 
Q 1775 2994 1565 2701 
Q 1356 2409 1356 1850 
L 1356 331 
L 1856 331 
L 1856 0 
L 263 0 
z
" id="DejaVuSerif-6e" transform="scale(0.015625)"/>
       <path d="M 691 2988 
L 184 2988 
L 184 3322 
L 691 3322 
L 691 4353 
L 1269 4353 
L 1269 3322 
L 2350 3322 
L 2350 2988 
L 1269 2988 
L 1269 878 
Q 1269 456 1350 337 
Q 1431 219 1650 219 
Q 1875 219 1978 351 
Q 2081 484 2088 781 
L 2522 781 
Q 2497 328 2275 118 
Q 2053 -91 1600 -91 
Q 1103 -91 897 129 
Q 691 350 691 878 
L 691 2988 
z
" id="DejaVuSerif-74" transform="scale(0.015625)"/>
       <path d="M 3059 3328 
L 3059 2497 
L 2728 2497 
Q 2713 2744 2591 2866 
Q 2469 2988 2234 2988 
Q 1809 2988 1582 2694 
Q 1356 2400 1356 1850 
L 1356 331 
L 2022 331 
L 2022 0 
L 263 0 
L 263 331 
L 781 331 
L 781 2994 
L 231 2994 
L 231 3322 
L 1356 3322 
L 1356 2731 
Q 1525 3078 1790 3245 
Q 2056 3413 2438 3413 
Q 2578 3413 2733 3391 
Q 2888 3369 3059 3328 
z
" id="DejaVuSerif-72" transform="scale(0.015625)"/>
       <path id="DejaVuSerif-20" transform="scale(0.015625)"/>
       <path d="M 550 4863 
L 2003 4863 
L 2003 4531 
L 1147 4531 
L 1147 -513 
L 2003 -513 
L 2003 -844 
L 550 -844 
L 550 4863 
z
" id="DejaVuSerif-5b" transform="scale(0.015625)"/>
       <path d="M 1119 4331 
L 2497 750 
L 3872 4331 
L 3347 4331 
L 3347 4666 
L 4716 4666 
L 4716 4331 
L 4263 4331 
L 2597 0 
L 2059 0 
L 403 4331 
L -63 4331 
L -63 4666 
L 1638 4666 
L 1638 4331 
L 1119 4331 
z
" id="DejaVuSerif-56" transform="scale(0.015625)"/>
       <path d="M 1947 4863 
L 1947 -844 
L 494 -844 
L 494 -513 
L 1350 -513 
L 1350 4531 
L 494 4531 
L 494 4863 
L 1947 4863 
z
" id="DejaVuSerif-5d" transform="scale(0.015625)"/>
      </defs>
      <use xlink:href="#DejaVuSerif-43"/>
      <use x="76.513672" xlink:href="#DejaVuSerif-65"/>
      <use x="135.693359" xlink:href="#DejaVuSerif-6e"/>
      <use x="200.097656" xlink:href="#DejaVuSerif-74"/>
      <use x="240.283203" xlink:href="#DejaVuSerif-65"/>
      <use x="299.462891" xlink:href="#DejaVuSerif-72"/>
      <use x="347.265625" xlink:href="#DejaVuSerif-20"/>
      <use x="379.052734" xlink:href="#DejaVuSerif-31"/>
      <use x="442.675781" xlink:href="#DejaVuSerif-20"/>
      <use x="474.462891" xlink:href="#DejaVuSerif-5b"/>
      <use x="513.476562" xlink:href="#DejaVuSerif-56"/>
      <use x="585.693359" xlink:href="#DejaVuSerif-5d"/>
     </g>
    </g>
   </g>
   <g id="matplotlib.axis_2">
    <g id="ytick_1">
     <g id="line2d_10">
      <defs>
       <path d="M 0 0 
L -3.5 0 
" id="m2c900b2020" style="stroke:#000000;stroke-width:0.8;"/>
      </defs>
      <g>
       <use style="stroke:#000000;stroke-width:0.8;" x="48.560938" xlink:href="#m2c900b2020" y="223.665827"/>
      </g>
     </g>
     <g id="text_10">
      <!-- −0.4 -->
      <g transform="translate(17.278125 227.465046)scale(0.1 -0.1)">
       <use xlink:href="#DejaVuSerif-2212"/>
       <use x="83.789062" xlink:href="#DejaVuSerif-30"/>
       <use x="147.412109" xlink:href="#DejaVuSerif-2e"/>
       <use x="179.199219" xlink:href="#DejaVuSerif-34"/>
      </g>
     </g>
    </g>
    <g id="ytick_2">
     <g id="line2d_11">
      <g>
       <use style="stroke:#000000;stroke-width:0.8;" x="48.560938" xlink:href="#m2c900b2020" y="196.362909"/>
      </g>
     </g>
     <g id="text_11">
      <!-- −0.2 -->
      <g transform="translate(17.278125 200.162127)scale(0.1 -0.1)">
       <use xlink:href="#DejaVuSerif-2212"/>
       <use x="83.789062" xlink:href="#DejaVuSerif-30"/>
       <use x="147.412109" xlink:href="#DejaVuSerif-2e"/>
       <use x="179.199219" xlink:href="#DejaVuSerif-32"/>
      </g>
     </g>
    </g>
    <g id="ytick_3">
     <g id="line2d_12">
      <g>
       <use style="stroke:#000000;stroke-width:0.8;" x="48.560938" xlink:href="#m2c900b2020" y="169.05999"/>
      </g>
     </g>
     <g id="text_12">
      <!-- 0.0 -->
      <g transform="translate(25.657813 172.859209)scale(0.1 -0.1)">
       <use xlink:href="#DejaVuSerif-30"/>
       <use x="63.623047" xlink:href="#DejaVuSerif-2e"/>
       <use x="95.410156" xlink:href="#DejaVuSerif-30"/>
      </g>
     </g>
    </g>
    <g id="ytick_4">
     <g id="line2d_13">
      <g>
       <use style="stroke:#000000;stroke-width:0.8;" x="48.560938" xlink:href="#m2c900b2020" y="141.757072"/>
      </g>
     </g>
     <g id="text_13">
      <!-- 0.2 -->
      <g transform="translate(25.657813 145.55629)scale(0.1 -0.1)">
       <use xlink:href="#DejaVuSerif-30"/>
       <use x="63.623047" xlink:href="#DejaVuSerif-2e"/>
       <use x="95.410156" xlink:href="#DejaVuSerif-32"/>
      </g>
     </g>
    </g>
    <g id="ytick_5">
     <g id="line2d_14">
      <g>
       <use style="stroke:#000000;stroke-width:0.8;" x="48.560938" xlink:href="#m2c900b2020" y="114.454153"/>
      </g>
     </g>
     <g id="text_14">
      <!-- 0.4 -->
      <g transform="translate(25.657813 118.253372)scale(0.1 -0.1)">
       <use xlink:href="#DejaVuSerif-30"/>
       <use x="63.623047" xlink:href="#DejaVuSerif-2e"/>
       <use x="95.410156" xlink:href="#DejaVuSerif-34"/>
      </g>
     </g>
    </g>
    <g id="ytick_6">
     <g id="line2d_15">
      <g>
       <use style="stroke:#000000;stroke-width:0.8;" x="48.560938" xlink:href="#m2c900b2020" y="87.151235"/>
      </g>
     </g>
     <g id="text_15">
      <!-- 0.6 -->
      <g transform="translate(25.657813 90.950453)scale(0.1 -0.1)">
       <use xlink:href="#DejaVuSerif-30"/>
       <use x="63.623047" xlink:href="#DejaVuSerif-2e"/>
       <use x="95.410156" xlink:href="#DejaVuSerif-36"/>
      </g>
     </g>
    </g>
    <g id="ytick_7">
     <g id="line2d_16">
      <g>
       <use style="stroke:#000000;stroke-width:0.8;" x="48.560938" xlink:href="#m2c900b2020" y="59.848316"/>
      </g>
     </g>
     <g id="text_16">
      <!-- 0.8 -->
      <g transform="translate(25.657813 63.647535)scale(0.1 -0.1)">
       <use xlink:href="#DejaVuSerif-30"/>
       <use x="63.623047" xlink:href="#DejaVuSerif-2e"/>
       <use x="95.410156" xlink:href="#DejaVuSerif-38"/>
      </g>
     </g>
    </g>
    <g id="ytick_8">
     <g id="line2d_17">
      <g>
       <use style="stroke:#000000;stroke-width:0.8;" x="48.560938" xlink:href="#m2c900b2020" y="32.545398"/>
      </g>
     </g>
     <g id="text_17">
      <!-- 1.0 -->
      <g transform="translate(25.657813 36.344616)scale(0.1 -0.1)">
       <use xlink:href="#DejaVuSerif-31"/>
       <use x="63.623047" xlink:href="#DejaVuSerif-2e"/>
       <use x="95.410156" xlink:href="#DejaVuSerif-30"/>
      </g>
     </g>
    </g>
    <g id="text_18">
     <!-- transport [A] -->
     <g transform="translate(14.798438 167.69625)rotate(-90)scale(0.1 -0.1)">
      <defs>
       <path d="M 2547 1044 
L 2547 1747 
L 1806 1747 
Q 1378 1747 1168 1562 
Q 959 1378 959 997 
Q 959 650 1171 447 
Q 1384 244 1747 244 
Q 2106 244 2326 466 
Q 2547 688 2547 1044 
z
M 3122 2075 
L 3122 331 
L 3634 331 
L 3634 0 
L 2547 0 
L 2547 359 
Q 2356 128 2106 18 
Q 1856 -91 1522 -91 
Q 969 -91 644 203 
Q 319 497 319 997 
Q 319 1513 691 1797 
Q 1063 2081 1741 2081 
L 2547 2081 
L 2547 2309 
Q 2547 2688 2317 2895 
Q 2088 3103 1672 3103 
Q 1328 3103 1125 2947 
Q 922 2791 872 2484 
L 575 2484 
L 575 3156 
Q 875 3284 1158 3348 
Q 1441 3413 1709 3413 
Q 2400 3413 2761 3070 
Q 3122 2728 3122 2075 
z
" id="DejaVuSerif-61" transform="scale(0.015625)"/>
       <path d="M 359 184 
L 359 959 
L 691 959 
Q 703 588 923 403 
Q 1144 219 1575 219 
Q 1963 219 2166 364 
Q 2369 509 2369 788 
Q 2369 1006 2220 1140 
Q 2072 1275 1594 1428 
L 1178 1569 
Q 750 1706 558 1912 
Q 366 2119 366 2438 
Q 366 2894 700 3153 
Q 1034 3413 1625 3413 
Q 1888 3413 2178 3344 
Q 2469 3275 2778 3144 
L 2778 2419 
L 2447 2419 
Q 2434 2741 2221 2922 
Q 2009 3103 1644 3103 
Q 1281 3103 1095 2975 
Q 909 2847 909 2591 
Q 909 2381 1050 2254 
Q 1191 2128 1613 1997 
L 2069 1856 
Q 2541 1709 2748 1489 
Q 2956 1269 2956 922 
Q 2956 450 2595 179 
Q 2234 -91 1600 -91 
Q 1278 -91 972 -22 
Q 666 47 359 184 
z
" id="DejaVuSerif-73" transform="scale(0.015625)"/>
       <path d="M 1313 1825 
L 1313 1497 
Q 1313 897 1542 583 
Q 1772 269 2209 269 
Q 2650 269 2876 622 
Q 3103 975 3103 1663 
Q 3103 2353 2876 2703 
Q 2650 3053 2209 3053 
Q 1772 3053 1542 2737 
Q 1313 2422 1313 1825 
z
M 738 2988 
L 184 2988 
L 184 3322 
L 1313 3322 
L 1313 2803 
Q 1481 3116 1742 3264 
Q 2003 3413 2388 3413 
Q 3000 3413 3387 2928 
Q 3775 2444 3775 1663 
Q 3775 881 3387 395 
Q 3000 -91 2388 -91 
Q 2003 -91 1742 57 
Q 1481 206 1313 519 
L 1313 -997 
L 1856 -997 
L 1856 -1331 
L 184 -1331 
L 184 -997 
L 738 -997 
L 738 2988 
z
" id="DejaVuSerif-70" transform="scale(0.015625)"/>
       <path d="M 1925 219 
Q 2388 219 2623 584 
Q 2859 950 2859 1663 
Q 2859 2375 2623 2739 
Q 2388 3103 1925 3103 
Q 1463 3103 1227 2739 
Q 991 2375 991 1663 
Q 991 950 1228 584 
Q 1466 219 1925 219 
z
M 1925 -91 
Q 1200 -91 759 389 
Q 319 869 319 1663 
Q 319 2456 758 2934 
Q 1197 3413 1925 3413 
Q 2653 3413 3092 2934 
Q 3531 2456 3531 1663 
Q 3531 869 3092 389 
Q 2653 -91 1925 -91 
z
" id="DejaVuSerif-6f" transform="scale(0.015625)"/>
       <path d="M 1281 1691 
L 2994 1691 
L 2138 3909 
L 1281 1691 
z
M -38 0 
L -38 331 
L 372 331 
L 2034 4666 
L 2559 4666 
L 4225 331 
L 4684 331 
L 4684 0 
L 2988 0 
L 2988 331 
L 3506 331 
L 3116 1356 
L 1153 1356 
L 763 331 
L 1275 331 
L 1275 0 
L -38 0 
z
" id="DejaVuSerif-41" transform="scale(0.015625)"/>
      </defs>
      <use xlink:href="#DejaVuSerif-74"/>
      <use x="40.185547" xlink:href="#DejaVuSerif-72"/>
      <use x="87.988281" xlink:href="#DejaVuSerif-61"/>
      <use x="147.607422" xlink:href="#DejaVuSerif-6e"/>
      <use x="212.011719" xlink:href="#DejaVuSerif-73"/>
      <use x="263.330078" xlink:href="#DejaVuSerif-70"/>
      <use x="327.34375" xlink:href="#DejaVuSerif-6f"/>
      <use x="387.548828" xlink:href="#DejaVuSerif-72"/>
      <use x="435.351562" xlink:href="#DejaVuSerif-74"/>
      <use x="475.537109" xlink:href="#DejaVuSerif-20"/>
      <use x="507.324219" xlink:href="#DejaVuSerif-5b"/>
      <use x="546.337891" xlink:href="#DejaVuSerif-41"/>
      <use x="618.554688" xlink:href="#DejaVuSerif-5d"/>
     </g>
    </g>
   </g>
   <g id="line2d_18">
    <path clip-path="url(#pefc62819c9)" d="M 67.49189 78.360865 
L 70.024459 78.430852 
L 80.154734 79.39511 
L 86.486156 79.903308 
L 89.018725 79.918231 
L 91.551294 79.688402 
L 94.083863 79.218963 
L 102.947854 77.293719 
L 108.012992 76.682512 
L 114.344414 75.923199 
L 116.876983 75.220837 
L 119.409552 74.167511 
L 121.942121 72.819932 
L 124.47469 71.189632 
L 128.273543 68.649956 
L 130.806112 67.204572 
L 133.338681 66.068154 
L 135.87125 65.23021 
L 138.403819 64.691738 
L 142.202672 63.895194 
L 146.001525 63.051115 
L 149.800378 62.448256 
L 152.332947 62.209924 
L 154.865516 62.159427 
L 162.463223 62.376505 
L 167.528361 62.832871 
L 170.06093 62.703075 
L 175.126067 62.227316 
L 181.457489 62.146564 
L 192.854049 61.038581 
L 196.652903 60.416961 
L 200.451756 59.523007 
L 210.582032 56.778674 
L 213.114601 56.350098 
L 216.913454 55.953055 
L 219.446023 55.817047 
L 225.777445 55.962022 
L 230.842583 56.133645 
L 234.641436 56.41309 
L 237.174005 56.252564 
L 240.972858 55.919243 
L 246.037996 55.660987 
L 256.168271 54.835182 
L 259.967125 54.719378 
L 265.032263 54.244634 
L 275.162538 53.167067 
L 289.091667 52.137631 
L 292.89052 52.087434 
L 305.553365 52.158212 
L 311.884787 51.746355 
L 320.748778 51.15287 
L 351.139604 49.580341 
L 361.26988 49.405232 
L 371.400156 49.436786 
L 376.465293 49.076432 
L 391.660707 48.518689 
L 396.725844 48.263381 
L 416.986395 46.944157 
L 425.850386 46.087508 
L 430.915524 45.667896 
L 433.448093 45.115075 
L 437.246946 44.063858 
L 439.779515 43.574328 
L 443.578369 43.201825 
L 446.110938 43.08322 
L 446.110938 43.08322 
" style="fill:none;stroke:#cc3311;stroke-linecap:square;stroke-width:0.6;"/>
   </g>
   <g id="patch_3">
    <path d="M 48.560938 247.318125 
L 48.560938 22.318125 
" style="fill:none;stroke:#808080;stroke-linecap:square;stroke-linejoin:miter;stroke-width:0.8;"/>
   </g>
   <g id="patch_4">
    <path d="M 465.04189 247.318125 
L 465.04189 22.318125 
" style="fill:none;stroke:#808080;stroke-linecap:square;stroke-linejoin:miter;stroke-width:0.8;"/>
   </g>
   <g id="patch_5">
    <path d="M 48.560938 247.318125 
L 465.04189 247.318125 
" style="fill:none;stroke:#808080;stroke-linecap:square;stroke-linejoin:miter;stroke-width:0.8;"/>
   </g>
   <g id="patch_6">
    <path d="M 48.560938 22.318125 
L 465.04189 22.318125 
" style="fill:none;stroke:#808080;stroke-linecap:square;stroke-linejoin:miter;stroke-width:0.8;"/>
   </g>
   <g id="patch_7">
    <path d="M 434.768883 73.879909 
Q 436.333218 61.264884 437.759964 49.759395 
" style="fill:none;stroke:#808080;stroke-linecap:round;"/>
    <path d="M 435.282914 53.482864 
L 437.759964 49.759395 
L 439.252509 53.975116 
" style="fill:none;stroke:#808080;stroke-linecap:round;"/>
   </g>
   <g id="text_19">
    <g id="patch_8">
     <path d="M 429.792918 87.684939 
L 438.513231 87.684939 
Q 442.513231 87.684939 442.513231 83.684939 
L 442.513231 74.006814 
Q 442.513231 70.006814 438.513231 70.006814 
L 429.792918 70.006814 
Q 425.792918 70.006814 425.792918 74.006814 
L 425.792918 83.684939 
Q 425.792918 87.684939 429.792918 87.684939 
z
" style="fill:#ffffff;stroke:#808080;stroke-linejoin:miter;stroke-width:0.8;"/>
    </g>
    <!-- H -->
    <g transform="translate(429.792918 81.605251)scale(0.1 -0.1)">
     <defs>
      <path d="M 353 0 
L 353 331 
L 947 331 
L 947 4331 
L 353 4331 
L 353 4666 
L 2175 4666 
L 2175 4331 
L 1581 4331 
L 1581 2719 
L 4000 2719 
L 4000 4331 
L 3406 4331 
L 3406 4666 
L 5228 4666 
L 5228 4331 
L 4634 4331 
L 4634 331 
L 5228 331 
L 5228 0 
L 3406 0 
L 3406 331 
L 4000 331 
L 4000 2338 
L 1581 2338 
L 1581 331 
L 2175 331 
L 2175 0 
L 353 0 
z
" id="DejaVuSerif-48" transform="scale(0.015625)"/>
     </defs>
     <use xlink:href="#DejaVuSerif-48"/>
    </g>
   </g>
   <g id="patch_9">
    <path d="M 90.159951 59.278926 
Q 91.157534 66.741791 92.006985 73.09648 
" style="fill:none;stroke:#808080;stroke-linecap:round;"/>
    <path d="M 93.459374 68.866756 
L 92.006985 73.09648 
L 89.494639 69.396734 
" style="fill:none;stroke:#808080;stroke-linecap:round;"/>
   </g>
   <g id="text_20">
    <g id="patch_10">
     <path d="M 86.176954 63.160485 
L 92.817579 63.160485 
Q 96.817579 63.160485 96.817579 59.160485 
L 96.817579 49.48236 
Q 96.817579 45.48236 92.817579 45.48236 
L 86.176954 45.48236 
Q 82.176954 45.48236 82.176954 49.48236 
L 82.176954 59.160485 
Q 82.176954 63.160485 86.176954 63.160485 
z
" style="fill:#ffffff;stroke:#808080;stroke-linejoin:miter;stroke-width:0.8;"/>
    </g>
    <!-- L -->
    <g transform="translate(86.176954 57.080797)scale(0.1 -0.1)">
     <defs>
      <path d="M 353 0 
L 353 331 
L 947 331 
L 947 4331 
L 353 4331 
L 353 4666 
L 2175 4666 
L 2175 4331 
L 1581 4331 
L 1581 384 
L 3713 384 
L 3713 1166 
L 4097 1166 
L 4097 0 
L 353 0 
z
" id="DejaVuSerif-4c" transform="scale(0.015625)"/>
     </defs>
     <use xlink:href="#DejaVuSerif-4c"/>
    </g>
   </g>
   <g id="patch_11">
    <path d="M 123.071465 49.985283 
Q 124.073508 57.448148 124.926768 63.802924 
" style="fill:none;stroke:#808080;stroke-linecap:round;"/>
    <path d="M 126.376674 59.572348 
L 124.926768 63.802924 
L 122.412251 60.104654 
" style="fill:none;stroke:#808080;stroke-linecap:round;"/>
   </g>
   <g id="text_21">
    <g id="patch_12">
     <path d="M 119.070662 53.866842 
L 125.740974 53.866842 
Q 129.740974 53.866842 129.740974 49.866842 
L 129.740974 40.188717 
Q 129.740974 36.188717 125.740974 36.188717 
L 119.070662 36.188717 
Q 115.070662 36.188717 115.070662 40.188717 
L 115.070662 49.866842 
Q 115.070662 53.866842 119.070662 53.866842 
z
" style="fill:#ffffff;stroke:#808080;stroke-linejoin:miter;stroke-width:0.8;"/>
    </g>
    <!-- T -->
    <g transform="translate(119.070662 47.787155)scale(0.1 -0.1)">
     <defs>
      <path d="M 1222 0 
L 1222 331 
L 1819 331 
L 1819 4294 
L 447 4294 
L 447 3566 
L 63 3566 
L 63 4666 
L 4206 4666 
L 4206 3566 
L 3822 3566 
L 3822 4294 
L 2450 4294 
L 2450 331 
L 3047 331 
L 3047 0 
L 1222 0 
z
" id="DejaVuSerif-54" transform="scale(0.015625)"/>
     </defs>
     <use xlink:href="#DejaVuSerif-54"/>
    </g>
   </g>
   <g id="text_22">
    <!-- Pinchoff fit deafcafe-0200-0004-0000-0165b1fec7b0 -->
    <g transform="translate(97.979539 16.318125)scale(0.12 -0.12)">
     <defs>
      <path d="M 1581 2375 
L 2406 2375 
Q 2872 2375 3115 2626 
Q 3359 2878 3359 3353 
Q 3359 3831 3115 4081 
Q 2872 4331 2406 4331 
L 1581 4331 
L 1581 2375 
z
M 353 0 
L 353 331 
L 947 331 
L 947 4331 
L 353 4331 
L 353 4666 
L 2559 4666 
Q 3259 4666 3668 4311 
Q 4078 3956 4078 3353 
Q 4078 2753 3668 2397 
Q 3259 2041 2559 2041 
L 1581 2041 
L 1581 331 
L 2303 331 
L 2303 0 
L 353 0 
z
" id="DejaVuSerif-50" transform="scale(0.015625)"/>
      <path d="M 622 4353 
Q 622 4497 726 4603 
Q 831 4709 978 4709 
Q 1122 4709 1226 4603 
Q 1331 4497 1331 4353 
Q 1331 4206 1228 4103 
Q 1125 4000 978 4000 
Q 831 4000 726 4103 
Q 622 4206 622 4353 
z
M 1356 331 
L 1900 331 
L 1900 0 
L 231 0 
L 231 331 
L 781 331 
L 781 2988 
L 231 2988 
L 231 3322 
L 1356 3322 
L 1356 331 
z
" id="DejaVuSerif-69" transform="scale(0.015625)"/>
      <path d="M 3291 997 
Q 3169 466 2822 187 
Q 2475 -91 1925 -91 
Q 1200 -91 759 389 
Q 319 869 319 1663 
Q 319 2459 759 2936 
Q 1200 3413 1925 3413 
Q 2241 3413 2553 3339 
Q 2866 3266 3181 3116 
L 3181 2266 
L 2847 2266 
Q 2781 2703 2561 2903 
Q 2341 3103 1931 3103 
Q 1466 3103 1228 2742 
Q 991 2381 991 1663 
Q 991 944 1227 581 
Q 1463 219 1931 219 
Q 2303 219 2525 412 
Q 2747 606 2828 997 
L 3291 997 
z
" id="DejaVuSerif-63" transform="scale(0.015625)"/>
      <path d="M 263 0 
L 263 331 
L 781 331 
L 781 4531 
L 231 4531 
L 231 4863 
L 1356 4863 
L 1356 2731 
Q 1516 3069 1770 3241 
Q 2025 3413 2363 3413 
Q 2913 3413 3172 3097 
Q 3431 2781 3431 2113 
L 3431 331 
L 3944 331 
L 3944 0 
L 2356 0 
L 2356 331 
L 2853 331 
L 2853 1931 
Q 2853 2541 2704 2764 
Q 2556 2988 2175 2988 
Q 1775 2988 1565 2697 
Q 1356 2406 1356 1850 
L 1356 331 
L 1856 331 
L 1856 0 
L 263 0 
z
" id="DejaVuSerif-68" transform="scale(0.015625)"/>
      <path d="M 2753 4078 
L 2450 4078 
Q 2447 4313 2317 4434 
Q 2188 4556 1941 4556 
Q 1619 4556 1487 4379 
Q 1356 4203 1356 3750 
L 1356 3322 
L 2284 3322 
L 2284 2988 
L 1356 2988 
L 1356 331 
L 2094 331 
L 2094 0 
L 231 0 
L 231 331 
L 781 331 
L 781 2988 
L 231 2988 
L 231 3322 
L 781 3322 
L 781 3738 
Q 781 4294 1070 4578 
Q 1359 4863 1919 4863 
Q 2128 4863 2337 4825 
Q 2547 4788 2753 4709 
L 2753 4078 
z
" id="DejaVuSerif-66" transform="scale(0.015625)"/>
      <path d="M 3359 331 
L 3909 331 
L 3909 0 
L 2784 0 
L 2784 519 
Q 2616 206 2355 57 
Q 2094 -91 1709 -91 
Q 1097 -91 708 395 
Q 319 881 319 1663 
Q 319 2444 706 2928 
Q 1094 3413 1709 3413 
Q 2094 3413 2355 3264 
Q 2616 3116 2784 2803 
L 2784 4531 
L 2241 4531 
L 2241 4863 
L 3359 4863 
L 3359 331 
z
M 2784 1497 
L 2784 1825 
Q 2784 2422 2554 2737 
Q 2325 3053 1888 3053 
Q 1444 3053 1217 2703 
Q 991 2353 991 1663 
Q 991 975 1217 622 
Q 1444 269 1888 269 
Q 2325 269 2554 583 
Q 2784 897 2784 1497 
z
" id="DejaVuSerif-64" transform="scale(0.015625)"/>
      <path d="M 281 1959 
L 1881 1959 
L 1881 1472 
L 281 1472 
L 281 1959 
z
" id="DejaVuSerif-2d" transform="scale(0.015625)"/>
      <path d="M 3219 4666 
L 3219 4153 
L 1081 4153 
L 1081 2816 
Q 1244 2928 1461 2984 
Q 1678 3041 1947 3041 
Q 2703 3041 3140 2622 
Q 3578 2203 3578 1478 
Q 3578 738 3136 323 
Q 2694 -91 1894 -91 
Q 1572 -91 1234 -12 
Q 897 66 544 225 
L 544 1131 
L 897 1131 
Q 925 688 1179 453 
Q 1434 219 1894 219 
Q 2388 219 2653 544 
Q 2919 869 2919 1478 
Q 2919 2084 2655 2407 
Q 2391 2731 1894 2731 
Q 1613 2731 1398 2631 
Q 1184 2531 1019 2322 
L 750 2322 
L 750 4666 
L 3219 4666 
z
" id="DejaVuSerif-35" transform="scale(0.015625)"/>
      <path d="M 738 331 
L 738 4531 
L 184 4531 
L 184 4863 
L 1313 4863 
L 1313 2803 
Q 1481 3116 1742 3264 
Q 2003 3413 2388 3413 
Q 3000 3413 3387 2928 
Q 3775 2444 3775 1663 
Q 3775 881 3387 395 
Q 3000 -91 2388 -91 
Q 2003 -91 1742 57 
Q 1481 206 1313 519 
L 1313 0 
L 184 0 
L 184 331 
L 738 331 
z
M 1313 1497 
Q 1313 897 1542 583 
Q 1772 269 2209 269 
Q 2650 269 2876 622 
Q 3103 975 3103 1663 
Q 3103 2353 2876 2703 
Q 2650 3053 2209 3053 
Q 1772 3053 1542 2737 
Q 1313 2422 1313 1825 
L 1313 1497 
z
" id="DejaVuSerif-62" transform="scale(0.015625)"/>
      <path d="M 3609 4347 
L 1784 0 
L 1319 0 
L 3059 4153 
L 903 4153 
L 903 3578 
L 538 3578 
L 538 4666 
L 3609 4666 
L 3609 4347 
z
" id="DejaVuSerif-37" transform="scale(0.015625)"/>
     </defs>
     <use xlink:href="#DejaVuSerif-50"/>
     <use x="67.285156" xlink:href="#DejaVuSerif-69"/>
     <use x="99.267578" xlink:href="#DejaVuSerif-6e"/>
     <use x="163.671875" xlink:href="#DejaVuSerif-63"/>
     <use x="219.677734" xlink:href="#DejaVuSerif-68"/>
     <use x="284.082031" xlink:href="#DejaVuSerif-6f"/>
     <use x="344.287109" xlink:href="#DejaVuSerif-66"/>
     <use x="381.298828" xlink:href="#DejaVuSerif-66"/>
     <use x="418.310547" xlink:href="#DejaVuSerif-20"/>
     <use x="450.097656" xlink:href="#DejaVuSerif-66"/>
     <use x="487.109375" xlink:href="#DejaVuSerif-69"/>
     <use x="519.091797" xlink:href="#DejaVuSerif-74"/>
     <use x="559.277344" xlink:href="#DejaVuSerif-20"/>
     <use x="591.064453" xlink:href="#DejaVuSerif-64"/>
     <use x="655.078125" xlink:href="#DejaVuSerif-65"/>
     <use x="714.257812" xlink:href="#DejaVuSerif-61"/>
     <use x="773.876953" xlink:href="#DejaVuSerif-66"/>
     <use x="810.888672" xlink:href="#DejaVuSerif-63"/>
     <use x="866.894531" xlink:href="#DejaVuSerif-61"/>
     <use x="926.513672" xlink:href="#DejaVuSerif-66"/>
     <use x="963.525391" xlink:href="#DejaVuSerif-65"/>
     <use x="1022.705078" xlink:href="#DejaVuSerif-2d"/>
     <use x="1056.494141" xlink:href="#DejaVuSerif-30"/>
     <use x="1120.117188" xlink:href="#DejaVuSerif-32"/>
     <use x="1183.740234" xlink:href="#DejaVuSerif-30"/>
     <use x="1247.363281" xlink:href="#DejaVuSerif-30"/>
     <use x="1310.986328" xlink:href="#DejaVuSerif-2d"/>
     <use x="1344.775391" xlink:href="#DejaVuSerif-30"/>
     <use x="1408.398438" xlink:href="#DejaVuSerif-30"/>
     <use x="1472.021484" xlink:href="#DejaVuSerif-30"/>
     <use x="1535.644531" xlink:href="#DejaVuSerif-34"/>
     <use x="1599.267578" xlink:href="#DejaVuSerif-2d"/>
     <use x="1633.056641" xlink:href="#DejaVuSerif-30"/>
     <use x="1696.679688" xlink:href="#DejaVuSerif-30"/>
     <use x="1760.302734" xlink:href="#DejaVuSerif-30"/>
     <use x="1823.925781" xlink:href="#DejaVuSerif-30"/>
     <use x="1887.548828" xlink:href="#DejaVuSerif-2d"/>
     <use x="1921.337891" xlink:href="#DejaVuSerif-30"/>
     <use x="1984.960938" xlink:href="#DejaVuSerif-31"/>
     <use x="2048.583984" xlink:href="#DejaVuSerif-36"/>
     <use x="2112.207031" xlink:href="#DejaVuSerif-35"/>
     <use x="2175.830078" xlink:href="#DejaVuSerif-62"/>
     <use x="2239.84375" xlink:href="#DejaVuSerif-31"/>
     <use x="2303.466797" xlink:href="#DejaVuSerif-66"/>
     <use x="2340.478516" xlink:href="#DejaVuSerif-65"/>
     <use x="2399.658203" xlink:href="#DejaVuSerif-63"/>
     <use x="2455.664062" xlink:href="#DejaVuSerif-37"/>
     <use x="2519.287109" xlink:href="#DejaVuSerif-62"/>
     <use x="2583.300781" xlink:href="#DejaVuSerif-30"/>
    </g>
   </g>
   <g id="line2d_19">
    <path clip-path="url(#pefc62819c9)" d="M 67.49189 93.96828 
L 446.110938 93.96828 
L 446.110938 93.96828 
" style="fill:none;stroke:#ee7733;stroke-linecap:square;stroke-width:0.6;"/>
   </g>
   <g id="legend_1">
    <g id="patch_13">
     <path d="M 382.920015 219.818125 
L 458.04189 219.818125 
Q 460.04189 219.818125 460.04189 217.818125 
L 460.04189 159.82125 
Q 460.04189 157.82125 458.04189 157.82125 
L 382.920015 157.82125 
Q 380.920015 157.82125 380.920015 159.82125 
L 380.920015 217.818125 
Q 380.920015 219.818125 382.920015 219.818125 
z
" style="fill:#ffffff;opacity:0.8;stroke:#cccccc;stroke-linejoin:miter;"/>
    </g>
    <g id="line2d_20">
     <path d="M 384.920015 165.919688 
L 404.920015 165.919688 
" style="fill:none;stroke:#336699;stroke-linecap:square;stroke-width:0.6;"/>
    </g>
    <g id="line2d_21"/>
    <g id="text_23">
     <!-- signal -->
     <g transform="translate(412.920015 169.419688)scale(0.1 -0.1)">
      <defs>
       <path d="M 3359 2988 
L 3359 72 
Q 3359 -644 2965 -1033 
Q 2572 -1422 1844 -1422 
Q 1516 -1422 1216 -1362 
Q 916 -1303 641 -1184 
L 641 -488 
L 941 -488 
Q 997 -813 1206 -963 
Q 1416 -1113 1806 -1113 
Q 2313 -1113 2548 -827 
Q 2784 -541 2784 72 
L 2784 519 
Q 2616 206 2355 57 
Q 2094 -91 1709 -91 
Q 1097 -91 708 395 
Q 319 881 319 1663 
Q 319 2444 706 2928 
Q 1094 3413 1709 3413 
Q 2094 3413 2355 3264 
Q 2616 3116 2784 2803 
L 2784 3322 
L 3909 3322 
L 3909 2988 
L 3359 2988 
z
M 2784 1825 
Q 2784 2422 2554 2737 
Q 2325 3053 1888 3053 
Q 1444 3053 1217 2703 
Q 991 2353 991 1663 
Q 991 975 1217 622 
Q 1444 269 1888 269 
Q 2325 269 2554 583 
Q 2784 897 2784 1497 
L 2784 1825 
z
" id="DejaVuSerif-67" transform="scale(0.015625)"/>
       <path d="M 1313 331 
L 1856 331 
L 1856 0 
L 184 0 
L 184 331 
L 738 331 
L 738 4531 
L 184 4531 
L 184 4863 
L 1313 4863 
L 1313 331 
z
" id="DejaVuSerif-6c" transform="scale(0.015625)"/>
      </defs>
      <use xlink:href="#DejaVuSerif-73"/>
      <use x="51.318359" xlink:href="#DejaVuSerif-69"/>
      <use x="83.300781" xlink:href="#DejaVuSerif-67"/>
      <use x="147.314453" xlink:href="#DejaVuSerif-6e"/>
      <use x="211.71875" xlink:href="#DejaVuSerif-61"/>
      <use x="271.337891" xlink:href="#DejaVuSerif-6c"/>
     </g>
    </g>
    <g id="line2d_22">
     <path d="M 384.920015 180.74 
L 404.920015 180.74 
" style="fill:none;stroke:#cc3311;stroke-linecap:square;stroke-width:0.6;"/>
    </g>
    <g id="line2d_23"/>
    <g id="text_24">
     <!-- smooth -->
     <g transform="translate(412.920015 184.24)scale(0.1 -0.1)">
      <defs>
       <path d="M 3316 2675 
Q 3481 3041 3739 3227 
Q 3997 3413 4341 3413 
Q 4863 3413 5119 3089 
Q 5375 2766 5375 2113 
L 5375 331 
L 5894 331 
L 5894 0 
L 4300 0 
L 4300 331 
L 4800 331 
L 4800 2047 
Q 4800 2556 4650 2772 
Q 4500 2988 4153 2988 
Q 3769 2988 3567 2697 
Q 3366 2406 3366 1850 
L 3366 331 
L 3866 331 
L 3866 0 
L 2291 0 
L 2291 331 
L 2791 331 
L 2791 2069 
Q 2791 2566 2641 2777 
Q 2491 2988 2144 2988 
Q 1759 2988 1557 2697 
Q 1356 2406 1356 1850 
L 1356 331 
L 1856 331 
L 1856 0 
L 263 0 
L 263 331 
L 781 331 
L 781 2994 
L 231 2994 
L 231 3322 
L 1356 3322 
L 1356 2731 
Q 1516 3063 1762 3238 
Q 2009 3413 2322 3413 
Q 2709 3413 2968 3220 
Q 3228 3028 3316 2675 
z
" id="DejaVuSerif-6d" transform="scale(0.015625)"/>
      </defs>
      <use xlink:href="#DejaVuSerif-73"/>
      <use x="51.318359" xlink:href="#DejaVuSerif-6d"/>
      <use x="146.142578" xlink:href="#DejaVuSerif-6f"/>
      <use x="206.347656" xlink:href="#DejaVuSerif-6f"/>
      <use x="266.552734" xlink:href="#DejaVuSerif-74"/>
      <use x="306.738281" xlink:href="#DejaVuSerif-68"/>
     </g>
    </g>
    <g id="line2d_24">
     <path d="M 384.920015 195.418125 
L 404.920015 195.418125 
" style="fill:none;stroke:#33bbee;stroke-linecap:square;stroke-width:0.6;"/>
    </g>
    <g id="line2d_25"/>
    <g id="text_25">
     <!-- gradient -->
     <g transform="translate(412.920015 198.918125)scale(0.1 -0.1)">
      <use xlink:href="#DejaVuSerif-67"/>
      <use x="64.013672" xlink:href="#DejaVuSerif-72"/>
      <use x="111.816406" xlink:href="#DejaVuSerif-61"/>
      <use x="171.435547" xlink:href="#DejaVuSerif-64"/>
      <use x="235.449219" xlink:href="#DejaVuSerif-69"/>
      <use x="267.431641" xlink:href="#DejaVuSerif-65"/>
      <use x="326.611328" xlink:href="#DejaVuSerif-6e"/>
      <use x="391.015625" xlink:href="#DejaVuSerif-74"/>
     </g>
    </g>
    <g id="line2d_26">
     <path d="M 384.920015 210.238438 
L 404.920015 210.238438 
" style="fill:none;stroke:#ee7733;stroke-linecap:square;stroke-width:0.6;"/>
    </g>
    <g id="line2d_27"/>
    <g id="text_26">
     <!-- fit -->
     <g transform="translate(412.920015 213.738438)scale(0.1 -0.1)">
      <use xlink:href="#DejaVuSerif-66"/>
      <use x="37.011719" xlink:href="#DejaVuSerif-69"/>
      <use x="68.994141" xlink:href="#DejaVuSerif-74"/>
     </g>
    </g>
   </g>
   <g id="line2d_28">
    <path clip-path="url(#pefc62819c9)" d="M 67.49189 78.360863 
L 68.758174 78.555651 
L 70.024459 77.993128 
L 71.290743 78.127865 
L 72.557028 78.886243 
L 73.823312 79.418464 
L 76.355881 78.375991 
L 78.88845 79.666491 
L 80.154734 79.77303 
L 81.421019 79.114889 
L 82.687303 79.295903 
L 83.953588 80.075425 
L 85.219872 80.285825 
L 86.486156 79.767075 
L 87.752441 79.557182 
L 89.018725 80.220038 
L 90.28501 80.481574 
L 91.551294 79.724642 
L 92.817579 79.160485 
L 95.350148 79.334832 
L 96.616432 78.735015 
L 97.882716 77.949893 
L 99.149001 77.634967 
L 100.415285 78.019547 
L 101.68157 77.691581 
L 104.214139 76.574422 
L 105.480423 77.19365 
L 106.746708 77.207393 
L 108.012992 76.732831 
L 109.279276 75.878615 
L 110.545561 76.423074 
L 111.811845 76.760174 
L 113.07813 76.655155 
L 114.344414 75.69972 
L 115.610699 75.460532 
L 116.876983 75.759513 
L 118.143267 75.237206 
L 119.409552 74.049984 
L 120.675836 73.311185 
L 123.208405 72.761777 
L 124.47469 71.187515 
L 125.740974 69.866842 
L 127.007259 69.222163 
L 128.273543 68.891314 
L 130.806112 66.850625 
L 132.072396 66.11175 
L 133.338681 66.142438 
L 134.604965 65.945486 
L 135.87125 64.651255 
L 137.137534 64.472299 
L 138.403819 64.647039 
L 139.670103 65.053877 
L 140.936387 64.527952 
L 142.202672 63.480909 
L 143.468956 63.278667 
L 144.735241 63.565411 
L 146.001525 63.248607 
L 147.26781 62.535342 
L 148.534094 62.169083 
L 149.800378 62.702848 
L 151.066663 62.547655 
L 152.332947 61.946347 
L 153.599232 61.591425 
L 154.865516 62.186141 
L 156.131801 62.611966 
L 157.398085 62.406644 
L 158.66437 61.672181 
L 159.930654 62.049088 
L 161.196938 62.550561 
L 162.463223 62.467391 
L 163.729507 62.100821 
L 164.995792 62.403352 
L 167.528361 63.563693 
L 170.06093 62.354275 
L 171.327214 62.462699 
L 172.593498 62.861749 
L 175.126067 61.714205 
L 176.392352 61.727327 
L 177.658636 62.600531 
L 178.924921 62.826649 
L 180.191205 62.127256 
L 181.457489 61.872432 
L 182.723774 62.289244 
L 183.990058 62.207686 
L 185.256343 61.540645 
L 186.522627 61.189446 
L 187.788912 61.486391 
L 189.055196 61.952038 
L 190.321481 61.65423 
L 191.587765 60.733455 
L 192.854049 60.903231 
L 194.120334 61.207487 
L 195.386618 61.017437 
L 196.652903 60.224535 
L 197.919187 59.881948 
L 199.185472 60.151673 
L 200.451756 59.915095 
L 202.984325 58.25478 
L 204.250609 58.390871 
L 205.516894 58.727283 
L 206.783178 58.102568 
L 208.049463 56.864082 
L 209.315747 56.721739 
L 210.582032 56.920053 
L 211.848316 56.620558 
L 214.380885 55.753438 
L 215.647169 56.314107 
L 216.913454 56.296292 
L 218.179738 55.587128 
L 219.446023 55.264324 
L 221.978592 56.304458 
L 223.244876 56.11132 
L 224.51116 55.579909 
L 225.777445 55.604398 
L 227.043729 56.382262 
L 228.310014 56.527436 
L 229.576298 55.587756 
L 230.842583 55.506493 
L 233.375152 56.949159 
L 234.641436 56.851345 
L 235.90772 56.282072 
L 238.440289 56.121847 
L 239.706574 56.177031 
L 240.972858 55.433631 
L 242.239143 55.609726 
L 243.505427 56.283026 
L 244.771712 56.249273 
L 246.037996 55.438648 
L 247.30428 55.036116 
L 249.836849 55.918114 
L 251.103134 55.396147 
L 252.369418 54.502526 
L 253.635703 54.566466 
L 254.901987 54.995417 
L 256.168271 55.026316 
L 257.434556 54.68687 
L 258.70084 54.707303 
L 259.967125 54.932445 
L 261.233409 54.940913 
L 262.499694 54.374766 
L 263.765978 53.977487 
L 265.032263 54.454478 
L 266.298547 54.475108 
L 267.564831 54.021985 
L 268.831116 53.195937 
L 270.0974 53.45776 
L 271.363685 53.949584 
L 272.629969 53.846397 
L 273.896254 52.937746 
L 275.162538 52.751169 
L 276.428823 53.180264 
L 277.695107 53.43464 
L 278.961391 52.71364 
L 280.227676 52.413062 
L 281.49396 52.636835 
L 282.760245 53.085295 
L 284.026529 52.586698 
L 285.292814 51.917712 
L 286.559098 51.946341 
L 287.825382 52.459256 
L 289.091667 52.472394 
L 290.357951 51.816076 
L 291.624236 51.592175 
L 292.89052 52.198432 
L 294.156805 52.604679 
L 296.689374 51.60143 
L 297.955658 52.048968 
L 299.221942 52.70661 
L 300.488227 52.400364 
L 301.754511 51.782051 
L 303.020796 51.983854 
L 304.28708 52.614313 
L 305.553365 52.528479 
L 306.819649 51.843873 
L 308.085934 51.650394 
L 309.352218 52.2102 
L 310.618502 52.175948 
L 313.151071 51.173327 
L 314.417356 51.625065 
L 315.68364 51.859054 
L 316.949925 51.510095 
L 318.216209 50.904125 
L 319.482493 50.907463 
L 320.748778 51.496351 
L 322.015062 51.445163 
L 323.281347 50.737089 
L 324.547631 50.610616 
L 327.0802 51.202055 
L 329.612769 50.47043 
L 332.145338 50.937181 
L 333.411622 50.639842 
L 334.677907 50.010504 
L 335.944191 50.075148 
L 337.210476 50.518447 
L 338.47676 50.673723 
L 339.743045 50.020327 
L 341.009329 49.538545 
L 342.275613 50.01904 
L 343.541898 50.238658 
L 344.808182 49.880489 
L 346.074467 49.63866 
L 347.340751 49.537629 
L 348.607036 49.993423 
L 349.87332 49.871998 
L 351.139604 49.165611 
L 352.405889 49.209134 
L 353.672173 49.888624 
L 354.938458 49.968366 
L 356.204742 49.120121 
L 357.471027 48.855755 
L 358.737311 49.529555 
L 360.003596 49.901792 
L 362.536164 48.949619 
L 363.802449 49.191418 
L 365.068733 49.910987 
L 366.335018 49.879974 
L 367.601302 49.206122 
L 368.867587 49.315757 
L 370.133871 49.941637 
L 371.400156 49.917685 
L 372.66644 49.168018 
L 373.932724 48.669549 
L 376.465293 49.476769 
L 377.731578 49.188315 
L 378.997862 48.655269 
L 380.264147 48.688923 
L 381.530431 49.166625 
L 382.796715 48.965685 
L 384.063 48.349128 
L 385.329284 48.413795 
L 387.861853 49.084674 
L 389.128138 48.447835 
L 390.394422 48.120679 
L 392.926991 48.998968 
L 394.193275 48.558696 
L 395.45956 47.946438 
L 396.725844 48.059826 
L 397.992129 48.528697 
L 399.258413 48.37249 
L 400.524698 47.831385 
L 401.790982 47.440084 
L 403.057267 48.007056 
L 404.323551 48.212628 
L 405.589835 47.525138 
L 406.85612 47.081506 
L 409.388689 48.09177 
L 411.921258 46.888852 
L 413.187542 46.997011 
L 414.453826 47.536823 
L 415.720111 47.577787 
L 416.986395 46.591112 
L 418.25268 46.459137 
L 419.518964 46.880997 
L 420.785249 46.928091 
L 423.317818 45.798801 
L 424.584102 46.041417 
L 425.850386 46.422327 
L 427.116671 46.209067 
L 428.382955 45.589808 
L 429.64924 45.610378 
L 430.915524 46.142924 
L 432.181809 46.069252 
L 434.714378 44.317184 
L 437.246946 44.256021 
L 439.779515 43.089035 
L 441.0458 43.372986 
L 442.312084 43.525818 
L 443.578369 43.159983 
L 444.844653 42.935719 
L 446.110938 43.019971 
L 446.110938 43.019971 
" style="fill:none;stroke:#336699;stroke-linecap:square;stroke-width:0.6;"/>
   </g>
  </g>
  <g id="axes_2">
   <g id="patch_14">
    <path d="M 469.36189 247.318125 
L 490.185938 247.318125 
L 490.185938 22.318125 
L 469.36189 22.318125 
z
" style="fill:none;"/>
   </g>
   <g id="matplotlib.axis_3"/>
   <g id="matplotlib.axis_4"/>
   <g id="patch_15">
    <path d="M 469.36189 247.318125 
L 469.36189 22.318125 
" style="fill:none;"/>
   </g>
   <g id="patch_16">
    <path d="M 490.185938 247.318125 
L 490.185938 22.318125 
" style="fill:none;"/>
   </g>
   <g id="patch_17">
    <path d="M 469.36189 247.318125 
L 490.185938 247.318125 
" style="fill:none;"/>
   </g>
   <g id="patch_18">
    <path d="M 469.36189 22.318125 
L 490.185938 22.318125 
" style="fill:none;"/>
   </g>
  </g>
 </g>
 <defs>
  <clipPath id="pefc62819c9">
   <rect height="225" width="416.480952" x="48.560938" y="22.318125"/>
  </clipPath>
 </defs>
</svg>
