<svg id="Layer_1" data-name="Layer 1" xmlns="http://www.w3.org/2000/svg" viewBox="0 0 201.13 205.77"><defs><style>.cls-1,.cls-3{fill:none;stroke:#231f20;}.cls-1,.cls-3,.cls-5{stroke-miterlimit:10;}.cls-1{stroke-width:2px;}.cls-2,.cls-4{fill:#231f20;}.cls-4{font-size:20px;font-family:CMUSerif-Roman, CMU Serif;}.cls-5{fill:#666766;stroke:#666766;stroke-width:0.25px;}</style></defs><line class="cls-1" x1="29.95" y1="171.82" x2="29.95" y2="5.97"/><polygon class="cls-2" points="33.65 8.78 29.95 7.21 26.25 8.78 29.95 0 33.65 8.78"/><line class="cls-1" x1="29.3" y1="171.71" x2="195.16" y2="171.71"/><polygon class="cls-2" points="192.35 175.41 193.92 171.71 192.35 168.01 201.13 171.71 192.35 175.41"/><line class="cls-3" x1="93.19" y1="170.99" x2="81.95" y2="119.82"/><line class="cls-3" x1="29.4" y1="102.35" x2="81.95" y2="119.82"/><text class="cls-4" transform="translate(88.49 191.37)">V</text><text class="cls-4" transform="translate(103.49 198.03) scale(0.58)">plunger 1</text><text class="cls-4" transform="translate(16.83 116.69) rotate(-90)">V</text><text class="cls-4" transform="translate(23.49 101.69) rotate(-90) scale(0.58)">plunger 2</text><line class="cls-3" x1="81.95" y1="119.82" x2="90.95" y2="110.82"/><line class="cls-3" x1="90.95" y1="111.17" x2="81.95" y2="66.17"/><line class="cls-3" x1="90.95" y1="110.82" x2="144.95" y2="128.82"/><line class="cls-3" x1="81.95" y1="66.16" x2="90.95" y2="57.16"/><line class="cls-3" x1="145.61" y1="128.88" x2="154.61" y2="119.88"/><line class="cls-3" x1="31.22" y1="49.35" x2="81.95" y2="66.16"/><line class="cls-3" x1="90.95" y1="57.53" x2="144.95" y2="75.53"/><line class="cls-3" x1="90.95" y1="57.48" x2="81.95" y2="12.48"/><line class="cls-3" x1="154.61" y1="120.53" x2="145.61" y2="75.53"/><line class="cls-3" x1="145.61" y1="75.48" x2="154.61" y2="66.48"/><line class="cls-3" x1="154.61" y1="65.88" x2="145.61" y2="20.88"/><line class="cls-3" x1="154.96" y1="66.48" x2="200.49" y2="81.4"/><line class="cls-3" x1="154.96" y1="119.88" x2="200.57" y2="134.83"/><line class="cls-3" x1="153.99" y1="172.79" x2="145.61" y2="129.48"/><path class="cls-5" d="M93.08,110.82A2.13,2.13,0,1,1,91,108.7,2.13,2.13,0,0,1,93.08,110.82Z"/><path class="cls-5" d="M93.08,57.16A2.13,2.13,0,1,1,91,55,2.13,2.13,0,0,1,93.08,57.16Z"/><path class="cls-5" d="M157.09,66.53A2.13,2.13,0,1,1,155,64.4,2.12,2.12,0,0,1,157.09,66.53Z"/><path class="cls-5" d="M157.09,119.82A2.13,2.13,0,1,1,155,117.7,2.13,2.13,0,0,1,157.09,119.82Z"/><path class="cls-5" d="M84.08,119.82A2.13,2.13,0,1,1,82,117.7,2.13,2.13,0,0,1,84.08,119.82Z"/><path class="cls-5" d="M147.08,128.82A2.13,2.13,0,1,1,145,126.7,2.13,2.13,0,0,1,147.08,128.82Z"/><path class="cls-5" d="M148.1,74.84A2.65,2.65,0,1,1,145.46,72,2.73,2.73,0,0,1,148.1,74.84Z"/><path class="cls-5" d="M84.08,65.88A2.13,2.13,0,1,1,82,63.75,2.13,2.13,0,0,1,84.08,65.88Z"/></svg>
