<svg id="Layer_1" data-name="Layer 1" xmlns="http://www.w3.org/2000/svg" viewBox="0 0 201.86 205.77"><defs><style>.cls-1,.cls-4{fill:none;stroke:#231f20;stroke-miterlimit:10;}.cls-1{stroke-width:2px;}.cls-2,.cls-3{fill:#231f20;}.cls-3{font-size:20px;font-family:CMUSerif-Roman, CMU Serif;}</style></defs><line class="cls-1" x1="29.95" y1="171.82" x2="29.95" y2="5.97"/><polygon class="cls-2" points="33.65 8.78 29.95 7.21 26.25 8.78 29.95 0 33.65 8.78"/><line class="cls-1" x1="30.04" y1="171.82" x2="195.89" y2="171.82"/><polygon class="cls-2" points="193.08 175.53 194.66 171.82 193.08 168.12 201.86 171.82 193.08 175.53"/><text class="cls-3" transform="translate(88.49 191.37)">V</text><text class="cls-3" transform="translate(103.49 198.03) scale(0.58)">plunger 1</text><text class="cls-3" transform="translate(16.83 116.69) rotate(-90)">V</text><text class="cls-3" transform="translate(23.49 101.69) rotate(-90) scale(0.58)">plunger 2</text><line class="cls-4" x1="119.31" y1="172.46" x2="29.31" y2="82.46"/><line class="cls-4" x1="166.72" y1="170.05" x2="31.72" y2="35.05"/><line class="cls-4" x1="200.63" y1="154.14" x2="47.63" y2="1.14"/><line class="cls-4" x1="195.53" y1="99.22" x2="105.85" y2="9.54"/><line class="cls-4" x1="200.95" y1="54.82" x2="155.95" y2="9.82"/></svg>
