<?xml version="1.0" encoding="utf-8" standalone="no"?>
<!DOCTYPE svg PUBLIC "-//W3C//DTD SVG 1.1//EN"
  "http://www.w3.org/Graphics/SVG/1.1/DTD/svg11.dtd">
<svg height="281.274375pt" version="1.1" viewBox="0 0 497.498438 281.274375" width="497.498438pt" xmlns="http://www.w3.org/2000/svg" xmlns:xlink="http://www.w3.org/1999/xlink">
 <metadata>
  <rdf:RDF xmlns:cc="http://creativecommons.org/ns#" xmlns:dc="http://purl.org/dc/elements/1.1/" xmlns:rdf="http://www.w3.org/1999/02/22-rdf-syntax-ns#">
   <cc:Work>
    <dc:type rdf:resource="http://purl.org/dc/dcmitype/StillImage"/>
    <dc:date>2021-08-05T09:45:17.584808</dc:date>
    <dc:format>image/svg+xml</dc:format>
    <dc:creator>
     <cc:Agent>
      <dc:title>Matplotlib v3.4.2, https://matplotlib.org/</dc:title>
     </cc:Agent>
    </dc:creator>
   </cc:Work>
  </rdf:RDF>
 </metadata>
 <defs>
  <style type="text/css">*{stroke-linecap:butt;stroke-linejoin:round;}</style>
 </defs>
 <g id="figure_1">
  <g id="patch_1">
   <path d="M 0 281.274375
L 497.498438 281.274375
L 497.498438 0
L 0 0
z
" style="fill:none;"/>
  </g>
  <g id="axes_1">
   <g id="patch_2">
    <path d="M 53.048438 247.318125
L 490.298437 247.318125
L 490.298437 22.318125
L 53.048438 22.318125
z
" style="fill:#ffffff;"/>
   </g>
   <g id="matplotlib.axis_1">
    <g id="xtick_1">
     <g id="line2d_1">
      <defs>
       <path d="M 0 0
L 0 3.5
" id="mc7f84c480b" style="stroke:#000000;stroke-width:0.8;"/>
      </defs>
      <g>
       <use style="stroke:#000000;stroke-width:0.8;" x="62.576135" xlink:href="#mc7f84c480b" y="247.318125"/>
      </g>
     </g>
     <g id="text_1">
      <!-- −0.20 -->
      <g transform="translate(47.253479 261.916562)scale(0.1 -0.1)">
       <defs>
        <path d="M 678 2259
L 4684 2259
L 4684 1753
L 678 1753
L 678 2259
z
" id="DejaVuSerif-2212" transform="scale(0.015625)"/>
        <path d="M 2034 219
Q 2513 219 2750 744
Q 2988 1269 2988 2328
Q 2988 3391 2750 3916
Q 2513 4441 2034 4441
Q 1556 4441 1318 3916
Q 1081 3391 1081 2328
Q 1081 1269 1318 744
Q 1556 219 2034 219
z
M 2034 -91
Q 1275 -91 848 546
Q 422 1184 422 2328
Q 422 3475 848 4112
Q 1275 4750 2034 4750
Q 2797 4750 3222 4112
Q 3647 3475 3647 2328
Q 3647 1184 3222 546
Q 2797 -91 2034 -91
z
" id="DejaVuSerif-30" transform="scale(0.015625)"/>
        <path d="M 603 325
Q 603 500 722 622
Q 841 744 1019 744
Q 1191 744 1312 622
Q 1434 500 1434 325
Q 1434 153 1312 31
Q 1191 -91 1019 -91
Q 841 -91 722 29
Q 603 150 603 325
z
" id="DejaVuSerif-2e" transform="scale(0.015625)"/>
        <path d="M 819 3553
L 469 3553
L 469 4384
Q 803 4563 1142 4656
Q 1481 4750 1806 4750
Q 2534 4750 2956 4397
Q 3378 4044 3378 3438
Q 3378 2753 2422 1800
Q 2347 1728 2309 1691
L 1131 513
L 3078 513
L 3078 1088
L 3444 1088
L 3444 0
L 434 0
L 434 341
L 1850 1753
Q 2319 2222 2519 2614
Q 2719 3006 2719 3438
Q 2719 3909 2473 4175
Q 2228 4441 1797 4441
Q 1350 4441 1106 4219
Q 863 3997 819 3553
z
" id="DejaVuSerif-32" transform="scale(0.015625)"/>
       </defs>
       <use xlink:href="#DejaVuSerif-2212"/>
       <use x="83.789062" xlink:href="#DejaVuSerif-30"/>
       <use x="147.412109" xlink:href="#DejaVuSerif-2e"/>
       <use x="179.199219" xlink:href="#DejaVuSerif-32"/>
       <use x="242.822266" xlink:href="#DejaVuSerif-30"/>
      </g>
     </g>
    </g>
    <g id="xtick_2">
     <g id="line2d_2">
      <g>
       <use style="stroke:#000000;stroke-width:0.8;" x="139.448192" xlink:href="#mc7f84c480b" y="247.318125"/>
      </g>
     </g>
     <g id="text_2">
      <!-- −0.19 -->
      <g transform="translate(124.125536 261.916562)scale(0.1 -0.1)">
       <defs>
        <path d="M 909 0
L 909 331
L 1722 331
L 1722 4213
L 781 3603
L 781 4013
L 1919 4750
L 2350 4750
L 2350 331
L 3163 331
L 3163 0
L 909 0
z
" id="DejaVuSerif-31" transform="scale(0.015625)"/>
        <path d="M 2994 2091
Q 2784 1856 2512 1740
Q 2241 1625 1900 1625
Q 1206 1625 804 2044
Q 403 2463 403 3188
Q 403 3897 839 4323
Q 1275 4750 2003 4750
Q 2794 4750 3217 4161
Q 3641 3572 3641 2478
Q 3641 1253 3137 581
Q 2634 -91 1722 -91
Q 1475 -91 1203 -44
Q 931 3 647 97
L 647 872
L 997 872
Q 1038 556 1241 387
Q 1444 219 1784 219
Q 2391 219 2687 676
Q 2984 1134 2994 2091
z
M 1978 4441
Q 1534 4441 1298 4117
Q 1063 3794 1063 3188
Q 1063 2581 1298 2256
Q 1534 1931 1978 1931
Q 2422 1931 2658 2245
Q 2894 2559 2894 3150
Q 2894 3772 2656 4106
Q 2419 4441 1978 4441
z
" id="DejaVuSerif-39" transform="scale(0.015625)"/>
       </defs>
       <use xlink:href="#DejaVuSerif-2212"/>
       <use x="83.789062" xlink:href="#DejaVuSerif-30"/>
       <use x="147.412109" xlink:href="#DejaVuSerif-2e"/>
       <use x="179.199219" xlink:href="#DejaVuSerif-31"/>
       <use x="242.822266" xlink:href="#DejaVuSerif-39"/>
      </g>
     </g>
    </g>
    <g id="xtick_3">
     <g id="line2d_3">
      <g>
       <use style="stroke:#000000;stroke-width:0.8;" x="216.320249" xlink:href="#mc7f84c480b" y="247.318125"/>
      </g>
     </g>
     <g id="text_3">
      <!-- −0.18 -->
      <g transform="translate(200.997593 261.916562)scale(0.1 -0.1)">
       <defs>
        <path d="M 2981 1275
Q 2981 1775 2732 2051
Q 2484 2328 2034 2328
Q 1584 2328 1336 2051
Q 1088 1775 1088 1275
Q 1088 772 1336 495
Q 1584 219 2034 219
Q 2484 219 2732 495
Q 2981 772 2981 1275
z
M 2853 3541
Q 2853 3966 2637 4203
Q 2422 4441 2034 4441
Q 1650 4441 1433 4203
Q 1216 3966 1216 3541
Q 1216 3113 1433 2875
Q 1650 2638 2034 2638
Q 2422 2638 2637 2875
Q 2853 3113 2853 3541
z
M 2516 2484
Q 3047 2413 3344 2092
Q 3641 1772 3641 1275
Q 3641 619 3225 264
Q 2809 -91 2034 -91
Q 1263 -91 845 264
Q 428 619 428 1275
Q 428 1772 725 2092
Q 1022 2413 1556 2484
Q 1084 2569 832 2842
Q 581 3116 581 3541
Q 581 4103 968 4426
Q 1356 4750 2034 4750
Q 2713 4750 3100 4426
Q 3488 4103 3488 3541
Q 3488 3116 3236 2842
Q 2984 2569 2516 2484
z
" id="DejaVuSerif-38" transform="scale(0.015625)"/>
       </defs>
       <use xlink:href="#DejaVuSerif-2212"/>
       <use x="83.789062" xlink:href="#DejaVuSerif-30"/>
       <use x="147.412109" xlink:href="#DejaVuSerif-2e"/>
       <use x="179.199219" xlink:href="#DejaVuSerif-31"/>
       <use x="242.822266" xlink:href="#DejaVuSerif-38"/>
      </g>
     </g>
    </g>
    <g id="xtick_4">
     <g id="line2d_4">
      <g>
       <use style="stroke:#000000;stroke-width:0.8;" x="293.192306" xlink:href="#mc7f84c480b" y="247.318125"/>
      </g>
     </g>
     <g id="text_4">
      <!-- −0.17 -->
      <g transform="translate(277.86965 261.916562)scale(0.1 -0.1)">
       <defs>
        <path d="M 3609 4347
L 1784 0
L 1319 0
L 3059 4153
L 903 4153
L 903 3578
L 538 3578
L 538 4666
L 3609 4666
L 3609 4347
z
" id="DejaVuSerif-37" transform="scale(0.015625)"/>
       </defs>
       <use xlink:href="#DejaVuSerif-2212"/>
       <use x="83.789062" xlink:href="#DejaVuSerif-30"/>
       <use x="147.412109" xlink:href="#DejaVuSerif-2e"/>
       <use x="179.199219" xlink:href="#DejaVuSerif-31"/>
       <use x="242.822266" xlink:href="#DejaVuSerif-37"/>
      </g>
     </g>
    </g>
    <g id="xtick_5">
     <g id="line2d_5">
      <g>
       <use style="stroke:#000000;stroke-width:0.8;" x="370.064364" xlink:href="#mc7f84c480b" y="247.318125"/>
      </g>
     </g>
     <g id="text_5">
      <!-- −0.16 -->
      <g transform="translate(354.741707 261.916562)scale(0.1 -0.1)">
       <defs>
        <path d="M 2094 219
Q 2534 219 2771 542
Q 3009 866 3009 1472
Q 3009 2078 2771 2401
Q 2534 2725 2094 2725
Q 1647 2725 1412 2412
Q 1178 2100 1178 1509
Q 1178 888 1415 553
Q 1653 219 2094 219
z
M 1075 2569
Q 1288 2803 1556 2918
Q 1825 3034 2163 3034
Q 2859 3034 3264 2615
Q 3669 2197 3669 1472
Q 3669 763 3233 336
Q 2797 -91 2069 -91
Q 1278 -91 853 498
Q 428 1088 428 2181
Q 428 3406 931 4078
Q 1434 4750 2350 4750
Q 2597 4750 2869 4703
Q 3141 4656 3425 4563
L 3425 3794
L 3072 3794
Q 3034 4109 2831 4275
Q 2628 4441 2284 4441
Q 1678 4441 1381 3981
Q 1084 3522 1075 2569
z
" id="DejaVuSerif-36" transform="scale(0.015625)"/>
       </defs>
       <use xlink:href="#DejaVuSerif-2212"/>
       <use x="83.789062" xlink:href="#DejaVuSerif-30"/>
       <use x="147.412109" xlink:href="#DejaVuSerif-2e"/>
       <use x="179.199219" xlink:href="#DejaVuSerif-31"/>
       <use x="242.822266" xlink:href="#DejaVuSerif-36"/>
      </g>
     </g>
    </g>
    <g id="xtick_6">
     <g id="line2d_6">
      <g>
       <use style="stroke:#000000;stroke-width:0.8;" x="446.936421" xlink:href="#mc7f84c480b" y="247.318125"/>
      </g>
     </g>
     <g id="text_6">
      <!-- −0.15 -->
      <g transform="translate(431.613765 261.916562)scale(0.1 -0.1)">
       <defs>
        <path d="M 3219 4666
L 3219 4153
L 1081 4153
L 1081 2816
Q 1244 2928 1461 2984
Q 1678 3041 1947 3041
Q 2703 3041 3140 2622
Q 3578 2203 3578 1478
Q 3578 738 3136 323
Q 2694 -91 1894 -91
Q 1572 -91 1234 -12
Q 897 66 544 225
L 544 1131
L 897 1131
Q 925 688 1179 453
Q 1434 219 1894 219
Q 2388 219 2653 544
Q 2919 869 2919 1478
Q 2919 2084 2655 2407
Q 2391 2731 1894 2731
Q 1613 2731 1398 2631
Q 1184 2531 1019 2322
L 750 2322
L 750 4666
L 3219 4666
z
" id="DejaVuSerif-35" transform="scale(0.015625)"/>
       </defs>
       <use xlink:href="#DejaVuSerif-2212"/>
       <use x="83.789062" xlink:href="#DejaVuSerif-30"/>
       <use x="147.412109" xlink:href="#DejaVuSerif-2e"/>
       <use x="179.199219" xlink:href="#DejaVuSerif-31"/>
       <use x="242.822266" xlink:href="#DejaVuSerif-35"/>
      </g>
     </g>
    </g>
    <g id="text_7">
     <!-- RW1 [V] -->
     <g transform="translate(250.599219 271.994687)scale(0.1 -0.1)">
      <defs>
       <path d="M 3066 2316
Q 3284 2256 3442 2114
Q 3600 1972 3725 1716
L 4403 331
L 4972 331
L 4972 0
L 3872 0
L 3144 1484
Q 2934 1916 2759 2042
Q 2584 2169 2278 2169
L 1581 2169
L 1581 331
L 2241 331
L 2241 0
L 353 0
L 353 331
L 947 331
L 947 4331
L 353 4331
L 353 4666
L 2719 4666
Q 3400 4666 3770 4341
Q 4141 4016 4141 3419
Q 4141 2938 3870 2661
Q 3600 2384 3066 2316
z
M 1581 2503
L 2503 2503
Q 2975 2503 3200 2726
Q 3425 2950 3425 3419
Q 3425 3888 3200 4109
Q 2975 4331 2503 4331
L 1581 4331
L 1581 2503
z
" id="DejaVuSerif-52" transform="scale(0.015625)"/>
       <path d="M 4878 0
L 4366 0
L 3297 3794
L 2228 0
L 1716 0
L 494 4331
L 31 4331
L 31 4666
L 1734 4666
L 1734 4331
L 1153 4331
L 2125 884
L 3188 4666
L 3694 4666
L 4775 844
L 5753 4331
L 5216 4331
L 5216 4666
L 6559 4666
L 6559 4331
L 6100 4331
L 4878 0
z
" id="DejaVuSerif-57" transform="scale(0.015625)"/>
       <path id="DejaVuSerif-20" transform="scale(0.015625)"/>
       <path d="M 550 4863
L 2003 4863
L 2003 4531
L 1147 4531
L 1147 -513
L 2003 -513
L 2003 -844
L 550 -844
L 550 4863
z
" id="DejaVuSerif-5b" transform="scale(0.015625)"/>
       <path d="M 1119 4331
L 2497 750
L 3872 4331
L 3347 4331
L 3347 4666
L 4716 4666
L 4716 4331
L 4263 4331
L 2597 0
L 2059 0
L 403 4331
L -63 4331
L -63 4666
L 1638 4666
L 1638 4331
L 1119 4331
z
" id="DejaVuSerif-56" transform="scale(0.015625)"/>
       <path d="M 1947 4863
L 1947 -844
L 494 -844
L 494 -513
L 1350 -513
L 1350 4531
L 494 4531
L 494 4863
L 1947 4863
z
" id="DejaVuSerif-5d" transform="scale(0.015625)"/>
      </defs>
      <use xlink:href="#DejaVuSerif-52"/>
      <use x="73.042969" xlink:href="#DejaVuSerif-57"/>
      <use x="175.826172" xlink:href="#DejaVuSerif-31"/>
      <use x="239.449219" xlink:href="#DejaVuSerif-20"/>
      <use x="271.236328" xlink:href="#DejaVuSerif-5b"/>
      <use x="310.25" xlink:href="#DejaVuSerif-56"/>
      <use x="382.466797" xlink:href="#DejaVuSerif-5d"/>
     </g>
    </g>
   </g>
   <g id="matplotlib.axis_2">
    <g id="ytick_1">
     <g id="line2d_7">
      <defs>
       <path d="M 0 0
L -3.5 0
" id="m55cf4be154" style="stroke:#000000;stroke-width:0.8;"/>
      </defs>
      <g>
       <use style="stroke:#000000;stroke-width:0.8;" x="53.048438" xlink:href="#m55cf4be154" y="237.090852"/>
      </g>
     </g>
     <g id="text_8">
      <!-- 0.000 -->
      <g transform="translate(17.420313 240.890071)scale(0.1 -0.1)">
       <use xlink:href="#DejaVuSerif-30"/>
       <use x="63.623047" xlink:href="#DejaVuSerif-2e"/>
       <use x="95.410156" xlink:href="#DejaVuSerif-30"/>
       <use x="159.033203" xlink:href="#DejaVuSerif-30"/>
       <use x="222.65625" xlink:href="#DejaVuSerif-30"/>
      </g>
     </g>
    </g>
    <g id="ytick_2">
     <g id="line2d_8">
      <g>
       <use style="stroke:#000000;stroke-width:0.8;" x="53.048438" xlink:href="#m55cf4be154" y="208.555712"/>
      </g>
     </g>
     <g id="text_9">
      <!-- 0.025 -->
      <g transform="translate(17.420313 212.354931)scale(0.1 -0.1)">
       <use xlink:href="#DejaVuSerif-30"/>
       <use x="63.623047" xlink:href="#DejaVuSerif-2e"/>
       <use x="95.410156" xlink:href="#DejaVuSerif-30"/>
       <use x="159.033203" xlink:href="#DejaVuSerif-32"/>
       <use x="222.65625" xlink:href="#DejaVuSerif-35"/>
      </g>
     </g>
    </g>
    <g id="ytick_3">
     <g id="line2d_9">
      <g>
       <use style="stroke:#000000;stroke-width:0.8;" x="53.048438" xlink:href="#m55cf4be154" y="180.020573"/>
      </g>
     </g>
     <g id="text_10">
      <!-- 0.050 -->
      <g transform="translate(17.420313 183.819791)scale(0.1 -0.1)">
       <use xlink:href="#DejaVuSerif-30"/>
       <use x="63.623047" xlink:href="#DejaVuSerif-2e"/>
       <use x="95.410156" xlink:href="#DejaVuSerif-30"/>
       <use x="159.033203" xlink:href="#DejaVuSerif-35"/>
       <use x="222.65625" xlink:href="#DejaVuSerif-30"/>
      </g>
     </g>
    </g>
    <g id="ytick_4">
     <g id="line2d_10">
      <g>
       <use style="stroke:#000000;stroke-width:0.8;" x="53.048438" xlink:href="#m55cf4be154" y="151.485433"/>
      </g>
     </g>
     <g id="text_11">
      <!-- 0.075 -->
      <g transform="translate(17.420313 155.284652)scale(0.1 -0.1)">
       <use xlink:href="#DejaVuSerif-30"/>
       <use x="63.623047" xlink:href="#DejaVuSerif-2e"/>
       <use x="95.410156" xlink:href="#DejaVuSerif-30"/>
       <use x="159.033203" xlink:href="#DejaVuSerif-37"/>
       <use x="222.65625" xlink:href="#DejaVuSerif-35"/>
      </g>
     </g>
    </g>
    <g id="ytick_5">
     <g id="line2d_11">
      <g>
       <use style="stroke:#000000;stroke-width:0.8;" x="53.048438" xlink:href="#m55cf4be154" y="122.950293"/>
      </g>
     </g>
     <g id="text_12">
      <!-- 0.100 -->
      <g transform="translate(17.420313 126.749512)scale(0.1 -0.1)">
       <use xlink:href="#DejaVuSerif-30"/>
       <use x="63.623047" xlink:href="#DejaVuSerif-2e"/>
       <use x="95.410156" xlink:href="#DejaVuSerif-31"/>
       <use x="159.033203" xlink:href="#DejaVuSerif-30"/>
       <use x="222.65625" xlink:href="#DejaVuSerif-30"/>
      </g>
     </g>
    </g>
    <g id="ytick_6">
     <g id="line2d_12">
      <g>
       <use style="stroke:#000000;stroke-width:0.8;" x="53.048438" xlink:href="#m55cf4be154" y="94.415153"/>
      </g>
     </g>
     <g id="text_13">
      <!-- 0.125 -->
      <g transform="translate(17.420313 98.214372)scale(0.1 -0.1)">
       <use xlink:href="#DejaVuSerif-30"/>
       <use x="63.623047" xlink:href="#DejaVuSerif-2e"/>
       <use x="95.410156" xlink:href="#DejaVuSerif-31"/>
       <use x="159.033203" xlink:href="#DejaVuSerif-32"/>
       <use x="222.65625" xlink:href="#DejaVuSerif-35"/>
      </g>
     </g>
    </g>
    <g id="ytick_7">
     <g id="line2d_13">
      <g>
       <use style="stroke:#000000;stroke-width:0.8;" x="53.048438" xlink:href="#m55cf4be154" y="65.880013"/>
      </g>
     </g>
     <g id="text_14">
      <!-- 0.150 -->
      <g transform="translate(17.420313 69.679232)scale(0.1 -0.1)">
       <use xlink:href="#DejaVuSerif-30"/>
       <use x="63.623047" xlink:href="#DejaVuSerif-2e"/>
       <use x="95.410156" xlink:href="#DejaVuSerif-31"/>
       <use x="159.033203" xlink:href="#DejaVuSerif-35"/>
       <use x="222.65625" xlink:href="#DejaVuSerif-30"/>
      </g>
     </g>
    </g>
    <g id="ytick_8">
     <g id="line2d_14">
      <g>
       <use style="stroke:#000000;stroke-width:0.8;" x="53.048438" xlink:href="#m55cf4be154" y="37.344873"/>
      </g>
     </g>
     <g id="text_15">
      <!-- 0.175 -->
      <g transform="translate(17.420313 41.144092)scale(0.1 -0.1)">
       <use xlink:href="#DejaVuSerif-30"/>
       <use x="63.623047" xlink:href="#DejaVuSerif-2e"/>
       <use x="95.410156" xlink:href="#DejaVuSerif-31"/>
       <use x="159.033203" xlink:href="#DejaVuSerif-37"/>
       <use x="222.65625" xlink:href="#DejaVuSerif-35"/>
      </g>
     </g>
    </g>
    <g id="text_16">
     <!-- normalized signal -->
     <g transform="translate(14.798438 179.909531)rotate(-90)scale(0.1 -0.1)">
      <defs>
       <path d="M 263 0
L 263 331
L 781 331
L 781 2988
L 231 2988
L 231 3322
L 1356 3322
L 1356 2731
Q 1516 3069 1770 3241
Q 2025 3413 2363 3413
Q 2913 3413 3172 3097
Q 3431 2781 3431 2113
L 3431 331
L 3944 331
L 3944 0
L 2356 0
L 2356 331
L 2853 331
L 2853 1931
Q 2853 2541 2703 2767
Q 2553 2994 2175 2994
Q 1775 2994 1565 2701
Q 1356 2409 1356 1850
L 1356 331
L 1856 331
L 1856 0
L 263 0
z
" id="DejaVuSerif-6e" transform="scale(0.015625)"/>
       <path d="M 1925 219
Q 2388 219 2623 584
Q 2859 950 2859 1663
Q 2859 2375 2623 2739
Q 2388 3103 1925 3103
Q 1463 3103 1227 2739
Q 991 2375 991 1663
Q 991 950 1228 584
Q 1466 219 1925 219
z
M 1925 -91
Q 1200 -91 759 389
Q 319 869 319 1663
Q 319 2456 758 2934
Q 1197 3413 1925 3413
Q 2653 3413 3092 2934
Q 3531 2456 3531 1663
Q 3531 869 3092 389
Q 2653 -91 1925 -91
z
" id="DejaVuSerif-6f" transform="scale(0.015625)"/>
       <path d="M 3059 3328
L 3059 2497
L 2728 2497
Q 2713 2744 2591 2866
Q 2469 2988 2234 2988
Q 1809 2988 1582 2694
Q 1356 2400 1356 1850
L 1356 331
L 2022 331
L 2022 0
L 263 0
L 263 331
L 781 331
L 781 2994
L 231 2994
L 231 3322
L 1356 3322
L 1356 2731
Q 1525 3078 1790 3245
Q 2056 3413 2438 3413
Q 2578 3413 2733 3391
Q 2888 3369 3059 3328
z
" id="DejaVuSerif-72" transform="scale(0.015625)"/>
       <path d="M 3316 2675
Q 3481 3041 3739 3227
Q 3997 3413 4341 3413
Q 4863 3413 5119 3089
Q 5375 2766 5375 2113
L 5375 331
L 5894 331
L 5894 0
L 4300 0
L 4300 331
L 4800 331
L 4800 2047
Q 4800 2556 4650 2772
Q 4500 2988 4153 2988
Q 3769 2988 3567 2697
Q 3366 2406 3366 1850
L 3366 331
L 3866 331
L 3866 0
L 2291 0
L 2291 331
L 2791 331
L 2791 2069
Q 2791 2566 2641 2777
Q 2491 2988 2144 2988
Q 1759 2988 1557 2697
Q 1356 2406 1356 1850
L 1356 331
L 1856 331
L 1856 0
L 263 0
L 263 331
L 781 331
L 781 2994
L 231 2994
L 231 3322
L 1356 3322
L 1356 2731
Q 1516 3063 1762 3238
Q 2009 3413 2322 3413
Q 2709 3413 2968 3220
Q 3228 3028 3316 2675
z
" id="DejaVuSerif-6d" transform="scale(0.015625)"/>
       <path d="M 2547 1044
L 2547 1747
L 1806 1747
Q 1378 1747 1168 1562
Q 959 1378 959 997
Q 959 650 1171 447
Q 1384 244 1747 244
Q 2106 244 2326 466
Q 2547 688 2547 1044
z
M 3122 2075
L 3122 331
L 3634 331
L 3634 0
L 2547 0
L 2547 359
Q 2356 128 2106 18
Q 1856 -91 1522 -91
Q 969 -91 644 203
Q 319 497 319 997
Q 319 1513 691 1797
Q 1063 2081 1741 2081
L 2547 2081
L 2547 2309
Q 2547 2688 2317 2895
Q 2088 3103 1672 3103
Q 1328 3103 1125 2947
Q 922 2791 872 2484
L 575 2484
L 575 3156
Q 875 3284 1158 3348
Q 1441 3413 1709 3413
Q 2400 3413 2761 3070
Q 3122 2728 3122 2075
z
" id="DejaVuSerif-61" transform="scale(0.015625)"/>
       <path d="M 1313 331
L 1856 331
L 1856 0
L 184 0
L 184 331
L 738 331
L 738 4531
L 184 4531
L 184 4863
L 1313 4863
L 1313 331
z
" id="DejaVuSerif-6c" transform="scale(0.015625)"/>
       <path d="M 622 4353
Q 622 4497 726 4603
Q 831 4709 978 4709
Q 1122 4709 1226 4603
Q 1331 4497 1331 4353
Q 1331 4206 1228 4103
Q 1125 4000 978 4000
Q 831 4000 726 4103
Q 622 4206 622 4353
z
M 1356 331
L 1900 331
L 1900 0
L 231 0
L 231 331
L 781 331
L 781 2988
L 231 2988
L 231 3322
L 1356 3322
L 1356 331
z
" id="DejaVuSerif-69" transform="scale(0.015625)"/>
       <path d="M 256 0
L 256 269
L 2338 2988
L 691 2988
L 691 2413
L 359 2413
L 359 3322
L 3078 3322
L 3078 3053
L 997 331
L 2803 331
L 2803 934
L 3138 934
L 3138 0
L 256 0
z
" id="DejaVuSerif-7a" transform="scale(0.015625)"/>
       <path d="M 3469 1600
L 991 1600
L 991 1575
Q 991 903 1244 561
Q 1497 219 1991 219
Q 2369 219 2611 417
Q 2853 616 2950 1006
L 3413 1006
Q 3275 459 2904 184
Q 2534 -91 1931 -91
Q 1203 -91 761 389
Q 319 869 319 1663
Q 319 2450 753 2931
Q 1188 3413 1894 3413
Q 2647 3413 3050 2948
Q 3453 2484 3469 1600
z
M 2791 1931
Q 2772 2513 2545 2808
Q 2319 3103 1894 3103
Q 1497 3103 1269 2806
Q 1041 2509 991 1931
L 2791 1931
z
" id="DejaVuSerif-65" transform="scale(0.015625)"/>
       <path d="M 3359 331
L 3909 331
L 3909 0
L 2784 0
L 2784 519
Q 2616 206 2355 57
Q 2094 -91 1709 -91
Q 1097 -91 708 395
Q 319 881 319 1663
Q 319 2444 706 2928
Q 1094 3413 1709 3413
Q 2094 3413 2355 3264
Q 2616 3116 2784 2803
L 2784 4531
L 2241 4531
L 2241 4863
L 3359 4863
L 3359 331
z
M 2784 1497
L 2784 1825
Q 2784 2422 2554 2737
Q 2325 3053 1888 3053
Q 1444 3053 1217 2703
Q 991 2353 991 1663
Q 991 975 1217 622
Q 1444 269 1888 269
Q 2325 269 2554 583
Q 2784 897 2784 1497
z
" id="DejaVuSerif-64" transform="scale(0.015625)"/>
       <path d="M 359 184
L 359 959
L 691 959
Q 703 588 923 403
Q 1144 219 1575 219
Q 1963 219 2166 364
Q 2369 509 2369 788
Q 2369 1006 2220 1140
Q 2072 1275 1594 1428
L 1178 1569
Q 750 1706 558 1912
Q 366 2119 366 2438
Q 366 2894 700 3153
Q 1034 3413 1625 3413
Q 1888 3413 2178 3344
Q 2469 3275 2778 3144
L 2778 2419
L 2447 2419
Q 2434 2741 2221 2922
Q 2009 3103 1644 3103
Q 1281 3103 1095 2975
Q 909 2847 909 2591
Q 909 2381 1050 2254
Q 1191 2128 1613 1997
L 2069 1856
Q 2541 1709 2748 1489
Q 2956 1269 2956 922
Q 2956 450 2595 179
Q 2234 -91 1600 -91
Q 1278 -91 972 -22
Q 666 47 359 184
z
" id="DejaVuSerif-73" transform="scale(0.015625)"/>
       <path d="M 3359 2988
L 3359 72
Q 3359 -644 2965 -1033
Q 2572 -1422 1844 -1422
Q 1516 -1422 1216 -1362
Q 916 -1303 641 -1184
L 641 -488
L 941 -488
Q 997 -813 1206 -963
Q 1416 -1113 1806 -1113
Q 2313 -1113 2548 -827
Q 2784 -541 2784 72
L 2784 519
Q 2616 206 2355 57
Q 2094 -91 1709 -91
Q 1097 -91 708 395
Q 319 881 319 1663
Q 319 2444 706 2928
Q 1094 3413 1709 3413
Q 2094 3413 2355 3264
Q 2616 3116 2784 2803
L 2784 3322
L 3909 3322
L 3909 2988
L 3359 2988
z
M 2784 1825
Q 2784 2422 2554 2737
Q 2325 3053 1888 3053
Q 1444 3053 1217 2703
Q 991 2353 991 1663
Q 991 975 1217 622
Q 1444 269 1888 269
Q 2325 269 2554 583
Q 2784 897 2784 1497
L 2784 1825
z
" id="DejaVuSerif-67" transform="scale(0.015625)"/>
      </defs>
      <use xlink:href="#DejaVuSerif-6e"/>
      <use x="64.404297" xlink:href="#DejaVuSerif-6f"/>
      <use x="124.609375" xlink:href="#DejaVuSerif-72"/>
      <use x="172.412109" xlink:href="#DejaVuSerif-6d"/>
      <use x="267.236328" xlink:href="#DejaVuSerif-61"/>
      <use x="326.855469" xlink:href="#DejaVuSerif-6c"/>
      <use x="358.837891" xlink:href="#DejaVuSerif-69"/>
      <use x="390.820312" xlink:href="#DejaVuSerif-7a"/>
      <use x="443.505859" xlink:href="#DejaVuSerif-65"/>
      <use x="502.685547" xlink:href="#DejaVuSerif-64"/>
      <use x="566.699219" xlink:href="#DejaVuSerif-20"/>
      <use x="598.486328" xlink:href="#DejaVuSerif-73"/>
      <use x="649.804688" xlink:href="#DejaVuSerif-69"/>
      <use x="681.787109" xlink:href="#DejaVuSerif-67"/>
      <use x="745.800781" xlink:href="#DejaVuSerif-6e"/>
      <use x="810.205078" xlink:href="#DejaVuSerif-61"/>
      <use x="869.824219" xlink:href="#DejaVuSerif-6c"/>
     </g>
    </g>
   </g>
   <g id="LineCollection_1">
    <path clip-path="url(#p033fa0d4a8)" d="M 249.590104 237.090852
L 249.590104 112.839736
" style="fill:none;stroke:#009988;stroke-dasharray:2.22,0.96;stroke-dashoffset:0;stroke-width:0.6;"/>
    <path clip-path="url(#p033fa0d4a8)" d="M 309.817377 237.090852
L 309.817377 142.849531
" style="fill:none;stroke:#009988;stroke-dasharray:2.22,0.96;stroke-dashoffset:0;stroke-width:0.6;"/>
    <path clip-path="url(#p033fa0d4a8)" d="M 386.105256 237.090852
L 386.105256 162.866763
" style="fill:none;stroke:#009988;stroke-dasharray:2.22,0.96;stroke-dashoffset:0;stroke-width:0.6;"/>
   </g>
   <g id="line2d_15">
    <path clip-path="url(#p033fa0d4a8)" d="M 72.923438 235.560364
L 76.938589 235.592587
L 80.953741 235.626423
L 84.968892 235.618322
L 88.984044 235.500036
L 92.999195 235.108021
L 97.014347 234.136164
L 101.029498 232.303579
L 105.04465 229.778077
L 109.059801 227.450834
L 113.074953 226.512743
L 117.090104 227.501557
L 121.105256 229.813058
L 125.120407 232.250063
L 129.135559 233.958325
L 133.15071 234.808476
L 137.165862 235.117835
L 141.181013 235.223478
L 145.196165 235.260443
L 149.211316 235.105445
L 153.226468 234.259762
L 157.241619 231.581621
L 161.256771 225.188142
L 165.271922 213.325035
L 169.287074 196.507434
L 173.302225 179.261181
L 177.317377 168.620347
L 181.332528 169.351291
L 185.34768 180.308329
L 189.362831 195.746571
L 193.377983 209.838044
L 197.393134 219.747891
L 201.408286 225.48194
L 205.423438 228.2247
L 209.438589 229.100798
L 213.453741 228.730299
L 217.468892 227.125418
L 221.484044 223.591451
L 225.499195 216.616211
L 229.514347 204.100542
L 233.529498 184.485927
L 237.54465 158.851632
L 241.559801 132.644233
L 245.574953 114.720219
L 249.590104 112.839736
L 253.605256 128.414236
L 257.620407 155.185255
L 261.635559 183.329974
L 265.65071 205.315632
L 269.665862 218.736481
L 273.681013 225.057129
L 277.696165 226.712181
L 281.711316 225.094573
L 285.726468 220.078326
L 289.741619 210.611824
L 293.756771 195.999702
L 297.771922 177.488216
L 301.787074 159.058802
L 305.802225 146.173877
L 309.817377 142.849531
L 313.832528 149.384714
L 317.84768 162.649791
L 321.862831 178.331788
L 325.877983 193.043382
L 329.893134 205.060229
L 333.908286 213.962249
L 337.923437 219.987616
L 341.938589 223.590388
L 345.953741 225.262234
L 349.968892 225.457801
L 353.984044 224.488865
L 357.999195 222.366742
L 362.014347 218.642687
L 366.029498 212.403029
L 370.04465 202.771088
L 374.059801 190.049198
L 378.074953 176.6833
L 382.090104 166.611657
L 386.105256 162.866763
L 390.120407 165.542089
L 394.135559 172.227
L 398.15071 180.281467
L 402.165862 188.474431
L 406.181013 196.747777
L 410.196165 205.06804
L 414.211316 212.80888
L 418.226468 219.018925
L 422.241619 222.971801
L 426.256771 224.394568
L 430.271922 223.287756
L 434.287074 219.608372
L 438.302225 213.072559
L 442.317377 203.178478
L 446.332528 189.480507
L 450.34768 172.111657
L 454.362831 152.327479
L 458.377983 132.565158
L 462.393134 115.686349
L 466.408286 103.834264
L 470.423437 97.878275
" style="fill:none;stroke:#ee7733;stroke-linecap:square;stroke-width:0.6;"/>
   </g>
   <g id="line2d_16">
    <defs>
     <path d="M -2.5 2.5
L 2.5 -2.5
M -2.5 -2.5
L 2.5 2.5
" id="macd0ee7892" style="stroke:#009988;"/>
    </defs>
    <g clip-path="url(#p033fa0d4a8)">
     <use style="fill:#009988;stroke:#009988;" x="249.590104" xlink:href="#macd0ee7892" y="112.839736"/>
     <use style="fill:#009988;stroke:#009988;" x="309.817377" xlink:href="#macd0ee7892" y="142.849531"/>
     <use style="fill:#009988;stroke:#009988;" x="386.105256" xlink:href="#macd0ee7892" y="162.866763"/>
    </g>
   </g>
   <g id="line2d_17">
    <path clip-path="url(#p033fa0d4a8)" d="M 72.923438 167.484564
L 76.938589 167.484564
L 80.953741 167.484564
L 84.968892 167.484564
L 88.984044 167.484564
L 92.999195 167.484564
L 97.014347 167.484564
L 101.029498 167.484564
L 105.04465 167.484564
L 109.059801 167.484564
L 113.074953 167.484564
L 117.090104 167.484564
L 121.105256 167.484564
L 125.120407 167.484564
L 129.135559 167.484564
L 133.15071 167.484564
L 137.165862 167.484564
L 141.181013 167.484564
L 145.196165 167.484564
L 149.211316 167.484564
L 153.226468 167.484564
L 157.241619 167.484564
L 161.256771 167.484564
L 165.271922 167.484564
L 169.287074 167.484564
L 173.302225 167.484564
L 177.317377 167.484564
L 181.332528 167.484564
L 185.34768 167.484564
L 189.362831 167.484564
L 193.377983 167.484564
L 197.393134 167.484564
L 201.408286 167.484564
L 205.423438 167.484564
L 209.438589 167.484564
L 213.453741 167.484564
L 217.468892 167.484564
L 221.484044 167.484564
L 225.499195 167.484564
L 229.514347 167.484564
L 233.529498 167.484564
L 237.54465 167.484564
L 241.559801 167.484564
L 245.574953 167.484564
L 249.590104 167.484564
L 253.605256 167.484564
L 257.620407 167.484564
L 261.635559 167.484564
L 265.65071 167.484564
L 269.665862 167.484564
L 273.681013 167.484564
L 277.696165 167.484564
L 281.711316 167.484564
L 285.726468 167.484564
L 289.741619 167.484564
L 293.756771 167.484564
L 297.771922 167.484564
L 301.787074 167.484564
L 305.802225 167.484564
L 309.817377 167.484564
L 313.832528 167.484564
L 317.84768 167.484564
L 321.862831 167.484564
L 325.877983 167.484564
L 329.893134 167.484564
L 333.908286 167.484564
L 337.923437 167.484564
L 341.938589 167.484564
L 345.953741 167.484564
L 349.968892 167.484564
L 353.984044 167.484564
L 357.999195 167.484564
L 362.014347 167.484564
L 366.029498 167.484564
L 370.04465 167.484564
L 374.059801 167.484564
L 378.074953 167.484564
L 382.090104 167.484564
L 386.105256 167.484564
L 390.120407 167.484564
L 394.135559 167.484564
L 398.15071 167.484564
L 402.165862 167.484564
L 406.181013 167.484564
L 410.196165 167.484564
L 414.211316 167.484564
L 418.226468 167.484564
L 422.241619 167.484564
L 426.256771 167.484564
L 430.271922 167.484564
L 434.287074 167.484564
L 438.302225 167.484564
L 442.317377 167.484564
L 446.332528 167.484564
L 450.34768 167.484564
L 454.362831 167.484564
L 458.377983 167.484564
L 462.393134 167.484564
L 466.408286 167.484564
L 470.423437 167.484564
" style="fill:none;stroke:#808080;stroke-dasharray:2.22,0.96;stroke-dashoffset:0;stroke-width:0.6;"/>
   </g>
   <g id="patch_3">
    <path d="M 53.048438 247.318125
L 53.048438 22.318125
" style="fill:none;stroke:#808080;stroke-linecap:square;stroke-linejoin:miter;stroke-width:0.8;"/>
   </g>
   <g id="patch_4">
    <path d="M 490.298437 247.318125
L 490.298437 22.318125
" style="fill:none;stroke:#808080;stroke-linecap:square;stroke-linejoin:miter;stroke-width:0.8;"/>
   </g>
   <g id="patch_5">
    <path d="M 53.048438 247.318125
L 490.298438 247.318125
" style="fill:none;stroke:#808080;stroke-linecap:square;stroke-linejoin:miter;stroke-width:0.8;"/>
   </g>
   <g id="patch_6">
    <path d="M 53.048438 22.318125
L 490.298438 22.318125
" style="fill:none;stroke:#808080;stroke-linecap:square;stroke-linejoin:miter;stroke-width:0.8;"/>
   </g>
   <g id="text_17">
    <!-- Coulomboscillation fit deafcafe-0200-0004-0000-01659f4b7467 -->
    <g transform="translate(78.928125 16.318125)scale(0.12 -0.12)">
     <defs>
      <path d="M 4513 1234
Q 4306 581 3820 245
Q 3334 -91 2591 -91
Q 2134 -91 1743 65
Q 1353 222 1050 525
Q 700 875 529 1320
Q 359 1766 359 2328
Q 359 3416 987 4083
Q 1616 4750 2644 4750
Q 3025 4750 3456 4650
Q 3888 4550 4384 4347
L 4384 3272
L 4031 3272
Q 3916 3859 3567 4137
Q 3219 4416 2591 4416
Q 1844 4416 1459 3886
Q 1075 3356 1075 2328
Q 1075 1303 1459 773
Q 1844 244 2591 244
Q 3113 244 3450 492
Q 3788 741 3938 1234
L 4513 1234
z
" id="DejaVuSerif-43" transform="scale(0.015625)"/>
      <path d="M 2266 3322
L 3341 3322
L 3341 331
L 3884 331
L 3884 0
L 2766 0
L 2766 588
Q 2606 256 2353 82
Q 2100 -91 1766 -91
Q 1213 -91 952 223
Q 691 538 691 1209
L 691 2988
L 172 2988
L 172 3322
L 1269 3322
L 1269 1388
Q 1269 781 1417 556
Q 1566 331 1947 331
Q 2347 331 2556 625
Q 2766 919 2766 1478
L 2766 2988
L 2266 2988
L 2266 3322
z
" id="DejaVuSerif-75" transform="scale(0.015625)"/>
      <path d="M 738 331
L 738 4531
L 184 4531
L 184 4863
L 1313 4863
L 1313 2803
Q 1481 3116 1742 3264
Q 2003 3413 2388 3413
Q 3000 3413 3387 2928
Q 3775 2444 3775 1663
Q 3775 881 3387 395
Q 3000 -91 2388 -91
Q 2003 -91 1742 57
Q 1481 206 1313 519
L 1313 0
L 184 0
L 184 331
L 738 331
z
M 1313 1497
Q 1313 897 1542 583
Q 1772 269 2209 269
Q 2650 269 2876 622
Q 3103 975 3103 1663
Q 3103 2353 2876 2703
Q 2650 3053 2209 3053
Q 1772 3053 1542 2737
Q 1313 2422 1313 1825
L 1313 1497
z
" id="DejaVuSerif-62" transform="scale(0.015625)"/>
      <path d="M 3291 997
Q 3169 466 2822 187
Q 2475 -91 1925 -91
Q 1200 -91 759 389
Q 319 869 319 1663
Q 319 2459 759 2936
Q 1200 3413 1925 3413
Q 2241 3413 2553 3339
Q 2866 3266 3181 3116
L 3181 2266
L 2847 2266
Q 2781 2703 2561 2903
Q 2341 3103 1931 3103
Q 1466 3103 1228 2742
Q 991 2381 991 1663
Q 991 944 1227 581
Q 1463 219 1931 219
Q 2303 219 2525 412
Q 2747 606 2828 997
L 3291 997
z
" id="DejaVuSerif-63" transform="scale(0.015625)"/>
      <path d="M 691 2988
L 184 2988
L 184 3322
L 691 3322
L 691 4353
L 1269 4353
L 1269 3322
L 2350 3322
L 2350 2988
L 1269 2988
L 1269 878
Q 1269 456 1350 337
Q 1431 219 1650 219
Q 1875 219 1978 351
Q 2081 484 2088 781
L 2522 781
Q 2497 328 2275 118
Q 2053 -91 1600 -91
Q 1103 -91 897 129
Q 691 350 691 878
L 691 2988
z
" id="DejaVuSerif-74" transform="scale(0.015625)"/>
      <path d="M 2753 4078
L 2450 4078
Q 2447 4313 2317 4434
Q 2188 4556 1941 4556
Q 1619 4556 1487 4379
Q 1356 4203 1356 3750
L 1356 3322
L 2284 3322
L 2284 2988
L 1356 2988
L 1356 331
L 2094 331
L 2094 0
L 231 0
L 231 331
L 781 331
L 781 2988
L 231 2988
L 231 3322
L 781 3322
L 781 3738
Q 781 4294 1070 4578
Q 1359 4863 1919 4863
Q 2128 4863 2337 4825
Q 2547 4788 2753 4709
L 2753 4078
z
" id="DejaVuSerif-66" transform="scale(0.015625)"/>
      <path d="M 281 1959
L 1881 1959
L 1881 1472
L 281 1472
L 281 1959
z
" id="DejaVuSerif-2d" transform="scale(0.015625)"/>
      <path d="M 2234 1581
L 2234 4063
L 641 1581
L 2234 1581
z
M 3609 0
L 1484 0
L 1484 331
L 2234 331
L 2234 1247
L 197 1247
L 197 1588
L 2241 4750
L 2859 4750
L 2859 1581
L 3750 1581
L 3750 1247
L 2859 1247
L 2859 331
L 3609 331
L 3609 0
z
" id="DejaVuSerif-34" transform="scale(0.015625)"/>
     </defs>
     <use xlink:href="#DejaVuSerif-43"/>
     <use x="76.513672" xlink:href="#DejaVuSerif-6f"/>
     <use x="136.71875" xlink:href="#DejaVuSerif-75"/>
     <use x="201.123047" xlink:href="#DejaVuSerif-6c"/>
     <use x="233.105469" xlink:href="#DejaVuSerif-6f"/>
     <use x="293.310547" xlink:href="#DejaVuSerif-6d"/>
     <use x="388.134766" xlink:href="#DejaVuSerif-62"/>
     <use x="452.148438" xlink:href="#DejaVuSerif-6f"/>
     <use x="512.353516" xlink:href="#DejaVuSerif-73"/>
     <use x="563.671875" xlink:href="#DejaVuSerif-63"/>
     <use x="619.677734" xlink:href="#DejaVuSerif-69"/>
     <use x="651.660156" xlink:href="#DejaVuSerif-6c"/>
     <use x="683.642578" xlink:href="#DejaVuSerif-6c"/>
     <use x="715.625" xlink:href="#DejaVuSerif-61"/>
     <use x="775.244141" xlink:href="#DejaVuSerif-74"/>
     <use x="815.429688" xlink:href="#DejaVuSerif-69"/>
     <use x="847.412109" xlink:href="#DejaVuSerif-6f"/>
     <use x="907.617188" xlink:href="#DejaVuSerif-6e"/>
     <use x="972.021484" xlink:href="#DejaVuSerif-20"/>
     <use x="1003.808594" xlink:href="#DejaVuSerif-66"/>
     <use x="1040.820312" xlink:href="#DejaVuSerif-69"/>
     <use x="1072.802734" xlink:href="#DejaVuSerif-74"/>
     <use x="1112.988281" xlink:href="#DejaVuSerif-20"/>
     <use x="1144.775391" xlink:href="#DejaVuSerif-64"/>
     <use x="1208.789062" xlink:href="#DejaVuSerif-65"/>
     <use x="1267.96875" xlink:href="#DejaVuSerif-61"/>
     <use x="1327.587891" xlink:href="#DejaVuSerif-66"/>
     <use x="1364.599609" xlink:href="#DejaVuSerif-63"/>
     <use x="1420.605469" xlink:href="#DejaVuSerif-61"/>
     <use x="1480.224609" xlink:href="#DejaVuSerif-66"/>
     <use x="1517.236328" xlink:href="#DejaVuSerif-65"/>
     <use x="1576.416016" xlink:href="#DejaVuSerif-2d"/>
     <use x="1610.205078" xlink:href="#DejaVuSerif-30"/>
     <use x="1673.828125" xlink:href="#DejaVuSerif-32"/>
     <use x="1737.451172" xlink:href="#DejaVuSerif-30"/>
     <use x="1801.074219" xlink:href="#DejaVuSerif-30"/>
     <use x="1864.697266" xlink:href="#DejaVuSerif-2d"/>
     <use x="1898.486328" xlink:href="#DejaVuSerif-30"/>
     <use x="1962.109375" xlink:href="#DejaVuSerif-30"/>
     <use x="2025.732422" xlink:href="#DejaVuSerif-30"/>
     <use x="2089.355469" xlink:href="#DejaVuSerif-34"/>
     <use x="2152.978516" xlink:href="#DejaVuSerif-2d"/>
     <use x="2186.767578" xlink:href="#DejaVuSerif-30"/>
     <use x="2250.390625" xlink:href="#DejaVuSerif-30"/>
     <use x="2314.013672" xlink:href="#DejaVuSerif-30"/>
     <use x="2377.636719" xlink:href="#DejaVuSerif-30"/>
     <use x="2441.259766" xlink:href="#DejaVuSerif-2d"/>
     <use x="2475.048828" xlink:href="#DejaVuSerif-30"/>
     <use x="2538.671875" xlink:href="#DejaVuSerif-31"/>
     <use x="2602.294922" xlink:href="#DejaVuSerif-36"/>
     <use x="2665.917969" xlink:href="#DejaVuSerif-35"/>
     <use x="2729.541016" xlink:href="#DejaVuSerif-39"/>
     <use x="2793.164062" xlink:href="#DejaVuSerif-66"/>
     <use x="2830.175781" xlink:href="#DejaVuSerif-34"/>
     <use x="2893.798828" xlink:href="#DejaVuSerif-62"/>
     <use x="2957.8125" xlink:href="#DejaVuSerif-37"/>
     <use x="3021.435547" xlink:href="#DejaVuSerif-34"/>
     <use x="3085.058594" xlink:href="#DejaVuSerif-36"/>
     <use x="3148.681641" xlink:href="#DejaVuSerif-37"/>
    </g>
   </g>
   <g id="legend_1">
    <g id="line2d_18">
     <path d="M 404.948437 35.416563
L 424.948437 35.416563
" style="fill:none;stroke:#336699;stroke-linecap:square;stroke-width:0.6;"/>
    </g>
    <g id="line2d_19"/>
    <g id="text_18">
     <!-- signal -->
     <g transform="translate(432.948437 38.916563)scale(0.1 -0.1)">
      <use xlink:href="#DejaVuSerif-73"/>
      <use x="51.318359" xlink:href="#DejaVuSerif-69"/>
      <use x="83.300781" xlink:href="#DejaVuSerif-67"/>
      <use x="147.314453" xlink:href="#DejaVuSerif-6e"/>
      <use x="211.71875" xlink:href="#DejaVuSerif-61"/>
      <use x="271.337891" xlink:href="#DejaVuSerif-6c"/>
     </g>
    </g>
    <g id="line2d_20">
     <path d="M 404.948437 50.236875
L 424.948437 50.236875
" style="fill:none;stroke:#ee7733;stroke-linecap:square;stroke-width:0.6;"/>
    </g>
    <g id="line2d_21"/>
    <g id="text_19">
     <!-- smooth -->
     <g transform="translate(432.948437 53.736875)scale(0.1 -0.1)">
      <defs>
       <path d="M 263 0
L 263 331
L 781 331
L 781 4531
L 231 4531
L 231 4863
L 1356 4863
L 1356 2731
Q 1516 3069 1770 3241
Q 2025 3413 2363 3413
Q 2913 3413 3172 3097
Q 3431 2781 3431 2113
L 3431 331
L 3944 331
L 3944 0
L 2356 0
L 2356 331
L 2853 331
L 2853 1931
Q 2853 2541 2704 2764
Q 2556 2988 2175 2988
Q 1775 2988 1565 2697
Q 1356 2406 1356 1850
L 1356 331
L 1856 331
L 1856 0
L 263 0
z
" id="DejaVuSerif-68" transform="scale(0.015625)"/>
      </defs>
      <use xlink:href="#DejaVuSerif-73"/>
      <use x="51.318359" xlink:href="#DejaVuSerif-6d"/>
      <use x="146.142578" xlink:href="#DejaVuSerif-6f"/>
      <use x="206.347656" xlink:href="#DejaVuSerif-6f"/>
      <use x="266.552734" xlink:href="#DejaVuSerif-74"/>
      <use x="306.738281" xlink:href="#DejaVuSerif-68"/>
     </g>
    </g>
    <g id="line2d_22"/>
    <g id="line2d_23">
     <g>
      <use style="fill:#009988;stroke:#009988;" x="414.948437" xlink:href="#macd0ee7892" y="64.915"/>
     </g>
    </g>
    <g id="text_20">
     <!-- peaks -->
     <g transform="translate(432.948437 68.415)scale(0.1 -0.1)">
      <defs>
       <path d="M 1313 1825
L 1313 1497
Q 1313 897 1542 583
Q 1772 269 2209 269
Q 2650 269 2876 622
Q 3103 975 3103 1663
Q 3103 2353 2876 2703
Q 2650 3053 2209 3053
Q 1772 3053 1542 2737
Q 1313 2422 1313 1825
z
M 738 2988
L 184 2988
L 184 3322
L 1313 3322
L 1313 2803
Q 1481 3116 1742 3264
Q 2003 3413 2388 3413
Q 3000 3413 3387 2928
Q 3775 2444 3775 1663
Q 3775 881 3387 395
Q 3000 -91 2388 -91
Q 2003 -91 1742 57
Q 1481 206 1313 519
L 1313 -997
L 1856 -997
L 1856 -1331
L 184 -1331
L 184 -997
L 738 -997
L 738 2988
z
" id="DejaVuSerif-70" transform="scale(0.015625)"/>
       <path d="M 1831 0
L 219 0
L 219 331
L 738 331
L 738 4531
L 184 4531
L 184 4863
L 1313 4863
L 1313 1697
L 2713 2988
L 2234 2988
L 2234 3322
L 3738 3322
L 3738 2988
L 3169 2988
L 2181 2075
L 3444 331
L 3922 331
L 3922 0
L 2284 0
L 2284 331
L 2759 331
L 1766 1697
L 1313 1275
L 1313 331
L 1831 331
L 1831 0
z
" id="DejaVuSerif-6b" transform="scale(0.015625)"/>
      </defs>
      <use xlink:href="#DejaVuSerif-70"/>
      <use x="64.013672" xlink:href="#DejaVuSerif-65"/>
      <use x="123.193359" xlink:href="#DejaVuSerif-61"/>
      <use x="182.8125" xlink:href="#DejaVuSerif-6b"/>
      <use x="243.408203" xlink:href="#DejaVuSerif-73"/>
     </g>
    </g>
    <g id="line2d_24">
     <path d="M 404.948437 79.593125
L 424.948437 79.593125
" style="fill:none;stroke:#808080;stroke-dasharray:2.22,0.96;stroke-dashoffset:0;stroke-width:0.6;"/>
    </g>
    <g id="line2d_25"/>
    <g id="text_21">
     <!-- threshold -->
     <g transform="translate(432.948437 83.093125)scale(0.1 -0.1)">
      <use xlink:href="#DejaVuSerif-74"/>
      <use x="40.185547" xlink:href="#DejaVuSerif-68"/>
      <use x="104.589844" xlink:href="#DejaVuSerif-72"/>
      <use x="152.392578" xlink:href="#DejaVuSerif-65"/>
      <use x="211.572266" xlink:href="#DejaVuSerif-73"/>
      <use x="262.890625" xlink:href="#DejaVuSerif-68"/>
      <use x="327.294922" xlink:href="#DejaVuSerif-6f"/>
      <use x="387.5" xlink:href="#DejaVuSerif-6c"/>
      <use x="419.482422" xlink:href="#DejaVuSerif-64"/>
     </g>
    </g>
   </g>
   <g id="line2d_26">
    <path clip-path="url(#p033fa0d4a8)" d="M 72.923438 235.554667
L 76.938589 235.068504
L 80.953741 236.265803
L 84.968892 235.838038
L 88.984044 235.347368
L 92.999195 235.372
L 97.014347 236.038649
L 101.029498 235.765375
L 105.04465 236.078478
L 109.059801 222.928148
L 113.074953 210.359622
L 117.090104 224.848327
L 121.105256 235.700254
L 125.120407 235.030544
L 129.135559 236.531244
L 133.15071 234.973869
L 137.165862 234.838048
L 141.181013 234.938735
L 145.196165 235.278885
L 149.211316 235.908315
L 153.226468 235.316178
L 157.241619 235.821327
L 161.256771 235.227995
L 165.271922 234.695863
L 169.287074 227.252136
L 173.302225 171.031133
L 177.317377 86.449777
L 181.332528 138.613222
L 185.34768 186.312169
L 189.362831 215.887531
L 193.377983 221.289772
L 197.393134 227.598249
L 201.408286 229.716168
L 205.423438 232.03358
L 209.438589 229.555764
L 213.453741 229.869353
L 217.468892 229.634311
L 221.484044 228.176095
L 225.499195 225.013083
L 229.514347 220.110381
L 233.529498 213.623964
L 237.54465 175.23186
L 241.559801 129.472772
L 245.574953 54.581847
L 249.590104 32.545398
L 253.605256 99.028793
L 257.620407 172.204513
L 261.635559 221.64193
L 265.65071 228.280828
L 269.665862 229.343296
L 273.681013 229.363064
L 277.696165 229.434512
L 281.711316 229.729362
L 285.726468 227.717145
L 289.741619 223.625967
L 293.756771 213.760979
L 297.771922 193.582492
L 301.787074 141.783535
L 305.802225 106.073028
L 309.817377 109.401132
L 313.832528 140.253684
L 317.84768 162.763373
L 321.862831 186.579173
L 325.877983 199.068913
L 329.893134 214.333266
L 333.908286 217.387684
L 337.923437 225.814185
L 341.938589 227.848112
L 345.953741 227.751672
L 349.968892 226.693515
L 353.984044 226.393711
L 357.999195 224.181671
L 362.014347 221.793911
L 366.029498 218.753316
L 370.04465 215.496439
L 374.059801 206.171722
L 378.074953 172.175881
L 382.090104 130.158655
L 386.105256 137.368907
L 390.120407 165.847372
L 394.135559 180.041232
L 398.15071 182.03045
L 402.165862 186.107463
L 406.181013 190.564043
L 410.196165 207.814753
L 414.211316 216.574699
L 418.226468 226.500765
L 422.241619 227.90479
L 426.256771 229.348034
L 430.271922 226.908162
L 434.287074 225.077656
L 438.302225 219.601525
L 442.317377 210.45195
L 446.332528 200.164453
L 450.34768 182.294195
L 454.362831 155.54023
L 458.377983 124.600904
L 462.393134 96.314273
L 466.408286 89.47542
L 470.423437 89.914136
" style="fill:none;stroke:#336699;stroke-linecap:square;stroke-width:0.6;"/>
   </g>
  </g>
 </g>
 <defs>
  <clipPath id="p033fa0d4a8">
   <rect height="225" width="437.25" x="53.048438" y="22.318125"/>
  </clipPath>
 </defs>
</svg>
