<?xml version="1.0" encoding="utf-8" standalone="no"?>
<!DOCTYPE svg PUBLIC "-//W3C//DTD SVG 1.1//EN"
  "http://www.w3.org/Graphics/SVG/1.1/DTD/svg11.dtd">
<svg height="281.274375pt" version="1.1" viewBox="0 0 497.38125 281.274375" width="497.38125pt" xmlns="http://www.w3.org/2000/svg" xmlns:xlink="http://www.w3.org/1999/xlink">
 <metadata>
  <rdf:RDF xmlns:cc="http://creativecommons.org/ns#" xmlns:dc="http://purl.org/dc/elements/1.1/" xmlns:rdf="http://www.w3.org/1999/02/22-rdf-syntax-ns#">
   <cc:Work>
    <dc:type rdf:resource="http://purl.org/dc/dcmitype/StillImage"/>
    <dc:date>2021-08-05T09:45:13.271038</dc:date>
    <dc:format>image/svg+xml</dc:format>
    <dc:creator>
     <cc:Agent>
      <dc:title>Matplotlib v3.4.2, https://matplotlib.org/</dc:title>
     </cc:Agent>
    </dc:creator>
   </cc:Work>
  </rdf:RDF>
 </metadata>
 <defs>
  <style type="text/css">*{stroke-linecap:butt;stroke-linejoin:round;}</style>
 </defs>
 <g id="figure_1">
  <g id="patch_1">
   <path d="M 0 281.274375
L 497.38125 281.274375
L 497.38125 0
L 0 0
z
" style="fill:none;"/>
  </g>
  <g id="axes_1">
   <g id="patch_2">
    <path d="M 40.18125 247.318125
L 464.638393 247.318125
L 464.638393 22.318125
L 40.18125 22.318125
z
" style="fill:#ffffff;"/>
   </g>
   <g id="line2d_1">
    <path clip-path="url(#pe62668ca6e)" d="M 59.474756 234.869556
L 70.823878 235.277404
L 82.172999 235.956004
L 93.522121 235.763122
L 104.871242 231.055421
L 116.220364 181.968611
L 127.569485 51.806488
L 138.918607 32.545398
L 150.267728 123.554382
L 161.61685 153.15919
L 172.965971 175.081111
L 184.315093 199.849205
L 195.664214 210.307897
L 207.013336 215.492144
L 218.362457 222.670174
L 229.711578 228.595062
L 241.0607 230.712089
L 252.409821 232.670526
L 263.758943 231.837177
L 275.108064 231.256797
L 286.457186 230.829991
L 297.806307 228.779376
L 309.155429 229.129414
L 320.50455 230.850987
L 331.853672 233.519041
L 343.202793 234.762277
L 354.551915 235.030493
L 365.901036 236.163776
L 377.250158 234.953645
L 388.599279 234.754205
L 399.9484 235.897476
L 411.297522 235.601212
L 422.646643 235.70721
L 433.995765 236.538928
L 445.344886 237.090852
" style="fill:none;stroke:#33bbee;stroke-linecap:square;stroke-width:0.6;"/>
   </g>
   <g id="matplotlib.axis_1">
    <g id="xtick_1">
     <g id="line2d_2">
      <defs>
       <path d="M 0 0
L 0 3.5
" id="mafd300a0a6" style="stroke:#000000;stroke-width:0.8;"/>
      </defs>
      <g>
       <use style="stroke:#000000;stroke-width:0.8;" x="49.449699" xlink:href="#mafd300a0a6" y="247.318125"/>
      </g>
     </g>
     <g id="text_1">
      <!-- −0.35 -->
      <g transform="translate(34.127043 261.916563)scale(0.1 -0.1)">
       <defs>
        <path d="M 678 2259
L 4684 2259
L 4684 1753
L 678 1753
L 678 2259
z
" id="DejaVuSerif-2212" transform="scale(0.015625)"/>
        <path d="M 2034 219
Q 2513 219 2750 744
Q 2988 1269 2988 2328
Q 2988 3391 2750 3916
Q 2513 4441 2034 4441
Q 1556 4441 1318 3916
Q 1081 3391 1081 2328
Q 1081 1269 1318 744
Q 1556 219 2034 219
z
M 2034 -91
Q 1275 -91 848 546
Q 422 1184 422 2328
Q 422 3475 848 4112
Q 1275 4750 2034 4750
Q 2797 4750 3222 4112
Q 3647 3475 3647 2328
Q 3647 1184 3222 546
Q 2797 -91 2034 -91
z
" id="DejaVuSerif-30" transform="scale(0.015625)"/>
        <path d="M 603 325
Q 603 500 722 622
Q 841 744 1019 744
Q 1191 744 1312 622
Q 1434 500 1434 325
Q 1434 153 1312 31
Q 1191 -91 1019 -91
Q 841 -91 722 29
Q 603 150 603 325
z
" id="DejaVuSerif-2e" transform="scale(0.015625)"/>
        <path d="M 622 4469
Q 988 4606 1323 4678
Q 1659 4750 1953 4750
Q 2638 4750 3022 4454
Q 3406 4159 3406 3634
Q 3406 3213 3140 2930
Q 2875 2647 2388 2547
Q 2963 2466 3280 2130
Q 3597 1794 3597 1259
Q 3597 606 3158 257
Q 2719 -91 1894 -91
Q 1528 -91 1179 -12
Q 831 66 488 225
L 488 1131
L 838 1131
Q 869 681 1141 450
Q 1413 219 1906 219
Q 2384 219 2661 495
Q 2938 772 2938 1253
Q 2938 1803 2653 2086
Q 2369 2369 1819 2369
L 1522 2369
L 1522 2688
L 1678 2688
Q 2225 2688 2498 2914
Q 2772 3141 2772 3597
Q 2772 4006 2547 4223
Q 2322 4441 1900 4441
Q 1478 4441 1245 4241
Q 1013 4041 972 3647
L 622 3647
L 622 4469
z
" id="DejaVuSerif-33" transform="scale(0.015625)"/>
        <path d="M 3219 4666
L 3219 4153
L 1081 4153
L 1081 2816
Q 1244 2928 1461 2984
Q 1678 3041 1947 3041
Q 2703 3041 3140 2622
Q 3578 2203 3578 1478
Q 3578 738 3136 323
Q 2694 -91 1894 -91
Q 1572 -91 1234 -12
Q 897 66 544 225
L 544 1131
L 897 1131
Q 925 688 1179 453
Q 1434 219 1894 219
Q 2388 219 2653 544
Q 2919 869 2919 1478
Q 2919 2084 2655 2407
Q 2391 2731 1894 2731
Q 1613 2731 1398 2631
Q 1184 2531 1019 2322
L 750 2322
L 750 4666
L 3219 4666
z
" id="DejaVuSerif-35" transform="scale(0.015625)"/>
       </defs>
       <use xlink:href="#DejaVuSerif-2212"/>
       <use x="83.789062" xlink:href="#DejaVuSerif-30"/>
       <use x="147.412109" xlink:href="#DejaVuSerif-2e"/>
       <use x="179.199219" xlink:href="#DejaVuSerif-33"/>
       <use x="242.822266" xlink:href="#DejaVuSerif-35"/>
      </g>
     </g>
    </g>
    <g id="xtick_2">
     <g id="line2d_3">
      <g>
       <use style="stroke:#000000;stroke-width:0.8;" x="106.006155" xlink:href="#mafd300a0a6" y="247.318125"/>
      </g>
     </g>
     <g id="text_2">
      <!-- −0.30 -->
      <g transform="translate(90.683498 261.916563)scale(0.1 -0.1)">
       <use xlink:href="#DejaVuSerif-2212"/>
       <use x="83.789062" xlink:href="#DejaVuSerif-30"/>
       <use x="147.412109" xlink:href="#DejaVuSerif-2e"/>
       <use x="179.199219" xlink:href="#DejaVuSerif-33"/>
       <use x="242.822266" xlink:href="#DejaVuSerif-30"/>
      </g>
     </g>
    </g>
    <g id="xtick_3">
     <g id="line2d_4">
      <g>
       <use style="stroke:#000000;stroke-width:0.8;" x="162.56261" xlink:href="#mafd300a0a6" y="247.318125"/>
      </g>
     </g>
     <g id="text_3">
      <!-- −0.25 -->
      <g transform="translate(147.239954 261.916563)scale(0.1 -0.1)">
       <defs>
        <path d="M 819 3553
L 469 3553
L 469 4384
Q 803 4563 1142 4656
Q 1481 4750 1806 4750
Q 2534 4750 2956 4397
Q 3378 4044 3378 3438
Q 3378 2753 2422 1800
Q 2347 1728 2309 1691
L 1131 513
L 3078 513
L 3078 1088
L 3444 1088
L 3444 0
L 434 0
L 434 341
L 1850 1753
Q 2319 2222 2519 2614
Q 2719 3006 2719 3438
Q 2719 3909 2473 4175
Q 2228 4441 1797 4441
Q 1350 4441 1106 4219
Q 863 3997 819 3553
z
" id="DejaVuSerif-32" transform="scale(0.015625)"/>
       </defs>
       <use xlink:href="#DejaVuSerif-2212"/>
       <use x="83.789062" xlink:href="#DejaVuSerif-30"/>
       <use x="147.412109" xlink:href="#DejaVuSerif-2e"/>
       <use x="179.199219" xlink:href="#DejaVuSerif-32"/>
       <use x="242.822266" xlink:href="#DejaVuSerif-35"/>
      </g>
     </g>
    </g>
    <g id="xtick_4">
     <g id="line2d_5">
      <g>
       <use style="stroke:#000000;stroke-width:0.8;" x="219.119065" xlink:href="#mafd300a0a6" y="247.318125"/>
      </g>
     </g>
     <g id="text_4">
      <!-- −0.20 -->
      <g transform="translate(203.796409 261.916563)scale(0.1 -0.1)">
       <use xlink:href="#DejaVuSerif-2212"/>
       <use x="83.789062" xlink:href="#DejaVuSerif-30"/>
       <use x="147.412109" xlink:href="#DejaVuSerif-2e"/>
       <use x="179.199219" xlink:href="#DejaVuSerif-32"/>
       <use x="242.822266" xlink:href="#DejaVuSerif-30"/>
      </g>
     </g>
    </g>
    <g id="xtick_5">
     <g id="line2d_6">
      <g>
       <use style="stroke:#000000;stroke-width:0.8;" x="275.67552" xlink:href="#mafd300a0a6" y="247.318125"/>
      </g>
     </g>
     <g id="text_5">
      <!-- −0.15 -->
      <g transform="translate(260.352864 261.916563)scale(0.1 -0.1)">
       <defs>
        <path d="M 909 0
L 909 331
L 1722 331
L 1722 4213
L 781 3603
L 781 4013
L 1919 4750
L 2350 4750
L 2350 331
L 3163 331
L 3163 0
L 909 0
z
" id="DejaVuSerif-31" transform="scale(0.015625)"/>
       </defs>
       <use xlink:href="#DejaVuSerif-2212"/>
       <use x="83.789062" xlink:href="#DejaVuSerif-30"/>
       <use x="147.412109" xlink:href="#DejaVuSerif-2e"/>
       <use x="179.199219" xlink:href="#DejaVuSerif-31"/>
       <use x="242.822266" xlink:href="#DejaVuSerif-35"/>
      </g>
     </g>
    </g>
    <g id="xtick_6">
     <g id="line2d_7">
      <g>
       <use style="stroke:#000000;stroke-width:0.8;" x="332.231976" xlink:href="#mafd300a0a6" y="247.318125"/>
      </g>
     </g>
     <g id="text_6">
      <!-- −0.10 -->
      <g transform="translate(316.909319 261.916563)scale(0.1 -0.1)">
       <use xlink:href="#DejaVuSerif-2212"/>
       <use x="83.789062" xlink:href="#DejaVuSerif-30"/>
       <use x="147.412109" xlink:href="#DejaVuSerif-2e"/>
       <use x="179.199219" xlink:href="#DejaVuSerif-31"/>
       <use x="242.822266" xlink:href="#DejaVuSerif-30"/>
      </g>
     </g>
    </g>
    <g id="xtick_7">
     <g id="line2d_8">
      <g>
       <use style="stroke:#000000;stroke-width:0.8;" x="388.788431" xlink:href="#mafd300a0a6" y="247.318125"/>
      </g>
     </g>
     <g id="text_7">
      <!-- −0.05 -->
      <g transform="translate(373.465775 261.916563)scale(0.1 -0.1)">
       <use xlink:href="#DejaVuSerif-2212"/>
       <use x="83.789062" xlink:href="#DejaVuSerif-30"/>
       <use x="147.412109" xlink:href="#DejaVuSerif-2e"/>
       <use x="179.199219" xlink:href="#DejaVuSerif-30"/>
       <use x="242.822266" xlink:href="#DejaVuSerif-35"/>
      </g>
     </g>
    </g>
    <g id="xtick_8">
     <g id="line2d_9">
      <g>
       <use style="stroke:#000000;stroke-width:0.8;" x="445.344886" xlink:href="#mafd300a0a6" y="247.318125"/>
      </g>
     </g>
     <g id="text_8">
      <!-- 0.00 -->
      <g transform="translate(434.212074 261.916563)scale(0.1 -0.1)">
       <use xlink:href="#DejaVuSerif-30"/>
       <use x="63.623047" xlink:href="#DejaVuSerif-2e"/>
       <use x="95.410156" xlink:href="#DejaVuSerif-30"/>
       <use x="159.033203" xlink:href="#DejaVuSerif-30"/>
      </g>
     </g>
    </g>
    <g id="text_9">
     <!-- LeftOB [V] -->
     <g transform="translate(225.394978 271.994688)scale(0.1 -0.1)">
      <defs>
       <path d="M 353 0
L 353 331
L 947 331
L 947 4331
L 353 4331
L 353 4666
L 2175 4666
L 2175 4331
L 1581 4331
L 1581 384
L 3713 384
L 3713 1166
L 4097 1166
L 4097 0
L 353 0
z
" id="DejaVuSerif-4c" transform="scale(0.015625)"/>
       <path d="M 3469 1600
L 991 1600
L 991 1575
Q 991 903 1244 561
Q 1497 219 1991 219
Q 2369 219 2611 417
Q 2853 616 2950 1006
L 3413 1006
Q 3275 459 2904 184
Q 2534 -91 1931 -91
Q 1203 -91 761 389
Q 319 869 319 1663
Q 319 2450 753 2931
Q 1188 3413 1894 3413
Q 2647 3413 3050 2948
Q 3453 2484 3469 1600
z
M 2791 1931
Q 2772 2513 2545 2808
Q 2319 3103 1894 3103
Q 1497 3103 1269 2806
Q 1041 2509 991 1931
L 2791 1931
z
" id="DejaVuSerif-65" transform="scale(0.015625)"/>
       <path d="M 2753 4078
L 2450 4078
Q 2447 4313 2317 4434
Q 2188 4556 1941 4556
Q 1619 4556 1487 4379
Q 1356 4203 1356 3750
L 1356 3322
L 2284 3322
L 2284 2988
L 1356 2988
L 1356 331
L 2094 331
L 2094 0
L 231 0
L 231 331
L 781 331
L 781 2988
L 231 2988
L 231 3322
L 781 3322
L 781 3738
Q 781 4294 1070 4578
Q 1359 4863 1919 4863
Q 2128 4863 2337 4825
Q 2547 4788 2753 4709
L 2753 4078
z
" id="DejaVuSerif-66" transform="scale(0.015625)"/>
       <path d="M 691 2988
L 184 2988
L 184 3322
L 691 3322
L 691 4353
L 1269 4353
L 1269 3322
L 2350 3322
L 2350 2988
L 1269 2988
L 1269 878
Q 1269 456 1350 337
Q 1431 219 1650 219
Q 1875 219 1978 351
Q 2081 484 2088 781
L 2522 781
Q 2497 328 2275 118
Q 2053 -91 1600 -91
Q 1103 -91 897 129
Q 691 350 691 878
L 691 2988
z
" id="DejaVuSerif-74" transform="scale(0.015625)"/>
       <path d="M 2625 244
Q 3391 244 3781 770
Q 4172 1297 4172 2328
Q 4172 3363 3781 3889
Q 3391 4416 2625 4416
Q 1856 4416 1465 3889
Q 1075 3363 1075 2328
Q 1075 1297 1465 770
Q 1856 244 2625 244
z
M 2625 -91
Q 2150 -91 1751 65
Q 1353 222 1050 525
Q 700 875 529 1319
Q 359 1763 359 2328
Q 359 2894 529 3339
Q 700 3784 1050 4134
Q 1356 4441 1750 4595
Q 2144 4750 2625 4750
Q 3641 4750 4266 4084
Q 4891 3419 4891 2328
Q 4891 1769 4719 1320
Q 4547 872 4197 525
Q 3891 219 3497 64
Q 3103 -91 2625 -91
z
" id="DejaVuSerif-4f" transform="scale(0.015625)"/>
       <path d="M 1581 331
L 2516 331
Q 3078 331 3337 575
Q 3597 819 3597 1350
Q 3597 1878 3339 2120
Q 3081 2363 2516 2363
L 1581 2363
L 1581 331
z
M 1581 2694
L 2375 2694
Q 2888 2694 3123 2891
Q 3359 3088 3359 3513
Q 3359 3941 3123 4136
Q 2888 4331 2375 4331
L 1581 4331
L 1581 2694
z
M 353 0
L 353 331
L 947 331
L 947 4331
L 353 4331
L 353 4666
L 2656 4666
Q 3363 4666 3720 4377
Q 4078 4088 4078 3513
Q 4078 3097 3829 2850
Q 3581 2603 3103 2547
Q 3697 2472 4005 2167
Q 4313 1863 4313 1350
Q 4313 656 3875 328
Q 3438 0 2509 0
L 353 0
z
" id="DejaVuSerif-42" transform="scale(0.015625)"/>
       <path id="DejaVuSerif-20" transform="scale(0.015625)"/>
       <path d="M 550 4863
L 2003 4863
L 2003 4531
L 1147 4531
L 1147 -513
L 2003 -513
L 2003 -844
L 550 -844
L 550 4863
z
" id="DejaVuSerif-5b" transform="scale(0.015625)"/>
       <path d="M 1119 4331
L 2497 750
L 3872 4331
L 3347 4331
L 3347 4666
L 4716 4666
L 4716 4331
L 4263 4331
L 2597 0
L 2059 0
L 403 4331
L -63 4331
L -63 4666
L 1638 4666
L 1638 4331
L 1119 4331
z
" id="DejaVuSerif-56" transform="scale(0.015625)"/>
       <path d="M 1947 4863
L 1947 -844
L 494 -844
L 494 -513
L 1350 -513
L 1350 4531
L 494 4531
L 494 4863
L 1947 4863
z
" id="DejaVuSerif-5d" transform="scale(0.015625)"/>
      </defs>
      <use xlink:href="#DejaVuSerif-4c"/>
      <use x="66.40625" xlink:href="#DejaVuSerif-65"/>
      <use x="125.585938" xlink:href="#DejaVuSerif-66"/>
      <use x="162.597656" xlink:href="#DejaVuSerif-74"/>
      <use x="202.783203" xlink:href="#DejaVuSerif-4f"/>
      <use x="284.765625" xlink:href="#DejaVuSerif-42"/>
      <use x="358.251953" xlink:href="#DejaVuSerif-20"/>
      <use x="390.039062" xlink:href="#DejaVuSerif-5b"/>
      <use x="429.052734" xlink:href="#DejaVuSerif-56"/>
      <use x="501.269531" xlink:href="#DejaVuSerif-5d"/>
     </g>
    </g>
   </g>
   <g id="matplotlib.axis_2">
    <g id="ytick_1">
     <g id="line2d_10">
      <defs>
       <path d="M 0 0
L -3.5 0
" id="mfc116b4dab" style="stroke:#000000;stroke-width:0.8;"/>
      </defs>
      <g>
       <use style="stroke:#000000;stroke-width:0.8;" x="40.18125" xlink:href="#mfc116b4dab" y="235.874401"/>
      </g>
     </g>
     <g id="text_10">
      <!-- 0.0 -->
      <g transform="translate(17.278125 239.67362)scale(0.1 -0.1)">
       <use xlink:href="#DejaVuSerif-30"/>
       <use x="63.623047" xlink:href="#DejaVuSerif-2e"/>
       <use x="95.410156" xlink:href="#DejaVuSerif-30"/>
      </g>
     </g>
    </g>
    <g id="ytick_2">
     <g id="line2d_11">
      <g>
       <use style="stroke:#000000;stroke-width:0.8;" x="40.18125" xlink:href="#mfc116b4dab" y="195.208601"/>
      </g>
     </g>
     <g id="text_11">
      <!-- 0.2 -->
      <g transform="translate(17.278125 199.007819)scale(0.1 -0.1)">
       <use xlink:href="#DejaVuSerif-30"/>
       <use x="63.623047" xlink:href="#DejaVuSerif-2e"/>
       <use x="95.410156" xlink:href="#DejaVuSerif-32"/>
      </g>
     </g>
    </g>
    <g id="ytick_3">
     <g id="line2d_12">
      <g>
       <use style="stroke:#000000;stroke-width:0.8;" x="40.18125" xlink:href="#mfc116b4dab" y="154.5428"/>
      </g>
     </g>
     <g id="text_12">
      <!-- 0.4 -->
      <g transform="translate(17.278125 158.342019)scale(0.1 -0.1)">
       <defs>
        <path d="M 2234 1581
L 2234 4063
L 641 1581
L 2234 1581
z
M 3609 0
L 1484 0
L 1484 331
L 2234 331
L 2234 1247
L 197 1247
L 197 1588
L 2241 4750
L 2859 4750
L 2859 1581
L 3750 1581
L 3750 1247
L 2859 1247
L 2859 331
L 3609 331
L 3609 0
z
" id="DejaVuSerif-34" transform="scale(0.015625)"/>
       </defs>
       <use xlink:href="#DejaVuSerif-30"/>
       <use x="63.623047" xlink:href="#DejaVuSerif-2e"/>
       <use x="95.410156" xlink:href="#DejaVuSerif-34"/>
      </g>
     </g>
    </g>
    <g id="ytick_4">
     <g id="line2d_13">
      <g>
       <use style="stroke:#000000;stroke-width:0.8;" x="40.18125" xlink:href="#mfc116b4dab" y="113.876999"/>
      </g>
     </g>
     <g id="text_13">
      <!-- 0.6 -->
      <g transform="translate(17.278125 117.676218)scale(0.1 -0.1)">
       <defs>
        <path d="M 2094 219
Q 2534 219 2771 542
Q 3009 866 3009 1472
Q 3009 2078 2771 2401
Q 2534 2725 2094 2725
Q 1647 2725 1412 2412
Q 1178 2100 1178 1509
Q 1178 888 1415 553
Q 1653 219 2094 219
z
M 1075 2569
Q 1288 2803 1556 2918
Q 1825 3034 2163 3034
Q 2859 3034 3264 2615
Q 3669 2197 3669 1472
Q 3669 763 3233 336
Q 2797 -91 2069 -91
Q 1278 -91 853 498
Q 428 1088 428 2181
Q 428 3406 931 4078
Q 1434 4750 2350 4750
Q 2597 4750 2869 4703
Q 3141 4656 3425 4563
L 3425 3794
L 3072 3794
Q 3034 4109 2831 4275
Q 2628 4441 2284 4441
Q 1678 4441 1381 3981
Q 1084 3522 1075 2569
z
" id="DejaVuSerif-36" transform="scale(0.015625)"/>
       </defs>
       <use xlink:href="#DejaVuSerif-30"/>
       <use x="63.623047" xlink:href="#DejaVuSerif-2e"/>
       <use x="95.410156" xlink:href="#DejaVuSerif-36"/>
      </g>
     </g>
    </g>
    <g id="ytick_5">
     <g id="line2d_14">
      <g>
       <use style="stroke:#000000;stroke-width:0.8;" x="40.18125" xlink:href="#mfc116b4dab" y="73.211198"/>
      </g>
     </g>
     <g id="text_14">
      <!-- 0.8 -->
      <g transform="translate(17.278125 77.010417)scale(0.1 -0.1)">
       <defs>
        <path d="M 2981 1275
Q 2981 1775 2732 2051
Q 2484 2328 2034 2328
Q 1584 2328 1336 2051
Q 1088 1775 1088 1275
Q 1088 772 1336 495
Q 1584 219 2034 219
Q 2484 219 2732 495
Q 2981 772 2981 1275
z
M 2853 3541
Q 2853 3966 2637 4203
Q 2422 4441 2034 4441
Q 1650 4441 1433 4203
Q 1216 3966 1216 3541
Q 1216 3113 1433 2875
Q 1650 2638 2034 2638
Q 2422 2638 2637 2875
Q 2853 3113 2853 3541
z
M 2516 2484
Q 3047 2413 3344 2092
Q 3641 1772 3641 1275
Q 3641 619 3225 264
Q 2809 -91 2034 -91
Q 1263 -91 845 264
Q 428 619 428 1275
Q 428 1772 725 2092
Q 1022 2413 1556 2484
Q 1084 2569 832 2842
Q 581 3116 581 3541
Q 581 4103 968 4426
Q 1356 4750 2034 4750
Q 2713 4750 3100 4426
Q 3488 4103 3488 3541
Q 3488 3116 3236 2842
Q 2984 2569 2516 2484
z
" id="DejaVuSerif-38" transform="scale(0.015625)"/>
       </defs>
       <use xlink:href="#DejaVuSerif-30"/>
       <use x="63.623047" xlink:href="#DejaVuSerif-2e"/>
       <use x="95.410156" xlink:href="#DejaVuSerif-38"/>
      </g>
     </g>
    </g>
    <g id="ytick_6">
     <g id="line2d_15">
      <g>
       <use style="stroke:#000000;stroke-width:0.8;" x="40.18125" xlink:href="#mfc116b4dab" y="32.545398"/>
      </g>
     </g>
     <g id="text_15">
      <!-- 1.0 -->
      <g transform="translate(17.278125 36.344616)scale(0.1 -0.1)">
       <use xlink:href="#DejaVuSerif-31"/>
       <use x="63.623047" xlink:href="#DejaVuSerif-2e"/>
       <use x="95.410156" xlink:href="#DejaVuSerif-30"/>
      </g>
     </g>
    </g>
    <g id="text_16">
     <!-- transport [A] -->
     <g transform="translate(14.798438 167.69625)rotate(-90)scale(0.1 -0.1)">
      <defs>
       <path d="M 3059 3328
L 3059 2497
L 2728 2497
Q 2713 2744 2591 2866
Q 2469 2988 2234 2988
Q 1809 2988 1582 2694
Q 1356 2400 1356 1850
L 1356 331
L 2022 331
L 2022 0
L 263 0
L 263 331
L 781 331
L 781 2994
L 231 2994
L 231 3322
L 1356 3322
L 1356 2731
Q 1525 3078 1790 3245
Q 2056 3413 2438 3413
Q 2578 3413 2733 3391
Q 2888 3369 3059 3328
z
" id="DejaVuSerif-72" transform="scale(0.015625)"/>
       <path d="M 2547 1044
L 2547 1747
L 1806 1747
Q 1378 1747 1168 1562
Q 959 1378 959 997
Q 959 650 1171 447
Q 1384 244 1747 244
Q 2106 244 2326 466
Q 2547 688 2547 1044
z
M 3122 2075
L 3122 331
L 3634 331
L 3634 0
L 2547 0
L 2547 359
Q 2356 128 2106 18
Q 1856 -91 1522 -91
Q 969 -91 644 203
Q 319 497 319 997
Q 319 1513 691 1797
Q 1063 2081 1741 2081
L 2547 2081
L 2547 2309
Q 2547 2688 2317 2895
Q 2088 3103 1672 3103
Q 1328 3103 1125 2947
Q 922 2791 872 2484
L 575 2484
L 575 3156
Q 875 3284 1158 3348
Q 1441 3413 1709 3413
Q 2400 3413 2761 3070
Q 3122 2728 3122 2075
z
" id="DejaVuSerif-61" transform="scale(0.015625)"/>
       <path d="M 263 0
L 263 331
L 781 331
L 781 2988
L 231 2988
L 231 3322
L 1356 3322
L 1356 2731
Q 1516 3069 1770 3241
Q 2025 3413 2363 3413
Q 2913 3413 3172 3097
Q 3431 2781 3431 2113
L 3431 331
L 3944 331
L 3944 0
L 2356 0
L 2356 331
L 2853 331
L 2853 1931
Q 2853 2541 2703 2767
Q 2553 2994 2175 2994
Q 1775 2994 1565 2701
Q 1356 2409 1356 1850
L 1356 331
L 1856 331
L 1856 0
L 263 0
z
" id="DejaVuSerif-6e" transform="scale(0.015625)"/>
       <path d="M 359 184
L 359 959
L 691 959
Q 703 588 923 403
Q 1144 219 1575 219
Q 1963 219 2166 364
Q 2369 509 2369 788
Q 2369 1006 2220 1140
Q 2072 1275 1594 1428
L 1178 1569
Q 750 1706 558 1912
Q 366 2119 366 2438
Q 366 2894 700 3153
Q 1034 3413 1625 3413
Q 1888 3413 2178 3344
Q 2469 3275 2778 3144
L 2778 2419
L 2447 2419
Q 2434 2741 2221 2922
Q 2009 3103 1644 3103
Q 1281 3103 1095 2975
Q 909 2847 909 2591
Q 909 2381 1050 2254
Q 1191 2128 1613 1997
L 2069 1856
Q 2541 1709 2748 1489
Q 2956 1269 2956 922
Q 2956 450 2595 179
Q 2234 -91 1600 -91
Q 1278 -91 972 -22
Q 666 47 359 184
z
" id="DejaVuSerif-73" transform="scale(0.015625)"/>
       <path d="M 1313 1825
L 1313 1497
Q 1313 897 1542 583
Q 1772 269 2209 269
Q 2650 269 2876 622
Q 3103 975 3103 1663
Q 3103 2353 2876 2703
Q 2650 3053 2209 3053
Q 1772 3053 1542 2737
Q 1313 2422 1313 1825
z
M 738 2988
L 184 2988
L 184 3322
L 1313 3322
L 1313 2803
Q 1481 3116 1742 3264
Q 2003 3413 2388 3413
Q 3000 3413 3387 2928
Q 3775 2444 3775 1663
Q 3775 881 3387 395
Q 3000 -91 2388 -91
Q 2003 -91 1742 57
Q 1481 206 1313 519
L 1313 -997
L 1856 -997
L 1856 -1331
L 184 -1331
L 184 -997
L 738 -997
L 738 2988
z
" id="DejaVuSerif-70" transform="scale(0.015625)"/>
       <path d="M 1925 219
Q 2388 219 2623 584
Q 2859 950 2859 1663
Q 2859 2375 2623 2739
Q 2388 3103 1925 3103
Q 1463 3103 1227 2739
Q 991 2375 991 1663
Q 991 950 1228 584
Q 1466 219 1925 219
z
M 1925 -91
Q 1200 -91 759 389
Q 319 869 319 1663
Q 319 2456 758 2934
Q 1197 3413 1925 3413
Q 2653 3413 3092 2934
Q 3531 2456 3531 1663
Q 3531 869 3092 389
Q 2653 -91 1925 -91
z
" id="DejaVuSerif-6f" transform="scale(0.015625)"/>
       <path d="M 1281 1691
L 2994 1691
L 2138 3909
L 1281 1691
z
M -38 0
L -38 331
L 372 331
L 2034 4666
L 2559 4666
L 4225 331
L 4684 331
L 4684 0
L 2988 0
L 2988 331
L 3506 331
L 3116 1356
L 1153 1356
L 763 331
L 1275 331
L 1275 0
L -38 0
z
" id="DejaVuSerif-41" transform="scale(0.015625)"/>
      </defs>
      <use xlink:href="#DejaVuSerif-74"/>
      <use x="40.185547" xlink:href="#DejaVuSerif-72"/>
      <use x="87.988281" xlink:href="#DejaVuSerif-61"/>
      <use x="147.607422" xlink:href="#DejaVuSerif-6e"/>
      <use x="212.011719" xlink:href="#DejaVuSerif-73"/>
      <use x="263.330078" xlink:href="#DejaVuSerif-70"/>
      <use x="327.34375" xlink:href="#DejaVuSerif-6f"/>
      <use x="387.548828" xlink:href="#DejaVuSerif-72"/>
      <use x="435.351562" xlink:href="#DejaVuSerif-74"/>
      <use x="475.537109" xlink:href="#DejaVuSerif-20"/>
      <use x="507.324219" xlink:href="#DejaVuSerif-5b"/>
      <use x="546.337891" xlink:href="#DejaVuSerif-41"/>
      <use x="618.554688" xlink:href="#DejaVuSerif-5d"/>
     </g>
    </g>
   </g>
   <g id="line2d_16">
    <path clip-path="url(#pe62668ca6e)" d="M 59.474756 235.450639
L 70.823878 235.025335
L 82.172999 233.575411
L 93.522121 229.69094
L 104.871242 221.191326
L 116.220364 206.008674
L 127.569485 183.775938
L 138.918607 156.812598
L 150.267728 129.258824
L 161.61685 104.919246
L 172.965971 85.702395
L 184.315093 71.626355
L 195.664214 61.729343
L 207.013336 54.888407
L 218.362457 50.191654
L 229.711578 46.982929
L 241.0607 44.77857
L 252.409821 43.192107
L 263.758943 41.914677
L 275.108064 40.72602
L 286.457186 39.507678
L 297.806307 38.244647
L 309.155429 37.007418
L 320.50455 35.907275
L 331.853672 35.035568
L 343.202793 34.419986
L 354.551915 34.022389
L 365.901036 33.770638
L 377.250158 33.597637
L 388.599279 33.465385
L 399.9484 33.36555
L 411.297522 33.303293
L 422.646643 33.279853
L 433.995765 33.283982
L 445.344886 33.294725
" style="fill:none;stroke:#cc3311;stroke-linecap:square;stroke-width:0.6;"/>
   </g>
   <g id="patch_3">
    <path d="M 40.18125 247.318125
L 40.18125 22.318125
" style="fill:none;stroke:#808080;stroke-linecap:square;stroke-linejoin:miter;stroke-width:0.8;"/>
   </g>
   <g id="patch_4">
    <path d="M 464.638393 247.318125
L 464.638393 22.318125
" style="fill:none;stroke:#808080;stroke-linecap:square;stroke-linejoin:miter;stroke-width:0.8;"/>
   </g>
   <g id="patch_5">
    <path d="M 40.18125 247.318125
L 464.638393 247.318125
" style="fill:none;stroke:#808080;stroke-linecap:square;stroke-linejoin:miter;stroke-width:0.8;"/>
   </g>
   <g id="patch_6">
    <path d="M 40.18125 22.318125
L 464.638393 22.318125
" style="fill:none;stroke:#808080;stroke-linecap:square;stroke-linejoin:miter;stroke-width:0.8;"/>
   </g>
   <g id="patch_7">
    <path d="M 191.919866 87.010908
Q 193.484201 74.395883 194.910947 62.890394
" style="fill:none;stroke:#808080;stroke-linecap:round;"/>
    <path d="M 192.433897 66.613863
L 194.910947 62.890394
L 196.403492 67.106116
" style="fill:none;stroke:#808080;stroke-linecap:round;"/>
   </g>
   <g id="text_17">
    <g id="patch_8">
     <path d="M 186.943902 100.815938
L 195.664214 100.815938
Q 199.664214 100.815938 199.664214 96.815938
L 199.664214 87.137813
Q 199.664214 83.137813 195.664214 83.137813
L 186.943902 83.137813
Q 182.943902 83.137813 182.943902 87.137813
L 182.943902 96.815938
Q 182.943902 100.815938 186.943902 100.815938
z
" style="fill:#ffffff;stroke:#808080;stroke-linejoin:miter;stroke-width:0.8;"/>
    </g>
    <!-- H -->
    <g transform="translate(186.943902 94.736251)scale(0.1 -0.1)">
     <defs>
      <path d="M 353 0
L 353 331
L 947 331
L 947 4331
L 353 4331
L 353 4666
L 2175 4666
L 2175 4331
L 1581 4331
L 1581 2719
L 4000 2719
L 4000 4331
L 3406 4331
L 3406 4666
L 5228 4666
L 5228 4331
L 4634 4331
L 4634 331
L 5228 331
L 5228 0
L 3406 0
L 3406 331
L 4000 331
L 4000 2338
L 1581 2338
L 1581 331
L 2175 331
L 2175 0
L 353 0
z
" id="DejaVuSerif-48" transform="scale(0.015625)"/>
     </defs>
     <use xlink:href="#DejaVuSerif-48"/>
    </g>
   </g>
   <g id="patch_9">
    <path d="M 102.213614 215.536163
Q 103.211198 222.999028 104.060648 229.353717
" style="fill:none;stroke:#808080;stroke-linecap:round;"/>
    <path d="M 105.513038 225.123993
L 104.060648 229.353717
L 101.548303 225.653971
" style="fill:none;stroke:#808080;stroke-linecap:round;"/>
   </g>
   <g id="text_18">
    <g id="patch_10">
     <path d="M 98.230617 219.417722
L 104.871242 219.417722
Q 108.871242 219.417722 108.871242 215.417722
L 108.871242 205.739597
Q 108.871242 201.739597 104.871242 201.739597
L 98.230617 201.739597
Q 94.230617 201.739597 94.230617 205.739597
L 94.230617 215.417722
Q 94.230617 219.417722 98.230617 219.417722
z
" style="fill:#ffffff;stroke:#808080;stroke-linejoin:miter;stroke-width:0.8;"/>
    </g>
    <!-- L -->
    <g transform="translate(98.230617 213.338034)scale(0.1 -0.1)">
     <use xlink:href="#DejaVuSerif-4c"/>
    </g>
   </g>
   <g id="patch_11">
    <path d="M 136.249098 125.944627
Q 137.251141 133.407492 138.104401 139.762268
" style="fill:none;stroke:#808080;stroke-linecap:round;"/>
    <path d="M 139.554307 135.531692
L 138.104401 139.762268
L 135.589884 136.063998
" style="fill:none;stroke:#808080;stroke-linecap:round;"/>
   </g>
   <g id="text_19">
    <g id="patch_12">
     <path d="M 132.248294 129.826186
L 138.918607 129.826186
Q 142.918607 129.826186 142.918607 125.826186
L 142.918607 116.148061
Q 142.918607 112.148061 138.918607 112.148061
L 132.248294 112.148061
Q 128.248294 112.148061 128.248294 116.148061
L 128.248294 125.826186
Q 128.248294 129.826186 132.248294 129.826186
z
" style="fill:#ffffff;stroke:#808080;stroke-linejoin:miter;stroke-width:0.8;"/>
    </g>
    <!-- T -->
    <g transform="translate(132.248294 123.746499)scale(0.1 -0.1)">
     <defs>
      <path d="M 1222 0
L 1222 331
L 1819 331
L 1819 4294
L 447 4294
L 447 3566
L 63 3566
L 63 4666
L 4206 4666
L 4206 3566
L 3822 3566
L 3822 4294
L 2450 4294
L 2450 331
L 3047 331
L 3047 0
L 1222 0
z
" id="DejaVuSerif-54" transform="scale(0.015625)"/>
     </defs>
     <use xlink:href="#DejaVuSerif-54"/>
    </g>
   </g>
   <g id="text_20">
    <!-- Pinchoff fit aaaaaaaa-0000-0000-0000-016c59f8305c -->
    <g transform="translate(91.106384 16.318125)scale(0.12 -0.12)">
     <defs>
      <path d="M 1581 2375
L 2406 2375
Q 2872 2375 3115 2626
Q 3359 2878 3359 3353
Q 3359 3831 3115 4081
Q 2872 4331 2406 4331
L 1581 4331
L 1581 2375
z
M 353 0
L 353 331
L 947 331
L 947 4331
L 353 4331
L 353 4666
L 2559 4666
Q 3259 4666 3668 4311
Q 4078 3956 4078 3353
Q 4078 2753 3668 2397
Q 3259 2041 2559 2041
L 1581 2041
L 1581 331
L 2303 331
L 2303 0
L 353 0
z
" id="DejaVuSerif-50" transform="scale(0.015625)"/>
      <path d="M 622 4353
Q 622 4497 726 4603
Q 831 4709 978 4709
Q 1122 4709 1226 4603
Q 1331 4497 1331 4353
Q 1331 4206 1228 4103
Q 1125 4000 978 4000
Q 831 4000 726 4103
Q 622 4206 622 4353
z
M 1356 331
L 1900 331
L 1900 0
L 231 0
L 231 331
L 781 331
L 781 2988
L 231 2988
L 231 3322
L 1356 3322
L 1356 331
z
" id="DejaVuSerif-69" transform="scale(0.015625)"/>
      <path d="M 3291 997
Q 3169 466 2822 187
Q 2475 -91 1925 -91
Q 1200 -91 759 389
Q 319 869 319 1663
Q 319 2459 759 2936
Q 1200 3413 1925 3413
Q 2241 3413 2553 3339
Q 2866 3266 3181 3116
L 3181 2266
L 2847 2266
Q 2781 2703 2561 2903
Q 2341 3103 1931 3103
Q 1466 3103 1228 2742
Q 991 2381 991 1663
Q 991 944 1227 581
Q 1463 219 1931 219
Q 2303 219 2525 412
Q 2747 606 2828 997
L 3291 997
z
" id="DejaVuSerif-63" transform="scale(0.015625)"/>
      <path d="M 263 0
L 263 331
L 781 331
L 781 4531
L 231 4531
L 231 4863
L 1356 4863
L 1356 2731
Q 1516 3069 1770 3241
Q 2025 3413 2363 3413
Q 2913 3413 3172 3097
Q 3431 2781 3431 2113
L 3431 331
L 3944 331
L 3944 0
L 2356 0
L 2356 331
L 2853 331
L 2853 1931
Q 2853 2541 2704 2764
Q 2556 2988 2175 2988
Q 1775 2988 1565 2697
Q 1356 2406 1356 1850
L 1356 331
L 1856 331
L 1856 0
L 263 0
z
" id="DejaVuSerif-68" transform="scale(0.015625)"/>
      <path d="M 281 1959
L 1881 1959
L 1881 1472
L 281 1472
L 281 1959
z
" id="DejaVuSerif-2d" transform="scale(0.015625)"/>
      <path d="M 2994 2091
Q 2784 1856 2512 1740
Q 2241 1625 1900 1625
Q 1206 1625 804 2044
Q 403 2463 403 3188
Q 403 3897 839 4323
Q 1275 4750 2003 4750
Q 2794 4750 3217 4161
Q 3641 3572 3641 2478
Q 3641 1253 3137 581
Q 2634 -91 1722 -91
Q 1475 -91 1203 -44
Q 931 3 647 97
L 647 872
L 997 872
Q 1038 556 1241 387
Q 1444 219 1784 219
Q 2391 219 2687 676
Q 2984 1134 2994 2091
z
M 1978 4441
Q 1534 4441 1298 4117
Q 1063 3794 1063 3188
Q 1063 2581 1298 2256
Q 1534 1931 1978 1931
Q 2422 1931 2658 2245
Q 2894 2559 2894 3150
Q 2894 3772 2656 4106
Q 2419 4441 1978 4441
z
" id="DejaVuSerif-39" transform="scale(0.015625)"/>
     </defs>
     <use xlink:href="#DejaVuSerif-50"/>
     <use x="67.285156" xlink:href="#DejaVuSerif-69"/>
     <use x="99.267578" xlink:href="#DejaVuSerif-6e"/>
     <use x="163.671875" xlink:href="#DejaVuSerif-63"/>
     <use x="219.677734" xlink:href="#DejaVuSerif-68"/>
     <use x="284.082031" xlink:href="#DejaVuSerif-6f"/>
     <use x="344.287109" xlink:href="#DejaVuSerif-66"/>
     <use x="381.298828" xlink:href="#DejaVuSerif-66"/>
     <use x="418.310547" xlink:href="#DejaVuSerif-20"/>
     <use x="450.097656" xlink:href="#DejaVuSerif-66"/>
     <use x="487.109375" xlink:href="#DejaVuSerif-69"/>
     <use x="519.091797" xlink:href="#DejaVuSerif-74"/>
     <use x="559.277344" xlink:href="#DejaVuSerif-20"/>
     <use x="591.064453" xlink:href="#DejaVuSerif-61"/>
     <use x="650.683594" xlink:href="#DejaVuSerif-61"/>
     <use x="710.302734" xlink:href="#DejaVuSerif-61"/>
     <use x="769.921875" xlink:href="#DejaVuSerif-61"/>
     <use x="829.541016" xlink:href="#DejaVuSerif-61"/>
     <use x="889.160156" xlink:href="#DejaVuSerif-61"/>
     <use x="948.779297" xlink:href="#DejaVuSerif-61"/>
     <use x="1008.398438" xlink:href="#DejaVuSerif-61"/>
     <use x="1068.017578" xlink:href="#DejaVuSerif-2d"/>
     <use x="1101.806641" xlink:href="#DejaVuSerif-30"/>
     <use x="1165.429688" xlink:href="#DejaVuSerif-30"/>
     <use x="1229.052734" xlink:href="#DejaVuSerif-30"/>
     <use x="1292.675781" xlink:href="#DejaVuSerif-30"/>
     <use x="1356.298828" xlink:href="#DejaVuSerif-2d"/>
     <use x="1390.087891" xlink:href="#DejaVuSerif-30"/>
     <use x="1453.710938" xlink:href="#DejaVuSerif-30"/>
     <use x="1517.333984" xlink:href="#DejaVuSerif-30"/>
     <use x="1580.957031" xlink:href="#DejaVuSerif-30"/>
     <use x="1644.580078" xlink:href="#DejaVuSerif-2d"/>
     <use x="1678.369141" xlink:href="#DejaVuSerif-30"/>
     <use x="1741.992188" xlink:href="#DejaVuSerif-30"/>
     <use x="1805.615234" xlink:href="#DejaVuSerif-30"/>
     <use x="1869.238281" xlink:href="#DejaVuSerif-30"/>
     <use x="1932.861328" xlink:href="#DejaVuSerif-2d"/>
     <use x="1966.650391" xlink:href="#DejaVuSerif-30"/>
     <use x="2030.273438" xlink:href="#DejaVuSerif-31"/>
     <use x="2093.896484" xlink:href="#DejaVuSerif-36"/>
     <use x="2157.519531" xlink:href="#DejaVuSerif-63"/>
     <use x="2213.525391" xlink:href="#DejaVuSerif-35"/>
     <use x="2277.148438" xlink:href="#DejaVuSerif-39"/>
     <use x="2340.771484" xlink:href="#DejaVuSerif-66"/>
     <use x="2377.783203" xlink:href="#DejaVuSerif-38"/>
     <use x="2441.40625" xlink:href="#DejaVuSerif-33"/>
     <use x="2505.029297" xlink:href="#DejaVuSerif-30"/>
     <use x="2568.652344" xlink:href="#DejaVuSerif-35"/>
     <use x="2632.275391" xlink:href="#DejaVuSerif-63"/>
    </g>
   </g>
   <g id="line2d_17">
    <path clip-path="url(#pe62668ca6e)" d="M 59.474756 233.220796
L 70.823878 231.354495
L 82.172999 228.226787
L 93.522121 223.077312
L 104.871242 214.841978
L 116.220364 202.264568
L 127.569485 184.34599
L 138.918607 161.193195
L 150.267728 134.77854
L 161.61685 108.601203
L 172.965971 86.04023
L 184.315093 68.820232
L 195.664214 56.856296
L 207.013336 49.076959
L 218.362457 44.234266
L 229.711578 41.30098
L 241.0607 39.553592
L 252.409821 38.522967
L 263.758943 37.91866
L 275.108064 37.565546
L 286.457186 37.359629
L 297.806307 37.239689
L 309.155429 37.169877
L 320.50455 37.129258
L 331.853672 37.10563
L 343.202793 37.091888
L 354.551915 37.083896
L 365.901036 37.079248
L 377.250158 37.076545
L 388.599279 37.074974
L 399.9484 37.07406
L 411.297522 37.073528
L 422.646643 37.073219
L 433.995765 37.073039
L 445.344886 37.072935
" style="fill:none;stroke:#ee7733;stroke-linecap:square;stroke-width:0.6;"/>
   </g>
   <g id="legend_1">
    <g id="patch_13">
     <path d="M 382.516518 219.818125
L 457.638393 219.818125
Q 459.638393 219.818125 459.638393 217.818125
L 459.638393 159.82125
Q 459.638393 157.82125 457.638393 157.82125
L 382.516518 157.82125
Q 380.516518 157.82125 380.516518 159.82125
L 380.516518 217.818125
Q 380.516518 219.818125 382.516518 219.818125
z
" style="fill:#ffffff;opacity:0.8;stroke:#cccccc;stroke-linejoin:miter;"/>
    </g>
    <g id="line2d_18">
     <path d="M 384.516518 165.919688
L 404.516518 165.919688
" style="fill:none;stroke:#336699;stroke-linecap:square;stroke-width:0.6;"/>
    </g>
    <g id="line2d_19"/>
    <g id="text_21">
     <!-- signal -->
     <g transform="translate(412.516518 169.419688)scale(0.1 -0.1)">
      <defs>
       <path d="M 3359 2988
L 3359 72
Q 3359 -644 2965 -1033
Q 2572 -1422 1844 -1422
Q 1516 -1422 1216 -1362
Q 916 -1303 641 -1184
L 641 -488
L 941 -488
Q 997 -813 1206 -963
Q 1416 -1113 1806 -1113
Q 2313 -1113 2548 -827
Q 2784 -541 2784 72
L 2784 519
Q 2616 206 2355 57
Q 2094 -91 1709 -91
Q 1097 -91 708 395
Q 319 881 319 1663
Q 319 2444 706 2928
Q 1094 3413 1709 3413
Q 2094 3413 2355 3264
Q 2616 3116 2784 2803
L 2784 3322
L 3909 3322
L 3909 2988
L 3359 2988
z
M 2784 1825
Q 2784 2422 2554 2737
Q 2325 3053 1888 3053
Q 1444 3053 1217 2703
Q 991 2353 991 1663
Q 991 975 1217 622
Q 1444 269 1888 269
Q 2325 269 2554 583
Q 2784 897 2784 1497
L 2784 1825
z
" id="DejaVuSerif-67" transform="scale(0.015625)"/>
       <path d="M 1313 331
L 1856 331
L 1856 0
L 184 0
L 184 331
L 738 331
L 738 4531
L 184 4531
L 184 4863
L 1313 4863
L 1313 331
z
" id="DejaVuSerif-6c" transform="scale(0.015625)"/>
      </defs>
      <use xlink:href="#DejaVuSerif-73"/>
      <use x="51.318359" xlink:href="#DejaVuSerif-69"/>
      <use x="83.300781" xlink:href="#DejaVuSerif-67"/>
      <use x="147.314453" xlink:href="#DejaVuSerif-6e"/>
      <use x="211.71875" xlink:href="#DejaVuSerif-61"/>
      <use x="271.337891" xlink:href="#DejaVuSerif-6c"/>
     </g>
    </g>
    <g id="line2d_20">
     <path d="M 384.516518 180.74
L 404.516518 180.74
" style="fill:none;stroke:#cc3311;stroke-linecap:square;stroke-width:0.6;"/>
    </g>
    <g id="line2d_21"/>
    <g id="text_22">
     <!-- smooth -->
     <g transform="translate(412.516518 184.24)scale(0.1 -0.1)">
      <defs>
       <path d="M 3316 2675
Q 3481 3041 3739 3227
Q 3997 3413 4341 3413
Q 4863 3413 5119 3089
Q 5375 2766 5375 2113
L 5375 331
L 5894 331
L 5894 0
L 4300 0
L 4300 331
L 4800 331
L 4800 2047
Q 4800 2556 4650 2772
Q 4500 2988 4153 2988
Q 3769 2988 3567 2697
Q 3366 2406 3366 1850
L 3366 331
L 3866 331
L 3866 0
L 2291 0
L 2291 331
L 2791 331
L 2791 2069
Q 2791 2566 2641 2777
Q 2491 2988 2144 2988
Q 1759 2988 1557 2697
Q 1356 2406 1356 1850
L 1356 331
L 1856 331
L 1856 0
L 263 0
L 263 331
L 781 331
L 781 2994
L 231 2994
L 231 3322
L 1356 3322
L 1356 2731
Q 1516 3063 1762 3238
Q 2009 3413 2322 3413
Q 2709 3413 2968 3220
Q 3228 3028 3316 2675
z
" id="DejaVuSerif-6d" transform="scale(0.015625)"/>
      </defs>
      <use xlink:href="#DejaVuSerif-73"/>
      <use x="51.318359" xlink:href="#DejaVuSerif-6d"/>
      <use x="146.142578" xlink:href="#DejaVuSerif-6f"/>
      <use x="206.347656" xlink:href="#DejaVuSerif-6f"/>
      <use x="266.552734" xlink:href="#DejaVuSerif-74"/>
      <use x="306.738281" xlink:href="#DejaVuSerif-68"/>
     </g>
    </g>
    <g id="line2d_22">
     <path d="M 384.516518 195.418125
L 404.516518 195.418125
" style="fill:none;stroke:#33bbee;stroke-linecap:square;stroke-width:0.6;"/>
    </g>
    <g id="line2d_23"/>
    <g id="text_23">
     <!-- gradient -->
     <g transform="translate(412.516518 198.918125)scale(0.1 -0.1)">
      <defs>
       <path d="M 3359 331
L 3909 331
L 3909 0
L 2784 0
L 2784 519
Q 2616 206 2355 57
Q 2094 -91 1709 -91
Q 1097 -91 708 395
Q 319 881 319 1663
Q 319 2444 706 2928
Q 1094 3413 1709 3413
Q 2094 3413 2355 3264
Q 2616 3116 2784 2803
L 2784 4531
L 2241 4531
L 2241 4863
L 3359 4863
L 3359 331
z
M 2784 1497
L 2784 1825
Q 2784 2422 2554 2737
Q 2325 3053 1888 3053
Q 1444 3053 1217 2703
Q 991 2353 991 1663
Q 991 975 1217 622
Q 1444 269 1888 269
Q 2325 269 2554 583
Q 2784 897 2784 1497
z
" id="DejaVuSerif-64" transform="scale(0.015625)"/>
      </defs>
      <use xlink:href="#DejaVuSerif-67"/>
      <use x="64.013672" xlink:href="#DejaVuSerif-72"/>
      <use x="111.816406" xlink:href="#DejaVuSerif-61"/>
      <use x="171.435547" xlink:href="#DejaVuSerif-64"/>
      <use x="235.449219" xlink:href="#DejaVuSerif-69"/>
      <use x="267.431641" xlink:href="#DejaVuSerif-65"/>
      <use x="326.611328" xlink:href="#DejaVuSerif-6e"/>
      <use x="391.015625" xlink:href="#DejaVuSerif-74"/>
     </g>
    </g>
    <g id="line2d_24">
     <path d="M 384.516518 210.238438
L 404.516518 210.238438
" style="fill:none;stroke:#ee7733;stroke-linecap:square;stroke-width:0.6;"/>
    </g>
    <g id="line2d_25"/>
    <g id="text_24">
     <!-- fit -->
     <g transform="translate(412.516518 213.738438)scale(0.1 -0.1)">
      <use xlink:href="#DejaVuSerif-66"/>
      <use x="37.011719" xlink:href="#DejaVuSerif-69"/>
      <use x="68.994141" xlink:href="#DejaVuSerif-74"/>
     </g>
    </g>
   </g>
   <g id="line2d_26">
    <path clip-path="url(#pe62668ca6e)" d="M 59.474756 235.754179
L 70.823878 235.51551
L 82.172999 235.470583
L 93.522121 235.554274
L 104.871242 235.417722
L 116.220364 233.265085
L 127.569485 209.810527
L 138.918607 145.826186
L 150.267728 113.221915
L 161.61685 92.470125
L 172.965971 73.929206
L 184.315093 63.591119
L 195.664214 56.815938
L 207.013336 51.446108
L 218.362457 47.133631
L 229.711578 45.173623
L 241.0607 43.675682
L 252.409821 42.721338
L 263.758943 42.153725
L 275.108064 40.803511
L 286.457186 39.960197
L 297.806307 38.407235
L 309.155429 36.589804
L 320.50455 35.203122
L 331.853672 34.2035
L 343.202793 34.084242
L 354.551915 33.675201
L 365.901036 33.683355
L 377.250158 33.812665
L 388.599279 33.245962
L 399.9484 33.280531
L 411.297522 33.256923
L 422.646643 33.150756
L 433.995765 33.177501
L 445.344886 33.46643
" style="fill:none;stroke:#336699;stroke-linecap:square;stroke-width:0.6;"/>
   </g>
  </g>
  <g id="axes_2">
   <g id="patch_14">
    <path d="M 468.958393 247.318125
L 490.18125 247.318125
L 490.18125 22.318125
L 468.958393 22.318125
z
" style="fill:none;"/>
   </g>
   <g id="matplotlib.axis_3"/>
   <g id="matplotlib.axis_4"/>
   <g id="patch_15">
    <path d="M 468.958393 247.318125
L 468.958393 22.318125
" style="fill:none;"/>
   </g>
   <g id="patch_16">
    <path d="M 490.18125 247.318125
L 490.18125 22.318125
" style="fill:none;"/>
   </g>
   <g id="patch_17">
    <path d="M 468.958393 247.318125
L 490.18125 247.318125
" style="fill:none;"/>
   </g>
   <g id="patch_18">
    <path d="M 468.958393 22.318125
L 490.18125 22.318125
" style="fill:none;"/>
   </g>
  </g>
 </g>
 <defs>
  <clipPath id="pe62668ca6e">
   <rect height="225" width="424.457143" x="40.18125" y="22.318125"/>
  </clipPath>
 </defs>
</svg>
