<svg id="Layer_1" data-name="Layer 1" xmlns="http://www.w3.org/2000/svg" xmlns:xlink="http://www.w3.org/1999/xlink" viewBox="0 0 246.61 172.91"><defs><style>.cls-1,.cls-3,.cls-5,.cls-57{fill:none;}.cls-2{fill:#197fb0;}.cls-2,.cls-3,.cls-4,.cls-5,.cls-57{stroke:#231f20;stroke-miterlimit:10;}.cls-4{fill:#d1d3d4;}.cls-5{stroke-width:3px;}.cls-56,.cls-6,.cls-7,.cls-8{font-size:17px;font-family:CMUSerif-Roman, CMU Serif;}.cls-56,.cls-58,.cls-6,.cls-7,.cls-8{fill:#231f20;}.cls-7{letter-spacing:0em;}.cls-8{letter-spacing:0em;}.cls-9{isolation:isolate;}.cls-10{clip-path:url(#clip-path);}.cls-11{fill:#007986;}.cls-12{fill:#007783;}.cls-13{fill:#007480;}.cls-14{fill:#00717d;}.cls-15{fill:#006f7a;}.cls-16{fill:#006c77;}.cls-17{fill:#006a74;}.cls-18{fill:#006771;}.cls-19{fill:#007c88;}.cls-20{fill:#007f8b;}.cls-21{fill:#00818e;}.cls-22{fill:#008491;}.cls-23{fill:#008794;}.cls-24{fill:#008997;}.cls-25{fill:#008c99;}.cls-26{fill:#008e9c;}.cls-27{fill:#00919f;}.cls-28{fill:#0093a2;}.cls-29{fill:#0095a4;}.cls-30{fill:#0098a7;}.cls-31{fill:#009aaa;}.cls-32{fill:#009dac;}.cls-33{fill:#009faf;}.cls-34{fill:#00a2b2;}.cls-35{fill:#00a5b5;}.cls-36{fill:#00acbc;}.cls-37{fill:#00b0bf;}.cls-38{fill:#1ab2c1;}.cls-39{fill:#31b4c3;}.cls-40{fill:#3fb7c5;}.cls-41{fill:#49b8c7;}.cls-42{fill:#52bac8;}.cls-43{fill:#59bcc9;}.cls-44{fill:#5fbdcb;}.cls-45{fill:#65bfcc;}.cls-46{fill:#6ac0cd;}.cls-47{fill:#6fc2ce;}.cls-48{fill:#73c3cf;}.cls-49{fill:#78c4d0;}.cls-50{fill:#7cc6d1;}.cls-51{fill:#80c7d2;}.cls-52{fill:#83c8d3;}.cls-53{fill:#87c9d4;}.cls-54{fill:#8acbd5;}.cls-55{clip-path:url(#clip-path-2);}.cls-56{letter-spacing:0em;}.cls-57{stroke-width:2px;}</style><clipPath id="clip-path"><path class="cls-1" d="M39.08,71.37a3.48,3.48,0,0,0,2.21.41,3.48,3.48,0,0,1-2.21-.41,4.58,4.58,0,0,1-1.81-1.89A4.51,4.51,0,0,1,38,64.37a4.36,4.36,0,0,1,2.21-1.29,4.5,4.5,0,1,1-1.15,8.29Z"/></clipPath><clipPath id="clip-path-2"><path class="cls-1" d="M41.89,71.91a4.49,4.49,0,0,1-2.81-.54A3.79,3.79,0,0,1,37.25,68a5,5,0,0,1,4-4.87,5,5,0,0,0-4,4.87,3.79,3.79,0,0,0,1.83,3.37A4.27,4.27,0,0,1,38,70.48a5.08,5.08,0,0,1-.67-1,4.5,4.5,0,1,1,7.93.14A4.44,4.44,0,0,1,41.89,71.91Z"/></clipPath></defs><rect class="cls-2" x="1.81" y="72.96" width="54" height="72"/><rect class="cls-2" x="190.7" y="83.06" width="54" height="72"/><line class="cls-3" x1="55.81" y1="0.96" x2="55.81" y2="81.96"/><line class="cls-3" x1="190.7" y1="10.85" x2="190.7" y2="92.06"/><line class="cls-3" x1="181.81" y1="10.85" x2="190.81" y2="10.85"/><line class="cls-3" x1="64.81" y1="0.96" x2="64.81" y2="171.96"/><line class="cls-3" x1="181.81" y1="11.06" x2="181.81" y2="171.96"/><line class="cls-3" x1="64.81" y1="72.96" x2="118.81" y2="72.96"/><line class="cls-3" x1="64.81" y1="108.96" x2="118.81" y2="108.96"/><rect class="cls-4" x="64.81" y="108.96" width="54" height="63"/><line class="cls-5" x1="1.81" y1="72.96" x2="55.81" y2="72.96"/><line class="cls-5" x1="190.7" y1="83.06" x2="244.7" y2="83.06"/><text class="cls-6" transform="translate(10.81 63.96)">ε</text><text class="cls-6" transform="translate(18.12 69.62) scale(0.58)">S</text><text class="cls-6" transform="translate(23.62 63.96)"> </text><text class="cls-6" transform="translate(217.7 74.06)">ε</text><text class="cls-7" transform="translate(225.01 79.72) scale(0.58)">D</text><text class="cls-8" transform="translate(232.57 74.06)"> </text><text class="cls-6" transform="translate(81.81 62.96)">ε</text><text class="cls-6" transform="translate(89.12 68.62) scale(0.58)">N+1</text><text class="cls-6" transform="translate(81.81 98.96)">ε</text><text class="cls-6" transform="translate(89.12 104.62) scale(0.58)">N</text><text class="cls-6" transform="translate(96.55 98.96)"> </text><g class="cls-9"><g class="cls-9"><g class="cls-10"><g class="cls-9"><path class="cls-11" d="M39.08,71.37a4.5,4.5,0,1,0-1.89-5.77,4.5,4.5,0,0,0,1.89,5.77,3.48,3.48,0,0,0,2.21.41,3.48,3.48,0,0,1-2.21-.41"/><path class="cls-11" d="M41.29,71.78c-4.1.1-5.47-4.34-3.49-6.23s6.06.29,5.91,3.38a3,3,0,0,1-2.42,2.85,3.48,3.48,0,0,1-2.21-.41l.23.12.34.15.19.07.23.07.15,0,.16,0,.13,0,.13,0h.72a1.51,1.51,0,0,0,.3,0h.12l.11,0,.15,0a4.38,4.38,0,0,0,.91-.25l.23-.1a3.64,3.64,0,0,0,.51-.28l.25-.17.36-.29.23-.22.28-.32L45,70c.06-.1.15-.23.21-.34l.16-.3c0-.11.11-.26.15-.37l.1-.33c0-.12.07-.27.09-.38l.05-.36c0-.14,0-.31,0-.45l0-.37c0-.11,0-.27-.05-.39l-.07-.35c0-.11-.07-.26-.11-.37l-.13-.33c-.05-.1-.11-.24-.17-.34l-.17-.3-.23-.32-.22-.25a3.83,3.83,0,0,0-.28-.29l-.24-.21a4.13,4.13,0,0,0-.6-.4l-.23-.12-.34-.16-.19-.07-.23-.07-.15,0-.16,0-.13,0L42,63l-.11,0H40.69l-.14,0a4.81,4.81,0,0,0-1,.28l-.24.1c-.3.16-.31.17-.49.28l-.25.17-.36.3-.23.23-.27.31-.2.27c-.06.11-.15.24-.2.34l-.16.31-.14.37-.11.33c0,.12-.06.27-.08.39l0,.36c0,.12,0,.28,0,.4l0,.36c0,.2.06.45.1.64l.09.35.13.36.14.32.19.33.19.29.25.31.22.24c.1.08.22.2.31.28l.25.18c.12.08.27.19.4.26a3.48,3.48,0,0,0,2.21.41"/><path class="cls-12" d="M39.78,71.67c-3.5-1.29-3.79-5.53-1.22-6.75s6.17,2,5.16,4.89a3,3,0,0,1-3.94,1.86,4,4,0,0,1-.7-.3l.23.12.34.15.19.07.23.07.15,0,.16,0,.13,0,.13,0h.72a1.51,1.51,0,0,0,.3,0h.12l.11,0,.15,0a4.38,4.38,0,0,0,.91-.25l.23-.1a3.64,3.64,0,0,0,.51-.28l.25-.17.36-.29.23-.22.28-.32L45,70c.06-.1.15-.23.21-.34l.16-.3c0-.11.11-.26.15-.37l.1-.33c0-.12.07-.27.09-.38l.05-.36c0-.14,0-.31,0-.45l0-.37c0-.11,0-.27-.05-.39l-.07-.35c0-.11-.07-.26-.11-.37l-.13-.33c-.05-.1-.11-.24-.17-.34l-.17-.3-.23-.32-.22-.25a3.83,3.83,0,0,0-.28-.29l-.24-.21a4.13,4.13,0,0,0-.6-.4l-.23-.12-.34-.16-.19-.07-.23-.07-.15,0-.16,0-.13,0L42,63l-.11,0H40.69l-.14,0a4.81,4.81,0,0,0-1,.28l-.24.1c-.3.16-.31.17-.49.28l-.25.17-.36.3-.23.23-.27.31-.2.27c-.06.11-.15.24-.2.34l-.16.31-.14.37-.11.33c0,.12-.06.27-.08.39l0,.36c0,.12,0,.28,0,.4l0,.36c0,.2.06.45.1.64l.09.35.13.36.14.32.19.33.19.29.25.31.22.24c.1.08.22.2.31.28l.25.18c.12.08.27.19.4.26a4,4,0,0,0,.7.3"/><path class="cls-13" d="M37,68.74c-.87-3.12,2-5.29,4.88-3.69s2.93,5.91,0,6.72a3.61,3.61,0,0,1-2.7-.36l-.07,0,.23.12.34.15.19.07.23.07.15,0,.16,0,.13,0,.13,0h.72a1.51,1.51,0,0,0,.3,0h.12l.11,0,.15,0a4.38,4.38,0,0,0,.91-.25l.23-.1a3.64,3.64,0,0,0,.51-.28l.25-.17.36-.29.23-.22.28-.32L45,70c.06-.1.15-.23.21-.34l.16-.3c0-.11.11-.26.15-.37l.1-.33c0-.12.07-.27.09-.38l.05-.36c0-.14,0-.31,0-.45l0-.37c0-.11,0-.27-.05-.39l-.07-.35c0-.11-.07-.26-.11-.37l-.13-.33c-.05-.1-.11-.24-.17-.34l-.17-.3-.23-.32-.22-.25a3.83,3.83,0,0,0-.28-.29l-.24-.21a4.13,4.13,0,0,0-.6-.4l-.23-.12-.34-.16-.19-.07-.23-.07-.15,0-.16,0-.13,0L42,63l-.11,0H40.69l-.14,0a4.81,4.81,0,0,0-1,.28l-.24.1c-.3.16-.31.17-.49.28l-.25.17-.36.3-.23.23-.27.31-.2.27c-.06.11-.15.24-.2.34l-.16.31-.14.37-.11.33c0,.12-.06.27-.08.39l0,.36c0,.12,0,.28,0,.4l0,.36c0,.2.06.45.1.64l.09.35.09.28L37,68.75h0"/><path class="cls-13" d="M39.15,71.41l-.26-.15.19.11.07,0"/><path class="cls-14" d="M36.85,68.16c-.43-3.59,3.24-4.87,5.73-2.84,2.66,2.17,1.92,6.3-1.19,6.59a3.83,3.83,0,0,1-1.62-.22l.19.06.11,0,.15,0,.16,0,.13,0,.13,0h.72a1.51,1.51,0,0,0,.3,0h.12l.11,0,.15,0a4.38,4.38,0,0,0,.91-.25l.23-.1a3.64,3.64,0,0,0,.51-.28l.25-.17.36-.29.23-.22.28-.32L45,70c.06-.1.15-.23.21-.34l.16-.3c0-.11.11-.26.15-.37l.1-.33c0-.12.07-.27.09-.38l.05-.36c0-.14,0-.31,0-.45l0-.37c0-.11,0-.27-.05-.39l-.07-.35c0-.11-.07-.26-.11-.37l-.13-.33c-.05-.1-.11-.24-.17-.34l-.17-.3-.23-.32-.22-.25a3.83,3.83,0,0,0-.28-.29l-.24-.21a4.13,4.13,0,0,0-.6-.4l-.23-.12-.34-.16-.19-.07-.23-.07-.15,0-.16,0-.13,0L42,63l-.11,0H40.69l-.14,0a4.81,4.81,0,0,0-1,.28l-.24.1c-.3.16-.31.17-.49.28l-.25.17-.36.3-.23.23-.27.31-.2.27c-.06.11-.15.24-.2.34l-.16.31-.14.37-.11.33c0,.12-.06.27-.08.39l0,.36c0,.12,0,.28,0,.4l0,.36c0,.13,0,.29,0,.41v-.06"/><path class="cls-15" d="M36.79,67.44c.18-3.83,4.33-4,6.35-1.86,2.41,2.62,1.13,6.48-2.11,6.36a3.71,3.71,0,0,1-.55-.06l.13,0h.75a1.51,1.51,0,0,0,.3,0h.12l.11,0,.15,0a4.38,4.38,0,0,0,.91-.25l.23-.1a3.64,3.64,0,0,0,.51-.28l.25-.17.36-.29.23-.22.28-.32L45,70c.06-.1.15-.23.21-.34l.16-.3c0-.11.11-.26.15-.37l.1-.33c0-.12.07-.27.09-.38l.05-.36c0-.14,0-.31,0-.45l0-.37c0-.11,0-.27-.05-.39l-.07-.35c0-.11-.07-.26-.11-.37l-.13-.33c-.05-.1-.11-.24-.17-.34l-.17-.3-.23-.32-.22-.25a3.83,3.83,0,0,0-.28-.29l-.24-.21a4.13,4.13,0,0,0-.6-.4l-.23-.12-.34-.16-.19-.07-.23-.07-.15,0-.16,0-.13,0L42,63l-.11,0H40.69l-.14,0a4.81,4.81,0,0,0-1,.28l-.24.1c-.3.16-.31.17-.49.28l-.25.17-.36.3-.23.23-.27.31-.2.27c-.06.11-.15.24-.2.34l-.16.31-.14.37-.11.33c0,.12-.06.27-.08.39l0,.36c0,.12,0,.28,0,.4h0"/><path class="cls-16" d="M36.89,66.52c1.09-3.84,5.7-2.84,7.16,0S44,72,41.18,72h.18a1.51,1.51,0,0,0,.3,0h.12l.11,0,.15,0a4.38,4.38,0,0,0,.91-.25l.23-.1a3.64,3.64,0,0,0,.51-.28l.25-.17.36-.29.23-.22.28-.32L45,70c.06-.1.15-.23.21-.34l.16-.3c0-.11.11-.26.15-.37l.1-.33c0-.12.07-.27.09-.38l.05-.36c0-.14,0-.31,0-.45l0-.37c0-.11,0-.27-.05-.39l-.07-.35c0-.11-.07-.26-.11-.37l-.13-.33c-.05-.1-.11-.24-.17-.34l-.17-.3-.23-.32-.22-.25a3.83,3.83,0,0,0-.28-.29l-.24-.21a4.13,4.13,0,0,0-.6-.4l-.23-.12-.34-.16-.19-.07-.23-.07-.15,0-.16,0-.13,0L42,63l-.11,0H40.69l-.14,0a4.81,4.81,0,0,0-1,.28l-.24.1c-.3.16-.31.17-.49.28l-.25.17-.36.3-.23.23-.27.31-.2.27c-.06.11-.15.24-.2.34l-.16.31-.14.37-.11.33c0,.12-.06.27-.08.39s0,.08,0,.11a2.74,2.74,0,0,0,0-.28"/><path class="cls-17" d="M37,66.06c1.32-3.49,5.82-2.69,7.34.48,1.15,2.4,0,5-2.43,5.37l.15,0a5.78,5.78,0,0,0,.88-.25l.23-.1a3.64,3.64,0,0,0,.51-.28l.25-.17.36-.29.23-.22.28-.32L45,70c.06-.1.15-.23.21-.34l.16-.3c0-.11.11-.26.15-.37l.1-.33c0-.12.07-.27.09-.38l.05-.36c0-.14,0-.31,0-.45l0-.37c0-.11,0-.27-.05-.39l-.07-.35c0-.11-.07-.26-.11-.37l-.13-.33c-.05-.1-.11-.24-.17-.34l-.17-.3-.23-.32-.22-.25a3.83,3.83,0,0,0-.28-.29l-.24-.21a4.13,4.13,0,0,0-.6-.4l-.23-.12-.34-.16-.19-.07-.23-.07-.15,0-.16,0-.13,0L42,63l-.11,0H40.69l-.14,0a4.81,4.81,0,0,0-1,.28l-.24.1c-.3.16-.31.17-.49.28l-.25.17-.36.3-.23.23-.27.31-.2.27c-.06.11-.15.24-.2.34l-.16.31-.14.37a.58.58,0,0,0,0,.14.43.43,0,0,1,0,0"/><path class="cls-18" d="M37.52,65c2.13-3,6.81-1,7.42,2.45a3.53,3.53,0,0,1-2.31,4.28l.16,0,.16-.06.23-.1a3.64,3.64,0,0,0,.51-.28l.25-.17.36-.29.23-.22.28-.32L45,70c.06-.1.15-.23.21-.34l.16-.3c0-.11.11-.26.15-.37l.1-.33c0-.12.07-.27.09-.38l.05-.36c0-.14,0-.31,0-.45l0-.37c0-.11,0-.27-.05-.39l-.07-.35c0-.11-.07-.26-.11-.37l-.13-.33c-.05-.1-.11-.24-.17-.34l-.17-.3-.23-.32-.22-.25a3.83,3.83,0,0,0-.28-.29l-.24-.21a4.13,4.13,0,0,0-.6-.4l-.23-.12-.34-.16-.19-.07-.23-.07-.15,0-.16,0-.13,0L42,63l-.11,0H40.69l-.14,0a4.81,4.81,0,0,0-1,.28l-.24.1c-.3.16-.31.17-.49.28l-.25.17-.36.3-.23.23-.27.31-.2.27c-.06.11-.15.24-.2.34l.12-.2.05-.07"/><path class="cls-19" d="M40.05,71.67c2.82.56,4.53-2.46,2.81-5s-5.46-2.16-5.9.67a4,4,0,0,0,3.09,4.29"/><path class="cls-20" d="M39.64,71.52c2.94.91,4.62-2,3.3-4.38-1.62-2.88-5.22-2.51-5.85-.08a3.81,3.81,0,0,0,2.55,4.46"/><path class="cls-21" d="M39.08,71.24a2.75,2.75,0,0,0,4-3.24c-.9-3.1-4.6-3.56-5.76-1.38a3.57,3.57,0,0,0,1.73,4.62"/><path class="cls-22" d="M38.9,71.09A2.67,2.67,0,0,0,43,68c-.73-2.71-4.5-3.47-5.6-1.14a3.44,3.44,0,0,0,1.55,4.25"/><path class="cls-23" d="M38.63,70.86c2.16,1.47,4.59.06,4.25-2.48s-3.75-3.8-5.22-1.85a3.18,3.18,0,0,0,1,4.33"/><path class="cls-24" d="M38.6,70.77a2.51,2.51,0,0,0,4.14-2.4c-.44-2.7-3.94-3.42-5.08-1.64a3.07,3.07,0,0,0,.94,4"/><path class="cls-25" d="M38.64,70.72a2.43,2.43,0,0,0,4-2.37c-.51-2.66-3.8-3.23-4.94-1.4a2.92,2.92,0,0,0,1,3.77"/><path class="cls-26" d="M38.37,70.41a2.35,2.35,0,0,0,4.13-1.67,2.72,2.72,0,0,0-4.45-2.06,2.62,2.62,0,0,0,.32,3.73"/><path class="cls-27" d="M38.43,70.36a2.31,2.31,0,0,0,3.94-2c-.26-2.1-3.24-3-4.44-1.29a2.56,2.56,0,0,0,.5,3.32"/><path class="cls-28" d="M38.51,70.3a2.23,2.23,0,0,0,3.76-2,2.44,2.44,0,0,0-4.2-1.23,2.4,2.4,0,0,0,.44,3.21"/><path class="cls-29" d="M38.31,70a2.16,2.16,0,0,0,3.88-1.24,2.3,2.3,0,0,0-3.71-1.82A2.14,2.14,0,0,0,38.31,70"/><path class="cls-30" d="M38.41,69.9a2.08,2.08,0,0,0,3.68-1.19A2.13,2.13,0,0,0,38.54,67a2,2,0,0,0-.13,2.87"/><path class="cls-31" d="M38.54,69.85A2,2,0,0,0,42,68.71a2,2,0,0,0-3.45-1.51,2,2,0,0,0,0,2.65"/><path class="cls-32" d="M38.68,69.79a1.86,1.86,0,1,0,.11-2.65,1.81,1.81,0,0,0-.11,2.65"/><path class="cls-33" d="M38.58,69.41a1.78,1.78,0,0,0,3.26-.71A1.82,1.82,0,0,0,39.05,67a1.75,1.75,0,0,0-.47,2.37"/><path class="cls-34" d="M38.73,69.37A1.65,1.65,0,1,0,40.82,67a1.65,1.65,0,0,0-1.76.15,1.61,1.61,0,0,0-.33,2.22"/><path class="cls-35" d="M38.86,69.33a1.59,1.59,0,0,0,2.84-.64,1.54,1.54,0,0,0-.88-1.62,1.51,1.51,0,0,0-1.66.13,1.48,1.48,0,0,0-.3,2.13"/><path class="cls-36" d="M39,69.3a1.5,1.5,0,0,0,2.65-.61,1.54,1.54,0,0,0-2.28-1.52A1.41,1.41,0,0,0,39,69.3"/><path class="cls-37" d="M39,69.11a1.45,1.45,0,0,0,1.54.65,1.36,1.36,0,0,0,.35-2.51,1.55,1.55,0,0,0-1.34-.11c-.61.37-.64.47-.78,1a1.26,1.26,0,0,0,.23,1"/><path class="cls-38" d="M39.2,69.26a1.62,1.62,0,0,0,1.33.43c.53-.23.54-.23.82-.62a1.21,1.21,0,0,0,.17-.78,1.49,1.49,0,0,0-.44-.82c-.24-.22-.24-.22-.86-.38a1,1,0,0,0-.58.08,3.72,3.72,0,0,0-.6.47,1.32,1.32,0,0,0,.16,1.62"/><path class="cls-39" d="M39,68.89a1.41,1.41,0,0,0,1.47.72,1.38,1.38,0,0,0,.93-.92A1.32,1.32,0,0,0,41,67.47a2,2,0,0,0-.77-.33,1.21,1.21,0,0,0-.59.1,1.51,1.51,0,0,0-.49.38s-.23.46-.23.46a1.49,1.49,0,0,0,.12.81"/><path class="cls-40" d="M39.12,68.87a1.38,1.38,0,0,0,1.38.67l.43-.19a1.27,1.27,0,0,0,.44-.66,1.21,1.21,0,0,0-.46-1.22,2.08,2.08,0,0,0-.68-.27,1.16,1.16,0,0,0-.58.11,1.25,1.25,0,0,0-.65.76,1.3,1.3,0,0,0,.12.8"/><path class="cls-41" d="M39.2,68.86a4.37,4.37,0,0,0,.31.34,4.2,4.2,0,0,0,.52.26,1,1,0,0,0,.45,0,.83.83,0,0,0,.44-.18,1.46,1.46,0,0,0,.39-.59,1.14,1.14,0,0,0-.48-1.22,1.17,1.17,0,0,0-.6-.21,1.3,1.3,0,0,0-.58.11,1.08,1.08,0,0,0-.45,1.49"/><path class="cls-42" d="M39.28,68.84a1.17,1.17,0,0,0,1.19.56.78.78,0,0,0,.44-.2,1.84,1.84,0,0,0,.34-.51,1.08,1.08,0,0,0-.42-1.14,4.31,4.31,0,0,0-.59-.24,1.29,1.29,0,0,0-.58.13,1,1,0,0,0-.38,1.4"/><path class="cls-43" d="M39.36,68.83a1.59,1.59,0,0,0,.62.48,1.11,1.11,0,0,0,.48,0,.87.87,0,0,0,.45-.22,2.48,2.48,0,0,0,.27-.43,1,1,0,0,0-.34-1.06,1.34,1.34,0,0,0-.6-.26,1.25,1.25,0,0,0-.57.13,1,1,0,0,0-.31,1.33"/><path class="cls-44" d="M39.43,68.82a1.87,1.87,0,0,0,.54.42,1.11,1.11,0,0,0,.48,0s.41-.2.45-.24a.8.8,0,0,0,.22-.35,1,1,0,0,0-.28-1,2.86,2.86,0,0,0-.6-.27l-.57.14a.86.86,0,0,0-.34.44,1,1,0,0,0,.1.81"/><path class="cls-45" d="M39.51,68.81s.39.33.44.35a1.16,1.16,0,0,0,.49.06,1,1,0,0,0,.62-.53.87.87,0,0,0-.22-.92s-.56-.28-.59-.28a4,4,0,0,0-.57.16.85.85,0,0,0-.17,1.16"/><path class="cls-46" d="M39.58,68.8a1.06,1.06,0,0,0,.35.28,1.21,1.21,0,0,0,.5.07,3.69,3.69,0,0,0,.46-.29.37.37,0,0,0,.1-.17.9.9,0,0,0,0-.4,1.64,1.64,0,0,0-.2-.44,1.38,1.38,0,0,0-.59-.3,1,1,0,0,0-.56.18.8.8,0,0,0-.11,1.07"/><path class="cls-47" d="M39.66,68.79a.82.82,0,0,0,.25.2,1,1,0,0,0,.51.1,1.63,1.63,0,0,0,.47-.32.2.2,0,0,0,0-.08.9.9,0,0,0,0-.4,1.25,1.25,0,0,0-.19-.4,1.07,1.07,0,0,0-.54-.27,1.29,1.29,0,0,0-.55.19c-.2.07-.21.59-.21.59a.81.81,0,0,0,.17.39"/><path class="cls-48" d="M39.74,68.78a.36.36,0,0,0,.15.12,1,1,0,0,0,.52.11c.16,0,.32-.21.45-.32s0,0,0-.06a1,1,0,0,0,0-.34.94.94,0,0,0-.25-.4.88.88,0,0,0-.42-.21,1.41,1.41,0,0,0-.55.2.2.2,0,0,0-.07.09.72.72,0,0,0,.1.81"/><path class="cls-49" d="M39.81,68.77s0,0,.06,0a1.29,1.29,0,0,0,.53.13.61.61,0,0,0,.33-.24,1,1,0,0,0,.13-.37,0,0,0,0,0,0,0,1.57,1.57,0,0,0-.3-.38.51.51,0,0,0-.3-.15.78.78,0,0,0-.54.21.64.64,0,0,0-.09.43.83.83,0,0,0,.18.38"/><path class="cls-50" d="M39.84,68.66a.21.21,0,0,0,.1.09,1,1,0,0,0,.45.12.41.41,0,0,0,.22-.17.68.68,0,0,0,.15-.4c0-.15-.2-.29-.31-.4a.38.38,0,0,0-.18-.09c-.15,0-.87.29-.43.85"/><path class="cls-51" d="M39.79,68.43a1.48,1.48,0,0,0,.36.3.32.32,0,0,0,.23.06.15.15,0,0,0,.11-.08c.07-.12.18-.28.16-.41s-.29-.42-.37-.42-.11,0-.5.44c0,0,0,.08,0,.11"/><path class="cls-52" d="M40.36,68.72h0a3.65,3.65,0,0,0,.18-.41c0-.13-.14-.31-.26-.32a.41.41,0,0,0-.36.36c0,.17.28.29.43.37"/><path class="cls-53" d="M40.34,68.53c.07,0,.11-.15.1-.22s-.08-.16-.14-.16a.23.23,0,0,0-.19.19c0,.09.15.21.23.19"/><path class="cls-54" d="M40.32,68.34a0,0,0,0,0,0,0h0a0,0,0,0,0,0,0"/></g></g></g><g class="cls-9"><g class="cls-55"><g class="cls-9"><path class="cls-11" d="M41.89,71.91a4.49,4.49,0,0,1-2.81-.54A3.79,3.79,0,0,1,37.25,68a5,5,0,0,1,4-4.87,5,5,0,0,0-4,4.87,3.79,3.79,0,0,0,1.83,3.37,4.5,4.5,0,1,1,2.81.54"/><path class="cls-11" d="M37.25,68a3.79,3.79,0,0,0,1.83,3.37l-.26-.16-.39-.28-.24-.22-.29-.3-.21-.27-.23-.33-.17-.3a3.73,3.73,0,0,1-.16-.35L37,68.83c0-.11-.08-.26-.1-.38l-.07-.35c0-.19,0-.46-.05-.65l0-.37c0-.12,0-.28,0-.39l.07-.35c0-.11.08-.26.12-.37l.12-.33c.06-.1.12-.24.18-.35l.17-.29.23-.32.21-.25c.09-.09.2-.21.29-.29l.24-.21.37-.26.23-.14a4.89,4.89,0,0,1,.5-.24l.16-.06a4.4,4.4,0,0,1,.94-.24h1.15L42,63l.12,0,.14,0,.15,0,.16,0,.19.06.23.08.22.1.35.18.26.16a3.92,3.92,0,0,1,.58.45l.23.23.27.31.2.28.2.34.16.31.14.36.1.34c0,.11.06.27.08.38l.05.36c0,.12,0,.28,0,.4l0,.37c0,.13,0,.31-.06.44l-.08.34c0,.12-.07.26-.11.37l-.13.33c-.06.1-.12.24-.18.34l-.18.29-.23.32-.22.25a4,4,0,0,1-.29.29l-.24.2-.37.26-.23.14a5,5,0,0,1-.51.24l-.16.06a4.83,4.83,0,0,1-.9.21l-.11,0H40.64l-.13,0-.13,0-.15,0-.16,0-.19,0-.23-.09-.23-.09-.34-.18A3.79,3.79,0,0,1,37.25,68a5,5,0,0,1,4-4.87h0c-3.88,1.11-2.5,5.4-.13,6.57a3,3,0,0,0,4.31-3.84,4,4,0,0,0-4.18-2.73,5,5,0,0,0-4,4.87"/><path class="cls-12" d="M37.25,68a3.79,3.79,0,0,0,1.83,3.37l-.26-.16-.39-.28-.24-.22-.29-.3-.21-.27-.23-.33-.17-.3a3.73,3.73,0,0,1-.16-.35L37,68.83c0-.11-.08-.26-.1-.38l-.07-.35c0-.19,0-.46-.05-.65l0-.37c0-.12,0-.28,0-.39l.07-.35c0-.11.08-.26.12-.37l.12-.33c.06-.1.12-.24.18-.35l.17-.29.23-.32.21-.25c.09-.09.2-.21.29-.29l.24-.21.37-.26.23-.14a4.89,4.89,0,0,1,.5-.24l.16-.06a4.4,4.4,0,0,1,.94-.24h1.15L42,63l.12,0,.14,0,.15,0,.16,0,.19.06.23.08.22.1.35.18.26.16a3.92,3.92,0,0,1,.58.45l.23.23.27.31.2.28.2.34.16.31.14.36.1.34c0,.11.06.27.08.38l.05.36c0,.12,0,.28,0,.4l0,.37c0,.13,0,.31-.06.44l-.08.34c0,.12-.07.26-.11.37l-.13.33c-.06.1-.12.24-.18.34l-.18.29-.23.32-.22.25a4,4,0,0,1-.29.29l-.24.2-.37.26-.23.14a5,5,0,0,1-.51.24l-.16.06a4.83,4.83,0,0,1-.9.21l-.11,0H40.64l-.13,0-.13,0-.15,0-.16,0-.19,0-.23-.09-.23-.09-.34-.18A3.79,3.79,0,0,1,37.25,68a5.1,5.1,0,0,1,3-4.56l0,0c-2.73,1.74-1.33,5.8,1.57,6.65s5-2,3.55-4.73c-1.07-2-3.4-2.9-5.08-1.94a5.1,5.1,0,0,0-3,4.56"/><path class="cls-13" d="M45.55,66a4.27,4.27,0,0,1,.18.72l.05.36c0,.12,0,.28,0,.4l0,.37c0,.13,0,.31-.06.44l-.08.34c0,.12-.07.26-.11.37l-.13.33c-.06.1-.12.24-.18.34l-.18.29-.23.32-.22.25a4,4,0,0,1-.29.29l-.24.2-.37.26-.23.14a5,5,0,0,1-.51.24l-.16.06a4.83,4.83,0,0,1-.9.21l-.11,0H40.64l-.13,0-.13,0-.15,0-.16,0-.19,0-.23-.09-.23-.09-.34-.18A3.79,3.79,0,0,1,37.25,68a5.15,5.15,0,0,1,2.3-4.21l-.06.06c-2.47,2.57.14,6.67,3.31,6.56,2.26-.08,3.57-2.31,2.69-4.58l.06.15"/><path class="cls-13" d="M37.25,68a3.79,3.79,0,0,0,1.83,3.37l-.26-.16-.39-.28-.24-.22-.29-.3-.21-.27-.23-.33-.17-.3a3.73,3.73,0,0,1-.16-.35L37,68.83c0-.11-.08-.26-.1-.38l-.07-.35c0-.19,0-.46-.05-.65l0-.37c0-.12,0-.28,0-.39l.07-.35c0-.11.08-.26.12-.37l.12-.33c.06-.1.12-.24.18-.35l.17-.29.23-.32.21-.25c.09-.09.2-.21.29-.29l.24-.21.37-.26.23-.14a4.89,4.89,0,0,1,.5-.24l.16-.06a4.4,4.4,0,0,1,.94-.24h1.15L42,63l.12,0,.14,0,.15,0,.16,0,.19.06.23.08.22.1.35.18.19.11-.25-.15a3.29,3.29,0,0,0-3.9.29A5.15,5.15,0,0,0,37.25,68"/><path class="cls-14" d="M45.73,66.7a4.81,4.81,0,0,1,.07.76l0,.37c0,.13,0,.31-.06.44l-.08.34c0,.12-.07.26-.11.37l-.13.33c-.06.1-.12.24-.18.34l-.18.29-.23.32-.22.25a4,4,0,0,1-.29.29l-.24.2-.37.26-.23.14a5,5,0,0,1-.51.24l-.16.06a4.83,4.83,0,0,1-.9.21l-.11,0H40.64l-.13,0-.13,0-.15,0-.16,0-.19,0-.23-.09-.23-.09-.34-.18A3.79,3.79,0,0,1,37.25,68a5.14,5.14,0,0,1,1.81-3.84,1.59,1.59,0,0,0-.15.21c-1.85,3.07,1.31,6.72,4.35,6.15a3.17,3.17,0,0,0,2.47-3.84v0"/><path class="cls-14" d="M37.25,68a3.79,3.79,0,0,0,1.83,3.37l-.26-.16-.39-.28-.24-.22-.29-.3-.21-.27-.23-.33-.17-.3a3.73,3.73,0,0,1-.16-.35L37,68.83c0-.11-.08-.26-.1-.38l-.07-.35c0-.19,0-.46-.05-.65l0-.37c0-.12,0-.28,0-.39l.07-.35c0-.11.08-.26.12-.37l.12-.33c.06-.1.12-.24.18-.35l.17-.29.23-.32.21-.25c.09-.09.2-.21.29-.29l.24-.21.37-.26.23-.14a4.89,4.89,0,0,1,.5-.24l.16-.06a4.4,4.4,0,0,1,.94-.24h1.15L42,63l.12,0,.14,0,.15,0,.16,0,.19.06.11,0-.24-.08a3.19,3.19,0,0,0-3.52,1A5.14,5.14,0,0,0,37.25,68"/><path class="cls-15" d="M45.8,67.46a4.82,4.82,0,0,1-.08.81l-.08.34c0,.12-.07.26-.11.37l-.13.33c-.06.1-.12.24-.18.34l-.18.29-.23.32-.22.25a4,4,0,0,1-.29.29l-.24.2-.37.26-.23.14a5,5,0,0,1-.51.24l-.16.06a4.83,4.83,0,0,1-.9.21l-.11,0H40.64l-.13,0-.13,0-.15,0-.16,0-.19,0-.23-.09-.23-.09-.34-.18A3.79,3.79,0,0,1,37.25,68a5.11,5.11,0,0,1,1.39-3.44l0,.08c-1.66,3.38,2,6.93,5.07,5.93a3.16,3.16,0,0,0,2.14-3.14s0,0,0,0"/><path class="cls-15" d="M37.25,68a3.79,3.79,0,0,0,1.83,3.37l-.26-.16-.39-.28-.24-.22-.29-.3-.21-.27-.23-.33-.17-.3a3.73,3.73,0,0,1-.16-.35L37,68.83c0-.11-.08-.26-.1-.38l-.07-.35c0-.19,0-.46-.05-.65l0-.37c0-.12,0-.28,0-.39l.07-.35c0-.11.08-.26.12-.37l.12-.33c.06-.1.12-.24.18-.35l.17-.29.23-.32.21-.25c.09-.09.2-.21.29-.29l.24-.21.37-.26.23-.14a4.89,4.89,0,0,1,.5-.24l.16-.06a4.4,4.4,0,0,1,.94-.24h1.15L42,63l.12,0h0a3.15,3.15,0,0,0-3.43,1.54A5.11,5.11,0,0,0,37.25,68"/><path class="cls-16" d="M45.72,68.27a4.28,4.28,0,0,1-.19.71l-.13.33c-.06.1-.12.24-.18.34l-.18.29-.23.32-.22.25a4,4,0,0,1-.29.29l-.24.2-.37.26-.23.14a5,5,0,0,1-.51.24l-.16.06a4.83,4.83,0,0,1-.9.21l-.11,0H40.64l-.13,0-.13,0-.15,0-.16,0-.19,0-.23-.09-.23-.09-.34-.18A3.79,3.79,0,0,1,37.25,68a5.09,5.09,0,0,1,1-3c0,.08-.08.19-.11.28-1,3.85,3.26,6.81,6.05,5.17a3.3,3.3,0,0,0,1.54-2.36l0,.17"/><path class="cls-16" d="M37.25,68a3.79,3.79,0,0,0,1.83,3.37l-.26-.16-.39-.28-.24-.22-.29-.3-.21-.27-.23-.33-.17-.3a3.73,3.73,0,0,1-.16-.35L37,68.83c0-.11-.08-.26-.1-.38l-.07-.35c0-.19,0-.46-.05-.65l0-.37c0-.12,0-.28,0-.39l.07-.35c0-.11.08-.26.12-.37l.12-.33c.06-.1.12-.24.18-.35l.17-.29.23-.32.21-.25c.09-.09.2-.21.29-.29l.24-.21.37-.26.23-.14a4.89,4.89,0,0,1,.5-.24l.16-.06a4.4,4.4,0,0,1,.94-.24h.65A3.15,3.15,0,0,0,38.27,65a5.09,5.09,0,0,0-1,3"/><path class="cls-17" d="M45.53,69a3.73,3.73,0,0,1-.31.67l-.18.29-.23.32-.22.25a4,4,0,0,1-.29.29l-.24.2-.37.26-.23.14a5,5,0,0,1-.51.24l-.16.06a4.83,4.83,0,0,1-.9.21l-.11,0H40.64l-.13,0-.13,0-.15,0-.16,0-.19,0-.23-.09-.23-.09-.34-.18A3.79,3.79,0,0,1,37.25,68a5,5,0,0,1,.68-2.47l0,.1c-.78,3.88,3.65,6.69,6.34,5a3.37,3.37,0,0,0,1.35-1.79s0,.13-.06.18"/><path class="cls-17" d="M37.25,68a3.79,3.79,0,0,0,1.83,3.37l-.26-.16-.39-.28-.24-.22-.29-.3-.21-.27-.23-.33-.17-.3a3.73,3.73,0,0,1-.16-.35L37,68.83c0-.11-.08-.26-.1-.38l-.07-.35c0-.19,0-.46-.05-.65l0-.37c0-.12,0-.28,0-.39l.07-.35c0-.11.08-.26.12-.37l.12-.33c.06-.1.12-.24.18-.35l.17-.29.23-.32.21-.25c.09-.09.2-.21.29-.29l.24-.21.37-.26.23-.14a4.89,4.89,0,0,1,.5-.24l.16-.06a3.67,3.67,0,0,1,.92-.23H40.6a3.21,3.21,0,0,0-2.67,2.52A5,5,0,0,0,37.25,68"/><path class="cls-18" d="M45.22,69.65a4,4,0,0,1-.41.61l-.22.25a4,4,0,0,1-.29.29l-.24.2-.37.26-.23.14a5,5,0,0,1-.51.24l-.16.06a4.83,4.83,0,0,1-.9.21l-.11,0H40.64l-.13,0-.13,0-.15,0-.16,0-.19,0-.23-.09-.23-.09-.34-.18A3.79,3.79,0,0,1,37.25,68a5.15,5.15,0,0,1,.35-1.8l0,.19c-.15,3.68,4.39,6.37,6.94,4.11a3.47,3.47,0,0,0,.74-.92l0,.07"/><path class="cls-18" d="M37.25,68a3.79,3.79,0,0,0,1.83,3.37l-.26-.16-.39-.28-.24-.22-.29-.3-.21-.27-.23-.33-.17-.3a3.73,3.73,0,0,1-.16-.35L37,68.83c0-.11-.08-.26-.1-.38l-.07-.35c0-.19,0-.46-.05-.65l0-.37c0-.12,0-.28,0-.39l.07-.35c0-.11.08-.26.12-.37l.12-.33c.06-.1.12-.24.18-.35l.17-.29.23-.32.21-.25c.09-.09.2-.21.29-.29l.24-.21.37-.26.23-.14a4.89,4.89,0,0,1,.5-.24l.16-.06.23-.08h0A3.33,3.33,0,0,0,37.6,66.2a5.15,5.15,0,0,0-.35,1.8"/><path class="cls-19" d="M43.29,63.48c2.82,1.33,3.23,5.25.65,6.26s-5.82-2.16-4.68-4.86a2.91,2.91,0,0,1,4-1.4"/><path class="cls-20" d="M43.67,63.71c2.72,1.66,2.59,5.48-.21,6-3,.57-5.45-3.09-3.71-5.44a2.91,2.91,0,0,1,3.92-.58"/><path class="cls-21" d="M44,64c2.45,1.88,1.77,5.13-.53,5.58-2.57.51-5.28-2.68-3.63-5.2A2.88,2.88,0,0,1,44,64"/><path class="cls-22" d="M44.33,64.3c2.23,2.13,1,5.17-1.38,5.17-2.82,0-4.56-3.53-2.67-5.39a3,3,0,0,1,4,.22"/><path class="cls-23" d="M44.32,64.35c2,1.88,1.18,5-1.36,5-2.74,0-4.36-3.35-2.52-5.22a2.82,2.82,0,0,1,3.88.25"/><path class="cls-24" d="M44.58,64.69c1.65,2,.49,4.68-1.94,4.45-2.83-.28-3.7-3.73-1.88-5.13a2.83,2.83,0,0,1,3.82.68"/><path class="cls-25" d="M44.54,64.74c1.64,2,.29,4.68-2.16,4.23A2.82,2.82,0,0,1,41,64a2.71,2.71,0,0,1,3.53.75"/><path class="cls-26" d="M44.74,65.13a2.33,2.33,0,0,1-2.36,3.71A2.67,2.67,0,0,1,41,64.15a2.63,2.63,0,0,1,3.71,1"/><path class="cls-27" d="M44.68,65.18a2.25,2.25,0,0,1-2.3,3.53,2.51,2.51,0,0,1-1.14-4.53,2.47,2.47,0,0,1,3.44,1"/><path class="cls-28" d="M44.6,65.23a2.19,2.19,0,0,1-2.22,3.37,2.38,2.38,0,0,1-1.14-4.23,2.35,2.35,0,0,1,3.36.86"/><path class="cls-29" d="M44.69,65.65a2.13,2.13,0,0,1-2.92,2.67,2.23,2.23,0,0,1,0-4.11,2.33,2.33,0,0,1,2.88,1.44"/><path class="cls-30" d="M44.59,65.7a2,2,0,0,1-2.82,2.53,2.09,2.09,0,0,1,.08-3.87,2.16,2.16,0,0,1,2.74,1.34"/><path class="cls-31" d="M44.46,65.76A2,2,0,1,1,41.9,64.5a2,2,0,0,1,2.56,1.26"/><path class="cls-32" d="M44.33,65.81a1.86,1.86,0,1,1-2.4-1.18,1.91,1.91,0,0,1,2.4,1.18"/><path class="cls-33" d="M44.27,66.26a1.63,1.63,0,0,1-1,1.74,1.71,1.71,0,0,1-1.93-.37,1.69,1.69,0,0,1,1-2.94,1.78,1.78,0,0,1,2,1.57"/><path class="cls-34" d="M44.15,66.29a1.71,1.71,0,0,1-.63,1.46,1.6,1.6,0,0,1-1.14.34,3,3,0,0,1-.7-.23,1.62,1.62,0,0,1,.31-3,1.71,1.71,0,0,1,2.16,1.42"/><path class="cls-35" d="M44,66.32a1.53,1.53,0,0,1-2.55,1.3,1.5,1.5,0,0,1,.91-2.7A1.7,1.7,0,0,1,44,66.32"/><path class="cls-36" d="M43.93,66.35a1.43,1.43,0,0,1-1,1.53,1.56,1.56,0,0,1-1.61-.44A1.42,1.42,0,0,1,42.43,65a1.6,1.6,0,0,1,1.5,1.32"/><path class="cls-37" d="M43.82,66.37a1.38,1.38,0,0,1-2.39,1.07,1.35,1.35,0,0,1,1-2.32,1.49,1.49,0,0,1,1.36,1.25"/><path class="cls-38" d="M43.74,66.39A1.26,1.26,0,0,1,43,67.73a1.4,1.4,0,0,1-1.19-.1,1.37,1.37,0,0,1-.67-1.41,1.38,1.38,0,0,1,1-1,1.49,1.49,0,0,1,1.68,1.17"/><path class="cls-39" d="M43.66,66.83a3.88,3.88,0,0,1-.23.46,3,3,0,0,1-.48.38,1.29,1.29,0,0,1-.59.09A1.45,1.45,0,0,1,41.27,67a1.2,1.2,0,0,1,1.24-1.74,1.38,1.38,0,0,1,1.15,1.54"/><path class="cls-40" d="M43.58,66.84a1.21,1.21,0,0,1-1.22.86,1,1,0,0,1-.6-.2,3.07,3.07,0,0,1-.43-.47,1.14,1.14,0,0,1,1.21-1.66l.53.23a1.47,1.47,0,0,1,.4.44,1.15,1.15,0,0,1,.11.8"/><path class="cls-41" d="M43.5,66.85a1.25,1.25,0,0,1-.57.68,1.35,1.35,0,0,1-.57.12,1.21,1.21,0,0,1-.6-.21,1.45,1.45,0,0,1-.37-.41,1.08,1.08,0,0,1,.09-1.2,1.1,1.1,0,0,1,1.08-.38,1.67,1.67,0,0,1,.52.25l.31.35a1,1,0,0,1,.11.8"/><path class="cls-42" d="M43.42,66.87a1.41,1.41,0,0,1-.49.6,1.26,1.26,0,0,1-.58.12,3.31,3.31,0,0,1-.59-.23.89.89,0,0,1-.3-.34,1,1,0,0,1,.1-1.19,1.1,1.1,0,0,1,1-.31s1.13.37.84,1.35"/><path class="cls-43" d="M43.36,66.66a.53.53,0,0,1,0,.22,1.94,1.94,0,0,1-.34.47c-.08.06-.09.07-.65.18a1.22,1.22,0,0,1-.82-.5,1,1,0,0,1,.1-1.2,1.71,1.71,0,0,1,.5-.26.94.94,0,0,1,.47,0,1.49,1.49,0,0,1,.63.48.71.71,0,0,1,.13.58"/><path class="cls-44" d="M43.26,66.89a1,1,0,0,1-.35.44,5.59,5.59,0,0,1-.56.15,1.4,1.4,0,0,1-.77-.46.94.94,0,0,1,.11-1.16s.41-.22.45-.23a1.12,1.12,0,0,1,.48,0c.26.07.9.61.64,1.22"/><path class="cls-45" d="M43.19,66.9a.89.89,0,0,1-.28.35,4.74,4.74,0,0,1-.57.17s-.59-.28-.59-.29a.27.27,0,0,1-.1-.11.86.86,0,0,1,0-1.06,2.06,2.06,0,0,1,.46-.27,1,1,0,0,1,.49.06s.44.35.44.35a1.4,1.4,0,0,1,.16.38.84.84,0,0,1-.05.42"/><path class="cls-46" d="M43.11,66.91a.59.59,0,0,1-.21.26,1,1,0,0,1-.56.19,1.28,1.28,0,0,1-.59-.3,1.41,1.41,0,0,1-.2-.44s0-.47.15-.57a3.24,3.24,0,0,1,.46-.3,1,1,0,0,1,.5.08,1,1,0,0,1,.35.28,2.54,2.54,0,0,1,.16.38.62.62,0,0,1-.06.42"/><path class="cls-47" d="M43,66.92a.37.37,0,0,1-.14.18c-.16.08-.38.23-.56.19A1.34,1.34,0,0,1,41.8,67a1.31,1.31,0,0,1-.2-.4,1.08,1.08,0,0,1,.1-.48.91.91,0,0,1,.47-.32,1,1,0,0,1,.51.1.6.6,0,0,1,.25.2.81.81,0,0,1,.17.38.85.85,0,0,1-.07.42"/><path class="cls-48" d="M43,66.93s0,.08-.07.09a1.31,1.31,0,0,1-.55.2.88.88,0,0,1-.42-.21.72.72,0,0,1-.17-.22.63.63,0,0,1,0-.58,1,1,0,0,1,.45-.32,1.19,1.19,0,0,1,.52.11.32.32,0,0,1,.15.13.83.83,0,0,1,.18.38.76.76,0,0,1-.08.42"/><path class="cls-49" d="M42.87,66.94a.75.75,0,0,1-.55.22A.54.54,0,0,1,42,67a1.36,1.36,0,0,1-.3-.38c0-.06.12-.42.12-.42a.67.67,0,0,1,.34-.24c.16,0,.37.08.53.12a.12.12,0,0,1,.05,0,.81.81,0,0,1,.19.38.76.76,0,0,1-.09.42"/><path class="cls-50" d="M42.84,66.76a.78.78,0,0,1-.52.33.31.31,0,0,1-.18-.09c-.11-.1-.29-.24-.32-.39A.73.73,0,0,1,42,66.2.36.36,0,0,1,42.2,66a1,1,0,0,1,.44.11.48.48,0,0,1,.11.09.55.55,0,0,1,.09.52"/><path class="cls-51" d="M42.81,66.58a1.64,1.64,0,0,1-.39.4.14.14,0,0,1-.11,0c-.09,0-.38-.42-.38-.43s.1-.29.17-.4a.19.19,0,0,1,.11-.09.38.38,0,0,1,.23.06,3.52,3.52,0,0,1,.35.31.09.09,0,0,1,0,.1"/><path class="cls-52" d="M42.3,66.91c-.12,0-.24-.19-.26-.31l.18-.41h0c.13.11.42.19.43.36a.4.4,0,0,1-.36.36"/><path class="cls-53" d="M42.29,66.76a.21.21,0,0,1-.14-.17c0-.07,0-.2.1-.21s.22.1.22.19a.21.21,0,0,1-.18.19"/><path class="cls-54" d="M42.27,66.6h0s0,0,0,0,0,0,0,0h0"/></g></g></g></g><line class="cls-3" x1="118.81" y1="1.29" x2="118.81" y2="171.96"/><rect class="cls-4" x="127.81" y="108.96" width="54" height="63"/><line class="cls-3" x1="118.81" y1="1.29" x2="127.81" y2="1.29"/><line class="cls-3" x1="127.81" y1="1.29" x2="127.81" y2="171.96"/><line class="cls-3" x1="127.81" y1="72.96" x2="181.81" y2="72.96"/><text class="cls-6" transform="translate(145.81 63.96)">ε&apos;</text><text class="cls-56" transform="translate(157.84 69.62) scale(0.58)">N&apos;+1</text><text class="cls-6" transform="translate(145.81 99.96)">ε&apos;</text><text class="cls-56" transform="translate(157.84 105.62) scale(0.58)">N&apos;</text><path class="cls-57" d="M168.13,50.84c8.85-7,19.44-7.12,27.58-.24"/><polygon class="cls-58" points="172.78 51.76 169.12 50.09 167.78 46.3 163.81 54.96 172.78 51.76"/><polygon class="cls-58" points="191.01 51.3 194.75 49.82 196.29 46.1 199.81 54.96 191.01 51.3"/><path class="cls-57" d="M78.48,50.84c-8.84-7-19.44-7.12-27.58-.24"/><polygon class="cls-58" points="78.84 46.3 77.5 50.09 73.83 51.76 82.81 54.96 78.84 46.3"/><polygon class="cls-58" points="50.33 46.1 51.86 49.82 55.6 51.3 46.81 54.96 50.33 46.1"/><path class="cls-57" d="M104.11,50c9.79-11.37,28.62-11.36,38.4,0"/><polygon class="cls-58" points="108.86 49.86 104.92 49.04 102.77 45.63 100.81 54.96 108.86 49.86"/><polygon class="cls-58" points="137.76 49.86 141.7 49.04 143.84 45.63 145.81 54.96 137.76 49.86"/><line class="cls-3" x1="55.81" y1="0.96" x2="64.81" y2="0.96"/></svg>
