<svg id="Layer_1" data-name="Layer 1" xmlns="http://www.w3.org/2000/svg" viewBox="0 0 226.77 226.77"><defs><style>.cls-1,.cls-3{fill:none;stroke:#231f20;stroke-miterlimit:10;}.cls-1{stroke-width:2px;}.cls-2,.cls-4,.cls-6,.cls-7{fill:#231f20;}.cls-4{font-size:20px;}.cls-4,.cls-6,.cls-8{font-family:CMUSerif-Roman, CMU Serif;}.cls-5{font-size:14px;fill:#00a5b6;font-family:AGaramondPro-Regular, Adobe Garamond Pro;}.cls-6,.cls-7{font-size:16px;}.cls-7{font-family:AmericanTypewriter, American Typewriter;}</style></defs><line class="cls-1" x1="36.89" y1="192.05" x2="36.89" y2="26.2"/><polygon class="cls-2" points="40.59 29.01 36.89 27.43 33.18 29.01 36.89 20.23 40.59 29.01"/><line class="cls-1" x1="36.97" y1="192.05" x2="202.83" y2="192.05"/><polygon class="cls-2" points="200.02 195.76 201.59 192.05 200.02 188.35 208.8 192.05 200.02 195.76"/><line class="cls-3" x1="104.18" y1="191.94" x2="75.61" y2="29.88"/><line class="cls-3" x1="147.31" y1="193" x2="120.11" y2="38.78"/><line class="cls-3" x1="190.71" y1="192.5" x2="165.07" y2="47.14"/><line class="cls-3" x1="36.7" y1="127.83" x2="199.05" y2="156.46"/><line class="cls-3" x1="35.92" y1="84.75" x2="194.47" y2="112.71"/><line class="cls-3" x1="36.5" y1="41.92" x2="187.18" y2="68.49"/><text class="cls-4" transform="translate(116.47 211.6)">V</text><text class="cls-4" transform="translate(131.47 218.26) scale(0.58)">2</text><text class="cls-4" transform="translate(23.77 115.87) rotate(-90)">V</text><text class="cls-4" transform="translate(30.42 100.87) rotate(-90) scale(0.58)">4</text><text class="cls-5" transform="translate(55.72 165.78)">(0, 0)</text><text class="cls-5" transform="translate(107.06 174.05)">(1, 0)</text><text class="cls-5" transform="translate(151.39 179.21)">(2, 0)</text><text class="cls-5" transform="translate(143.73 138.05)">(2, 1)</text><text class="cls-5" transform="translate(99.06 128.96)">(1, 1)</text><text class="cls-5" transform="translate(48.91 120.05)">(0, 1)</text><text class="cls-5" transform="translate(135.06 92.96)">(2, 2)</text><text class="cls-5" transform="translate(88.55 84.11)">(1, 2)</text><text class="cls-5" transform="translate(44.55 75.39)">(0, 2)</text><text class="cls-6" transform="translate(89.72 12.39)">C</text><text class="cls-6" transform="translate(101.27 17.72) scale(0.58)">m</text><text class="cls-7" transform="translate(109.04 12.39)">–&gt;<tspan class="cls-8" x="16" y="0" xml:space="preserve"> 0</tspan></text></svg>
