<svg id="Layer_1" data-name="Layer 1" xmlns="http://www.w3.org/2000/svg" viewBox="0 0 232.44 255.12"><defs><style>.cls-1,.cls-2,.cls-8{fill:none;stroke-miterlimit:10;}.cls-1,.cls-2{stroke:#f18254;}.cls-1{stroke-dasharray:5.87 5.87;}.cls-2{stroke-dasharray:5.73 5.73;}.cls-3,.cls-6{font-size:17px;}.cls-3{fill:#f18254;font-family:AGaramondPro-Regular, Adobe Garamond Pro;}.cls-4{opacity:0.9;}.cls-5{fill:#231f20;}.cls-6,.cls-9{fill:#197fb0;}.cls-6{font-family:CMUSerif-Roman, CMU Serif;}.cls-7{letter-spacing:-0.03em;}.cls-8{stroke:#197fb0;}</style></defs><path class="cls-1" d="M110,114.24A15,15,0,1,1,95,99.32,15,15,0,0,1,110,114.24Z"/><path class="cls-2" d="M151.61,114.48a14.51,14.51,0,1,1-14.5-14.68A14.59,14.59,0,0,1,151.61,114.48Z"/><text class="cls-3" transform="translate(90.15 119.94)">A</text><text class="cls-3" transform="translate(133.45 120.1)">B</text><g class="cls-4"><path class="cls-5" d="M115.13,125v59.62c0,1.54,2.94,1.12,2.94-.21V124.79c0-1.54-2.94-1.12-2.94.21Z"/><path class="cls-5" d="M114.93,57.53V98.28c0,1.44,2.92.94,2.92-.26V57.27c0-1.44-2.92-.94-2.92.26Z"/><path class="cls-5" d="M80.26,90.41a205,205,0,0,0-10.88,21.22c-3.44,8-2.6,15.68-1.29,24.11,2.58,16.62,7.1,33.1,12,49.16.28.88,3.16.07,2.9-.78A396.77,396.77,0,0,1,71.53,138.2c-1.5-8.29-3.09-17,0-25.12,3-7.88,7.22-15.43,11.43-22.72.62-1.07-2.26-.67-2.67,0Z"/><path class="cls-5" d="M149.22,91.22a203.31,203.31,0,0,1,10.77,21c3.67,8.54,2.45,17,.94,25.92a367.76,367.76,0,0,1-11.7,47c-.23.74,2.62.35,2.87-.46A377.66,377.66,0,0,0,164,136.64c1.39-8.25,2.45-16.28-.71-24.21a173.1,173.1,0,0,0-11.16-22c-.47-.81-3.21.24-2.9.77Z"/><path class="cls-5" d="M146.74,130.8l-15.82,5.53c-.41.14-1.23.45-1.23,1v47.51c0,1.4,2.92.86,2.92-.28V137.06l-1.22,1,15.82-5.53c1.7-.59,1.28-2.36-.47-1.75Z"/><path class="cls-5" d="M84.56,132.29l15.56,5.43c.36.13,0,9.84,0,11.32V185.1c0,.63,2.9.17,2.9-.78V136.81a.36.36,0,0,0-.27-.22l-15.83-5.53c-.73-.25-3.35.88-2.35,1.23Z"/></g><text class="cls-6" transform="translate(76.23 32.77)">top barrier<tspan x="35.91" y="17.03">0</tspan></text><text class="cls-6" transform="translate(26.63 61.29)">left <tspan x="-7.34" y="17.03">outer</tspan><tspan x="-13.05" y="34.06">barrier</tspan><tspan x="7.77" y="51.09">1</tspan></text><text class="cls-6" transform="translate(176.54 60.79)">rig<tspan class="cls-7" x="19.86" y="0">h</tspan><tspan x="28.81" y="0">t </tspan><tspan x="-1.66" y="17.03">outer</tspan><tspan x="-7.36" y="34.06">barrier</tspan><tspan x="13.46" y="51.09">5</tspan></text><text class="cls-6" transform="translate(63.24 215.86)">ce<tspan class="cls-7" x="15.1" y="0">n</tspan><tspan x="24.05" y="0">tral barrier</tspan><tspan x="48.9" y="17.03">3</tspan></text><text class="cls-6" transform="translate(19.06 161.46)">left <tspan x="-15.83" y="17.03">plunger</tspan><tspan x="7.77" y="34.06">2</tspan></text><text class="cls-6" transform="translate(188.85 161.3)">left <tspan x="-15.83" y="17.03">plunger</tspan><tspan x="7.77" y="34.06">4</tspan></text><line class="cls-8" x1="63.4" y1="119.41" x2="53.23" y2="113.7"/><polygon class="cls-9" points="63.01 116.65 62.75 119.05 60.84 120.52 66.52 121.17 63.01 116.65"/><line class="cls-8" x1="116.93" y1="190.16" x2="116.89" y2="198.23"/><polygon class="cls-9" points="114.7 191.83 116.93 190.9 119.14 191.85 116.95 186.57 114.7 191.83"/><path class="cls-8" d="M92,157.32l-11.1,3.06s-1.2-4.09-5.87-2.75-3.5,5.28-3.5,5.28l-9.38,2.48"/><polygon class="cls-9" points="89.8 155.63 91.3 157.52 90.98 159.91 95.47 156.37 89.8 155.63"/><line class="cls-8" x1="169.74" y1="119.41" x2="179.91" y2="113.7"/><polygon class="cls-9" points="172.3 120.52 170.39 119.05 170.12 116.65 166.62 121.17 172.3 120.52"/><path class="cls-8" d="M139.88,157.67l11.1,3.06s1.2-4.09,5.86-2.75,3.51,5.28,3.51,5.28l9.38,2.48"/><polygon class="cls-9" points="140.92 160.26 140.6 157.86 142.1 155.97 136.43 156.72 140.92 160.26"/></svg>
