<svg id="Layer_1" data-name="Layer 1" xmlns="http://www.w3.org/2000/svg" viewBox="0 0 199.6 197.21"><defs><style>.cls-1,.cls-2,.cls-7,.cls-9{fill:none;}.cls-1,.cls-9{stroke:#f18254;}.cls-1,.cls-2,.cls-5,.cls-6,.cls-7,.cls-9{stroke-miterlimit:10;}.cls-1,.cls-6{stroke-dasharray:4;}.cls-2,.cls-5{stroke:#231f20;}.cls-3,.cls-4,.cls-5{fill:#231f20;}.cls-4{font-size:14px;}.cls-11,.cls-12,.cls-13,.cls-4{font-family:CMUSerif-Roman, CMU Serif;}.cls-13,.cls-6,.cls-8{fill:#00a5b6;}.cls-6,.cls-7{stroke:#00a5b6;}.cls-10,.cls-11,.cls-12{fill:#f18254;}.cls-11,.cls-12,.cls-13{font-size:16px;}.cls-12{letter-spacing:0em;}.cls-14{letter-spacing:0em;}</style></defs><line class="cls-1" x1="147.98" y1="131.38" x2="142.11" y2="102.02"/><line class="cls-2" x1="23.61" y1="171.82" x2="23.61" y2="2.98"/><polygon class="cls-3" points="25.46 4.39 23.61 3.6 21.76 4.39 23.61 0 25.46 4.39"/><line class="cls-2" x1="23.7" y1="171.91" x2="192.54" y2="171.91"/><polygon class="cls-3" points="191.13 173.76 191.92 171.91 191.13 170.06 195.52 171.91 191.13 173.76"/><text class="cls-4" transform="translate(106.32 187.29)">V</text><text class="cls-4" transform="translate(116.82 191.96) scale(0.58)">2</text><text class="cls-4" transform="translate(11.33 92.6) rotate(-90)">V</text><text class="cls-4" transform="translate(15.99 82.1) rotate(-90) scale(0.58)">4</text><line class="cls-5" x1="74.1" y1="157.05" x2="66.04" y2="120.35"/><line class="cls-5" x1="30.34" y1="107.52" x2="67.03" y2="119.72"/><line class="cls-5" x1="66.46" y1="119.45" x2="78.11" y2="107.8"/><line class="cls-5" x1="78.11" y1="108.25" x2="66.46" y2="50"/><line class="cls-5" x1="78.11" y1="107.8" x2="148.02" y2="131.1"/><line class="cls-5" x1="66.46" y1="49.97" x2="78.11" y2="38.32"/><line class="cls-5" x1="148.87" y1="131.18" x2="160.52" y2="119.53"/><line class="cls-5" x1="27.87" y1="36.91" x2="64.56" y2="49.07"/><line class="cls-5" x1="78.11" y1="38.8" x2="148.02" y2="62.1"/><line class="cls-5" x1="77.41" y1="38.32" x2="70.07" y2="1.63"/><line class="cls-5" x1="160.52" y1="120.36" x2="148.87" y2="62.1"/><line class="cls-5" x1="148.87" y1="62.04" x2="160.52" y2="50.39"/><line class="cls-5" x1="161.52" y1="51.36" x2="154.18" y2="14.66"/><line class="cls-5" x1="162.75" y1="50.95" x2="199.45" y2="62.97"/><line class="cls-5" x1="161.39" y1="119.34" x2="198.08" y2="131.36"/><line class="cls-5" x1="155.94" y1="168.07" x2="148.83" y2="131.38"/><path class="cls-5" d="M80.24,107.8a2.13,2.13,0,1,1-2.13-2.13A2.12,2.12,0,0,1,80.24,107.8Z"/><path class="cls-5" d="M80.24,38.32a2.13,2.13,0,1,1-2.13-2.12A2.13,2.13,0,0,1,80.24,38.32Z"/><path class="cls-5" d="M163.11,50.45A2.13,2.13,0,1,1,161,48.32,2.13,2.13,0,0,1,163.11,50.45Z"/><path class="cls-5" d="M163.11,119.45a2.13,2.13,0,1,1-2.13-2.13A2.13,2.13,0,0,1,163.11,119.45Z"/><path class="cls-5" d="M68.59,119.45a2.13,2.13,0,1,1-2.13-2.13A2.12,2.12,0,0,1,68.59,119.45Z"/><path class="cls-5" d="M150.15,131.1A2.13,2.13,0,1,1,148,129,2.14,2.14,0,0,1,150.15,131.1Z"/><path class="cls-5" d="M150.15,62.1A2.13,2.13,0,1,1,148,60,2.13,2.13,0,0,1,150.15,62.1Z"/><path class="cls-5" d="M68.59,49.61a2.13,2.13,0,1,1-2.13-2.12A2.13,2.13,0,0,1,68.59,49.61Z"/><line class="cls-6" x1="68.45" y1="50.45" x2="97.91" y2="59.03"/><line class="cls-7" x1="113.29" y1="116.54" x2="113.08" y2="55.35"/><polygon class="cls-8" points="115.14 115.13 113.29 115.92 111.43 115.14 113.3 119.53 115.14 115.13"/><polygon class="cls-8" points="114.93 56.75 113.08 55.97 111.23 56.76 113.07 52.37 114.93 56.75"/><line class="cls-9" x1="75.27" y1="79.12" x2="151.31" y2="79.12"/><polygon class="cls-10" points="76.68 80.97 75.89 79.12 76.68 77.27 72.29 79.12 76.68 80.97"/><polygon class="cls-10" points="149.91 80.97 150.69 79.12 149.91 77.27 154.3 79.12 149.91 80.97"/><line class="cls-7" x1="90.71" y1="45.98" x2="90.77" y2="53.97"/><polygon class="cls-8" points="88.87 47.39 90.71 46.59 92.57 47.37 90.69 42.99 88.87 47.39"/><polygon class="cls-8" points="88.91 52.58 90.76 53.35 92.61 52.55 90.79 56.96 88.91 52.58"/><line class="cls-9" x1="148.03" y1="110.55" x2="156.74" y2="110.55"/><polygon class="cls-10" points="149.44 112.4 148.65 110.55 149.44 108.7 145.04 110.55 149.44 112.4"/><polygon class="cls-10" points="155.34 112.4 156.12 110.55 155.34 108.7 159.72 110.55 155.34 112.4"/><text class="cls-11" transform="translate(121.08 72.04)">∆</text><text class="cls-12" transform="translate(134.41 77.37) scale(0.58)">A2</text><text class="cls-13" transform="translate(87.85 107.04)">∆</text><text class="cls-13" transform="translate(101.18 112.37) scale(0.58)">B4</text><text class="cls-11" transform="translate(158.42 110.55)">∆</text><text class="cls-11" transform="translate(171.74 105.22) scale(0.58)"><tspan class="cls-14">m</tspan><tspan x="13.33" y="18.28">AB2</tspan></text><text class="cls-13" transform="translate(78.23 36.01)">∆</text><text class="cls-13" transform="translate(91.55 30.69) scale(0.58)"><tspan class="cls-14">m</tspan><tspan x="13.33" y="18.28">BA4</tspan></text></svg>
