<svg id="Layer_1" data-name="Layer 1" xmlns="http://www.w3.org/2000/svg" viewBox="0 0 226.77 226.77"><defs><style>.cls-1,.cls-3{fill:none;stroke:#231f20;stroke-miterlimit:10;}.cls-1{stroke-width:2px;}.cls-2,.cls-4,.cls-6,.cls-7{fill:#231f20;}.cls-4{font-size:19px;}.cls-4,.cls-6,.cls-8{font-family:CMUSerif-Roman, CMU Serif;}.cls-5{font-size:14px;fill:#00a5b6;font-family:AGaramondPro-Regular, Adobe Garamond Pro;}.cls-6,.cls-7{font-size:16px;}.cls-7{font-family:AmericanTypewriter, American Typewriter;}</style></defs><line class="cls-1" x1="36.89" y1="191.9" x2="36.89" y2="26.04"/><polygon class="cls-2" points="40.59 28.85 36.89 27.28 33.18 28.85 36.89 20.07 40.59 28.85"/><line class="cls-1" x1="36.84" y1="191.9" x2="202.7" y2="191.9"/><polygon class="cls-2" points="199.89 195.6 201.47 191.9 199.89 188.2 208.67 191.9 199.89 195.6"/><line class="cls-3" x1="81.89" y1="192.05" x2="81.89" y2="41.28"/><line class="cls-3" x1="126.89" y1="192.05" x2="126.89" y2="41.28"/><line class="cls-3" x1="171.89" y1="192.05" x2="171.89" y2="41.28"/><line class="cls-3" x1="36.89" y1="147.05" x2="190.78" y2="147.05"/><line class="cls-3" x1="36.89" y1="102.05" x2="190.78" y2="102.05"/><line class="cls-3" x1="36.89" y1="57.05" x2="190.78" y2="57.05"/><text class="cls-4" transform="translate(116.99 210.9)">V</text><text class="cls-4" transform="translate(131.24 217.23) scale(0.58)">2</text><text class="cls-4" transform="translate(23.07 115.35) rotate(-90)">V</text><text class="cls-4" transform="translate(29.4 101.1) rotate(-90) scale(0.58)">4</text><text class="cls-5" transform="translate(43.71 174.05)">(0, 0)</text><text class="cls-5" transform="translate(88.91 174.05)">(1, 0)</text><text class="cls-5" transform="translate(133.71 174.05)">(2, 0)</text><text class="cls-5" transform="translate(133.71 130.32)">(2, 1)</text><text class="cls-5" transform="translate(88.91 130.32)">(1, 1)</text><text class="cls-5" transform="translate(42.71 130.32)">(0, 1)</text><text class="cls-5" transform="translate(133.71 86.05)">(2, 2)</text><text class="cls-5" transform="translate(88.91 86.05)">(1, 2)</text><text class="cls-5" transform="translate(43.71 86.05)">(0, 2)</text><text class="cls-6" transform="translate(27.06 12.39)">C</text><text class="cls-6" transform="translate(38.61 17.72) scale(0.58)">m</text><text class="cls-7" transform="translate(46.38 12.39)">–&gt;<tspan class="cls-8" x="16" y="0" xml:space="preserve"> 0  C</tspan></text><text class="cls-6" transform="translate(97.92 17.72) scale(0.58)">A4</text><text class="cls-7" transform="translate(109.58 12.39)">–&gt;<tspan class="cls-8" x="16" y="0" xml:space="preserve"> 0  C</tspan></text><text class="cls-6" transform="translate(161.12 17.72) scale(0.58)">B2</text><text class="cls-7" transform="translate(172.38 12.39)">–&gt;<tspan class="cls-8" x="16" y="0" xml:space="preserve"> 0</tspan></text></svg>
